<svg width="1879" height="533" viewBox="0 0 1879 533" fill="none" xmlns="http://www.w3.org/2000/svg">
<path d="M1261 213.75L1356 161L1451 213.75V318.828L1356 372L1261 318.828V213.75Z" fill="#F9F9F9"/>
<path d="M1649 213.75L1744 161L1839 213.75V318.828L1744 372L1649 318.828V213.75Z" fill="#F9F9F9"/>
<path d="M388 52.75L483 0L578 52.75V157.828L483 211L388 157.828V52.75Z" fill="#F9F9F9"/>
<path d="M194 52.75L289 0L384 52.75V157.828L289 211L194 157.828V52.75Z" fill="#F9F9F9"/>
<path d="M194 374.75L289 322L384 374.75V479.828L289 533L194 479.828V374.75Z" fill="#F9F9F9"/>
<path d="M0 374.75L95 322L190 374.75V479.828L95 533L0 479.828V374.75Z" fill="#F9F9F9"/>
<path d="M291 213.75L386 161L481 213.75V318.828L386 372L291 318.828V213.75Z" fill="#F9F9F9"/>
<path d="M1358 52.75L1453 0L1548 52.75V157.828L1453 211L1358 157.828V52.75Z" fill="#F9F9F9"/>
<path d="M1552 52.75L1647 0L1742 52.75V157.828L1647 211L1552 157.828V52.75Z" fill="#F9F9F9"/>
<path d="M1358 374.75L1453 322L1548 374.75V479.828L1453 533L1358 479.828V374.75Z" fill="#F9F9F9"/>
<path d="M1552 374.75L1647 322L1742 374.75V479.828L1647 533L1552 479.828V374.75Z" fill="#F9F9F9"/>
<path d="M1746 374.75L1841 322L1936 374.75V479.828L1841 533L1746 479.828V374.75Z" fill="#F9F9F9"/>
</svg>
