<svg width="1920" height="971" viewBox="0 0 1920 971" fill="none" xmlns="http://www.w3.org/2000/svg">
<path fill-rule="evenodd" clip-rule="evenodd" d="M622 59.221L715 -6.10352e-05L814.5 59.221L912.5 -6.10352e-05L1009.5 59.221L1105.5 -6.10352e-05L1204.5 59.221L1300 -1.5L1416 59.221H1920V970H1317.67L1204.25 909.758L1105.15 968.955L1009.05 909.758L911.95 968.955L813.848 909.758L714.244 968.955L621.147 909.758L514.199 970H0L0 59.221H406.5L517.016 -6.10352e-05L622 59.221Z" fill="#FCF9FF"/>
<path d="M-2 970H514.134L620.662 910L713.686 968.983L813.712 910L911.238 968.983L1008.26 910L1105.79 968.983L1203.81 910L1317.84 970H1920" stroke="#8867A3" stroke-dasharray="10 10"/>
<path d="M-22.5 58H407L517.516 0L622.5 58L715.5 0L815 58L913 0L1010 58L1106 0L1205 58L1300 0L1416.5 58H1968" stroke="#8867A3" stroke-dasharray="10 10"/>
</svg>
