<svg width="1366" height="1106" viewBox="0 0 1366 1106" fill="none" xmlns="http://www.w3.org/2000/svg">
<path fill-rule="evenodd" clip-rule="evenodd" d="M345.162 66L438.185 0.469238L537.71 66L635.735 0.469238L732.759 66L828.783 0.469238L927.808 66L1039.17 0.469238L1139.36 66H1643V1105H1039.78L927.261 1039L828.165 1104.37L732.072 1039L634.978 1104.37L536.883 1039L437.287 1104.37L344.197 1039L238.096 1105H-277V66H129.608L240.152 0.469238L345.162 66Z" fill="#FCF9FF"/>
<path d="M-278.5 1105H237.5L344 1037L437 1103.85L537 1037L634.5 1103.85L731.5 1037L829 1103.85L927 1037L1041 1105H1643" stroke="#8867A3" stroke-dasharray="10 10"/>
<path d="M-301 66H128.608L239.152 0L344.162 66L437.185 0L536.71 66L634.735 0L731.759 66L827.783 0L926.808 66L1038.17 0L1138.36 66H1690" stroke="#8867A3" stroke-dasharray="10 10"/>
</svg>
