<svg width="17" height="12" viewBox="0 0 17 12" fill="none" xmlns="http://www.w3.org/2000/svg">
<path d="M11.1089 6.3074L7.08272 8.26288C6.92531 8.34724 6.38892 8.23518 6.38892 8.05869V4.04286C6.38892 3.86441 6.92961 3.75245 7.08741 3.84143L10.9413 5.90081C11.103 5.99096 11.2721 6.21999 11.1089 6.3074ZM16.3889 3.94808C16.3889 2.04407 14.8167 0.5 12.8776 0.5H3.89991C1.96081 0.5 0.388916 2.04407 0.388916 3.94808V8.05103C0.388916 9.95583 1.96081 11.5 3.89991 11.5H12.8776C14.8167 11.5 16.3889 9.95583 16.3889 8.05103V3.94808Z" fill="url(#paint0_linear)"/>
<defs>
<linearGradient id="paint0_linear" x1="16.3889" y1="11.5" x2="-1.14378" y2="7.83787" gradientUnits="userSpaceOnUse">
<stop stop-color="#EF2F36"/>
<stop offset="1" stop-color="#90191E"/>
</linearGradient>
</defs>
</svg>
