<svg width="1879" height="533" fill="none" xmlns="http://www.w3.org/2000/svg"><path d="M1261 213.75l95-52.75 95 52.75v105.078L1356 372l-95-53.172V213.75zm388 0l95-52.75 95 52.75v105.078L1744 372l-95-53.172V213.75zm-1261-161L483 0l95 52.75v105.078L483 211l-95-53.172V52.75zm-194 0L289 0l95 52.75v105.078L289 211l-95-53.172V52.75zm0 322L289 322l95 52.75v105.078L289 533l-95-53.172V374.75zm-194 0L95 322l95 52.75v105.078L95 533 0 479.828V374.75zm291-161L386 161l95 52.75v105.078L386 372l-95-53.172V213.75zm1067-161L1453 0l95 52.75v105.078L1453 211l-95-53.172V52.75zm194 0L1647 0l95 52.75v105.078L1647 211l-95-53.172V52.75zm-194 322l95-52.75 95 52.75v105.078L1453 533l-95-53.172V374.75zm194 0l95-52.75 95 52.75v105.078L1647 533l-95-53.172V374.75zm194 0l95-52.75 95 52.75v105.078L1841 533l-95-53.172V374.75z" fill="#F9F9F9"/></svg>