<svg width="1920" height="971" fill="none" xmlns="http://www.w3.org/2000/svg"><path fill-rule="evenodd" clip-rule="evenodd" d="M622 59.221L715 0l99.5 59.221L912.5 0l97 59.221L1105.5 0l99 59.221L1300-1.5l116 60.721h504V970h-602.33l-113.42-60.242-99.1 59.197-96.1-59.197-97.1 59.197-98.102-59.197-99.604 59.197-93.097-59.197L514.199 970H0V59.221h406.5L517.016 0 622 59.22z" fill="#FCF9FF"/><path d="M-2 970h516.134l106.528-60 93.024 58.983L813.712 910l97.526 58.983L1008.26 910l97.53 58.983L1203.81 910l114.03 60H1920M-22.5 58H407L517.516 0 622.5 58l93-58L815 58l98-58 97 58 96-58 99 58 95-58 116.5 58H1968" stroke="#8867A3" stroke-dasharray="10 10"/></svg>