<svg width="1366" height="1106" fill="none" xmlns="http://www.w3.org/2000/svg"><path fill-rule="evenodd" clip-rule="evenodd" d="M345.162 66L438.185.47 537.71 66 635.735.47 732.759 66 828.783.47 927.808 66 1039.17.47 1139.36 66H1643v1039h-603.22l-112.519-66-99.096 65.37-96.093-65.37-97.094 65.37-98.095-65.37-99.596 65.37-93.09-65.37-106.101 66H-277V66h406.608L240.152.47 345.162 66z" fill="#FCF9FF"/><path d="M-278.5 1105h516l106.5-68 93 66.85L537 1037l97.5 66.85 97-66.85 97.5 66.85 98-66.85 114 68h602M-301 66h429.608L239.152 0l105.01 66 93.023-66 99.525 66 98.025-66 97.024 66 96.024-66 99.025 66L1038.17 0l100.19 66H1690" stroke="#8867A3" stroke-dasharray="10 10"/></svg>