<svg width="17" height="12" fill="none" xmlns="http://www.w3.org/2000/svg"><path d="M11.109 6.307L7.083 8.263c-.158.084-.694-.028-.694-.204V4.043c0-.179.54-.29.698-.202l3.854 2.06c.162.09.331.319.168.406zm5.28-2.359C16.389 2.044 14.817.5 12.878.5H3.9C1.96.5.389 2.044.389 3.948v4.103c0 1.905 1.572 3.449 3.51 3.449h8.979c1.939 0 3.51-1.544 3.51-3.449V3.948z" fill="url(#paint0_linear)"/><defs><linearGradient id="paint0_linear" x1="16.389" y1="11.5" x2="-1.144" y2="7.838" gradientUnits="userSpaceOnUse"><stop stop-color="#EF2F36"/><stop offset="1" stop-color="#90191E"/></linearGradient></defs></svg>