<svg width="166" height="61" fill="none" xmlns="http://www.w3.org/2000/svg"><path d="M80.274 44.24v-.5.5zM.569 54.747a.5.5 0 00.177.685l3.876 2.286a.5.5 0 00.508-.861l-3.445-2.033 2.032-3.445a.5.5 0 10-.861-.508L.569 54.746zM1 55l.125.484h.002l.007-.002.03-.008a132.025 132.025 0 012.36-.58l-.233-.973a208.11 208.11 0 00-2.375.584l-.03.008-.008.002H.876L1 55zm7.415-1.238c1.445-.323 3.08-.68 4.883-1.06l-.207-.978c-1.806.38-3.445.738-4.894 1.062l.218.976zm9.793-2.063a433.95 433.95 0 014.914-.945l-.184-.983c-1.719.32-3.364.637-4.925.947l.195.98zm9.838-1.834a435.79 435.79 0 014.943-.832l-.16-.987c-1.697.275-3.35.554-4.955.834l.172.985zm9.886-1.602c1.623-.243 3.276-.48 4.955-.709l-.135-.99c-1.683.229-3.34.466-4.968.71l.148.989zm9.92-1.351c1.64-.2 3.299-.392 4.972-.572l-.107-.994c-1.678.18-3.342.372-4.987.573l.121.993zm9.95-1.068a294.46 294.46 0 014.988-.415l-.074-.997c-1.676.125-3.346.264-5.005.416l.091.996zm9.979-.74c1.665-.093 3.331-.17 4.996-.228l-.035-1c-1.672.06-3.345.136-5.017.23l.056.998zm9.995-.348c.835-.01 1.667-.015 2.498-.015v-1c-.835 0-1.672.005-2.51.015l.013 1zm2.498-.015c.808 0 1.621-.02 2.438-.06l-.048-.998c-.8.038-1.598.058-2.39.058v1zm7.308-.504a67.479 67.479 0 004.803-.822l-.204-.979c-1.585.33-3.164.601-4.731.81l.132.991zm9.54-1.964a91.195 91.195 0 004.665-1.412l-.315-.95c-1.538.51-3.077.978-4.613 1.398l.264.964zm9.247-3.053a120.063 120.063 0 004.502-1.836l-.396-.919a118.09 118.09 0 01-4.465 1.822l.359.933zm8.931-3.844a150.224 150.224 0 004.355-2.156l-.457-.889a152.44 152.44 0 01-4.327 2.142l.429.903zm8.641-4.442a186.663 186.663 0 004.223-2.406l-.506-.863a184.34 184.34 0 01-4.201 2.393l.484.875zm8.382-4.917a214.608 214.608 0 004.095-2.603l-.546-.838a214.28 214.28 0 01-4.076 2.591l.527.85zm8.134-5.294a241.89 241.89 0 003.99-2.779l-.579-.815a246.75 246.75 0 01-3.974 2.767l.563.826zm7.905-5.618a260.93 260.93 0 003.892-2.935l-.61-.793c-1.224.941-2.518 1.92-3.876 2.924l.594.804zm7.713-5.929a252.918 252.918 0 003.767-3.069l-.639-.769a243.907 243.907 0 01-3.753 3.057l.625.781zm7.467-6.214a135.79 135.79 0 001.678-1.486l.088-.08.022-.02.006-.005.001-.002h.001L165 1l-.338-.369-.001.002c-.002 0-.003.002-.006.005a.305.305 0 01-.021.019l-.085.078-.34.305c-.299.268-.744.663-1.324 1.168l.657.754zM80.274 44.24v-1 1zM.139 54.49a1 1 0 00.353 1.37l7.751 4.573a1 1 0 001.017-1.722l-6.89-4.065 4.064-6.89a1 1 0 00-1.722-1.017L.139 54.492zM1 55l.25.968h.002a.676.676 0 01.007-.002l.028-.007.116-.03.457-.115c.404-.1 1.003-.248 1.78-.434l-.466-1.945a212.2 212.2 0 00-2.263.556l-.12.03a4.885 4.885 0 00-.03.008l-.008.002H.751L1 55zm7.524-.75a398.94 398.94 0 014.877-1.058l-.413-1.957c-1.808.38-3.45.739-4.9 1.063l.436 1.952zm9.781-2.06c1.556-.31 3.195-.625 4.908-.945l-.366-1.966c-1.721.32-3.368.638-4.931.948l.39 1.962zm9.827-1.832c1.599-.28 3.247-.557 4.937-.831l-.32-1.974c-1.699.275-3.354.554-4.96.835l.343 1.97zm9.874-1.6c1.62-.243 3.272-.48 4.949-.709l-.27-1.981c-1.686.23-3.346.468-4.975.711l.296 1.978zm9.906-1.35c1.638-.2 3.294-.391 4.965-.57l-.214-1.99c-1.68.181-3.347.373-4.994.575l.243 1.985zm9.936-1.066c1.651-.151 3.312-.29 4.979-.414l-.148-1.995c-1.679.125-3.351.265-5.014.417l.183 1.992zm9.96-.739c1.662-.093 3.326-.169 4.986-.227l-.07-2c-1.675.06-3.352.137-5.027.23l.112 1.997zm9.975-.347c.832-.01 1.662-.015 2.49-.015v-2c-.836 0-1.675.005-2.515.015l.025 2zm2.49-.015c.818 0 1.639-.02 2.463-.06l-.095-1.997a49.88 49.88 0 01-2.367.057v2zm7.375-.508a67.918 67.918 0 004.838-.828l-.406-1.959a65.906 65.906 0 01-4.696.804l.264 1.983zm9.606-1.977a91.646 91.646 0 004.69-1.42l-.629-1.899c-1.53.508-3.06.972-4.588 1.39l.527 1.929zm9.294-3.069a119.867 119.867 0 004.521-1.844l-.792-1.837a117.768 117.768 0 01-4.446 1.814l.717 1.867zm8.966-3.86c1.469-.697 2.927-1.42 4.37-2.162l-.915-1.779a149.086 149.086 0 01-4.313 2.135l.858 1.807zm8.668-4.456a183.04 183.04 0 004.235-2.412l-1.012-1.725a183.93 183.93 0 01-4.189 2.386l.966 1.751zm8.405-4.929a216.05 216.05 0 004.104-2.609l-1.092-1.675a215.922 215.922 0 01-4.066 2.584l1.054 1.7zm8.152-5.306a247.828 247.828 0 003.998-2.784l-1.159-1.63c-1.28.91-2.603 1.833-3.966 2.761l1.127 1.653zm7.921-5.63a263.209 263.209 0 003.899-2.94l-1.219-1.585a264.663 264.663 0 01-3.87 2.918l1.19 1.608zm7.727-5.94a255.35 255.35 0 003.775-3.074l-1.279-1.538a246.414 246.414 0 01-3.745 3.05l1.249 1.563zm7.484-6.227a152.101 152.101 0 001.685-1.493l.088-.08.023-.021a.04.04 0 00.006-.006l.002-.001h.001L165 1l-.676-.737-.001.001-.005.005a139.289 139.289 0 01-1.761 1.562l1.314 1.508z" fill="url(#paint0_linear)"/><defs><linearGradient id="paint0_linear" x1="1" y1="55" x2="165" y2="1" gradientUnits="userSpaceOnUse"><stop stop-color="#FC3698"/><stop offset=".826" stop-color="#FC3698" stop-opacity=".5"/><stop offset="1" stop-color="#FC3698" stop-opacity="0"/></linearGradient></defs></svg>