<svg width="166" height="72" fill="none" xmlns="http://www.w3.org/2000/svg"><path d="M88.594 20.582l.194-.46-.194.46zM.607 8.564a.5.5 0 00.085.702l3.54 2.776a.5.5 0 10.618-.787L1.702 8.787 4.17 5.64a.5.5 0 00-.787-.617L.607 8.564zM1 8.872l.06.497h.002l.007-.001a16.197 16.197 0 01.146-.017 100.681 100.681 0 012.268-.22l-.085-.997a101.675 101.675 0 00-2.455.241H.94l.06.497zm7.417-.082c1.464-.08 3.12-.151 4.95-.204l-.03-1c-1.837.054-3.502.126-4.974.206l.054.998zm9.893-.287c1.569-.008 3.223 0 4.953.03l.017-1c-1.738-.03-3.4-.038-4.976-.03l.006 1zm9.883.172c1.6.064 3.25.148 4.945.254l.062-.998c-1.702-.107-3.36-.19-4.967-.255l-.04 1zm9.872.621c1.613.14 3.258.3 4.93.485l.109-.994a206.37 206.37 0 00-4.953-.487l-.086.996zm9.83 1.087c1.611.218 3.243.46 4.892.726l.16-.987a193.251 193.251 0 00-4.919-.73l-.134.99zm9.765 1.582c1.602.303 3.216.632 4.838.987l.214-.977a176.636 176.636 0 00-4.866-.993l-.186.983zm9.65 2.114c1.587.397 3.18.82 4.775 1.272l.273-.962a159.746 159.746 0 00-4.806-1.28l-.243.97zm9.508 2.697c1.561.498 3.12 1.025 4.677 1.581l.337-.941a145.746 145.746 0 00-4.71-1.593l-.303.953zm9.295 3.328c.764.305 1.526.618 2.286.939l.389-.922c-.766-.323-1.535-.638-2.304-.946l-.371.929zm2.286.939c.768.323 1.542.66 2.32 1.008l.409-.913c-.785-.351-1.566-.69-2.34-1.017l-.389.922zm6.925 3.167a176.42 176.42 0 014.53 2.307l.467-.884a175.14 175.14 0 00-4.557-2.32l-.44.897zm9.008 4.74c1.468.822 2.94 1.666 4.412 2.53l.506-.861a241.593 241.593 0 00-4.43-2.541l-.488.873zm8.78 5.15a313.75 313.75 0 014.322 2.695l.536-.844a317.732 317.732 0 00-4.336-2.703l-.522.852zm8.604 5.457a389.12 389.12 0 014.244 2.821l.559-.83a384.452 384.452 0 00-4.255-2.827l-.548.837zm8.448 5.692c1.417.98 2.812 1.957 4.181 2.927l.578-.816a460.75 460.75 0 00-4.19-2.933l-.569.822zm8.32 5.89a519.248 519.248 0 014.12 3.014l.594-.804a505.864 505.864 0 00-4.128-3.02l-.586.81zm8.194 6.055a551.711 551.711 0 014.068 3.095l.609-.793a558.983 558.983 0 00-4.075-3.1l-.602.798zm8.099 6.221a525.643 525.643 0 013.989 3.155l.625-.78a537.482 537.482 0 00-3.998-3.162l-.616.787zm7.943 6.35a229.585 229.585 0 011.832 1.512l.095.08a.38.38 0 00.03.024l.001.001L165 71l.322-.383h-.001l-.002-.002a8.86 8.86 0 01-.126-.106l-.378-.314c-.333-.276-.824-.682-1.461-1.203l-.634.773zM88.594 20.583l.388-.921-.388.921zM.213 8.255a1 1 0 00.17 1.404l7.083 5.553A1 1 0 008.7 13.638L2.404 8.702 7.34 2.406a1 1 0 00-1.574-1.234L.213 8.255zM1 8.872l.12.993h.002a1.768 1.768 0 01.034-.004 29.013 29.013 0 01.574-.063c.406-.042 1.01-.102 1.796-.17l-.171-1.992a102.287 102.287 0 00-2.463.242l-.009.001H.881a.013.013 0 00-.001 0l.12.993zm7.444.417c1.46-.079 3.112-.15 4.936-.203l-.057-1.999c-1.842.053-3.511.125-4.987.205l.108 1.997zm9.868-.286c1.566-.008 3.216 0 4.942.03l.035-2a219.4 219.4 0 00-4.987-.03l.01 2zm9.86.172c1.598.064 3.244.147 4.934.253l.126-1.996a218.665 218.665 0 00-4.98-.256l-.08 1.999zm9.85.62c1.61.138 3.25.298 4.917.483l.22-1.988c-1.684-.186-3.34-.348-4.965-.488l-.172 1.992zm9.805 1.083c1.608.218 3.236.459 4.88.725l.32-1.974a193.643 193.643 0 00-4.931-.733l-.269 1.982zm9.74 1.578c1.598.303 3.207.63 4.824.984l.428-1.953c-1.637-.358-3.264-.69-4.88-.996l-.372 1.965zm9.621 2.108c1.583.396 3.171.818 4.761 1.268l.545-1.924c-1.61-.456-3.218-.884-4.82-1.284l-.486 1.94zm9.478 2.688a142.11 142.11 0 014.66 1.576L82 16.945a144.14 144.14 0 00-4.725-1.598l-.609 1.905zm9.261 3.316c.761.304 1.52.616 2.278.935l.777-1.842c-.77-.325-1.54-.641-2.313-.95l-.742 1.857zm2.278.935c.764.323 1.535.658 2.31 1.004l.817-1.826c-.788-.352-1.572-.692-2.35-1.02l-.777 1.842zm6.898 3.156c1.494.733 3.001 1.501 4.518 2.3l.933-1.768a175.32 175.32 0 00-4.57-2.327l-.88 1.795zm8.985 4.728a243.19 243.19 0 014.403 2.525l1.013-1.725a243.82 243.82 0 00-4.44-2.545l-.976 1.745zm8.763 5.14a316.87 316.87 0 014.315 2.69l1.072-1.688a319.737 319.737 0 00-4.343-2.708l-1.044 1.706zm8.591 5.449c1.426.934 2.84 1.874 4.238 2.817l1.118-1.659a386.79 386.79 0 00-4.26-2.831l-1.096 1.673zm8.438 5.685c1.415.978 2.809 1.954 4.176 2.923l1.156-1.632a463.615 463.615 0 00-4.194-2.936l-1.138 1.645zm8.311 5.884a531.876 531.876 0 014.116 3.01l1.188-1.608a524.365 524.365 0 00-4.131-3.022l-1.173 1.62zm8.186 6.048c1.42 1.07 2.777 2.104 4.064 3.092l1.219-1.586a563.127 563.127 0 00-4.079-3.103l-1.204 1.597zm8.091 6.216a525.892 525.892 0 013.986 3.152l1.249-1.563a518.796 518.796 0 00-4.002-3.164l-1.233 1.575zm7.936 6.344c.634.519 1.123.923 1.453 1.197l.374.31.095.08.023.02a.06.06 0 01.006.004l.001.001h.001L165 71l.643-.766-.002-.002a.026.026 0 01-.006-.005l-.025-.02-.097-.081a278.327 278.327 0 00-1.843-1.52l-1.266 1.546z" fill="url(#paint0_linear)"/><defs><linearGradient id="paint0_linear" x1="1" y1="8" x2="165" y2="71" gradientUnits="userSpaceOnUse"><stop stop-color="#FC3698"/><stop offset=".826" stop-color="#FC3698" stop-opacity=".5"/><stop offset="1" stop-color="#FC3698" stop-opacity="0"/></linearGradient></defs></svg>