<svg width="166" height="145" fill="none" xmlns="http://www.w3.org/2000/svg"><path d="M103.156 102.968l.33.376-.33-.376zM.662 136.589a.5.5 0 00-.03.706l3.038 3.319a.5.5 0 00.738-.675l-2.702-2.951 2.95-2.701a.5.5 0 10-.675-.737l-3.319 3.039zm.338.368l-.022.5H.99l.032.002.123.004a87.426 87.426 0 002.334.037l.002-1a84.92 84.92 0 01-1.831-.023l-.47-.013-.119-.005-.029-.001h-.009l-.022.499zm7.495.455c1.487-.052 3.169-.132 5.022-.253l-.065-.998c-1.843.12-3.514.2-4.992.252l.035.999zm10.003-.649c1.58-.147 3.244-.323 4.982-.532l-.12-.993a188.49 188.49 0 01-4.955.53l.093.995zm9.957-1.199c1.603-.237 3.255-.502 4.95-.799l-.173-.985a188.18 188.18 0 01-4.924.795l.147.989zm9.868-1.73c1.605-.326 3.24-.681 4.901-1.068l-.226-.974c-1.651.385-3.278.738-4.874 1.063l.199.979zm9.775-2.275c1.593-.419 3.204-.868 4.83-1.347l-.283-.96c-1.616.477-3.218.923-4.801 1.34l.254.967zm9.612-2.839a157.97 157.97 0 004.737-1.64l-.342-.94a157.554 157.554 0 01-4.707 1.631l.312.949zm9.42-3.435a145.33 145.33 0 004.62-1.952l-.405-.914c-1.53.678-3.06 1.324-4.589 1.938l.374.928zm9.17-4.065a134.723 134.723 0 004.47-2.279l-.47-.882c-1.475.786-2.955 1.54-4.438 2.261l.438.9zm8.851-4.726a125.14 125.14 0 004.282-2.618l-.54-.843c-1.406.9-2.822 1.765-4.246 2.598l.504.863zm8.453-5.409a116.99 116.99 0 004.05-2.964l-.607-.794a117.56 117.56 0 01-4.016 2.939l.573.819zm7.969-6.102c.642-.537 1.279-1.084 1.913-1.639l-.659-.752c-.628.55-1.26 1.092-1.896 1.624l.642.767zm1.913-1.639a67.83 67.83 0 001.843-1.68l-.688-.727a64.107 64.107 0 01-1.814 1.655l.659.752zm5.396-5.268a108.496 108.496 0 003.329-3.737l-.761-.649a109.038 109.038 0 01-3.298 3.704l.73.682zm6.506-7.613a170.828 170.828 0 003.048-3.979l-.803-.596a166.747 166.747 0 01-3.03 3.955l.785.62zm5.987-8.038a241.07 241.07 0 002.844-4.125l-.829-.559a237.808 237.808 0 01-2.832 4.107l.817.577zm5.606-8.303a315.297 315.297 0 002.689-4.223l-.848-.53a300.674 300.674 0 01-2.681 4.21l.84.543zm5.313-8.486c.864-1.425 1.72-2.858 2.567-4.297l-.862-.507a382.455 382.455 0 01-2.56 4.286l.855.518zm5.08-8.624a464.771 464.771 0 002.466-4.355l-.873-.488a460.167 460.167 0 01-2.46 4.346l.867.497zm4.886-8.733c.807-1.477 1.6-2.945 2.379-4.401l-.882-.472a542.661 542.661 0 01-2.374 4.393l.877.48zm4.718-8.821c.785-1.499 1.553-2.98 2.301-4.436l-.89-.457a601.871 601.871 0 01-2.297 4.429l.886.464zm4.567-8.89c.772-1.533 1.519-3.03 2.24-4.488l-.896-.443a689.33 689.33 0 01-2.237 4.48l.893.45zm4.446-8.987a726.015 726.015 0 002.162-4.494l-.903-.43c-.68 1.426-1.4 2.925-2.159 4.487l.9.437zm4.306-9.033a622.69 622.69 0 002.098-4.53l-.909-.417a618.498 618.498 0 01-2.095 4.523l.906.424zm4.165-9.094c.325-.729.574-1.292.742-1.673l.19-.434.048-.11.013-.028a.033.033 0 01.003-.008V1.2h.001v-.001L165 1l-.459-.199-.001.002-.003.007a.238.238 0 01-.012.027l-.047.11-.189.431c-.167.38-.416.941-.74 1.668l.913.408zm-61.306 99.514l.66.752-.66-.752zM.325 136.22a1 1 0 00-.063 1.413l6.078 6.637a1 1 0 101.475-1.35l-5.402-5.9 5.9-5.403a1 1 0 00-1.35-1.475L.324 136.22zm.675.737l-.044.999h.001l.003.001h.009l.032.001.126.005a88.637 88.637 0 002.35.037l.005-2a83.842 83.842 0 01-2.286-.036l-.116-.004-.028-.001-.007-.001h-.001l-.044.999zm7.513.955c1.491-.052 3.178-.133 5.037-.254l-.13-1.996c-1.838.12-3.505.2-4.977.251l.07 1.999zm10.031-.651c1.584-.148 3.253-.324 4.995-.534l-.239-1.986c-1.724.208-3.375.383-4.942.529l.186 1.991zm9.984-1.203c1.608-.237 3.264-.503 4.963-.8l-.346-1.97c-1.68.294-3.319.557-4.91.792l.293 1.978zm9.895-1.734c1.61-.327 3.25-.683 4.915-1.071l-.453-1.948c-1.647.383-3.269.736-4.861 1.06l.399 1.959zm9.802-2.282c1.598-.42 3.214-.87 4.844-1.351l-.566-1.918c-1.61.475-3.208.92-4.787 1.335l.51 1.934zm9.642-2.847c1.575-.517 3.16-1.066 4.751-1.646l-.684-1.879a156.456 156.456 0 01-4.692 1.626l.625 1.899zm9.45-3.446a144.23 144.23 0 004.636-1.959l-.81-1.828c-1.525.675-3.05 1.319-4.573 1.932l.746 1.855zm9.202-4.08a133.99 133.99 0 004.487-2.287l-.942-1.764a134.888 134.888 0 01-4.42 2.253l.875 1.798zm8.884-4.743a126.258 126.258 0 004.299-2.629l-1.078-1.685c-1.4.896-2.811 1.758-4.23 2.587l1.01 1.727zm8.488-5.431a120.25 120.25 0 004.068-2.977l-1.216-1.588a115.118 115.118 0 01-3.999 2.926l1.147 1.639zm8.003-6.129c.645-.54 1.285-1.088 1.922-1.646l-1.319-1.504a109.07 109.07 0 01-1.887 1.617l1.284 1.533zm1.922-1.646a65.815 65.815 0 001.856-1.693l-1.375-1.453a64.495 64.495 0 01-1.8 1.642l1.319 1.504zm5.432-5.302a110.256 110.256 0 003.344-3.755l-1.523-1.297a108.23 108.23 0 01-3.282 3.686l1.461 1.366zm6.532-7.644a170.36 170.36 0 003.057-3.991l-1.605-1.194a167.405 167.405 0 01-3.021 3.944l1.569 1.24zm6.003-8.06a233.986 233.986 0 002.85-4.134l-1.658-1.118a235.651 235.651 0 01-2.826 4.098l1.634 1.153zm5.617-8.32a318.904 318.904 0 002.694-4.23l-1.696-1.06a308.507 308.507 0 01-2.676 4.202l1.678 1.088zm5.322-8.499a390.02 390.02 0 002.57-4.302l-1.724-1.015a395.18 395.18 0 01-2.556 4.28l1.71 1.037zm5.086-8.634a447.66 447.66 0 002.468-4.36l-1.745-.976a479.782 479.782 0 01-2.458 4.34l1.735.995zm4.891-8.743a550.923 550.923 0 002.381-4.404l-1.764-.944a538.377 538.377 0 01-2.372 4.39l1.755.958zm4.722-8.828c.786-1.5 1.554-2.982 2.303-4.44l-1.779-.914a642.764 642.764 0 01-2.296 4.426l1.772.928zm4.571-8.898a691.36 691.36 0 002.241-4.49l-1.792-.886a680.413 680.413 0 01-2.235 4.476l1.786.9zm4.448-8.993a628.548 628.548 0 002.164-4.496l-1.805-.861c-.679 1.425-1.4 2.923-2.158 4.484l1.799.873zm4.31-9.039a627.923 627.923 0 002.1-4.534l-1.818-.833a657.559 657.559 0 01-2.093 4.52l1.811.847zm4.168-9.102c.326-.73.575-1.294.744-1.676l.19-.435.049-.11a.564.564 0 01.012-.03l.003-.006.001-.002L165 1l-.917-.398h-.001v.002a.446.446 0 00-.015.034l-.047.109-.189.43c-.167.379-.415.94-.739 1.665l1.826.816z" fill="url(#paint0_linear)"/><defs><linearGradient id="paint0_linear" x1="1" y1="137" x2="165" y2="1" gradientUnits="userSpaceOnUse"><stop stop-color="#FC3698"/><stop offset=".826" stop-color="#FC3698" stop-opacity=".5"/><stop offset="1" stop-color="#FC3698" stop-opacity="0"/></linearGradient></defs></svg>