<svg width="167" height="29" fill="none" xmlns="http://www.w3.org/2000/svg"><path d="M30.526 27.7l.061-.495-.061.496zM112.84 1V.5 1zm52.658 26.727a.5.5 0 01-.525.473l-4.494-.232a.499.499 0 11.052-.999l3.995.207.206-3.995a.5.5 0 01.999.052l-.233 4.494zM165 27.7l-.371.335h-.001l-.001-.002-.004-.005a.492.492 0 01-.021-.022l-.081-.09a66.141 66.141 0 00-1.608-1.662l.707-.707a70.804 70.804 0 011.635 1.691l.086.094.022.024a.039.039 0 01.006.007l.002.001v.001L165 27.7zm-5.705-4.87c-1.11-1-2.376-2.098-3.783-3.252l.634-.773a108.517 108.517 0 013.818 3.281l-.669.743zm-7.704-6.318a100.204 100.204 0 00-4.073-2.883l.557-.83c1.445.97 2.819 1.946 4.114 2.911l-.598.802zm-8.282-5.548a84.197 84.197 0 00-4.349-2.422l.46-.887a85.578 85.578 0 014.401 2.45l-.512.86zM134.471 6.4a67.097 67.097 0 00-4.625-1.823l.331-.943a67.85 67.85 0 014.694 1.85l-.4.916zm-9.374-3.273a52.842 52.842 0 00-4.854-1.022l.159-.987c1.672.27 3.323.62 4.945 1.041l-.25.968zm-9.78-1.558a44.625 44.625 0 00-2.476-.069v-1c.848 0 1.692.024 2.531.07l-.055 1zm-2.476-.069c-.805 0-1.607.025-2.407.074l-.061-.998A40.55 40.55 0 01112.841.5v1zm-7.19.64a51.64 51.64 0 00-4.71 1.055l-.262-.964a52.628 52.628 0 014.8-1.076l.172.986zm-9.324 2.506a83.685 83.685 0 00-4.517 1.758l-.388-.922a84.707 84.707 0 014.571-1.778l.334.942zM87.378 8.39a170.095 170.095 0 00-4.362 2.142l-.453-.891c1.46-.741 2.923-1.463 4.388-2.155l.427.904zm-8.683 4.385c-1.433.757-2.866 1.524-4.302 2.29l-.471-.882c1.435-.766 2.87-1.534 4.306-2.292l.468.884zm-8.613 4.578a264.33 264.33 0 01-4.344 2.235l-.449-.894c1.445-.725 2.888-1.47 4.329-2.227l.464.886zm-8.748 4.365c-1.488.69-2.983 1.349-4.484 1.966l-.38-.925c1.486-.61 2.966-1.264 4.444-1.948l.42.907zm-9.072 3.702a65.482 65.482 0 01-4.7 1.427l-.254-.967a64.485 64.485 0 004.63-1.406l.325.946zm-9.51 2.46c-1.62.269-3.25.456-4.895.55l-.057-.998a45.014 45.014 0 004.788-.538l.164.986zm-9.827.545a40.01 40.01 0 01-2.46-.227l.122-.992c.803.099 1.603.172 2.4.22l-.062.999zm-2.46-.227a59.772 59.772 0 01-2.592-.38l.166-.985c.849.143 1.7.268 2.548.373l-.122.992zm-7.715-1.442a89.581 89.581 0 01-5.037-1.391l.293-.956c1.61.494 3.28.96 4.981 1.376l-.237.971zm-9.988-3.05a117.72 117.72 0 01-4.865-1.885l.382-.924a118.66 118.66 0 004.823 1.87l-.34.94zM3.116 19.72A84.85 84.85 0 01.81 18.598l-.03-.016-.008-.004a.017.017 0 01-.003-.002L1 18.133l.23-.444h.001l.002.001.007.004.028.014.114.059c.1.05.251.127.448.224.393.195.972.477 1.71.822l-.424.906zm27.41 7.982l.122-.993-.122.993zM112.84 1V0v1zm53.158 26.753a1 1 0 01-1.051.947l-8.988-.466a1 1 0 01.104-1.997l7.989.414.413-7.99a1 1 0 011.998.104l-.465 8.988zM165 27.7l-.743.67-.001-.001-.004-.005-.019-.021c-.017-.02-.044-.048-.08-.087a64.764 64.764 0 00-1.594-1.648l1.414-1.415a69.837 69.837 0 011.65 1.706l.088.096c.01.01.017.02.023.025a.033.033 0 00.006.007l.002.002.001.001-.743.67zm-6.04-4.5a107.225 107.225 0 00-3.765-3.235l1.268-1.546a110.21 110.21 0 013.836 3.296l-1.339 1.486zm-7.667-6.287a100.937 100.937 0 00-4.053-2.869l1.114-1.66c1.452.974 2.833 1.956 4.134 2.925l-1.195 1.604zm-8.24-5.52a83.915 83.915 0 00-4.323-2.407l.92-1.775a85.416 85.416 0 014.426 2.465l-1.023 1.718zm-8.783-4.536a66.212 66.212 0 00-4.59-1.809l.662-1.887a68.331 68.331 0 014.729 1.863l-.801 1.833zm-9.299-3.247a52.32 52.32 0 00-4.808-1.012l.318-1.975c1.689.272 3.355.627 4.992 1.051l-.502 1.936zm-9.682-1.543A44.102 44.102 0 00112.841 2V0c.857 0 1.71.024 2.559.071l-.111 1.997zM112.841 2c-.794 0-1.586.025-2.376.073l-.122-1.996A40.96 40.96 0 01112.841 0v2zm-7.105.633a51.193 51.193 0 00-4.664 1.045l-.524-1.93a52.995 52.995 0 014.846-1.085l.342 1.97zm-9.242 2.484a83.178 83.178 0 00-4.49 1.748l-.776-1.844a85.152 85.152 0 014.598-1.789l.668 1.885zm-8.902 3.724c-1.45.685-2.9 1.4-4.35 2.136l-.905-1.783c1.463-.743 2.93-1.467 4.4-2.161l.855 1.808zm-8.663 4.375c-1.432.757-2.864 1.523-4.301 2.29l-.942-1.765c1.435-.766 2.872-1.534 4.309-2.293l.934 1.768zm-8.614 4.578c-1.447.76-2.898 1.51-4.353 2.24l-.897-1.788c1.442-.723 2.88-1.467 4.32-2.223l.93 1.771zm-8.77 4.377a111.297 111.297 0 01-4.505 1.974l-.76-1.85a109.572 109.572 0 004.423-1.939l.841 1.814zm-9.12 3.72a65.944 65.944 0 01-4.737 1.44l-.506-1.936A64.02 64.02 0 0051.775 24l.65 1.892zm-9.591 2.481a46.484 46.484 0 01-4.948.557l-.115-1.997a44.534 44.534 0 004.736-.533l.327 1.973zm-9.94.551a40.556 40.556 0 01-2.49-.23l.244-1.985c.793.098 1.582.17 2.369.219l-.123 1.996zm-2.49-.23a60.107 60.107 0 01-2.614-.382l.332-1.972c.842.141 1.685.266 2.526.37l-.245 1.984zm-7.773-1.452a89.997 89.997 0 01-5.065-1.4l.587-1.911c1.602.491 3.261.955 4.953 1.368l-.475 1.943zm-10.04-3.065a118.216 118.216 0 01-4.885-1.894l.764-1.849a116.25 116.25 0 004.803 1.862l-.681 1.88zm-9.687-4.004a85.54 85.54 0 01-2.322-1.13l-.032-.016-.008-.004-.002-.002H.539L1 18.133l.462-.887h.001l.006.004.028.014.111.057.444.222c.39.194.965.474 1.7.817l-.848 1.812z" fill="url(#paint0_linear)"/><defs><linearGradient id="paint0_linear" x1="165.502" y1="32.007" x2="11.811" y2="63.714" gradientUnits="userSpaceOnUse"><stop stop-color="#FC3698"/><stop offset=".826" stop-color="#FC3698" stop-opacity=".5"/><stop offset="1" stop-color="#FC3698" stop-opacity="0"/></linearGradient></defs></svg>