<svg width="166" height="75" fill="none" xmlns="http://www.w3.org/2000/svg"><path d="M68.047 12.477l-.152-.476.152.476zm97.348-4.308a.5.5 0 01-.089.702l-3.558 2.755a.5.5 0 11-.612-.79l3.163-2.45-2.45-3.162a.5.5 0 11.791-.612l2.755 3.557zm-.395.307l-.063.496h-.002l-.007-.002-.029-.003a50.417 50.417 0 00-.575-.07 208.13 208.13 0 00-1.778-.202l.109-.994a206.61 206.61 0 012.25.259l.118.014.03.004.007.001h.003l-.063.497zm-7.304-.272a378.09 378.09 0 00-4.869-.424l.081-.997c1.799.145 3.434.29 4.881.425l-.093.996zm-9.722-.786a406.5 406.5 0 00-4.872-.304l.057-.998c1.702.096 3.333.198 4.883.304l-.068.998zm-9.743-.55c-1.583-.07-3.211-.132-4.878-.184l.031-1c1.672.053 3.305.116 4.891.186l-.044.999zm-9.747-.307a353.12 353.12 0 00-4.879-.057l.005-1c1.655.008 3.288.027 4.893.057l-.019 1zm-9.76-.045c-1.61.016-3.235.045-4.87.087l-.026-1c1.641-.042 3.271-.07 4.886-.087l.01 1zm-9.741.254c-1.618.07-3.242.154-4.867.255l-.062-.998c1.631-.101 3.262-.186 4.886-.256l.043 1zm-9.728.606c-1.62.134-3.239.285-4.849.456l-.105-.994c1.618-.172 3.243-.324 4.872-.46l.082.998zM89.57 8.407a164.8 164.8 0 00-4.818.71l-.16-.988c1.6-.26 3.217-.497 4.846-.713l.132.991zm-9.606 1.57c-1.608.317-3.191.66-4.745 1.033l-.232-.973c1.567-.375 3.163-.722 4.783-1.042l.194.981zm-9.451 2.273c-.781.226-1.552.46-2.313.703l-.304-.952c.77-.246 1.55-.483 2.338-.711l.278.96zm-2.313.703c-.806.258-1.609.533-2.409.827l-.345-.939c.814-.298 1.63-.579 2.45-.84l.304.952zm-7.128 2.776a75.261 75.261 0 00-4.566 2.287l-.477-.879a76.27 76.27 0 014.626-2.317l.417.909zm-8.986 4.864a98.231 98.231 0 00-4.27 2.82l-.572-.82a99.259 99.259 0 014.314-2.848l.528.848zm-8.4 5.848a125.267 125.267 0 00-3.998 3.206l-.64-.768a126.2 126.2 0 014.029-3.231l.609.793zm-7.87 6.566a154.545 154.545 0 00-3.754 3.494l-.693-.72a155.691 155.691 0 013.778-3.517l.669.743zm-7.393 7.103a184.324 184.324 0 00-3.542 3.722l-.734-.68a185.953 185.953 0 013.561-3.742l.715.7zm-6.975 7.529A212.374 212.374 0 0018.1 51.54l-.767-.641c1.078-1.289 2.2-2.599 3.362-3.921l.75.66zm-6.586 7.866a229.25 229.25 0 00-3.166 4.059l-.796-.606a230.262 230.262 0 013.18-4.077l.782.624zm-6.236 8.18a221.179 221.179 0 00-2.965 4.174l-.822-.569a222.12 222.12 0 012.979-4.194l.808.589zm-5.824 8.42a122.714 122.714 0 00-1.353 2.12l-.016.027-.004.007-.001.001L1 74l-.427-.26v-.001l.002-.002a.553.553 0 00.021-.035 42.934 42.934 0 01.333-.532c.233-.37.58-.915 1.034-1.611l.838.546zm65.246-59.628l-.304-.953.304.953zm97.744-4.614a1 1 0 01-.179 1.403l-7.116 5.51a.999.999 0 11-1.224-1.58l6.325-4.899-4.898-6.325a1 1 0 011.58-1.225l5.511 7.116zm-.791.613l-.126.992h-.002l-.007-.002-.029-.003-.115-.014-.456-.056c-.403-.047-1-.117-1.774-.201l.218-1.988a203.73 203.73 0 012.257.26l.119.014.03.004.008.001h.003l-.126.993zm-7.351.225c-1.44-.135-3.069-.278-4.862-.423l.161-1.994a386.8 386.8 0 014.888.426l-.187 1.991zm-9.709-.784a405.91 405.91 0 00-4.866-.304l.113-1.997c1.704.096 3.338.2 4.89.306l-.137 1.995zm-9.731-.549a389.59 389.59 0 00-4.872-.185l.063-1.999c1.674.053 3.309.116 4.897.186l-.088 1.998zm-9.734-.307c-1.599-.03-3.225-.05-4.872-.057l.009-2c1.658.008 3.293.027 4.9.057l-.037 2zm-9.746-.045c-1.608.016-3.23.045-4.862.087l-.052-2c1.644-.042 3.276-.07 4.894-.087l.02 2zm-9.724.254c-1.616.07-3.237.154-4.859.254l-.123-1.996c1.635-.101 3.268-.186 4.896-.256l.086 1.998zm-9.708.604c-1.618.134-3.232.285-4.838.455l-.21-1.989c1.621-.172 3.25-.324 4.883-.46l.165 1.994zm-9.663 1.029c-1.616.214-3.219.449-4.803.707l-.32-1.974c1.604-.261 3.226-.5 4.86-.716l.263 1.983zm-9.574 1.564a120.92 120.92 0 00-4.725 1.029l-.466-1.945c1.575-.377 3.177-.725 4.803-1.046l.388 1.962zm-9.41 2.263c-.776.225-1.543.458-2.299.7l-.608-1.906a91.474 91.474 0 012.351-.715l.557 1.921zm-2.299.7a58.08 58.08 0 00-2.389.82l-.689-1.878c.82-.301 1.643-.584 2.47-.848l.608 1.906zm-7.072 2.753a74.723 74.723 0 00-4.535 2.273l-.955-1.758a76.685 76.685 0 014.657-2.333l.833 1.818zm-8.93 4.835a97.806 97.806 0 00-4.248 2.805l-1.144-1.64a99.776 99.776 0 014.335-2.863l1.058 1.698zm-8.36 5.82a124.774 124.774 0 00-3.98 3.192l-1.283-1.535a126.692 126.692 0 014.045-3.244l1.218 1.586zm-7.84 6.54a154.44 154.44 0 00-3.742 3.484l-1.386-1.442a156.36 156.36 0 013.79-3.528l1.338 1.487zm-7.37 7.082a184.177 184.177 0 00-3.532 3.712l-1.468-1.359a185.808 185.808 0 013.57-3.752l1.43 1.399zm-6.957 7.509a211.151 211.151 0 00-3.338 3.893L16.95 50.58a213.452 213.452 0 013.37-3.93l1.502 1.32zm-6.57 7.848a229.4 229.4 0 00-3.16 4.05l-1.59-1.212c1-1.312 2.063-2.679 3.187-4.086l1.563 1.248zM9.03 63.979a220.437 220.437 0 00-2.959 4.165l-1.644-1.139c.873-1.26 1.871-2.672 2.986-4.203l1.617 1.177zm-5.81 8.4a122.54 122.54 0 00-1.362 2.135l-.004.006v.001L1 74l-.853-.521v-.001l.001-.002.005-.008.018-.029a35.89 35.89 0 01.335-.536c.235-.373.583-.919 1.039-1.618l1.675 1.093z" fill="url(#paint0_linear)"/><defs><linearGradient id="paint0_linear" x1="165" y1="5.975" x2="-.6" y2="69.853" gradientUnits="userSpaceOnUse"><stop stop-color="#FC3698"/><stop offset=".826" stop-color="#FC3698" stop-opacity=".5"/><stop offset="1" stop-color="#FC3698" stop-opacity="0"/></linearGradient></defs></svg>