<svg width="166" height="112" fill="none" xmlns="http://www.w3.org/2000/svg"><path d="M68.444 79.65l-.284.413.284-.412zm96.91 23.996a.502.502 0 010 .708l-3.182 3.182a.502.502 0 01-.708-.708l2.829-2.828-2.829-2.828a.502.502 0 01.708-.708l3.182 3.182zM165 104v.5h-.043l-.123-.001-.484-.004c-.425-.006-1.053-.016-1.864-.037l.027-1c.806.021 1.428.031 1.849.037l.478.004.12.001h.04v.5zm-7.565.261a249.761 249.761 0 01-5.058-.305l.07-.997c1.855.13 3.544.228 5.038.303l-.05.999zm-10.078-.703a273.554 273.554 0 01-5.02-.491l.106-.994c1.741.186 3.413.348 5.002.489l-.088.996zm-10.053-1.076a269.97 269.97 0 01-4.995-.675l.144-.99c1.699.246 3.36.47 4.976.673l-.125.992zm-9.988-1.449c-1.638-.27-3.302-.562-4.986-.876l.183-.983c1.678.313 3.335.603 4.966.873l-.163.986zm-9.936-1.855a215.009 215.009 0 01-4.932-1.093l.228-.974c1.646.385 3.284.748 4.909 1.088l-.205.979zm-9.84-2.307a183.403 183.403 0 01-4.876-1.343l.279-.96c1.616.469 3.234.914 4.849 1.335l-.252.968zm-9.71-2.825c-1.604-.518-3.2-1.062-4.788-1.633l.339-.94a156.56 156.56 0 004.756 1.621l-.308.952zm-9.518-3.43a125.619 125.619 0 01-4.66-1.975l.409-.912a125.76 125.76 0 004.623 1.96l-.372.928zm-9.233-4.145a101.643 101.643 0 01-4.47-2.386l.493-.87c1.447.82 2.924 1.607 4.426 2.362l-.449.894zm-8.811-5.007a83.065 83.065 0 01-2.108-1.401l.567-.824c.684.47 1.379.932 2.082 1.384l-.541.841zm-2.108-1.401a83.299 83.299 0 01-2.121-1.51l.591-.806a82 82 0 002.097 1.492l-.567.824zm-6.257-4.723a127.94 127.94 0 01-3.97-3.39l.663-.747a126.985 126.985 0 003.94 3.363l-.633.774zm-7.82-6.928a187.845 187.845 0 01-3.736-3.652l.708-.705a187.158 187.158 0 003.717 3.632l-.688.725zm-7.37-7.39a255.464 255.464 0 01-3.555-3.82l.74-.674a255.212 255.212 0 003.539 3.805l-.725.689zm-7.034-7.707a325.363 325.363 0 01-3.412-3.944l.761-.649a326.393 326.393 0 003.402 3.932l-.751.66zm-6.764-7.94a396.552 396.552 0 01-3.297-4.042l.78-.627a395.297 395.297 0 003.288 4.032l-.77.637zm-6.541-8.123a465.698 465.698 0 01-3.193-4.114l.793-.608a463.519 463.519 0 003.186 4.104l-.786.618zm-6.346-8.269a520.562 520.562 0 01-3.112-4.189l.805-.592a519.763 519.763 0 003.106 4.18l-.8.601zm-6.169-8.388a550.263 550.263 0 01-3.039-4.26l.817-.577c.957 1.355 1.97 2.777 3.033 4.252l-.81.585zm-6.026-8.533a518.985 518.985 0 01-2.948-4.304l.828-.561a483.09 483.09 0 002.942 4.296l-.822.57zM1.986 3.424A279.173 279.173 0 01.602 1.306l-.017-.027-.004-.007-.002-.002L1 1l.421-.27.001.002.004.007.017.026a107.75 107.75 0 00.335.518c.236.363.587.9 1.043 1.59l-.835.551zm66.458 76.227l-.567.824.567-.824zm97.263 23.642a.999.999 0 010 1.414l-6.364 6.364a.999.999 0 11-1.414-1.414l5.657-5.657-5.657-5.657a1 1 0 111.414-1.414l6.364 6.364zM165 104v1h-.044l-.125-.001-.488-.004c-.427-.006-1.057-.016-1.87-.038l.053-1.999c.803.021 1.424.032 1.842.037l.475.004.119.001H165v1zm-7.59.761a258.989 258.989 0 01-5.068-.306l.14-1.995c1.852.13 3.537.228 5.028.303l-.1 1.998zm-10.097-.705a274.57 274.57 0 01-5.029-.492l.212-1.988c1.739.186 3.407.347 4.993.488l-.176 1.992zm-10.071-1.078a269.759 269.759 0 01-5.004-.676l.287-1.98c1.695.246 3.353.469 4.966.672l-.249 1.984zm-10.008-1.452a243.56 243.56 0 01-4.996-.877l.367-1.967c1.674.313 3.327.602 4.955.871l-.326 1.973zm-9.956-1.859a215.516 215.516 0 01-4.944-1.096l.456-1.947c1.642.385 3.276.746 4.898 1.086l-.41 1.957zm-9.865-2.313a185.734 185.734 0 01-4.889-1.346l.558-1.92c1.612.467 3.225.91 4.836 1.331l-.505 1.936zm-9.737-2.832a158.8 158.8 0 01-4.803-1.638l.677-1.882a154.61 154.61 0 004.74 1.617l-.614 1.903zm-9.55-3.441a127 127 0 01-4.678-1.984l.817-1.825c1.516.68 3.053 1.33 4.605 1.952l-.744 1.857zm-9.271-4.163a102.24 102.24 0 01-4.492-2.398l.986-1.74a98.683 98.683 0 004.404 2.35l-.898 1.788zm-8.858-5.033c-.716-.46-1.422-.93-2.12-1.41l1.133-1.648c.68.467 1.37.926 2.07 1.376l-1.083 1.682zm-2.12-1.41a83.553 83.553 0 01-2.134-1.519l1.184-1.612a81.457 81.457 0 002.083 1.483l-1.133 1.648zm-6.29-4.748a128.598 128.598 0 01-3.987-3.403l1.329-1.495a126.607 126.607 0 003.923 3.35l-1.266 1.548zm-7.848-6.953c-1.25-1.187-2.5-2.41-3.746-3.66l1.417-1.412a186.67 186.67 0 003.706 3.622l-1.377 1.45zm-7.39-7.408a254.816 254.816 0 01-3.56-3.827l1.478-1.348a253.3 253.3 0 003.532 3.797l-1.45 1.378zm-7.046-7.721a326.253 326.253 0 01-3.417-3.95l1.523-1.297a323.218 323.218 0 003.396 3.926l-1.502 1.32zm-6.773-7.951c-1.116-1.35-2.217-2.7-3.301-4.047l1.558-1.254a395.883 395.883 0 003.284 4.026l-1.54 1.275zm-6.55-8.134a468.17 468.17 0 01-3.195-4.117l1.586-1.218c1.038 1.353 2.1 2.722 3.183 4.1L25.98 37.56zm-6.352-8.277a521.557 521.557 0 01-3.115-4.193l1.611-1.184a519.989 519.989 0 003.103 4.177l-1.6 1.2zm-6.175-8.396a552.393 552.393 0 01-3.041-4.264l1.633-1.154a551.603 551.603 0 003.031 4.249l-1.623 1.169zm-6.031-8.54A518.526 518.526 0 014.47 8.038l1.656-1.122a482.503 482.503 0 002.94 4.293l-1.645 1.138zM1.569 3.7A279.16 279.16 0 01.182 1.576L.164 1.55.16 1.542.159 1.54 1 1l.842-.54.001.002.004.007a57.816 57.816 0 01.084.13l.267.411c.235.363.585.898 1.04 1.588L1.568 3.7z" fill="url(#paint0_linear)"/><defs><linearGradient id="paint0_linear" x1="165" y1="104" x2="74.605" y2="-43.966" gradientUnits="userSpaceOnUse"><stop stop-color="#FC3698"/><stop offset=".826" stop-color="#FC3698" stop-opacity=".5"/><stop offset="1" stop-color="#FC3698" stop-opacity="0"/></linearGradient></defs></svg>