<svg width="190" height="211" viewBox="0 0 190 211" fill="none" xmlns="http://www.w3.org/2000/svg">
<path d="M0 52.75L95 0L190 52.75V157.828L95 211L0 157.828V52.75Z" fill="white"/>
<path d="M24.2878 108.05L27.4978 114.695H27.5278L30.6628 108.05H32.0278L28.2478 115.745C27.5978 117.055 26.8978 117.95 26.1478 118.43C25.4078 118.91 24.3578 119.15 22.9978 119.15L22.9228 118.145C24.0328 118.145 24.8628 117.99 25.4128 117.68C25.9628 117.36 26.4578 116.75 26.8978 115.85L22.8778 108.05H24.2878ZM35.0981 118.1H39.2231V112.1H35.9981C35.9981 113.05 35.9981 113.715 35.9981 114.095C35.9981 114.475 35.9831 114.92 35.9531 115.43C35.9331 115.93 35.9081 116.255 35.8781 116.405C35.8581 116.545 35.8081 116.745 35.7281 117.005C35.6481 117.265 35.5631 117.455 35.4731 117.575C35.3931 117.685 35.2681 117.86 35.0981 118.1ZM33.7931 118.1C34.0131 117.83 34.1681 117.64 34.2581 117.53C34.3481 117.41 34.4481 117.22 34.5581 116.96C34.6681 116.69 34.7331 116.485 34.7531 116.345C34.7831 116.195 34.8131 115.88 34.8431 115.4C34.8831 114.91 34.9031 114.47 34.9031 114.08C34.9031 113.68 34.9031 113.02 34.9031 112.1V111.2H40.3181V118.1H41.3681V120.8H40.2731V119H34.1681V120.8H33.0731V118.1H33.7931ZM45.9403 111.05C47.0303 111.05 47.8103 111.275 48.2803 111.725C48.7503 112.175 48.9853 112.915 48.9853 113.945V116.9C48.9853 117.61 49.0603 118.31 49.2103 119H48.1603C48.0803 118.61 48.0303 118.15 48.0103 117.62H47.9803C47.7103 118.1 47.3203 118.475 46.8103 118.745C46.3003 119.015 45.7253 119.15 45.0853 119.15C44.3653 119.15 43.7903 118.95 43.3603 118.55C42.9303 118.14 42.7153 117.59 42.7153 116.9C42.7153 116.03 43.0953 115.34 43.8553 114.83C44.6153 114.31 45.6953 114.05 47.0953 114.05H47.8903V113.975C47.8903 113.215 47.7453 112.69 47.4553 112.4C47.1753 112.1 46.6703 111.95 45.9403 111.95C45.0003 111.95 44.1253 112.18 43.3153 112.64L43.1203 111.755C43.9803 111.285 44.9203 111.05 45.9403 111.05ZM43.7953 116.855C43.7953 117.305 43.9353 117.66 44.2153 117.92C44.4953 118.17 44.8703 118.295 45.3403 118.295C46.0303 118.295 46.6253 118.05 47.1253 117.56C47.6353 117.06 47.8903 116.45 47.8903 115.73V114.89H47.0953C46.0453 114.89 45.2303 115.07 44.6503 115.43C44.0803 115.78 43.7953 116.255 43.7953 116.855ZM52.5681 115.04V111.2H58.3431V119H57.2331V112.13H53.6481V115.22C53.6481 116.71 53.4331 117.72 53.0031 118.25C52.5731 118.78 51.7531 119.08 50.5431 119.15L50.4831 118.22C51.0631 118.19 51.4881 118.095 51.7581 117.935C52.0381 117.775 52.2431 117.48 52.3731 117.05C52.5031 116.61 52.5681 115.94 52.5681 115.04ZM61.1952 114.65H65.9952C65.9852 113.78 65.7752 113.11 65.3652 112.64C64.9552 112.17 64.3902 111.935 63.6702 111.935C62.9202 111.935 62.3252 112.175 61.8852 112.655C61.4552 113.125 61.2252 113.79 61.1952 114.65ZM61.1952 115.52C61.2152 116.37 61.4752 117.04 61.9752 117.53C62.4752 118.02 63.1252 118.265 63.9252 118.265C64.6952 118.265 65.4602 118.065 66.2202 117.665L66.5202 118.52C65.6802 118.94 64.7802 119.15 63.8202 119.15C62.7002 119.15 61.7952 118.785 61.1052 118.055C60.4152 117.325 60.0702 116.34 60.0702 115.1C60.0702 113.84 60.3902 112.85 61.0302 112.13C61.6802 111.41 62.5602 111.05 63.6702 111.05C64.7502 111.05 65.5852 111.395 66.1752 112.085C66.7752 112.765 67.0752 113.745 67.0752 115.025C67.0752 115.155 67.0652 115.32 67.0452 115.52H61.1952ZM70.0416 115.25V119H68.8716V111.2H70.0416V114.38H74.4666V111.2H75.6366V119H74.4666V115.25H70.0416ZM79.0204 117.47H79.0504L83.4904 111.2H84.7204V119H83.5804V112.73H83.5654L79.1104 119H77.8804V111.2H79.0204V117.47ZM87.5771 114.65H92.3771C92.3671 113.78 92.1571 113.11 91.7471 112.64C91.3371 112.17 90.7721 111.935 90.0521 111.935C89.3021 111.935 88.7071 112.175 88.2671 112.655C87.8371 113.125 87.6071 113.79 87.5771 114.65ZM87.5771 115.52C87.5971 116.37 87.8571 117.04 88.3571 117.53C88.8571 118.02 89.5071 118.265 90.3071 118.265C91.0771 118.265 91.8421 118.065 92.6021 117.665L92.9021 118.52C92.0621 118.94 91.1621 119.15 90.2021 119.15C89.0821 119.15 88.1771 118.785 87.4871 118.055C86.7971 117.325 86.4521 116.34 86.4521 115.1C86.4521 113.84 86.7721 112.85 87.4121 112.13C88.0621 111.41 88.9421 111.05 90.0521 111.05C91.1321 111.05 91.9671 111.395 92.5571 112.085C93.1571 112.765 93.4571 113.745 93.4571 115.025C93.4571 115.155 93.4471 115.32 93.4271 115.52H87.5771ZM100.744 117.47H100.774L105.214 111.2H106.444V119H105.304V112.73H105.289L100.834 119H99.604V111.2H100.744V117.47ZM111.116 111.92C110.346 111.92 109.516 112.095 108.626 112.445L108.356 111.605C109.296 111.235 110.246 111.05 111.206 111.05C112.276 111.05 113.116 111.23 113.726 111.59C114.336 111.95 114.641 112.41 114.641 112.97C114.641 113.38 114.471 113.755 114.131 114.095C113.801 114.435 113.321 114.675 112.691 114.815V114.845C113.381 114.965 113.896 115.22 114.236 115.61C114.586 115.99 114.761 116.42 114.761 116.9C114.761 117.6 114.451 118.15 113.831 118.55C113.221 118.95 112.346 119.15 111.206 119.15C110.226 119.15 109.241 118.965 108.251 118.595L108.521 117.755C109.431 118.085 110.311 118.25 111.161 118.25C112.791 118.25 113.606 117.76 113.606 116.78C113.606 116.28 113.351 115.905 112.841 115.655C112.331 115.405 111.491 115.28 110.321 115.28H109.661V114.395H110.321C112.431 114.395 113.486 113.97 113.486 113.12C113.486 112.32 112.696 111.92 111.116 111.92ZM119.942 119.15C118.852 119.15 118.002 118.805 117.392 118.115C116.792 117.415 116.492 116.425 116.492 115.145V111.845C116.492 110.455 116.827 109.45 117.497 108.83C118.177 108.21 119.257 107.9 120.737 107.9C121.497 107.9 122.222 107.85 122.912 107.75V108.65C122.272 108.75 121.547 108.8 120.737 108.8C119.567 108.8 118.747 109.025 118.277 109.475C117.817 109.915 117.587 110.69 117.587 111.8V112.655H117.617C118.157 111.785 119.017 111.35 120.197 111.35C121.107 111.35 121.847 111.705 122.417 112.415C122.997 113.115 123.287 114.06 123.287 115.25C123.287 116.49 122.992 117.45 122.402 118.13C121.812 118.81 120.992 119.15 119.942 119.15ZM122.207 115.25C122.207 114.32 121.997 113.59 121.577 113.06C121.167 112.52 120.622 112.25 119.942 112.25C119.222 112.25 118.647 112.5 118.217 113C117.797 113.5 117.587 114.2 117.587 115.1V115.295C117.587 116.195 117.797 116.915 118.217 117.455C118.647 117.985 119.207 118.25 119.897 118.25C120.617 118.25 121.182 117.99 121.592 117.47C122.002 116.94 122.207 116.2 122.207 115.25ZM132.662 119V111.2H133.742V119H132.662ZM125.312 111.2H126.407V113.6C126.837 113.52 127.297 113.48 127.787 113.48C128.967 113.48 129.862 113.725 130.472 114.215C131.082 114.695 131.387 115.365 131.387 116.225C131.387 118.175 130.137 119.15 127.637 119.15C126.807 119.15 126.032 119.075 125.312 118.925V111.2ZM126.407 114.5V118.115C126.807 118.205 127.242 118.25 127.712 118.25C129.442 118.25 130.307 117.575 130.307 116.225C130.307 114.995 129.417 114.38 127.637 114.38C127.197 114.38 126.787 114.42 126.407 114.5ZM142.426 112.115H139.576V119H138.391V112.115H135.541V111.2H142.426V112.115ZM145.408 114.5L149.173 111.2H150.613L146.278 114.935L150.733 119H149.308L145.408 115.385H145.393V119H144.223V111.2H145.393V114.5H145.408ZM157.539 112.79C157.089 112.23 156.469 111.95 155.679 111.95C154.889 111.95 154.264 112.23 153.804 112.79C153.354 113.34 153.129 114.11 153.129 115.1C153.129 116.09 153.354 116.865 153.804 117.425C154.264 117.975 154.889 118.25 155.679 118.25C156.469 118.25 157.089 117.975 157.539 117.425C157.999 116.865 158.229 116.09 158.229 115.1C158.229 114.11 157.999 113.34 157.539 112.79ZM158.349 118.055C157.679 118.785 156.789 119.15 155.679 119.15C154.569 119.15 153.679 118.785 153.009 118.055C152.339 117.325 152.004 116.34 152.004 115.1C152.004 113.86 152.339 112.875 153.009 112.145C153.679 111.415 154.569 111.05 155.679 111.05C156.789 111.05 157.679 111.415 158.349 112.145C159.019 112.875 159.354 113.86 159.354 115.1C159.354 116.34 159.019 117.325 158.349 118.055ZM162.223 118.22C162.593 118.28 162.998 118.31 163.438 118.31C165.108 118.31 165.943 117.765 165.943 116.675C165.943 115.685 165.058 115.19 163.288 115.19H162.223V118.22ZM162.223 114.44H163.273C163.993 114.44 164.553 114.32 164.953 114.08C165.353 113.84 165.553 113.51 165.553 113.09C165.553 112.29 164.818 111.89 163.348 111.89C162.958 111.89 162.583 111.92 162.223 111.98V114.44ZM167.053 116.75C167.053 118.32 165.833 119.105 163.393 119.105C162.503 119.105 161.733 119.05 161.083 118.94V111.26C161.793 111.15 162.523 111.095 163.273 111.095C164.483 111.095 165.343 111.275 165.853 111.635C166.373 111.985 166.633 112.435 166.633 112.985C166.633 113.435 166.478 113.815 166.168 114.125C165.858 114.425 165.423 114.635 164.863 114.755V114.77C165.573 114.88 166.113 115.11 166.483 115.46C166.863 115.8 167.053 116.23 167.053 116.75ZM43.3598 136.5L47.1248 133.2H48.5648L44.2298 136.935L48.6848 141H47.2598L43.3598 137.385H43.3448V141H42.1748V133.2H43.3448V136.5H43.3598ZM55.4905 134.79C55.0405 134.23 54.4205 133.95 53.6305 133.95C52.8405 133.95 52.2155 134.23 51.7555 134.79C51.3055 135.34 51.0805 136.11 51.0805 137.1C51.0805 138.09 51.3055 138.865 51.7555 139.425C52.2155 139.975 52.8405 140.25 53.6305 140.25C54.4205 140.25 55.0405 139.975 55.4905 139.425C55.9505 138.865 56.1805 138.09 56.1805 137.1C56.1805 136.11 55.9505 135.34 55.4905 134.79ZM56.3005 140.055C55.6305 140.785 54.7405 141.15 53.6305 141.15C52.5205 141.15 51.6305 140.785 50.9605 140.055C50.2905 139.325 49.9555 138.34 49.9555 137.1C49.9555 135.86 50.2905 134.875 50.9605 134.145C51.6305 133.415 52.5205 133.05 53.6305 133.05C54.7405 133.05 55.6305 133.415 56.3005 134.145C56.9705 134.875 57.3055 135.86 57.3055 137.1C57.3055 138.34 56.9705 139.325 56.3005 140.055ZM63.0552 141V137.4H62.2602L59.8302 141H58.6602L61.4052 136.92L58.7352 133.2H59.9202L62.2602 136.47H63.0552V133.2H64.1652V136.47H64.9602L67.3002 133.2H68.4852L65.8152 136.92L68.5602 141H67.3902L64.9602 137.4H64.1652V141H63.0552ZM71.5716 139.47H71.6016L76.0416 133.2H77.2716V141H76.1316V134.73H76.1166L71.6616 141H70.4316V133.2H71.5716V139.47ZM85.0189 140.22C85.3889 140.28 85.7939 140.31 86.2339 140.31C87.9039 140.31 88.7389 139.765 88.7389 138.675C88.7389 137.685 87.8539 137.19 86.0839 137.19H85.0189V140.22ZM85.0189 136.44H86.0689C86.7889 136.44 87.3489 136.32 87.7489 136.08C88.1489 135.84 88.3489 135.51 88.3489 135.09C88.3489 134.29 87.6139 133.89 86.1439 133.89C85.7539 133.89 85.3789 133.92 85.0189 133.98V136.44ZM89.8489 138.75C89.8489 140.32 88.6289 141.105 86.1889 141.105C85.2989 141.105 84.5289 141.05 83.8789 140.94V133.26C84.5889 133.15 85.3189 133.095 86.0689 133.095C87.2789 133.095 88.1389 133.275 88.6489 133.635C89.1689 133.985 89.4289 134.435 89.4289 134.985C89.4289 135.435 89.2739 135.815 88.9639 136.125C88.6539 136.425 88.2189 136.635 87.6589 136.755V136.77C88.3689 136.88 88.9089 137.11 89.2789 137.46C89.6589 137.8 89.8489 138.23 89.8489 138.75ZM92.2426 136.65H97.0426C97.0326 135.78 96.8226 135.11 96.4126 134.64C96.0026 134.17 95.4376 133.935 94.7176 133.935C93.9676 133.935 93.3726 134.175 92.9326 134.655C92.5026 135.125 92.2726 135.79 92.2426 136.65ZM92.2426 137.52C92.2626 138.37 92.5226 139.04 93.0226 139.53C93.5226 140.02 94.1726 140.265 94.9726 140.265C95.7426 140.265 96.5076 140.065 97.2676 139.665L97.5676 140.52C96.7276 140.94 95.8276 141.15 94.8676 141.15C93.7476 141.15 92.8426 140.785 92.1526 140.055C91.4626 139.325 91.1176 138.34 91.1176 137.1C91.1176 135.84 91.4376 134.85 92.0776 134.13C92.7276 133.41 93.6076 133.05 94.7176 133.05C95.7976 133.05 96.6326 133.395 97.2226 134.085C97.8226 134.765 98.1226 135.745 98.1226 137.025C98.1226 137.155 98.1126 137.32 98.0926 137.52H92.2426ZM103.564 141.15C102.434 141.15 101.594 140.695 101.044 139.785H101.014V144.3H99.9189V133.2H100.969L100.984 134.52H101.014C101.564 133.54 102.414 133.05 103.564 133.05C104.544 133.05 105.314 133.4 105.874 134.1C106.434 134.79 106.714 135.79 106.714 137.1C106.714 138.38 106.424 139.375 105.844 140.085C105.274 140.795 104.514 141.15 103.564 141.15ZM105.634 137.1C105.634 136.08 105.429 135.3 105.019 134.76C104.619 134.22 104.054 133.95 103.324 133.95C102.634 133.95 102.074 134.22 101.644 134.76C101.224 135.3 101.014 136.045 101.014 136.995V137.205C101.014 138.175 101.229 138.925 101.659 139.455C102.089 139.985 102.644 140.25 103.324 140.25C104.034 140.25 104.594 139.98 105.004 139.44C105.424 138.89 105.634 138.11 105.634 137.1ZM111.548 136.305H111.578L113.618 133.2H114.863L112.208 137.04L114.938 141H113.648L111.533 137.76H111.503L109.403 141H108.143L110.888 137.04L108.218 133.2H109.508L111.548 136.305ZM117.979 137.25V141H116.809V133.2H117.979V136.38H122.404V133.2H123.574V141H122.404V137.25H117.979ZM126.417 136.65H131.217C131.207 135.78 130.997 135.11 130.587 134.64C130.177 134.17 129.612 133.935 128.892 133.935C128.142 133.935 127.547 134.175 127.107 134.655C126.677 135.125 126.447 135.79 126.417 136.65ZM126.417 137.52C126.437 138.37 126.697 139.04 127.197 139.53C127.697 140.02 128.347 140.265 129.147 140.265C129.917 140.265 130.682 140.065 131.442 139.665L131.742 140.52C130.902 140.94 130.002 141.15 129.042 141.15C127.922 141.15 127.017 140.785 126.327 140.055C125.637 139.325 125.292 138.34 125.292 137.1C125.292 135.84 125.612 134.85 126.252 134.13C126.902 133.41 127.782 133.05 128.892 133.05C129.972 133.05 130.807 133.395 131.397 134.085C131.997 134.765 132.297 135.745 132.297 137.025C132.297 137.155 132.287 137.32 132.267 137.52H126.417ZM134.094 133.2H139.794V134.145H135.249V141H134.094V133.2ZM146.531 134.79C146.081 134.23 145.461 133.95 144.671 133.95C143.881 133.95 143.256 134.23 142.796 134.79C142.346 135.34 142.121 136.11 142.121 137.1C142.121 138.09 142.346 138.865 142.796 139.425C143.256 139.975 143.881 140.25 144.671 140.25C145.461 140.25 146.081 139.975 146.531 139.425C146.991 138.865 147.221 138.09 147.221 137.1C147.221 136.11 146.991 135.34 146.531 134.79ZM147.341 140.055C146.671 140.785 145.781 141.15 144.671 141.15C143.561 141.15 142.671 140.785 142.001 140.055C141.331 139.325 140.996 138.34 140.996 137.1C140.996 135.86 141.331 134.875 142.001 134.145C142.671 133.415 143.561 133.05 144.671 133.05C145.781 133.05 146.671 133.415 147.341 134.145C148.011 134.875 148.346 135.86 148.346 137.1C148.346 138.34 148.011 139.325 147.341 140.055ZM44.8089 161.47H44.8389L49.2789 155.2H50.5089V163H49.3689V156.73H49.3539L44.8989 163H43.6689V155.2H44.8089V161.47ZM58.2862 159.25V163H57.1162V155.2H58.2862V158.38H62.7112V155.2H63.8812V163H62.7112V159.25H58.2862ZM67.265 161.47H67.295L71.735 155.2H72.965V163H71.825V156.73H71.81L67.355 163H66.125V155.2H67.265V161.47ZM79.2417 163V159.4H78.4467L76.0167 163H74.8467L77.5917 158.92L74.9217 155.2H76.1067L78.4467 158.47H79.2417V155.2H80.3517V158.47H81.1467L83.4867 155.2H84.6717L82.0017 158.92L84.7467 163H83.5767L81.1467 159.4H80.3517V163H79.2417ZM87.7882 159.25V163H86.6182V155.2H87.7882V158.38H92.2132V155.2H93.3832V163H92.2132V159.25H87.7882ZM96.227 158.65H101.027C101.017 157.78 100.807 157.11 100.397 156.64C99.987 156.17 99.422 155.935 98.702 155.935C97.952 155.935 97.357 156.175 96.917 156.655C96.487 157.125 96.257 157.79 96.227 158.65ZM96.227 159.52C96.247 160.37 96.507 161.04 97.007 161.53C97.507 162.02 98.157 162.265 98.957 162.265C99.727 162.265 100.492 162.065 101.252 161.665L101.552 162.52C100.712 162.94 99.812 163.15 98.852 163.15C97.732 163.15 96.827 162.785 96.137 162.055C95.447 161.325 95.102 160.34 95.102 159.1C95.102 157.84 95.422 156.85 96.062 156.13C96.712 155.41 97.592 155.05 98.702 155.05C99.782 155.05 100.617 155.395 101.207 156.085C101.807 156.765 102.107 157.745 102.107 159.025C102.107 159.155 102.097 159.32 102.077 159.52H96.227ZM103.903 155.2H109.603V156.145H105.058V163H103.903V155.2ZM116.34 156.79C115.89 156.23 115.27 155.95 114.48 155.95C113.69 155.95 113.065 156.23 112.605 156.79C112.155 157.34 111.93 158.11 111.93 159.1C111.93 160.09 112.155 160.865 112.605 161.425C113.065 161.975 113.69 162.25 114.48 162.25C115.27 162.25 115.89 161.975 116.34 161.425C116.8 160.865 117.03 160.09 117.03 159.1C117.03 158.11 116.8 157.34 116.34 156.79ZM117.15 162.055C116.48 162.785 115.59 163.15 114.48 163.15C113.37 163.15 112.48 162.785 111.81 162.055C111.14 161.325 110.805 160.34 110.805 159.1C110.805 157.86 111.14 156.875 111.81 156.145C112.48 155.415 113.37 155.05 114.48 155.05C115.59 155.05 116.48 155.415 117.15 156.145C117.82 156.875 118.155 157.86 118.155 159.1C118.155 160.34 117.82 161.325 117.15 162.055ZM125.375 162.22C125.745 162.28 126.15 162.31 126.59 162.31C128.26 162.31 129.095 161.765 129.095 160.675C129.095 159.685 128.21 159.19 126.44 159.19H125.375V162.22ZM125.375 158.44H126.425C127.145 158.44 127.705 158.32 128.105 158.08C128.505 157.84 128.705 157.51 128.705 157.09C128.705 156.29 127.97 155.89 126.5 155.89C126.11 155.89 125.735 155.92 125.375 155.98V158.44ZM130.205 160.75C130.205 162.32 128.985 163.105 126.545 163.105C125.655 163.105 124.885 163.05 124.235 162.94V155.26C124.945 155.15 125.675 155.095 126.425 155.095C127.635 155.095 128.495 155.275 129.005 155.635C129.525 155.985 129.785 156.435 129.785 156.985C129.785 157.435 129.63 157.815 129.32 158.125C129.01 158.425 128.575 158.635 128.015 158.755V158.77C128.725 158.88 129.265 159.11 129.635 159.46C130.015 159.8 130.205 160.23 130.205 160.75ZM132.599 158.65H137.399C137.389 157.78 137.179 157.11 136.769 156.64C136.359 156.17 135.794 155.935 135.074 155.935C134.324 155.935 133.729 156.175 133.289 156.655C132.859 157.125 132.629 157.79 132.599 158.65ZM132.599 159.52C132.619 160.37 132.879 161.04 133.379 161.53C133.879 162.02 134.529 162.265 135.329 162.265C136.099 162.265 136.864 162.065 137.624 161.665L137.924 162.52C137.084 162.94 136.184 163.15 135.224 163.15C134.104 163.15 133.199 162.785 132.509 162.055C131.819 161.325 131.474 160.34 131.474 159.1C131.474 157.84 131.794 156.85 132.434 156.13C133.084 155.41 133.964 155.05 135.074 155.05C136.154 155.05 136.989 155.395 137.579 156.085C138.179 156.765 138.479 157.745 138.479 159.025C138.479 159.155 138.469 159.32 138.449 159.52H132.599ZM141.46 158.5L145.225 155.2H146.665L142.33 158.935L146.785 163H145.36L141.46 159.385H141.445V163H140.275V155.2H141.445V158.5H141.46Z" fill="black"/>
<path d="M120.985 88.9818C121.266 89.042 121.557 88.9517 121.748 88.731C121.939 88.5103 122.009 88.2194 121.919 87.9485L120.052 81.9798C119.992 81.7691 119.841 81.5986 119.651 81.4983C119.46 81.398 119.239 81.3779 119.039 81.4481C118.617 81.5785 118.376 82.04 118.507 82.4613L119.932 87.0056L119.741 86.9354C113.058 84.3573 113.941 75.69 114.062 74.707C114.092 74.4863 114.112 74.2656 114.122 74.0549V73.9847L114.192 73.9646C114.232 73.9546 115.537 73.5433 115.617 73.5232L115.717 73.4932L117.253 78.4086C117.313 78.6192 117.463 78.7898 117.654 78.8801C117.845 78.9804 118.065 79.0004 118.266 78.9302C118.687 78.7998 118.928 78.3384 118.798 77.917L117.102 72.49L117.132 72.4499C117.513 71.868 117.604 71.2361 117.393 70.564L117.343 70.4035L117.513 70.4335C118.868 70.7044 120.213 70.243 121.116 69.2097C121.959 68.2367 122.22 66.9627 121.818 65.789C121.056 63.582 120.112 60.9237 119.199 58.3657C118.256 55.6973 117.273 52.9487 116.53 50.7819C115.918 48.9963 114.854 47.3611 113.47 46.0771L110.289 43.1178C110.128 42.9673 109.917 42.8871 109.707 42.8971C109.486 42.9071 109.285 42.9974 109.145 43.1579C108.844 43.489 108.854 44.0006 109.185 44.3015L112.366 47.2708C113.56 48.3743 114.463 49.7787 114.995 51.3135C115.737 53.4803 116.721 56.229 117.664 58.8973C118.577 61.4554 119.52 64.1137 120.283 66.3206C120.454 66.8222 120.393 67.3539 120.112 67.8354C119.691 68.5476 118.918 68.9188 118.065 68.8686C117.263 68.8084 116.58 68.3671 116.319 67.7451L111.914 56.5801C111.232 54.8948 110.048 53.5004 108.492 52.5474C107.519 51.9455 107.519 51.9455 101.268 49.9994C99.7123 49.5179 97.7757 48.916 95.3373 48.1536C94.8256 47.9931 94.3038 48.2339 94.083 48.7154C93.8623 49.2069 94.0329 49.7586 94.4944 50.0295C98.8293 52.6477 103.556 56.2992 107.78 60.3218C108.412 60.9237 108.553 61.8667 108.141 62.629L107.88 63.0905C107.399 63.9632 106.295 64.3244 105.402 63.903C104.649 63.5519 101.258 61.977 98.4982 60.693L94.9059 59.0177C94.8758 59.0077 94.8456 58.9876 94.8155 58.9776L85.2327 55.918C82.4732 55.0352 80.1051 53.3299 78.3992 50.9825C77.0345 49.1066 75.5695 48.3141 73.5526 47.2307C73.2415 47.0602 72.9104 46.8796 72.5692 46.699L72.4789 46.6489L80.7975 31.5314L81.4196 31.8825C83.4766 33.0261 86.0455 34.4606 90.0191 35.3534L100.435 37.7008C101.86 38.0218 103.184 38.714 104.248 39.7171L106.054 41.4024C106.215 41.5529 106.425 41.6331 106.636 41.6231C106.857 41.6131 107.058 41.5228 107.198 41.3623C107.499 41.0312 107.489 40.5196 107.158 40.2187L105.352 38.5334C104.077 37.3397 102.492 36.507 100.786 36.1258L90.3703 33.7684C86.6174 32.9258 84.2092 31.5816 82.0919 30.3979C81.8912 30.2875 81.6905 30.1772 81.4898 30.0668L81.4296 30.0367L81.4397 29.9665C81.55 28.9634 81.0583 28.0003 80.1753 27.5088L79.8141 27.3082C79.2321 26.9872 78.5698 26.9169 77.9276 27.0975C77.2954 27.2781 76.7636 27.6994 76.4425 28.2812L67.3112 44.8833C66.6489 46.0771 67.0904 47.5918 68.2845 48.2439L68.6458 48.4445C69.599 48.9762 70.763 48.8257 71.5457 48.0734L71.5959 48.0232L71.6561 48.0633C72.0374 48.274 72.3986 48.4646 72.7298 48.6451C74.7868 49.7586 75.9308 50.3706 77.0646 51.9455C78.9712 54.5738 81.6203 56.4797 84.7109 57.4729L91.8253 59.74L91.745 59.8503C90.4907 61.5657 90.7917 63.9733 92.4173 65.3375C93.1498 65.9495 94.063 66.2805 95.0062 66.2805C95.0664 66.2805 95.1266 66.2805 95.1868 66.2805L95.3072 66.2705L95.2872 66.3909C95.0463 67.8053 95.5882 69.2599 96.6819 70.1727C97.5148 70.8649 98.5684 71.1959 99.6321 71.0956C100.706 70.9953 101.679 70.4837 102.371 69.6611L105.703 65.6686L105.753 65.6786C106.907 65.809 108.051 65.3676 108.824 64.4949L108.944 64.3545L110.148 68.5878L110.138 68.6178C110.098 68.7583 110.108 68.9088 110.148 69.0492L111.222 72.5C111.423 73.142 111.834 73.6035 112.436 73.8643L112.496 73.8944V73.9646C112.496 74.0248 112.486 74.1352 112.466 74.2856C112.346 75.3991 111.994 78.7697 113.209 82.1905C114.503 85.8419 117.192 88.1993 120.985 88.9818ZM70.5924 46.699C70.4419 46.9799 70.1409 47.1404 69.8399 47.1404C69.6994 47.1404 69.5589 47.1103 69.4285 47.0301L69.0672 46.8295C68.8665 46.7191 68.726 46.5385 68.6558 46.3178C68.5956 46.0972 68.6157 45.8664 68.726 45.6658L77.8674 29.0637C77.9778 28.863 78.1584 28.7226 78.3792 28.6524C78.5999 28.5922 78.8307 28.6123 79.0314 28.7226L79.3926 28.9232C79.804 29.154 79.9546 29.6756 79.7238 30.0869C79.7238 30.0969 70.5924 46.699 70.5924 46.699ZM96.411 64.214C95.9896 64.5049 95.4979 64.6554 95.0162 64.6554C94.4643 64.6554 93.9124 64.4648 93.4709 64.0936C92.4474 63.2309 92.3069 61.7062 93.1599 60.6729L93.501 60.2616L93.5612 60.2817C93.6616 60.3118 93.7519 60.3419 93.8121 60.3619C94.2235 60.4823 94.2235 60.4823 96.0197 61.325C96.5214 61.5557 97.1536 61.8566 97.9864 62.2378L98.1068 62.298L98.0165 62.3983L96.411 64.214ZM104.017 65.1971L101.157 68.6279C100.736 69.1295 100.154 69.4304 99.5117 69.4906C99.4414 69.5006 99.3611 69.5006 99.2909 69.5006C98.729 69.5006 98.1771 69.3 97.7456 68.9389C96.8224 68.1664 96.4612 66.6918 97.5549 65.3777L99.6622 63.0303L104.097 65.0968L104.017 65.1971ZM106.556 57.0114C104.248 54.965 101.719 52.9487 99.4213 51.3336L99.5117 51.153L105.512 53.0289L106.827 57.2522L106.556 57.0114ZM111.593 67.7451L111.563 67.6448L109.968 61.9168V61.8967C110.008 61.0641 109.747 60.2115 109.245 59.5494L109.225 59.5193L107.439 53.8013L107.67 53.9418C109.677 55.1957 109.937 55.8678 112.406 62.2278C112.898 63.5018 113.49 65.0165 114.192 66.8021L114.232 66.9025L111.593 67.7451ZM112.797 72.0787L112.025 69.3L112.115 69.2699L114.834 68.4172L114.874 68.4975C114.965 68.6981 115.095 68.9188 115.226 69.0893L115.236 69.1194L115.858 71.1358C115.948 71.4668 115.607 71.8179 115.236 71.9383L113.761 72.3997C113.66 72.4298 113.55 72.4499 113.439 72.4499C113.158 72.4398 112.878 72.3295 112.797 72.0787Z" fill="#303030"/>
</svg>
