<svg width="190" height="211" viewBox="0 0 190 211" fill="none" xmlns="http://www.w3.org/2000/svg">
<path d="M0 52.75L95 0L190 52.75V157.828L95 211L0 157.828V52.75Z" fill="white"/>
<path d="M58.2985 113.66H58.2685V119H57.0685V108.05H58.2685V112.925H58.2985L63.1585 108.05H64.6135L59.3485 113.3L64.7635 119H63.3235L58.2985 113.66ZM71.4206 112.79C70.9706 112.23 70.3506 111.95 69.5606 111.95C68.7706 111.95 68.1456 112.23 67.6856 112.79C67.2356 113.34 67.0106 114.11 67.0106 115.1C67.0106 116.09 67.2356 116.865 67.6856 117.425C68.1456 117.975 68.7706 118.25 69.5606 118.25C70.3506 118.25 70.9706 117.975 71.4206 117.425C71.8806 116.865 72.1106 116.09 72.1106 115.1C72.1106 114.11 71.8806 113.34 71.4206 112.79ZM72.2306 118.055C71.5606 118.785 70.6706 119.15 69.5606 119.15C68.4506 119.15 67.5606 118.785 66.8906 118.055C66.2206 117.325 65.8856 116.34 65.8856 115.1C65.8856 113.86 66.2206 112.875 66.8906 112.145C67.5606 111.415 68.4506 111.05 69.5606 111.05C70.6706 111.05 71.5606 111.415 72.2306 112.145C72.9006 112.875 73.2356 113.86 73.2356 115.1C73.2356 116.34 72.9006 117.325 72.2306 118.055ZM78.6103 119.15C77.4803 119.15 76.6403 118.695 76.0903 117.785H76.0603V122.3H74.9653V111.2H76.0153L76.0303 112.52H76.0603C76.6103 111.54 77.4603 111.05 78.6103 111.05C79.5903 111.05 80.3603 111.4 80.9203 112.1C81.4803 112.79 81.7603 113.79 81.7603 115.1C81.7603 116.38 81.4703 117.375 80.8903 118.085C80.3203 118.795 79.5603 119.15 78.6103 119.15ZM80.6803 115.1C80.6803 114.08 80.4753 113.3 80.0653 112.76C79.6653 112.22 79.1003 111.95 78.3703 111.95C77.6803 111.95 77.1203 112.22 76.6903 112.76C76.2703 113.3 76.0603 114.045 76.0603 114.995V115.205C76.0603 116.175 76.2753 116.925 76.7053 117.455C77.1353 117.985 77.6903 118.25 78.3703 118.25C79.0803 118.25 79.6403 117.98 80.0503 117.44C80.4703 116.89 80.6803 116.11 80.6803 115.1ZM87.209 119.15C86.079 119.15 85.239 118.695 84.689 117.785H84.659V122.3H83.564V111.2H84.614L84.629 112.52H84.659C85.209 111.54 86.059 111.05 87.209 111.05C88.189 111.05 88.959 111.4 89.519 112.1C90.079 112.79 90.359 113.79 90.359 115.1C90.359 116.38 90.069 117.375 89.489 118.085C88.919 118.795 88.159 119.15 87.209 119.15ZM89.279 115.1C89.279 114.08 89.074 113.3 88.664 112.76C88.264 112.22 87.699 111.95 86.969 111.95C86.279 111.95 85.719 112.22 85.289 112.76C84.869 113.3 84.659 114.045 84.659 114.995V115.205C84.659 116.175 84.874 116.925 85.304 117.455C85.734 117.985 86.289 118.25 86.969 118.25C87.679 118.25 88.239 117.98 88.649 117.44C89.069 116.89 89.279 116.11 89.279 115.1ZM92.7626 114.65H97.5626C97.5526 113.78 97.3426 113.11 96.9326 112.64C96.5226 112.17 95.9576 111.935 95.2376 111.935C94.4876 111.935 93.8926 112.175 93.4526 112.655C93.0226 113.125 92.7926 113.79 92.7626 114.65ZM92.7626 115.52C92.7826 116.37 93.0426 117.04 93.5426 117.53C94.0426 118.02 94.6926 118.265 95.4926 118.265C96.2626 118.265 97.0276 118.065 97.7876 117.665L98.0876 118.52C97.2476 118.94 96.3476 119.15 95.3876 119.15C94.2676 119.15 93.3626 118.785 92.6726 118.055C91.9826 117.325 91.6376 116.34 91.6376 115.1C91.6376 113.84 91.9576 112.85 92.5976 112.13C93.2476 111.41 94.1276 111.05 95.2376 111.05C96.3176 111.05 97.1526 111.395 97.7426 112.085C98.3426 112.765 98.6426 113.745 98.6426 115.025C98.6426 115.155 98.6326 115.32 98.6126 115.52H92.7626ZM101.624 114.5L105.389 111.2H106.829L102.494 114.935L106.949 119H105.524L101.624 115.385H101.609V119H100.439V111.2H101.609V114.5H101.624ZM115.345 118.07H116.65V120.8H115.645V119H108.745V111.2H109.84V118.07H114.25V111.2H115.345V118.07ZM119.435 117.47H119.465L123.905 111.2H125.135V119H123.995V112.73H123.98L119.525 119H118.295V111.2H119.435V117.47ZM129.177 115.28C128.577 115.15 128.082 114.925 127.692 114.605C127.312 114.275 127.122 113.835 127.122 113.285C127.122 111.825 128.297 111.095 130.647 111.095C131.477 111.095 132.287 111.15 133.077 111.26V119H131.937V115.655H130.902C130.352 115.655 129.967 115.725 129.747 115.865C129.537 115.995 129.297 116.335 129.027 116.885L128.022 119H126.867L127.962 116.795C128.202 116.315 128.407 115.97 128.577 115.76C128.757 115.55 128.957 115.4 129.177 115.31V115.28ZM131.937 114.815V112.04C131.537 111.98 131.122 111.95 130.692 111.95C129.042 111.95 128.217 112.425 128.217 113.375C128.217 114.335 129.097 114.815 130.857 114.815H131.937ZM29.7898 134.79C29.3398 134.23 28.7198 133.95 27.9298 133.95C27.1398 133.95 26.5148 134.23 26.0548 134.79C25.6048 135.34 25.3798 136.11 25.3798 137.1C25.3798 138.09 25.6048 138.865 26.0548 139.425C26.5148 139.975 27.1398 140.25 27.9298 140.25C28.7198 140.25 29.3398 139.975 29.7898 139.425C30.2498 138.865 30.4798 138.09 30.4798 137.1C30.4798 136.11 30.2498 135.34 29.7898 134.79ZM30.5998 140.055C29.9298 140.785 29.0398 141.15 27.9298 141.15C26.8198 141.15 25.9298 140.785 25.2598 140.055C24.5898 139.325 24.2548 138.34 24.2548 137.1C24.2548 135.86 24.5898 134.875 25.2598 134.145C25.9298 133.415 26.8198 133.05 27.9298 133.05C29.0398 133.05 29.9298 133.415 30.5998 134.145C31.2698 134.875 31.6048 135.86 31.6048 137.1C31.6048 138.34 31.2698 139.325 30.5998 140.055ZM33.3345 133.2H39.9345V141H38.8395V134.13H34.4295V141H33.3345V133.2ZM47.7621 133.2H48.9621L45.9321 141C45.4121 142.34 44.8571 143.25 44.2671 143.73C43.6771 144.21 42.8421 144.45 41.7621 144.45L41.7021 143.535C42.5121 143.535 43.1371 143.36 43.5771 143.01C44.0171 142.67 44.4321 142 44.8221 141L41.6571 133.2H42.8871L45.3921 139.665H45.4221L47.7621 133.2ZM51.685 140.07H54.655V133.2H55.705V140.07H58.675V133.2H59.755V140.07H60.955V142.8H59.95V141H50.605V133.2H51.685V140.07ZM63.2021 136.65H68.0021C67.9921 135.78 67.7821 135.11 67.3721 134.64C66.9621 134.17 66.3971 133.935 65.6771 133.935C64.9271 133.935 64.3321 134.175 63.8921 134.655C63.4621 135.125 63.2321 135.79 63.2021 136.65ZM63.2021 137.52C63.2221 138.37 63.4821 139.04 63.9821 139.53C64.4821 140.02 65.1321 140.265 65.9321 140.265C66.7021 140.265 67.4671 140.065 68.2271 139.665L68.5271 140.52C67.6871 140.94 66.7871 141.15 65.8271 141.15C64.7071 141.15 63.8021 140.785 63.1121 140.055C62.4221 139.325 62.0771 138.34 62.0771 137.1C62.0771 135.84 62.3971 134.85 63.0371 134.13C63.6871 133.41 64.5671 133.05 65.6771 133.05C66.7571 133.05 67.5921 133.395 68.1821 134.085C68.7821 134.765 69.0821 135.745 69.0821 137.025C69.0821 137.155 69.0721 137.32 69.0521 137.52H63.2021ZM72.0484 137.25V141H70.8784V133.2H72.0484V136.38H76.4734V133.2H77.6434V141H76.4734V137.25H72.0484ZM81.0272 139.47H81.0572L85.4972 133.2H86.7272V141H85.5872V134.73H85.5722L81.1172 141H79.8872V133.2H81.0272V139.47ZM90.7689 137.28C90.1689 137.15 89.6739 136.925 89.2839 136.605C88.9039 136.275 88.7139 135.835 88.7139 135.285C88.7139 133.825 89.8889 133.095 92.2389 133.095C93.0689 133.095 93.8789 133.15 94.6689 133.26V141H93.5289V137.655H92.4939C91.9439 137.655 91.5589 137.725 91.3389 137.865C91.1289 137.995 90.8889 138.335 90.6189 138.885L89.6139 141H88.4589L89.5539 138.795C89.7939 138.315 89.9989 137.97 90.1689 137.76C90.3489 137.55 90.5489 137.4 90.7689 137.31V137.28ZM93.5289 136.815V134.04C93.1289 133.98 92.7139 133.95 92.2839 133.95C90.6339 133.95 89.8089 134.425 89.8089 135.375C89.8089 136.335 90.6889 136.815 92.4489 136.815H93.5289ZM102.414 140.22C102.784 140.28 103.189 140.31 103.629 140.31C105.299 140.31 106.134 139.765 106.134 138.675C106.134 137.685 105.249 137.19 103.479 137.19H102.414V140.22ZM102.414 136.44H103.464C104.184 136.44 104.744 136.32 105.144 136.08C105.544 135.84 105.744 135.51 105.744 135.09C105.744 134.29 105.009 133.89 103.539 133.89C103.149 133.89 102.774 133.92 102.414 133.98V136.44ZM107.244 138.75C107.244 140.32 106.024 141.105 103.584 141.105C102.694 141.105 101.924 141.05 101.274 140.94V133.26C101.984 133.15 102.714 133.095 103.464 133.095C104.674 133.095 105.534 133.275 106.044 133.635C106.564 133.985 106.824 134.435 106.824 134.985C106.824 135.435 106.669 135.815 106.359 136.125C106.049 136.425 105.614 136.635 105.054 136.755V136.77C105.764 136.88 106.304 137.11 106.674 137.46C107.054 137.8 107.244 138.23 107.244 138.75ZM109.638 136.65H114.438C114.428 135.78 114.218 135.11 113.808 134.64C113.398 134.17 112.833 133.935 112.113 133.935C111.363 133.935 110.768 134.175 110.328 134.655C109.898 135.125 109.668 135.79 109.638 136.65ZM109.638 137.52C109.658 138.37 109.918 139.04 110.418 139.53C110.918 140.02 111.568 140.265 112.368 140.265C113.138 140.265 113.903 140.065 114.663 139.665L114.963 140.52C114.123 140.94 113.223 141.15 112.263 141.15C111.143 141.15 110.238 140.785 109.548 140.055C108.858 139.325 108.513 138.34 108.513 137.1C108.513 135.84 108.833 134.85 109.473 134.13C110.123 133.41 111.003 133.05 112.113 133.05C113.193 133.05 114.028 133.395 114.618 134.085C115.218 134.765 115.518 135.745 115.518 137.025C115.518 137.155 115.508 137.32 115.488 137.52H109.638ZM120.959 141.15C119.829 141.15 118.989 140.695 118.439 139.785H118.409V144.3H117.314V133.2H118.364L118.379 134.52H118.409C118.959 133.54 119.809 133.05 120.959 133.05C121.939 133.05 122.709 133.4 123.269 134.1C123.829 134.79 124.109 135.79 124.109 137.1C124.109 138.38 123.819 139.375 123.239 140.085C122.669 140.795 121.909 141.15 120.959 141.15ZM123.029 137.1C123.029 136.08 122.824 135.3 122.414 134.76C122.014 134.22 121.449 133.95 120.719 133.95C120.029 133.95 119.469 134.22 119.039 134.76C118.619 135.3 118.409 136.045 118.409 136.995V137.205C118.409 138.175 118.624 138.925 119.054 139.455C119.484 139.985 120.039 140.25 120.719 140.25C121.429 140.25 121.989 139.98 122.399 139.44C122.819 138.89 123.029 138.11 123.029 137.1ZM128.943 136.305H128.973L131.013 133.2H132.258L129.603 137.04L132.333 141H131.043L128.928 137.76H128.898L126.798 141H125.538L128.283 137.04L125.613 133.2H126.903L128.943 136.305ZM135.374 137.25V141H134.204V133.2H135.374V136.38H139.799V133.2H140.969V141H139.799V137.25H135.374ZM143.812 136.65H148.612C148.602 135.78 148.392 135.11 147.982 134.64C147.572 134.17 147.007 133.935 146.287 133.935C145.537 133.935 144.942 134.175 144.502 134.655C144.072 135.125 143.842 135.79 143.812 136.65ZM143.812 137.52C143.832 138.37 144.092 139.04 144.592 139.53C145.092 140.02 145.742 140.265 146.542 140.265C147.312 140.265 148.077 140.065 148.837 139.665L149.137 140.52C148.297 140.94 147.397 141.15 146.437 141.15C145.317 141.15 144.412 140.785 143.722 140.055C143.032 139.325 142.687 138.34 142.687 137.1C142.687 135.84 143.007 134.85 143.647 134.13C144.297 133.41 145.177 133.05 146.287 133.05C147.367 133.05 148.202 133.395 148.792 134.085C149.392 134.765 149.692 135.745 149.692 137.025C149.692 137.155 149.682 137.32 149.662 137.52H143.812ZM151.489 133.2H157.189V134.145H152.644V141H151.489V133.2ZM163.926 134.79C163.476 134.23 162.856 133.95 162.066 133.95C161.276 133.95 160.651 134.23 160.191 134.79C159.741 135.34 159.516 136.11 159.516 137.1C159.516 138.09 159.741 138.865 160.191 139.425C160.651 139.975 161.276 140.25 162.066 140.25C162.856 140.25 163.476 139.975 163.926 139.425C164.386 138.865 164.616 138.09 164.616 137.1C164.616 136.11 164.386 135.34 163.926 134.79ZM164.736 140.055C164.066 140.785 163.176 141.15 162.066 141.15C160.956 141.15 160.066 140.785 159.396 140.055C158.726 139.325 158.391 138.34 158.391 137.1C158.391 135.86 158.726 134.875 159.396 134.145C160.066 133.415 160.956 133.05 162.066 133.05C163.176 133.05 164.066 133.415 164.736 134.145C165.406 134.875 165.741 135.86 165.741 137.1C165.741 138.34 165.406 139.325 164.736 140.055ZM80.9833 162.22C81.3533 162.28 81.7583 162.31 82.1983 162.31C83.8683 162.31 84.7033 161.765 84.7033 160.675C84.7033 159.685 83.8183 159.19 82.0483 159.19H80.9833V162.22ZM80.9833 158.44H82.0333C82.7533 158.44 83.3133 158.32 83.7133 158.08C84.1133 157.84 84.3133 157.51 84.3133 157.09C84.3133 156.29 83.5783 155.89 82.1083 155.89C81.7183 155.89 81.3433 155.92 80.9833 155.98V158.44ZM85.8133 160.75C85.8133 162.32 84.5933 163.105 82.1533 163.105C81.2633 163.105 80.4933 163.05 79.8433 162.94V155.26C80.5533 155.15 81.2833 155.095 82.0333 155.095C83.2433 155.095 84.1033 155.275 84.6133 155.635C85.1333 155.985 85.3933 156.435 85.3933 156.985C85.3933 157.435 85.2383 157.815 84.9283 158.125C84.6183 158.425 84.1833 158.635 83.6233 158.755V158.77C84.3333 158.88 84.8733 159.11 85.2433 159.46C85.6233 159.8 85.8133 160.23 85.8133 160.75ZM88.2069 158.65H93.0069C92.9969 157.78 92.7869 157.11 92.3769 156.64C91.9669 156.17 91.4019 155.935 90.6819 155.935C89.9319 155.935 89.3369 156.175 88.8969 156.655C88.4669 157.125 88.2369 157.79 88.2069 158.65ZM88.2069 159.52C88.2269 160.37 88.4869 161.04 88.9869 161.53C89.4869 162.02 90.1369 162.265 90.9369 162.265C91.7069 162.265 92.4719 162.065 93.2319 161.665L93.5319 162.52C92.6919 162.94 91.7919 163.15 90.8319 163.15C89.7119 163.15 88.8069 162.785 88.1169 162.055C87.4269 161.325 87.0819 160.34 87.0819 159.1C87.0819 157.84 87.4019 156.85 88.0419 156.13C88.6919 155.41 89.5719 155.05 90.6819 155.05C91.7619 155.05 92.5969 155.395 93.1869 156.085C93.7869 156.765 94.0869 157.745 94.0869 159.025C94.0869 159.155 94.0769 159.32 94.0569 159.52H88.2069ZM97.0683 158.5L100.833 155.2H102.273L97.9383 158.935L102.393 163H100.968L97.0683 159.385H97.0533V163H95.8833V155.2H97.0533V158.5H97.0683ZM107.039 155.05C108.129 155.05 108.909 155.275 109.379 155.725C109.849 156.175 110.084 156.915 110.084 157.945V160.9C110.084 161.61 110.159 162.31 110.309 163H109.259C109.179 162.61 109.129 162.15 109.109 161.62H109.079C108.809 162.1 108.419 162.475 107.909 162.745C107.399 163.015 106.824 163.15 106.184 163.15C105.464 163.15 104.889 162.95 104.459 162.55C104.029 162.14 103.814 161.59 103.814 160.9C103.814 160.03 104.194 159.34 104.954 158.83C105.714 158.31 106.794 158.05 108.194 158.05H108.989V157.975C108.989 157.215 108.844 156.69 108.554 156.4C108.274 156.1 107.769 155.95 107.039 155.95C106.099 155.95 105.224 156.18 104.414 156.64L104.219 155.755C105.079 155.285 106.019 155.05 107.039 155.05ZM104.894 160.855C104.894 161.305 105.034 161.66 105.314 161.92C105.594 162.17 105.969 162.295 106.439 162.295C107.129 162.295 107.724 162.05 108.224 161.56C108.734 161.06 108.989 160.45 108.989 159.73V158.89H108.194C107.144 158.89 106.329 159.07 105.749 159.43C105.179 159.78 104.894 160.255 104.894 160.855Z" fill="black"/>
<path d="M89.2816 48.5902C90.6194 48.2371 91.9975 47.9748 93.3756 47.7932C93.5969 47.763 93.7981 47.652 93.9389 47.4704C94.0697 47.2888 94.1301 47.0769 94.0999 46.855C94.0395 46.4313 93.6774 46.1286 93.2549 46.1286C93.2147 46.1286 93.1845 46.1286 93.1443 46.1387C91.6957 46.3304 90.2472 46.6129 88.839 46.9761C88.6177 47.0366 88.4366 47.1677 88.3159 47.3695C88.2052 47.5612 88.1751 47.7831 88.2253 48.0051C88.3561 48.4288 88.8188 48.7012 89.2816 48.5902Z" fill="#303030"/>
<path d="M105.829 48.449C107.177 48.7718 108.525 49.1855 109.812 49.6798C110.245 49.8412 110.748 49.6092 110.909 49.1956C110.989 48.9837 110.979 48.7617 110.889 48.56C110.798 48.3582 110.627 48.1968 110.416 48.1161C109.048 47.6016 107.639 47.1677 106.221 46.8247C105.768 46.7138 105.306 46.9962 105.195 47.4401C105.145 47.652 105.175 47.884 105.296 48.0656C105.416 48.2573 105.608 48.3885 105.829 48.449Z" fill="#303030"/>
<path d="M114.017 49.8009C113.715 49.8009 113.423 49.9623 113.263 50.2448C113.162 50.4364 113.132 50.6685 113.202 50.8803C113.273 51.0922 113.413 51.2738 113.615 51.3747C114.842 52.0204 116.039 52.7467 117.165 53.5437C117.538 53.796 118.091 53.7052 118.352 53.342C118.483 53.1604 118.533 52.9384 118.493 52.7165C118.453 52.4945 118.332 52.3028 118.151 52.1717C116.954 51.3343 115.697 50.5676 114.419 49.8917C114.289 49.8311 114.148 49.8009 114.017 49.8009Z" fill="#303030"/>
<path d="M97.5401 47.5007C97.6407 47.5007 97.7413 47.5007 97.8419 47.5007C99.1395 47.5007 100.437 47.5713 101.725 47.7226C102.177 47.7731 102.61 47.4401 102.66 46.9861C102.69 46.7642 102.62 46.5422 102.489 46.3707C102.338 46.1891 102.137 46.0782 101.906 46.0479C100.447 45.8764 98.9584 45.7957 97.53 45.8159C97.2987 45.8159 97.0874 45.9067 96.9365 46.0681C96.7756 46.2295 96.6951 46.4414 96.6951 46.6633C96.6951 47.1274 97.0673 47.5007 97.5401 47.5007Z" fill="#303030"/>
<path d="M74.8165 56.5602C75.8224 55.6119 76.9088 54.7241 78.0254 53.9069C78.2065 53.7758 78.3272 53.574 78.3573 53.3521C78.3875 53.1301 78.3372 52.9082 78.2065 52.7266C78.0355 52.5046 77.784 52.3835 77.5224 52.3835C77.3514 52.3835 77.1704 52.434 77.0195 52.545C75.8426 53.4025 74.7159 54.3407 73.6497 55.3294C73.4887 55.4808 73.3881 55.6926 73.3881 55.9146C73.3881 56.1365 73.4585 56.3484 73.6195 56.5098C73.9213 56.8528 74.4846 56.8629 74.8165 56.5602Z" fill="#303030"/>
<path d="M81.5461 51.6673C82.7532 51.0014 84.0307 50.3961 85.3183 49.8917C85.5295 49.811 85.6904 49.6495 85.781 49.4377C85.8715 49.2359 85.8715 49.0039 85.791 48.8021C85.62 48.3683 85.1271 48.1665 84.6845 48.338C83.3265 48.8727 81.9987 49.5083 80.7212 50.2044C80.5201 50.3154 80.3792 50.497 80.3189 50.7088C80.2585 50.9207 80.2786 51.1527 80.3893 51.3444C80.6005 51.7278 81.1437 51.8892 81.5461 51.6673Z" fill="#303030"/>
<path d="M75.1082 42.5169C75.5508 42.6279 76.0236 42.3555 76.1443 41.9116L76.3958 40.9431L78.3473 44.01C78.5887 44.3934 79.1319 44.5145 79.5141 44.2723C79.7053 44.1513 79.836 43.9697 79.8863 43.7477C79.9366 43.5258 79.8964 43.3038 79.7757 43.1222L77.8142 40.0452L78.7999 40.2369C79.2627 40.3277 79.7053 40.025 79.7958 39.5711C79.836 39.3491 79.7958 39.1272 79.665 38.9456C79.5343 38.7539 79.3431 38.6328 79.1218 38.5824L76.2047 38.0174C75.7621 37.9367 75.3295 38.2091 75.2189 38.6328L74.4946 41.498C74.4343 41.7098 74.4745 41.9419 74.5852 42.1336C74.6958 42.3252 74.8869 42.4665 75.1082 42.5169Z" fill="#303030"/>
<path d="M111.291 43.7478C111.341 43.9697 111.472 44.1513 111.663 44.2724C112.045 44.5145 112.589 44.3934 112.83 44.0101L114.791 40.9431L115.043 41.9116C115.154 42.3555 115.626 42.6279 116.079 42.517C116.3 42.4564 116.481 42.3253 116.602 42.1235C116.713 41.9318 116.743 41.7099 116.693 41.4879L115.958 38.6328C115.848 38.199 115.415 37.9266 114.973 38.0174L112.055 38.5824C111.834 38.6228 111.633 38.7539 111.512 38.9456C111.392 39.1272 111.341 39.3491 111.392 39.5711C111.462 40.0251 111.915 40.3277 112.367 40.2369L113.353 40.0452L111.392 43.1223C111.281 43.3039 111.241 43.5359 111.291 43.7478Z" fill="#303030"/>
<path d="M130.081 63.8442C129.649 63.481 129.206 63.138 128.754 62.795L127.426 61.2615C127.184 60.9891 126.802 60.8882 126.46 61.0295L126.36 61.0698L126.269 61.0093C125.605 60.5654 124.921 60.1316 124.237 59.718L123.875 59.5061L124.267 59.3548C124.358 59.3245 124.448 59.2741 124.529 59.2034C124.7 59.0622 124.8 58.8503 124.821 58.6284C124.841 58.4064 124.77 58.1845 124.619 58.0231C123.644 56.9032 122.628 55.8641 121.571 54.8956C121.229 54.5829 120.686 54.603 120.374 54.9461C120.223 55.1075 120.143 55.3294 120.153 55.5514C120.163 55.7733 120.264 55.9852 120.425 56.1365C121.189 56.8326 121.944 57.5792 122.668 58.3661L122.426 58.6788C117.769 56.1466 112.77 54.4114 107.559 53.5135C99.391 52.1011 90.9514 52.7972 83.1556 55.5312C82.9444 55.6018 82.7734 55.7632 82.6728 55.965C82.5722 56.1668 82.5621 56.3887 82.6426 56.6006C82.7935 57.0344 83.2864 57.2664 83.729 57.1151C91.2532 54.482 99.391 53.806 107.277 55.168C114.631 56.4392 121.662 59.5061 127.607 64.0258L127.426 64.3789C118.192 61.4835 108.595 60.1417 98.8981 60.4141C88.9698 60.6865 79.2426 62.6336 69.9882 66.1948L64.1338 68.4446L63.9527 68.0814L74.5148 61.5238C76.1042 60.5351 77.7639 59.6373 79.4538 58.8503C79.655 58.7595 79.816 58.588 79.8964 58.3762C79.9669 58.1643 79.9568 57.9424 79.8663 57.7406C79.6651 57.3169 79.1621 57.1353 78.7396 57.3371C76.9894 58.1542 75.2692 59.0824 73.6296 60.1013L69.9882 62.3612L69.7367 62.0585L71.9497 59.5868C72.1006 59.4153 72.171 59.2034 72.161 58.9815C72.1509 58.7595 72.0503 58.5477 71.8793 58.4064C71.5273 58.0937 70.9941 58.124 70.6823 58.4771L67.8356 61.655C67.6847 61.8265 67.6143 62.0383 67.6243 62.2603C67.6344 62.4822 67.735 62.684 67.906 62.8353C68.0166 62.9261 68.1373 62.9968 68.2782 63.027L68.7509 63.138L66.1356 64.7421L66.0249 64.6715C65.6728 64.4495 65.2202 64.5201 64.9385 64.8228L63.6007 66.3058L61.1362 67.8393C60.3616 68.3235 59.9291 69.1811 60.0096 70.079C60.09 70.9768 60.6533 71.7537 61.4983 72.0967L66.4273 74.1144L75.561 79.6329C75.8426 79.8044 76.1645 79.986 76.5166 80.1877C76.9089 80.4097 77.4521 80.2584 77.6734 79.875C77.784 79.6833 77.8142 79.4513 77.7538 79.2394C77.6935 79.0175 77.5527 78.846 77.3515 78.7249C77.0095 78.5332 76.7077 78.3617 76.4361 78.1902L70.4811 74.5886L70.1089 73.0349C69.7267 71.4409 69.616 69.7965 69.787 68.1621L69.7971 68.0411L70.5716 67.7384C74.2533 66.326 78.0657 65.1456 81.9083 64.2578L82.1899 64.1973L82.1597 64.4798C82.0994 65.0347 82.0692 65.5895 82.0692 66.1343C82.0692 74.1749 88.6579 80.7123 96.7555 80.7123C99.6727 80.7123 102.489 79.8649 104.913 78.2608C105.105 78.1398 105.225 77.9481 105.276 77.7261C105.316 77.5042 105.276 77.2822 105.145 77.1006C104.883 76.7173 104.36 76.6063 103.968 76.8686C101.835 78.281 99.3407 79.0376 96.7555 79.0376C89.5934 79.0376 83.7692 73.2569 83.7692 66.1444C83.7692 65.418 83.8296 64.6816 83.9603 63.9552L83.9804 63.824L84.1112 63.7938C85.4994 63.5113 86.9177 63.2591 88.3059 63.0472L88.497 63.0169L88.5272 63.2086C88.5775 63.5113 88.668 63.8139 88.7787 64.1065L88.7988 64.167L88.7787 64.2276C88.6278 64.8631 88.5473 65.5088 88.5473 66.1444C88.5473 70.6237 92.2189 74.2758 96.7354 74.2758C101.252 74.2758 104.934 70.6237 104.934 66.1444C104.934 64.843 104.612 63.5516 104.008 62.4015L103.847 62.0989L104.189 62.109C105.799 62.1594 107.428 62.2603 109.028 62.4116L109.158 62.4217L109.199 62.5529C109.541 63.7231 109.712 64.9338 109.712 66.1444C109.712 69.0297 108.776 71.7537 107.006 74.0236C106.865 74.2052 106.805 74.4171 106.835 74.639C106.865 74.861 106.976 75.0627 107.157 75.1939C107.519 75.4663 108.072 75.3956 108.344 75.0425C110.345 72.47 111.402 69.3929 111.402 66.1343C111.402 65.0447 111.281 63.9451 111.029 62.8757L110.969 62.5932L111.251 62.6235C116.743 63.2691 122.215 64.4596 127.506 66.1646L128.864 66.5984L116.562 76.001C106.503 83.6885 92.9733 85.4641 81.2544 80.6216C81.1438 80.5812 81.0331 80.561 80.9325 80.561C80.6006 80.561 80.2787 80.7527 80.1479 81.0755C80.0574 81.2773 80.0574 81.5093 80.1479 81.7111C80.2284 81.923 80.3994 82.0844 80.6106 82.1752C85.1473 84.0517 89.9455 85 94.8745 85C103.073 85 111.15 82.2761 117.608 77.3428L129.981 67.8897C130.615 67.4055 130.987 66.669 130.997 65.872C131.037 65.0952 130.695 64.3486 130.081 63.8442ZM67.2823 72.6616C67.2421 72.6415 67.2018 72.6213 67.1716 72.6011L62.7356 70.7852L68.0569 68.7271L68.0468 69.0297C67.9965 70.3312 68.1071 71.6326 68.3687 72.9139L68.4592 73.3678L67.2823 72.6616ZM90.1869 62.7849L90.3982 62.7546C92.3597 62.5024 94.3514 62.3208 96.323 62.2098L96.5342 62.1998V62.4116C96.5141 64.1368 95.0857 65.5391 93.3455 65.5391C91.8366 65.5391 90.5189 64.4697 90.2171 62.9968L90.1869 62.7849ZM96.7656 72.6011C93.3354 72.6011 90.4887 69.9377 90.2775 66.5479L90.2573 66.1343L90.5994 66.3664C91.4141 66.9212 92.3698 67.2138 93.3556 67.2138C96.0514 67.2138 98.2342 65.0447 98.2342 62.3713L98.2242 62.1695L98.4254 62.109L98.9283 62.0888C99.8437 62.0686 100.779 62.0585 101.685 62.0585H101.785L101.845 62.1291C102.751 63.2591 103.254 64.6916 103.254 66.1444C103.264 69.7057 100.347 72.6011 96.7656 72.6011Z" fill="#303030"/>
</svg>
