<svg width="190" height="211" viewBox="0 0 190 211" fill="none" xmlns="http://www.w3.org/2000/svg">
<path d="M0 52.75L95 0L190 52.75V157.828L95 211L0 157.828V52.75Z" fill="white"/>
<path d="M53.636 108.05L56.846 114.695H56.876L60.011 108.05H61.376L57.596 115.745C56.946 117.055 56.246 117.95 55.496 118.43C54.756 118.91 53.706 119.15 52.346 119.15L52.271 118.145C53.381 118.145 54.211 117.99 54.761 117.68C55.311 117.36 55.806 116.75 56.246 115.85L52.226 108.05H53.636ZM66.3663 111.965C65.4863 111.965 64.8013 112.24 64.3113 112.79C63.8213 113.33 63.5763 114.1 63.5763 115.1C63.5763 116.06 63.8313 116.825 64.3413 117.395C64.8613 117.965 65.5363 118.25 66.3663 118.25C67.0663 118.25 67.7363 118.08 68.3763 117.74L68.6763 118.625C67.9263 118.975 67.1413 119.15 66.3213 119.15C65.1613 119.15 64.2213 118.785 63.5013 118.055C62.7813 117.315 62.4213 116.33 62.4213 115.1C62.4213 113.83 62.7663 112.84 63.4563 112.13C64.1463 111.41 65.1013 111.05 66.3213 111.05C67.1413 111.05 67.9263 111.225 68.6763 111.575L68.3763 112.49C67.7063 112.14 67.0363 111.965 66.3663 111.965ZM77.2182 112.115H74.3682V119H73.1832V112.115H70.3332V111.2H77.2182V112.115ZM82.6606 119.15C81.5306 119.15 80.6906 118.695 80.1406 117.785H80.1106V122.3H79.0156V111.2H80.0656L80.0806 112.52H80.1106C80.6606 111.54 81.5106 111.05 82.6606 111.05C83.6406 111.05 84.4106 111.4 84.9706 112.1C85.5306 112.79 85.8106 113.79 85.8106 115.1C85.8106 116.38 85.5206 117.375 84.9406 118.085C84.3706 118.795 83.6106 119.15 82.6606 119.15ZM84.7306 115.1C84.7306 114.08 84.5256 113.3 84.1156 112.76C83.7156 112.22 83.1506 111.95 82.4206 111.95C81.7306 111.95 81.1706 112.22 80.7406 112.76C80.3206 113.3 80.1106 114.045 80.1106 114.995V115.205C80.1106 116.175 80.3256 116.925 80.7556 117.455C81.1856 117.985 81.7406 118.25 82.4206 118.25C83.1306 118.25 83.6906 117.98 84.1006 117.44C84.5206 116.89 84.7306 116.11 84.7306 115.1ZM90.4643 111.05C91.5543 111.05 92.3343 111.275 92.8043 111.725C93.2743 112.175 93.5093 112.915 93.5093 113.945V116.9C93.5093 117.61 93.5843 118.31 93.7343 119H92.6843C92.6043 118.61 92.5543 118.15 92.5343 117.62H92.5043C92.2343 118.1 91.8443 118.475 91.3343 118.745C90.8243 119.015 90.2493 119.15 89.6093 119.15C88.8893 119.15 88.3143 118.95 87.8843 118.55C87.4543 118.14 87.2393 117.59 87.2393 116.9C87.2393 116.03 87.6193 115.34 88.3793 114.83C89.1393 114.31 90.2193 114.05 91.6193 114.05H92.4143V113.975C92.4143 113.215 92.2693 112.69 91.9793 112.4C91.6993 112.1 91.1943 111.95 90.4643 111.95C89.5243 111.95 88.6493 112.18 87.8393 112.64L87.6443 111.755C88.5043 111.285 89.4443 111.05 90.4643 111.05ZM88.3193 116.855C88.3193 117.305 88.4593 117.66 88.7393 117.92C89.0193 118.17 89.3943 118.295 89.8643 118.295C90.5543 118.295 91.1493 118.05 91.6493 117.56C92.1593 117.06 92.4143 116.45 92.4143 115.73V114.89H91.6193C90.5693 114.89 89.7543 115.07 89.1743 115.43C88.6043 115.78 88.3193 116.255 88.3193 116.855ZM97.002 115.25V119H95.832V111.2H97.002V114.38H101.427V111.2H102.597V119H101.427V115.25H97.002ZM105.441 114.65H110.241C110.231 113.78 110.021 113.11 109.611 112.64C109.201 112.17 108.636 111.935 107.916 111.935C107.166 111.935 106.571 112.175 106.131 112.655C105.701 113.125 105.471 113.79 105.441 114.65ZM105.441 115.52C105.461 116.37 105.721 117.04 106.221 117.53C106.721 118.02 107.371 118.265 108.171 118.265C108.941 118.265 109.706 118.065 110.466 117.665L110.766 118.52C109.926 118.94 109.026 119.15 108.066 119.15C106.946 119.15 106.041 118.785 105.351 118.055C104.661 117.325 104.316 116.34 104.316 115.1C104.316 113.84 104.636 112.85 105.276 112.13C105.926 111.41 106.806 111.05 107.916 111.05C108.996 111.05 109.831 111.395 110.421 112.085C111.021 112.765 111.321 113.745 111.321 115.025C111.321 115.155 111.311 115.32 111.291 115.52H105.441ZM114.287 115.25V119H113.117V111.2H114.287V114.38H118.712V111.2H119.882V119H118.712V115.25H114.287ZM123.266 117.47H123.296L127.736 111.2H128.966V119H127.826V112.73H127.811L123.356 119H122.126V111.2H123.266V117.47ZM131.823 114.65H136.623C136.613 113.78 136.403 113.11 135.993 112.64C135.583 112.17 135.018 111.935 134.298 111.935C133.548 111.935 132.953 112.175 132.513 112.655C132.083 113.125 131.853 113.79 131.823 114.65ZM131.823 115.52C131.843 116.37 132.103 117.04 132.603 117.53C133.103 118.02 133.753 118.265 134.553 118.265C135.323 118.265 136.088 118.065 136.848 117.665L137.148 118.52C136.308 118.94 135.408 119.15 134.448 119.15C133.328 119.15 132.423 118.785 131.733 118.055C131.043 117.325 130.698 116.34 130.698 115.1C130.698 113.84 131.018 112.85 131.658 112.13C132.308 111.41 133.188 111.05 134.298 111.05C135.378 111.05 136.213 111.395 136.803 112.085C137.403 112.765 137.703 113.745 137.703 115.025C137.703 115.155 137.693 115.32 137.673 115.52H131.823ZM74.5789 134.7L71.8639 138.69H70.8589L68.1439 134.7H68.1139V141H67.0039V133.2H68.3239L71.3539 137.85H71.3689L74.3989 133.2H75.7339V141H74.6089V134.7H74.5789ZM83.0002 134.79C82.5502 134.23 81.9302 133.95 81.1402 133.95C80.3502 133.95 79.7252 134.23 79.2652 134.79C78.8152 135.34 78.5902 136.11 78.5902 137.1C78.5902 138.09 78.8152 138.865 79.2652 139.425C79.7252 139.975 80.3502 140.25 81.1402 140.25C81.9302 140.25 82.5502 139.975 83.0002 139.425C83.4602 138.865 83.6902 138.09 83.6902 137.1C83.6902 136.11 83.4602 135.34 83.0002 134.79ZM83.8102 140.055C83.1402 140.785 82.2502 141.15 81.1402 141.15C80.0302 141.15 79.1402 140.785 78.4702 140.055C77.8002 139.325 77.4652 138.34 77.4652 137.1C77.4652 135.86 77.8002 134.875 78.4702 134.145C79.1402 133.415 80.0302 133.05 81.1402 133.05C82.2502 133.05 83.1402 133.415 83.8102 134.145C84.4802 134.875 84.8152 135.86 84.8152 137.1C84.8152 138.34 84.4802 139.325 83.8102 140.055ZM90.1899 141.15C89.0599 141.15 88.2199 140.695 87.6699 139.785H87.6399V144.3H86.5449V133.2H87.5949L87.6099 134.52H87.6399C88.1899 133.54 89.0399 133.05 90.1899 133.05C91.1699 133.05 91.9399 133.4 92.4999 134.1C93.0599 134.79 93.3399 135.79 93.3399 137.1C93.3399 138.38 93.0499 139.375 92.4699 140.085C91.8999 140.795 91.1399 141.15 90.1899 141.15ZM92.2599 137.1C92.2599 136.08 92.0549 135.3 91.6449 134.76C91.2449 134.22 90.6799 133.95 89.9499 133.95C89.2599 133.95 88.6999 134.22 88.2699 134.76C87.8499 135.3 87.6399 136.045 87.6399 136.995V137.205C87.6399 138.175 87.8549 138.925 88.2849 139.455C88.7149 139.985 89.2699 140.25 89.9499 140.25C90.6599 140.25 91.2199 139.98 91.6299 139.44C92.0499 138.89 92.2599 138.11 92.2599 137.1ZM96.2236 140.07H99.1936V133.2H100.244V140.07H103.214V133.2H104.294V140.07H105.494V142.8H104.489V141H95.1436V133.2H96.2236V140.07ZM108.281 139.47H108.311L112.751 133.2H113.981V141H112.841V134.73H112.826L108.371 141H107.141V133.2H108.281V139.47ZM117.407 137.25V141H116.237V133.2H117.407V136.38H121.832V133.2H123.002V141H121.832V137.25H117.407ZM49.9531 155.2H56.5531V163H55.4581V156.13H51.0481V163H49.9531V155.2ZM63.8108 156.79C63.3608 156.23 62.7408 155.95 61.9508 155.95C61.1608 155.95 60.5358 156.23 60.0758 156.79C59.6258 157.34 59.4008 158.11 59.4008 159.1C59.4008 160.09 59.6258 160.865 60.0758 161.425C60.5358 161.975 61.1608 162.25 61.9508 162.25C62.7408 162.25 63.3608 161.975 63.8108 161.425C64.2708 160.865 64.5008 160.09 64.5008 159.1C64.5008 158.11 64.2708 157.34 63.8108 156.79ZM64.6208 162.055C63.9508 162.785 63.0608 163.15 61.9508 163.15C60.8408 163.15 59.9508 162.785 59.2808 162.055C58.6108 161.325 58.2758 160.34 58.2758 159.1C58.2758 157.86 58.6108 156.875 59.2808 156.145C59.9508 155.415 60.8408 155.05 61.9508 155.05C63.0608 155.05 63.9508 155.415 64.6208 156.145C65.2908 156.875 65.6258 157.86 65.6258 159.1C65.6258 160.34 65.2908 161.325 64.6208 162.055ZM68.8555 162.1H72.9805V156.1H69.7555C69.7555 157.05 69.7555 157.715 69.7555 158.095C69.7555 158.475 69.7405 158.92 69.7105 159.43C69.6905 159.93 69.6655 160.255 69.6355 160.405C69.6155 160.545 69.5655 160.745 69.4855 161.005C69.4055 161.265 69.3205 161.455 69.2305 161.575C69.1505 161.685 69.0255 161.86 68.8555 162.1ZM67.5505 162.1C67.7705 161.83 67.9255 161.64 68.0155 161.53C68.1055 161.41 68.2055 161.22 68.3155 160.96C68.4255 160.69 68.4905 160.485 68.5105 160.345C68.5405 160.195 68.5705 159.88 68.6005 159.4C68.6405 158.91 68.6605 158.47 68.6605 158.08C68.6605 157.68 68.6605 157.02 68.6605 156.1V155.2H74.0755V162.1H75.1255V164.8H74.0305V163H67.9255V164.8H66.8305V162.1H67.5505ZM81.1982 155.2H86.8982V156.145H82.3532V163H81.1982V155.2ZM89.885 159.04V155.2H95.66V163H94.55V156.13H90.965V159.22C90.965 160.71 90.75 161.72 90.32 162.25C89.89 162.78 89.07 163.08 87.86 163.15L87.8 162.22C88.38 162.19 88.805 162.095 89.075 161.935C89.355 161.775 89.56 161.48 89.69 161.05C89.82 160.61 89.885 159.94 89.885 159.04ZM100.762 155.05C101.852 155.05 102.632 155.275 103.102 155.725C103.572 156.175 103.807 156.915 103.807 157.945V160.9C103.807 161.61 103.882 162.31 104.032 163H102.982C102.902 162.61 102.852 162.15 102.832 161.62H102.802C102.532 162.1 102.142 162.475 101.632 162.745C101.122 163.015 100.547 163.15 99.9071 163.15C99.1871 163.15 98.6121 162.95 98.1821 162.55C97.7521 162.14 97.5371 161.59 97.5371 160.9C97.5371 160.03 97.9171 159.34 98.6771 158.83C99.4371 158.31 100.517 158.05 101.917 158.05H102.712V157.975C102.712 157.215 102.567 156.69 102.277 156.4C101.997 156.1 101.492 155.95 100.762 155.95C99.8221 155.95 98.9471 156.18 98.1371 156.64L97.9421 155.755C98.8021 155.285 99.7421 155.05 100.762 155.05ZM98.6171 160.855C98.6171 161.305 98.7571 161.66 99.0371 161.92C99.3171 162.17 99.6921 162.295 100.162 162.295C100.852 162.295 101.447 162.05 101.947 161.56C102.457 161.06 102.712 160.45 102.712 159.73V158.89H101.917C100.867 158.89 100.052 159.07 99.4721 159.43C98.9021 159.78 98.6171 160.255 98.6171 160.855ZM108.545 155.92C107.775 155.92 106.945 156.095 106.055 156.445L105.785 155.605C106.725 155.235 107.675 155.05 108.635 155.05C109.705 155.05 110.545 155.23 111.155 155.59C111.765 155.95 112.07 156.41 112.07 156.97C112.07 157.38 111.9 157.755 111.56 158.095C111.23 158.435 110.75 158.675 110.12 158.815V158.845C110.81 158.965 111.325 159.22 111.665 159.61C112.015 159.99 112.19 160.42 112.19 160.9C112.19 161.6 111.88 162.15 111.26 162.55C110.65 162.95 109.775 163.15 108.635 163.15C107.655 163.15 106.67 162.965 105.68 162.595L105.95 161.755C106.86 162.085 107.74 162.25 108.59 162.25C110.22 162.25 111.035 161.76 111.035 160.78C111.035 160.28 110.78 159.905 110.27 159.655C109.76 159.405 108.92 159.28 107.75 159.28H107.09V158.395H107.75C109.86 158.395 110.915 157.97 110.915 157.12C110.915 156.32 110.125 155.92 108.545 155.92ZM116.846 155.05C117.936 155.05 118.716 155.275 119.186 155.725C119.656 156.175 119.891 156.915 119.891 157.945V160.9C119.891 161.61 119.966 162.31 120.116 163H119.066C118.986 162.61 118.936 162.15 118.916 161.62H118.886C118.616 162.1 118.226 162.475 117.716 162.745C117.206 163.015 116.631 163.15 115.991 163.15C115.271 163.15 114.696 162.95 114.266 162.55C113.836 162.14 113.621 161.59 113.621 160.9C113.621 160.03 114.001 159.34 114.761 158.83C115.521 158.31 116.601 158.05 118.001 158.05H118.796V157.975C118.796 157.215 118.651 156.69 118.361 156.4C118.081 156.1 117.576 155.95 116.846 155.95C115.906 155.95 115.031 156.18 114.221 156.64L114.026 155.755C114.886 155.285 115.826 155.05 116.846 155.05ZM114.701 160.855C114.701 161.305 114.841 161.66 115.121 161.92C115.401 162.17 115.776 162.295 116.246 162.295C116.936 162.295 117.531 162.05 118.031 161.56C118.541 161.06 118.796 160.45 118.796 159.73V158.89H118.001C116.951 158.89 116.136 159.07 115.556 159.43C114.986 159.78 114.701 160.255 114.701 160.855ZM129.789 156.7L127.074 160.69H126.069L123.354 156.7H123.324V163H122.214V155.2H123.534L126.564 159.85H126.579L129.609 155.2H130.944V163H129.819V156.7H129.789ZM134.34 161.47H134.37L138.81 155.2H140.04V163H138.9V156.73H138.885L134.43 163H133.2V155.2H134.34V161.47Z" fill="black"/>
<g clip-path="url(#clip0)">
<path d="M89.778 51.1518C89.4355 50.8364 89.0023 50.6126 88.5489 50.5109L80.3783 48.6595C76.0462 47.6931 71.5025 47.8152 67.2207 48.9952C62.949 50.1854 59.04 52.4233 55.9068 55.4547L55.2318 56.116C55.1109 56.238 55.0303 56.3906 55.0101 56.5534C54.99 56.7161 55.0303 56.8891 55.1209 57.0315C55.2116 57.1739 55.3527 57.2858 55.5239 57.3468C55.6851 57.418 55.8665 57.418 56.0478 57.3672L60.4908 56.0346C62.8483 55.3327 65.3065 54.9766 67.7647 54.9766C69.3868 54.9766 70.9987 55.1292 72.5905 55.4446L85.0832 57.886C85.6172 57.9979 86.1813 57.9368 86.6851 57.7334C87.0175 57.591 87.3198 57.3977 87.5717 57.1434L89.8788 54.8241C90.2012 54.4985 90.4329 54.0916 90.5437 53.644C90.6545 53.2066 90.6444 52.7387 90.5135 52.3114C90.3724 51.8537 90.1206 51.457 89.778 51.1518ZM88.9821 53.2677C88.9317 53.4508 88.8411 53.6237 88.7101 53.7559L86.403 56.0854C86.272 56.2177 86.1209 56.3092 85.9395 56.3601C85.8388 56.3906 85.728 56.411 85.6171 56.411C85.5466 56.411 85.4761 56.4008 85.4056 56.3906L72.923 53.9492C68.8125 53.1558 64.5106 53.3185 60.4908 54.4477L60.2389 53.8984C63.0901 51.9452 66.2737 50.6228 69.6991 49.9718C73.1245 49.3207 76.5902 49.3716 79.9955 50.1345L88.1661 51.9859C88.3474 52.0266 88.5187 52.1182 88.6597 52.2402C88.8008 52.3725 88.9015 52.5352 88.962 52.7082C89.0224 52.8913 89.0325 53.0846 88.9821 53.2677Z" fill="#303030"/>
<path d="M118.199 75.9016C127.286 75.9016 134.47 68.9029 134.762 68.6079C134.903 68.4655 134.983 68.2722 134.983 68.0789C134.983 67.8856 134.903 67.6924 134.762 67.5499C134.459 67.2549 127.306 60.2461 118.199 60.2461C109.132 60.2461 101.928 67.2448 101.626 67.5499C101.485 67.6924 101.404 67.8755 101.404 68.0789C101.404 68.2722 101.485 68.4655 101.626 68.6079C101.928 68.9029 109.101 75.9016 118.199 75.9016ZM125.795 64.0913L125.322 63.2572L126.188 63.6539C128.566 64.7627 130.782 66.1665 132.767 67.845L133.049 68.0789L132.767 68.3129C130.782 69.9914 128.566 71.3952 126.188 72.504L125.322 72.9007L125.795 72.0665C126.49 70.8458 126.863 69.4624 126.863 68.0687C126.863 66.6853 126.49 65.312 125.795 64.0913ZM112.084 64.6711C112.698 63.6335 113.595 62.779 114.663 62.1789L114.743 62.1483C117 61.6499 119.388 61.6499 121.644 62.1483L121.725 62.1789C122.793 62.779 123.69 63.6335 124.304 64.6711C124.919 65.7087 125.251 66.8887 125.251 68.0789C125.251 69.2793 124.919 70.4593 124.304 71.4969C123.69 72.5243 122.793 73.389 121.725 73.9892L121.644 74.0197C120.516 74.2638 119.357 74.3859 118.199 74.3859C117.04 74.3859 115.882 74.2638 114.753 74.0197L114.632 73.9688C113.585 73.3788 112.698 72.5243 112.094 71.4969C111.469 70.4593 111.147 69.2793 111.147 68.0789C111.136 66.8887 111.459 65.7087 112.084 64.6711ZM103.631 67.845C105.616 66.1665 107.832 64.7627 110.21 63.6539L111.076 63.2572L110.603 64.0913C109.907 65.312 109.535 66.6955 109.535 68.0891C109.535 69.4827 109.907 70.8662 110.603 72.0869L111.076 72.921L110.21 72.5243C107.832 71.4155 105.616 70.0117 103.631 68.3332L103.359 68.0789L103.631 67.845Z" fill="#303030"/>
<path d="M134.339 75.1793C134.288 75.1692 134.248 75.1692 134.198 75.1692C134.036 75.1692 133.875 75.22 133.734 75.3116C133.23 75.6473 132.706 75.983 132.193 76.2881C132.021 76.3899 131.901 76.5628 131.86 76.7561C131.82 76.9494 131.85 77.1426 131.961 77.3156C132.072 77.4885 132.253 77.6106 132.455 77.6513C132.656 77.7021 132.878 77.6716 133.059 77.5699C133.603 77.2444 134.147 76.8985 134.661 76.5526C134.832 76.4407 134.953 76.2576 134.983 76.0643C135.024 75.8711 134.973 75.6676 134.862 75.5049C134.731 75.3217 134.55 75.2098 134.339 75.1793Z" fill="#303030"/>
<path d="M128.576 78.4142C128.384 78.3328 128.163 78.3328 127.961 78.4142C126.873 78.872 125.745 79.2585 124.616 79.5739C124.415 79.6349 124.244 79.757 124.133 79.9401C124.032 80.113 124.012 80.3165 124.062 80.5097C124.123 80.703 124.254 80.8658 124.435 80.9675C124.616 81.0692 124.848 81.0896 125.05 81.0387C126.259 80.703 127.447 80.2961 128.596 79.818C128.777 79.7366 128.928 79.584 129.009 79.4009C129.08 79.2178 129.08 79.0144 128.999 78.8313C128.928 78.638 128.777 78.4956 128.576 78.4142Z" fill="#303030"/>
<path d="M120.577 80.5708C120.496 80.4996 120.395 80.4589 120.294 80.4283C120.194 80.3978 120.083 80.3877 119.972 80.3978H119.962C118.793 80.4894 117.604 80.4894 116.436 80.3978C116.416 80.3978 116.395 80.3978 116.375 80.3978C116.184 80.3978 115.993 80.4589 115.851 80.5809C115.69 80.7132 115.59 80.8963 115.579 81.0997C115.559 81.3032 115.63 81.4965 115.761 81.649C115.902 81.8016 116.093 81.9034 116.305 81.9237C117.554 82.0254 118.813 82.0254 120.093 81.9237C120.204 81.9135 120.315 81.8932 120.405 81.8423C120.506 81.8016 120.587 81.7304 120.657 81.6592C120.728 81.5778 120.778 81.4965 120.808 81.3947C120.838 81.3032 120.849 81.2015 120.849 81.0997C120.838 80.998 120.808 80.9065 120.768 80.8149C120.728 80.7132 120.657 80.6318 120.577 80.5708Z" fill="#303030"/>
<path d="M111.791 79.5739C110.653 79.2585 109.525 78.872 108.447 78.4244C108.346 78.3837 108.245 78.3633 108.134 78.3633H108.124C108.023 78.3633 107.923 78.3837 107.822 78.4142C107.721 78.4549 107.63 78.5057 107.56 78.577C107.489 78.6482 107.429 78.7295 107.389 78.8211C107.348 78.9126 107.328 79.0042 107.328 79.1059C107.328 79.2076 107.348 79.2992 107.379 79.3908C107.419 79.4823 107.469 79.5637 107.54 79.6349C107.61 79.7061 107.701 79.7671 107.802 79.8078C108.95 80.2859 110.139 80.703 111.348 81.0285C111.55 81.0794 111.771 81.0489 111.953 80.9471C112.134 80.8454 112.265 80.6827 112.325 80.4894C112.376 80.3063 112.356 80.1028 112.255 79.9299C112.164 79.7671 111.993 79.6349 111.791 79.5739Z" fill="#303030"/>
<path d="M104.205 76.278C103.752 76.0135 103.248 75.688 102.664 75.3014C102.573 75.2404 102.482 75.1997 102.371 75.1793C102.321 75.1692 102.261 75.159 102.2 75.159C102.15 75.159 102.099 75.159 102.049 75.1692C101.948 75.1895 101.848 75.22 101.757 75.2811C101.666 75.3319 101.596 75.4031 101.535 75.4845C101.414 75.6473 101.374 75.8507 101.414 76.044C101.455 76.2373 101.565 76.4102 101.737 76.5323C102.261 76.8883 102.805 77.2342 103.349 77.5495C103.52 77.6513 103.742 77.6818 103.943 77.6309C104.155 77.58 104.326 77.458 104.437 77.285C104.548 77.1121 104.578 76.9188 104.538 76.7256C104.497 76.5526 104.376 76.3899 104.205 76.278Z" fill="#303030"/>
<path d="M71.7947 60.2563C62.6871 60.2563 55.524 67.2549 55.2318 67.5499C55.0807 67.6924 55.0001 67.8856 55.0001 68.0789C55.0001 68.2722 55.0807 68.4655 55.2217 68.6079C55.524 68.9029 62.677 75.9016 71.7947 75.9016C80.8518 75.9016 88.0653 68.9029 88.3676 68.6079C88.5086 68.4655 88.5892 68.2824 88.5892 68.0789C88.5892 67.8856 88.5086 67.6924 88.3676 67.5499C88.0653 67.2549 80.872 60.2563 71.7947 60.2563ZM64.1983 72.0767L64.6718 72.9109L63.8054 72.5141C61.4278 71.4053 59.2214 70.0015 57.2266 68.3231L56.9445 68.0891L57.2266 67.8551C59.2113 66.1767 61.4278 64.7729 63.8054 63.6641L64.6718 63.2673L64.1983 64.0811C63.5032 65.3018 63.1304 66.6853 63.1304 68.0789C63.1304 69.4726 63.5032 70.856 64.1983 72.0767ZM77.8999 71.4969C77.2854 72.5345 76.3887 73.389 75.3107 73.9892L75.2301 74.0197C74.1018 74.2638 72.9432 74.3859 71.7846 74.3859C70.626 74.3859 69.4674 74.2638 68.339 74.0197L68.198 73.9485C67.1502 73.3585 66.2838 72.504 65.6692 71.4867C65.0446 70.4491 64.7222 69.2691 64.7222 68.0789C64.7222 66.8887 65.0446 65.6986 65.6692 64.6711C66.2838 63.6335 67.1804 62.779 68.2484 62.1789L68.3289 62.1483C70.5857 61.6499 72.9734 61.6499 75.2301 62.1483L75.3107 62.1789C76.3787 62.779 77.2753 63.6335 77.8899 64.6711C78.5145 65.7087 78.8369 66.8887 78.8369 68.0891C78.8369 69.2894 78.5246 70.4593 77.8999 71.4969ZM86.3526 68.3129C84.3679 69.9914 82.1515 71.4053 79.7738 72.504L78.9074 72.9007L79.3809 72.0665C80.0761 70.8458 80.4489 69.4624 80.4489 68.0687C80.4489 66.6751 80.0862 65.2917 79.3809 64.071L78.9074 63.2368L79.7738 63.6335C82.1515 64.7423 84.3679 66.1461 86.3526 67.8246L86.6347 68.0586L86.3526 68.3129Z" fill="#303030"/>
<path d="M57.8009 76.278L57.5591 76.1355C57.1158 75.8711 56.6826 75.5862 56.2594 75.3014C56.1688 75.2404 56.0781 75.1997 55.9673 75.1793C55.9068 75.1692 55.8564 75.159 55.796 75.159C55.7456 75.159 55.6953 75.159 55.6449 75.1692C55.5441 75.1895 55.4434 75.22 55.3527 75.2811C55.262 75.3319 55.1915 75.4031 55.1311 75.4845C55.0706 75.5659 55.0303 75.6574 55.0102 75.749C55.0001 75.8609 54.99 75.9524 55.0102 76.0542C55.0303 76.1559 55.0605 76.2474 55.121 76.3288C55.1814 76.4102 55.252 76.4916 55.3326 76.5424C55.8564 76.8985 56.4005 77.2444 56.9445 77.5699C57.1259 77.6818 57.3475 77.7123 57.5591 77.6614C57.7706 77.6106 57.952 77.4885 58.0527 77.3156C58.1636 77.1426 58.1938 76.9392 58.1535 76.7459C58.1132 76.5526 57.9822 76.3899 57.8009 76.278Z" fill="#303030"/>
<path d="M73.5477 80.3978C72.379 80.4894 71.1902 80.4894 70.0114 80.3978C69.9812 80.3978 69.951 80.3978 69.9208 80.3978C69.8402 80.3978 69.7596 80.408 69.679 80.4283C69.5782 80.4589 69.4775 80.5097 69.3969 80.5708C69.3163 80.6318 69.2458 80.7132 69.2055 80.8047C69.1551 80.8963 69.1249 80.9878 69.1249 81.0896C69.1249 81.1913 69.1249 81.2828 69.1652 81.3846C69.1954 81.4761 69.2458 81.5677 69.3163 81.6389C69.3868 81.7203 69.4674 81.7813 69.5681 81.822C69.6689 81.8728 69.7696 81.8932 69.8805 81.9034C71.1801 82.0051 72.4294 82.0051 73.6786 81.9034C73.8902 81.883 74.0917 81.7915 74.2227 81.6389C74.3536 81.4863 74.4242 81.293 74.404 81.0896C74.3839 80.8963 74.2831 80.703 74.132 80.5809C73.9809 80.4487 73.7592 80.3877 73.5477 80.3978Z" fill="#303030"/>
<path d="M65.6591 79.7163C65.5785 79.6552 65.4778 79.6044 65.3771 79.5739C64.2386 79.2585 63.1102 78.872 62.0222 78.4142C61.9214 78.3735 61.8207 78.3532 61.7099 78.343C61.6998 78.343 61.6998 78.343 61.6897 78.343C61.589 78.343 61.4882 78.3633 61.3975 78.3939C61.2968 78.4345 61.2061 78.4854 61.1356 78.5566C61.055 78.6278 61.0046 78.7092 60.9542 78.8007C60.9139 78.8923 60.8938 78.9839 60.8938 79.0856C60.8938 79.1873 60.9139 79.2789 60.9542 79.3704C60.9945 79.462 61.055 79.5433 61.1255 79.6145C61.196 79.6858 61.2867 79.7468 61.3875 79.7875C62.5461 80.2656 63.7349 80.6827 64.9438 81.0184C65.0446 81.0489 65.1554 81.059 65.2562 81.0387C65.3569 81.0285 65.4677 80.998 65.5584 80.9471C65.6491 80.8963 65.7297 80.8352 65.7901 80.7539C65.8506 80.6725 65.9009 80.5911 65.9312 80.4894C65.9614 80.3978 65.9715 80.2961 65.9513 80.1944C65.9412 80.0927 65.911 80.0011 65.8606 79.9197C65.8002 79.8485 65.7397 79.7773 65.6591 79.7163Z" fill="#303030"/>
<path d="M82.4336 78.577C82.3631 78.5057 82.2724 78.4549 82.1716 78.4142C82.081 78.3735 81.9701 78.3633 81.8694 78.3633H81.8593C81.7485 78.3633 81.6477 78.3837 81.547 78.4244C80.4589 78.872 79.3306 79.2687 78.1921 79.5739C78.0007 79.6349 77.8294 79.7671 77.7287 79.9401C77.6279 80.113 77.6078 80.3165 77.6582 80.4996C77.7186 80.6928 77.8496 80.8556 78.0309 80.9573C78.2123 81.0591 78.4339 81.0896 78.6455 81.0285C79.8444 80.6928 81.0433 80.2859 82.1918 79.8078C82.2925 79.7671 82.3731 79.7061 82.4537 79.6349C82.5242 79.5637 82.5847 79.4823 82.6149 79.3908C82.6552 79.2992 82.6754 79.1975 82.6754 79.1059C82.6754 79.0042 82.6552 78.9126 82.6149 78.8211C82.5645 78.7295 82.5041 78.6482 82.4336 78.577Z" fill="#303030"/>
<path d="M88.4482 75.4947C88.3877 75.4133 88.3172 75.3421 88.2265 75.2912C88.1359 75.2404 88.0351 75.1997 87.9344 75.1793C87.8236 75.159 87.7228 75.159 87.612 75.1793C87.5213 75.1997 87.4407 75.2302 87.3702 75.2709L87.3299 75.3014C86.8262 75.6371 86.3023 75.9728 85.7885 76.278C85.6978 76.3288 85.6172 76.4 85.5567 76.4814C85.4963 76.5628 85.456 76.6544 85.4258 76.7459C85.4056 76.8375 85.3955 76.9392 85.4157 77.0307C85.4358 77.1325 85.4661 77.224 85.5265 77.3054C85.5769 77.3868 85.6474 77.4681 85.7381 77.519C85.8288 77.58 85.9194 77.6207 86.0202 77.6411C86.1209 77.6614 86.2317 77.6716 86.3325 77.6513C86.4332 77.6309 86.534 77.6004 86.6247 77.5495C87.1687 77.224 87.7027 76.8781 88.2366 76.5323C88.3273 76.4712 88.3978 76.4 88.4482 76.3187C88.5086 76.2373 88.5389 76.1457 88.559 76.044C88.5792 75.9423 88.5792 75.8507 88.5489 75.749C88.5489 75.6676 88.5086 75.5761 88.4482 75.4947Z" fill="#303030"/>
<path d="M103.308 57.7133C103.641 57.8557 103.993 57.9167 104.366 57.9167C104.548 57.9167 104.729 57.8964 104.91 57.8659L117.403 55.4245C121.413 54.6412 125.594 54.8548 129.513 56.0246L133.956 57.3572C134.127 57.4081 134.318 57.3979 134.48 57.3369C134.651 57.2759 134.792 57.164 134.883 57.0216C134.973 56.8791 135.014 56.7062 134.993 56.5434C134.973 56.3807 134.893 56.2179 134.772 56.106L134.097 55.4448C130.964 52.4032 127.044 50.1653 122.773 48.9853C118.501 47.7951 113.947 47.6832 109.615 48.6496L107.575 49.1124L107.958 50.5874L109.998 50.1246C111.801 49.7177 113.655 49.5142 115.499 49.5142H115.509C120.637 49.5142 125.574 51.0299 129.755 53.8986L129.503 54.4479C125.483 53.3289 121.181 53.156 117.081 53.9495L104.588 56.3909C104.517 56.401 104.447 56.4112 104.376 56.4112C104.266 56.4112 104.155 56.3909 104.054 56.3603C103.883 56.3095 103.721 56.2078 103.591 56.0857L101.283 53.7562C101.152 53.6239 101.052 53.4612 101.011 53.2679C100.961 53.0848 100.971 52.8915 101.032 52.7084C101.082 52.5253 101.193 52.3625 101.334 52.2303C101.475 52.1082 101.646 52.0167 101.838 51.976L105.918 51.0503L105.535 49.5753L101.455 50.501C100.991 50.6027 100.568 50.8265 100.215 51.1418C99.8729 51.4572 99.6211 51.8539 99.48 52.2812C99.3491 52.7186 99.339 53.1763 99.4498 53.6138C99.5606 54.0512 99.7923 54.4581 100.115 54.7938L102.422 57.1233C102.684 57.3776 102.976 57.581 103.308 57.7133Z" fill="#303030"/>
</g>
<defs>
<clipPath id="clip0">
<rect width="80" height="80" fill="white" transform="translate(55 18)"/>
</clipPath>
</defs>
</svg>
