<svg width="238" height="259" viewBox="0 0 238 259" fill="none" xmlns="http://www.w3.org/2000/svg">
<g filter="url(#filter0_d)">
<path d="M24 76.75L119 24L214 76.75V181.828L119 235L24 181.828V76.75Z" fill="#764F96"/>
</g>
<path d="M107 173L95 156.5L107 140L130.904 140L143 156.5L130.904 173L107 173Z" fill="white"/>
<path d="M117 150L124 156.5L117 163" stroke="#764F96" stroke-width="2" stroke-linecap="round" stroke-linejoin="round"/>
<path d="M83.1234 92.05H92.0184V103H89.4684V94.105H85.6734V103H83.1234V92.05ZM94.6902 96.145C95.4002 95.415 96.3802 95.05 97.6302 95.05C98.8802 95.05 99.8552 95.415 100.555 96.145C101.265 96.865 101.62 97.85 101.62 99.1C101.62 100.35 101.265 101.34 100.555 102.07C99.8552 102.79 98.8802 103.15 97.6302 103.15C96.3802 103.15 95.4002 102.79 94.6902 102.07C93.9802 101.34 93.6252 100.35 93.6252 99.1C93.6252 97.85 93.9802 96.865 94.6902 96.145ZM97.6302 101.395C98.7102 101.395 99.2502 100.63 99.2502 99.1C99.2502 97.57 98.7102 96.805 97.6302 96.805C96.5402 96.805 95.9952 97.57 95.9952 99.1C95.9952 100.63 96.5402 101.395 97.6302 101.395ZM110.751 103H108.291V96.97H106.506V99.19C106.506 100.6 106.211 101.59 105.621 102.16C105.031 102.73 103.946 103.06 102.366 103.15L102.246 101.38C103.026 101.33 103.531 101.155 103.761 100.855C104.001 100.555 104.121 99.905 104.121 98.905V95.2H110.751V103ZM112.679 106.45L112.499 104.62C113.349 104.62 113.964 104.505 114.344 104.275C114.734 104.045 115.029 103.62 115.229 103L112.199 95.2H114.854L116.324 100.705H116.354L117.959 95.2H120.494L117.569 103.105C117.109 104.345 116.514 105.21 115.784 105.7C115.054 106.2 114.019 106.45 112.679 106.45ZM126.5 100.615C126.01 100.835 125.44 100.945 124.79 100.945C123.66 100.945 122.865 100.745 122.405 100.345C121.955 99.945 121.73 99.255 121.73 98.275V95.2H124.1V97.795C124.1 98.375 124.17 98.745 124.31 98.905C124.45 99.065 124.755 99.145 125.225 99.145C125.715 99.145 126.14 99.045 126.5 98.845V95.2H128.9V103H126.5V100.615ZM133.289 95.2V99.685H133.304L135.914 95.2H138.344V103H135.944V98.515H135.914L133.304 103H130.874V95.2H133.289ZM147.267 97.03H144.822V103H142.317V97.03H139.872V95.2H147.267V97.03ZM148.803 95.2H151.203V97.27C151.503 97.21 151.828 97.18 152.178 97.18C153.248 97.18 154.078 97.445 154.668 97.975C155.258 98.495 155.553 99.205 155.553 100.105C155.553 101.135 155.233 101.9 154.593 102.4C153.953 102.9 152.948 103.15 151.578 103.15C150.598 103.15 149.673 103.075 148.803 102.925V95.2ZM151.203 98.965V101.365C151.403 101.425 151.608 101.455 151.818 101.455C152.318 101.455 152.683 101.345 152.913 101.125C153.143 100.905 153.258 100.565 153.258 100.105C153.258 99.715 153.133 99.415 152.883 99.205C152.643 98.985 152.283 98.875 151.803 98.875C151.583 98.875 151.383 98.905 151.203 98.965ZM66.3765 120.23L68.5215 117.2H71.3415L68.3715 120.935L71.4615 125H68.6565L66.3765 121.655H66.3465V125H63.8865V117.2H66.3465V120.23H66.3765ZM73.5378 118.145C74.2478 117.415 75.2278 117.05 76.4778 117.05C77.7278 117.05 78.7028 117.415 79.4028 118.145C80.1128 118.865 80.4678 119.85 80.4678 121.1C80.4678 122.35 80.1128 123.34 79.4028 124.07C78.7028 124.79 77.7278 125.15 76.4778 125.15C75.2278 125.15 74.2478 124.79 73.5378 124.07C72.8278 123.34 72.4728 122.35 72.4728 121.1C72.4728 119.85 72.8278 118.865 73.5378 118.145ZM76.4778 123.395C77.5578 123.395 78.0978 122.63 78.0978 121.1C78.0978 119.57 77.5578 118.805 76.4778 118.805C75.3878 118.805 74.8428 119.57 74.8428 121.1C74.8428 122.63 75.3878 123.395 76.4778 123.395ZM84.3787 121.805V125H81.9187V117.2H84.3787V120.095H86.9137V117.2H89.3737V125H86.9137V121.805H84.3787ZM97.2473 122.84L97.7723 124.58C96.9523 124.96 96.0773 125.15 95.1473 125.15C93.8273 125.15 92.7773 124.79 91.9973 124.07C91.2173 123.34 90.8273 122.35 90.8273 121.1C90.8273 119.84 91.2073 118.85 91.9673 118.13C92.7273 117.41 93.7873 117.05 95.1473 117.05C96.0773 117.05 96.9523 117.24 97.7723 117.62L97.2473 119.39C96.6173 119.02 95.9623 118.835 95.2823 118.835C94.6423 118.835 94.1423 119.03 93.7823 119.42C93.4323 119.8 93.2573 120.36 93.2573 121.1C93.2573 121.81 93.4423 122.37 93.8123 122.78C94.1923 123.19 94.6823 123.395 95.2823 123.395C95.9623 123.395 96.6173 123.21 97.2473 122.84ZM99.5544 128.45L99.3744 126.62C100.224 126.62 100.839 126.505 101.219 126.275C101.609 126.045 101.904 125.62 102.104 125L99.0744 117.2H101.729L103.199 122.705H103.229L104.834 117.2H107.369L104.444 125.105C103.984 126.345 103.389 127.21 102.659 127.7C101.929 128.2 100.894 128.45 99.5544 128.45ZM116.435 125H113.975V118.97H112.19V121.19C112.19 122.6 111.895 123.59 111.305 124.16C110.715 124.73 109.63 125.06 108.05 125.15L107.93 123.38C108.71 123.33 109.215 123.155 109.445 122.855C109.685 122.555 109.805 121.905 109.805 120.905V117.2H116.435V125ZM118.408 117.2H120.808V119.27C121.108 119.21 121.433 119.18 121.783 119.18C122.853 119.18 123.683 119.445 124.273 119.975C124.863 120.495 125.158 121.205 125.158 122.105C125.158 123.135 124.838 123.9 124.198 124.4C123.558 124.9 122.553 125.15 121.183 125.15C120.203 125.15 119.278 125.075 118.408 124.925V117.2ZM120.808 120.965V123.365C121.008 123.425 121.213 123.455 121.423 123.455C121.923 123.455 122.288 123.345 122.518 123.125C122.748 122.905 122.863 122.565 122.863 122.105C122.863 121.715 122.738 121.415 122.488 121.205C122.248 120.985 121.888 120.875 121.408 120.875C121.188 120.875 120.988 120.905 120.808 120.965ZM133.556 119.03H131.111V125H128.606V119.03H126.161V117.2H133.556V119.03ZM138.468 117.05C139.718 117.05 140.608 117.29 141.138 117.77C141.678 118.24 141.948 119.015 141.948 120.095V122.9C141.948 123.62 142.023 124.32 142.173 125H139.893C139.813 124.55 139.763 124.185 139.743 123.905H139.713C139.443 124.285 139.078 124.59 138.618 124.82C138.168 125.04 137.693 125.15 137.193 125.15C136.443 125.15 135.843 124.94 135.393 124.52C134.943 124.1 134.718 123.525 134.718 122.795C134.718 121.935 135.083 121.245 135.813 120.725C136.553 120.205 137.613 119.945 138.993 119.945H139.548V119.915C139.548 119.475 139.458 119.17 139.278 119C139.108 118.83 138.803 118.745 138.363 118.745C137.343 118.745 136.368 118.97 135.438 119.42L135.123 117.725C136.133 117.275 137.248 117.05 138.468 117.05ZM136.908 122.57C136.908 122.84 136.988 123.05 137.148 123.2C137.318 123.35 137.543 123.425 137.823 123.425C138.323 123.425 138.733 123.27 139.053 122.96C139.383 122.65 139.548 122.255 139.548 121.775V121.415H138.993C138.313 121.415 137.793 121.52 137.433 121.73C137.083 121.94 136.908 122.22 136.908 122.57ZM151.469 123.335H153.029V126.8H150.869V125H143.999V117.2H146.444V123.335H149.024V117.2H151.469V123.335ZM156.829 117.2V121.685H156.844L159.454 117.2H161.884V125H159.484V120.515H159.454L156.844 125H154.414V117.2H156.829ZM163.862 117.2H166.247V120.245H167.117C167.257 119.235 167.652 118.45 168.302 117.89C168.952 117.33 169.787 117.05 170.807 117.05C171.967 117.05 172.882 117.41 173.552 118.13C174.222 118.84 174.557 119.83 174.557 121.1C174.557 122.37 174.222 123.365 173.552 124.085C172.882 124.795 171.967 125.15 170.807 125.15C169.787 125.15 168.952 124.87 168.302 124.31C167.652 123.75 167.257 122.965 167.117 121.955H166.247V125H163.862V117.2ZM169.367 121.1C169.367 122.67 169.847 123.455 170.807 123.455C171.767 123.455 172.247 122.67 172.247 121.1C172.247 119.53 171.767 118.745 170.807 118.745C169.847 118.745 169.367 119.53 169.367 121.1Z" fill="white"/>
<defs>
<filter id="filter0_d" x="0" y="0" width="238" height="259" filterUnits="userSpaceOnUse" color-interpolation-filters="sRGB">
<feFlood flood-opacity="0" result="BackgroundImageFix"/>
<feColorMatrix in="SourceAlpha" type="matrix" values="0 0 0 0 0 0 0 0 0 0 0 0 0 0 0 0 0 0 127 0" result="hardAlpha"/>
<feOffset/>
<feGaussianBlur stdDeviation="12"/>
<feColorMatrix type="matrix" values="0 0 0 0 0.462745 0 0 0 0 0.309804 0 0 0 0 0.588235 0 0 0 0.55 0"/>
<feBlend mode="normal" in2="BackgroundImageFix" result="effect1_dropShadow"/>
<feBlend mode="normal" in="SourceGraphic" in2="effect1_dropShadow" result="shape"/>
</filter>
</defs>
</svg>
