<svg width="238" height="259" viewBox="0 0 238 259" fill="none" xmlns="http://www.w3.org/2000/svg">
<g filter="url(#filter0_d)">
<path d="M24 76.75L119 24L214 76.75V181.828L119 235L24 181.828V76.75Z" fill="#FC3698"/>
</g>
<path d="M107 173L95 156.5L107 140L130.904 140L143 156.5L130.904 173L107 173Z" fill="white"/>
<path d="M117 150L124 156.5L117 163" stroke="#FC3698" stroke-width="2" stroke-linecap="round" stroke-linejoin="round"/>
<path d="M83.681 94.555C83.681 95.275 83.511 95.845 83.171 96.265C82.831 96.685 82.266 97.01 81.476 97.24V97.27C82.256 97.37 82.846 97.64 83.246 98.08C83.646 98.52 83.846 99.11 83.846 99.85C83.846 100.88 83.461 101.69 82.691 102.28C81.921 102.86 80.851 103.15 79.481 103.15C78.191 103.15 76.931 102.85 75.701 102.25L76.346 100.315C77.396 100.835 78.396 101.095 79.346 101.095C79.996 101.095 80.491 100.975 80.831 100.735C81.181 100.495 81.356 100.16 81.356 99.73C81.356 99.26 81.131 98.92 80.681 98.71C80.231 98.5 79.416 98.395 78.236 98.395H77.606V96.4H78.236C79.306 96.4 80.071 96.285 80.531 96.055C81.001 95.825 81.236 95.475 81.236 95.005C81.236 94.655 81.086 94.395 80.786 94.225C80.486 94.045 79.991 93.955 79.301 93.955C78.521 93.955 77.586 94.23 76.496 94.78L75.956 92.8C77.216 92.2 78.456 91.9 79.676 91.9C80.926 91.9 81.906 92.145 82.616 92.635C83.326 93.125 83.681 93.765 83.681 94.555ZM88.6702 95.05C89.9202 95.05 90.8102 95.29 91.3402 95.77C91.8802 96.24 92.1502 97.015 92.1502 98.095V100.9C92.1502 101.62 92.2252 102.32 92.3752 103H90.0952C90.0152 102.55 89.9652 102.185 89.9452 101.905H89.9152C89.6452 102.285 89.2802 102.59 88.8202 102.82C88.3702 103.04 87.8952 103.15 87.3952 103.15C86.6452 103.15 86.0452 102.94 85.5952 102.52C85.1452 102.1 84.9202 101.525 84.9202 100.795C84.9202 99.935 85.2852 99.245 86.0152 98.725C86.7552 98.205 87.8152 97.945 89.1952 97.945H89.7502V97.915C89.7502 97.475 89.6602 97.17 89.4802 97C89.3102 96.83 89.0052 96.745 88.5652 96.745C87.5452 96.745 86.5702 96.97 85.6402 97.42L85.3252 95.725C86.3352 95.275 87.4502 95.05 88.6702 95.05ZM87.1102 100.57C87.1102 100.84 87.1902 101.05 87.3502 101.2C87.5202 101.35 87.7452 101.425 88.0252 101.425C88.5252 101.425 88.9352 101.27 89.2552 100.96C89.5852 100.65 89.7502 100.255 89.7502 99.775V99.415H89.1952C88.5152 99.415 87.9952 99.52 87.6352 99.73C87.2852 99.94 87.1102 100.22 87.1102 100.57ZM94.2014 95.2H101.671V103H99.2264V96.97H96.6464V103H94.2014V95.2ZM106.065 95.2V99.685H106.08L108.69 95.2H111.12V103H108.72V98.515H108.69L106.08 103H103.65V95.2H106.065ZM118.993 100.84L119.518 102.58C118.698 102.96 117.823 103.15 116.893 103.15C115.573 103.15 114.523 102.79 113.743 102.07C112.963 101.34 112.573 100.35 112.573 99.1C112.573 97.84 112.953 96.85 113.713 96.13C114.473 95.41 115.533 95.05 116.893 95.05C117.823 95.05 118.698 95.24 119.518 95.62L118.993 97.39C118.363 97.02 117.708 96.835 117.028 96.835C116.388 96.835 115.888 97.03 115.528 97.42C115.178 97.8 115.003 98.36 115.003 99.1C115.003 99.81 115.188 100.37 115.558 100.78C115.938 101.19 116.428 101.395 117.028 101.395C117.708 101.395 118.363 101.21 118.993 100.84ZM124.72 95.05C125.97 95.05 126.86 95.29 127.39 95.77C127.93 96.24 128.2 97.015 128.2 98.095V100.9C128.2 101.62 128.275 102.32 128.425 103H126.145C126.065 102.55 126.015 102.185 125.995 101.905H125.965C125.695 102.285 125.33 102.59 124.87 102.82C124.42 103.04 123.945 103.15 123.445 103.15C122.695 103.15 122.095 102.94 121.645 102.52C121.195 102.1 120.97 101.525 120.97 100.795C120.97 99.935 121.335 99.245 122.065 98.725C122.805 98.205 123.865 97.945 125.245 97.945H125.8V97.915C125.8 97.475 125.71 97.17 125.53 97C125.36 96.83 125.055 96.745 124.615 96.745C123.595 96.745 122.62 96.97 121.69 97.42L121.375 95.725C122.385 95.275 123.5 95.05 124.72 95.05ZM123.16 100.57C123.16 100.84 123.24 101.05 123.4 101.2C123.57 101.35 123.795 101.425 124.075 101.425C124.575 101.425 124.985 101.27 125.305 100.96C125.635 100.65 125.8 100.255 125.8 99.775V99.415H125.245C124.565 99.415 124.045 99.52 123.685 99.73C123.335 99.94 123.16 100.22 123.16 100.57ZM137.196 97.03H134.751V103H132.246V97.03H129.801V95.2H137.196V97.03ZM138.733 95.2H141.133V97.27C141.433 97.21 141.758 97.18 142.108 97.18C143.178 97.18 144.008 97.445 144.598 97.975C145.188 98.495 145.483 99.205 145.483 100.105C145.483 101.135 145.163 101.9 144.523 102.4C143.883 102.9 142.878 103.15 141.508 103.15C140.528 103.15 139.603 103.075 138.733 102.925V95.2ZM141.133 98.965V101.365C141.333 101.425 141.538 101.455 141.748 101.455C142.248 101.455 142.613 101.345 142.843 101.125C143.073 100.905 143.188 100.565 143.188 100.105C143.188 99.715 143.063 99.415 142.813 99.205C142.573 98.985 142.213 98.875 141.733 98.875C141.513 98.875 141.313 98.905 141.133 98.965ZM152.831 100.84L153.356 102.58C152.536 102.96 151.661 103.15 150.731 103.15C149.411 103.15 148.361 102.79 147.581 102.07C146.801 101.34 146.411 100.35 146.411 99.1C146.411 97.84 146.791 96.85 147.551 96.13C148.311 95.41 149.371 95.05 150.731 95.05C151.661 95.05 152.536 95.24 153.356 95.62L152.831 97.39C152.201 97.02 151.546 96.835 150.866 96.835C150.226 96.835 149.726 97.03 149.366 97.42C149.016 97.8 148.841 98.36 148.841 99.1C148.841 99.81 149.026 100.37 149.396 100.78C149.776 101.19 150.266 101.395 150.866 101.395C151.546 101.395 152.201 101.21 152.831 100.84ZM156.743 99.52V99.505C156.213 99.355 155.773 99.095 155.423 98.725C155.083 98.345 154.913 97.92 154.913 97.45C154.913 95.88 156.153 95.095 158.633 95.095C159.703 95.095 160.723 95.15 161.693 95.26V103H159.278V100.255H158.873C158.563 100.255 158.353 100.295 158.243 100.375C158.133 100.455 158.008 100.645 157.868 100.945L157.028 103H154.658L155.618 100.84C155.908 100.17 156.283 99.73 156.743 99.52ZM159.278 98.605V96.82C159.018 96.8 158.838 96.79 158.738 96.79C157.728 96.79 157.223 97.09 157.223 97.69C157.223 97.97 157.353 98.195 157.613 98.365C157.873 98.525 158.258 98.605 158.768 98.605H159.278ZM86.8396 121.805V125H84.3796V117.2H86.8396V120.095H89.3746V117.2H91.8346V125H89.3746V121.805H86.8396ZM97.1882 117.05C98.4382 117.05 99.3282 117.29 99.8582 117.77C100.398 118.24 100.668 119.015 100.668 120.095V122.9C100.668 123.62 100.743 124.32 100.893 125H98.6132C98.5332 124.55 98.4832 124.185 98.4632 123.905H98.4332C98.1632 124.285 97.7982 124.59 97.3382 124.82C96.8882 125.04 96.4132 125.15 95.9132 125.15C95.1632 125.15 94.5632 124.94 94.1132 124.52C93.6632 124.1 93.4382 123.525 93.4382 122.795C93.4382 121.935 93.8032 121.245 94.5332 120.725C95.2732 120.205 96.3332 119.945 97.7132 119.945H98.2682V119.915C98.2682 119.475 98.1782 119.17 97.9982 119C97.8282 118.83 97.5232 118.745 97.0832 118.745C96.0632 118.745 95.0882 118.97 94.1582 119.42L93.8432 117.725C94.8532 117.275 95.9682 117.05 97.1882 117.05ZM95.6282 122.57C95.6282 122.84 95.7082 123.05 95.8682 123.2C96.0382 123.35 96.2632 123.425 96.5432 123.425C97.0432 123.425 97.4532 123.27 97.7732 122.96C98.1032 122.65 98.2682 122.255 98.2682 121.775V121.415H97.7132C97.0332 121.415 96.5132 121.52 96.1532 121.73C95.8032 121.94 95.6282 122.22 95.6282 122.57ZM107.378 117.2H114.848V125H112.403V118.97H109.823V125H107.378V117.2ZM122.286 121.1C122.286 120.37 122.151 119.82 121.881 119.45C121.611 119.08 121.236 118.895 120.756 118.895C120.296 118.895 119.926 119.085 119.646 119.465C119.366 119.835 119.226 120.355 119.226 121.025V121.175C119.226 121.855 119.366 122.38 119.646 122.75C119.926 123.12 120.296 123.305 120.756 123.305C121.206 123.305 121.571 123.115 121.851 122.735C122.141 122.345 122.286 121.8 122.286 121.1ZM124.581 121.1C124.581 122.37 124.291 123.365 123.711 124.085C123.131 124.795 122.386 125.15 121.476 125.15C120.566 125.15 119.826 124.79 119.256 124.07H119.226V128.3H116.826V117.2H119.046L119.106 118.28H119.136C119.766 117.46 120.546 117.05 121.476 117.05C122.426 117.05 123.181 117.4 123.741 118.1C124.301 118.8 124.581 119.8 124.581 121.1ZM128.528 117.2V121.685H128.543L131.153 117.2H133.583V125H131.183V120.515H131.153L128.543 125H126.113V117.2H128.528ZM139.641 115.955V113.705H141.831V115.955H139.641ZM136.341 115.955V113.705H138.531V115.955H136.341ZM137.406 120.41H140.496C140.486 119.26 139.976 118.685 138.966 118.685C138.506 118.685 138.141 118.835 137.871 119.135C137.601 119.425 137.446 119.85 137.406 120.41ZM137.421 121.895C137.491 122.385 137.696 122.77 138.036 123.05C138.386 123.32 138.836 123.455 139.386 123.455C140.126 123.455 140.851 123.275 141.561 122.915L142.086 124.55C141.196 124.95 140.221 125.15 139.161 125.15C137.921 125.15 136.921 124.785 136.161 124.055C135.411 123.325 135.036 122.34 135.036 121.1C135.036 119.85 135.386 118.865 136.086 118.145C136.786 117.415 137.726 117.05 138.906 117.05C140.116 117.05 141.056 117.4 141.726 118.1C142.396 118.79 142.731 119.78 142.731 121.07C142.731 121.38 142.711 121.655 142.671 121.895H137.421ZM151.222 120.5L149.902 123.215H147.952L146.617 120.5H146.602V125H144.262V117.2H146.842L148.912 121.535H148.942L151.012 117.2H153.622V125H151.252V120.5H151.222Z" fill="white"/>
<defs>
<filter id="filter0_d" x="0" y="0" width="238" height="259" filterUnits="userSpaceOnUse" color-interpolation-filters="sRGB">
<feFlood flood-opacity="0" result="BackgroundImageFix"/>
<feColorMatrix in="SourceAlpha" type="matrix" values="0 0 0 0 0 0 0 0 0 0 0 0 0 0 0 0 0 0 127 0" result="hardAlpha"/>
<feOffset/>
<feGaussianBlur stdDeviation="12"/>
<feColorMatrix type="matrix" values="0 0 0 0 0.988235 0 0 0 0 0.211765 0 0 0 0 0.596078 0 0 0 0.55 0"/>
<feBlend mode="normal" in2="BackgroundImageFix" result="effect1_dropShadow"/>
<feBlend mode="normal" in="SourceGraphic" in2="effect1_dropShadow" result="shape"/>
</filter>
</defs>
</svg>
