<svg width="190" height="211" viewBox="0 0 190 211" fill="none" xmlns="http://www.w3.org/2000/svg">
<path d="M0 52.75L95 0L190 52.75V157.828L95 211L0 157.828V52.75Z" fill="white"/>
<path d="M35.1041 108.05H36.3341V119H35.1641V110H35.1341L29.4341 119H28.1891V108.05H29.3741V117.05H29.4041L35.1041 108.05ZM42.1524 111.965C41.2724 111.965 40.5874 112.24 40.0974 112.79C39.6074 113.33 39.3624 114.1 39.3624 115.1C39.3624 116.06 39.6174 116.825 40.1274 117.395C40.6474 117.965 41.3224 118.25 42.1524 118.25C42.8524 118.25 43.5224 118.08 44.1624 117.74L44.4624 118.625C43.7124 118.975 42.9274 119.15 42.1074 119.15C40.9474 119.15 40.0074 118.785 39.2874 118.055C38.5674 117.315 38.2074 116.33 38.2074 115.1C38.2074 113.83 38.5524 112.84 39.2424 112.13C39.9324 111.41 40.8874 111.05 42.1074 111.05C42.9274 111.05 43.7124 111.225 44.4624 111.575L44.1624 112.49C43.4924 112.14 42.8224 111.965 42.1524 111.965ZM49.9893 111.965C49.1093 111.965 48.4243 112.24 47.9343 112.79C47.4443 113.33 47.1993 114.1 47.1993 115.1C47.1993 116.06 47.4543 116.825 47.9643 117.395C48.4843 117.965 49.1593 118.25 49.9893 118.25C50.6893 118.25 51.3593 118.08 51.9993 117.74L52.2993 118.625C51.5493 118.975 50.7643 119.15 49.9443 119.15C48.7843 119.15 47.8443 118.785 47.1243 118.055C46.4043 117.315 46.0443 116.33 46.0443 115.1C46.0443 113.83 46.3893 112.84 47.0793 112.13C47.7693 111.41 48.7243 111.05 49.9443 111.05C50.7643 111.05 51.5493 111.225 52.2993 111.575L51.9993 112.49C51.3293 112.14 50.6593 111.965 49.9893 111.965ZM55.0063 114.65H59.8063C59.7963 113.78 59.5863 113.11 59.1763 112.64C58.7663 112.17 58.2013 111.935 57.4813 111.935C56.7313 111.935 56.1363 112.175 55.6963 112.655C55.2663 113.125 55.0363 113.79 55.0063 114.65ZM55.0063 115.52C55.0263 116.37 55.2863 117.04 55.7863 117.53C56.2863 118.02 56.9363 118.265 57.7363 118.265C58.5063 118.265 59.2713 118.065 60.0313 117.665L60.3313 118.52C59.4913 118.94 58.5913 119.15 57.6313 119.15C56.5113 119.15 55.6063 118.785 54.9163 118.055C54.2263 117.325 53.8813 116.34 53.8813 115.1C53.8813 113.84 54.2013 112.85 54.8413 112.13C55.4913 111.41 56.3713 111.05 57.4813 111.05C58.5613 111.05 59.3963 111.395 59.9863 112.085C60.5863 112.765 60.8863 113.745 60.8863 115.025C60.8863 115.155 60.8763 115.32 60.8562 115.52H55.0063ZM63.8676 114.5L67.6326 111.2H69.0726L64.7376 114.935L69.1926 119H67.7676L63.8676 115.385H63.8526V119H62.6826V111.2H63.8526V114.5H63.8676ZM73.8383 111.05C74.9283 111.05 75.7083 111.275 76.1783 111.725C76.6483 112.175 76.8833 112.915 76.8833 113.945V116.9C76.8833 117.61 76.9583 118.31 77.1083 119H76.0583C75.9783 118.61 75.9283 118.15 75.9083 117.62H75.8783C75.6083 118.1 75.2183 118.475 74.7083 118.745C74.1983 119.015 73.6233 119.15 72.9833 119.15C72.2633 119.15 71.6883 118.95 71.2583 118.55C70.8283 118.14 70.6133 117.59 70.6133 116.9C70.6133 116.03 70.9933 115.34 71.7533 114.83C72.5133 114.31 73.5933 114.05 74.9933 114.05H75.7883V113.975C75.7883 113.215 75.6433 112.69 75.3533 112.4C75.0733 112.1 74.5683 111.95 73.8383 111.95C72.8983 111.95 72.0233 112.18 71.2133 112.64L71.0183 111.755C71.8783 111.285 72.8183 111.05 73.8383 111.05ZM71.6933 116.855C71.6933 117.305 71.8333 117.66 72.1133 117.92C72.3933 118.17 72.7683 118.295 73.2383 118.295C73.9283 118.295 74.5233 118.05 75.0233 117.56C75.5333 117.06 75.7883 116.45 75.7883 115.73V114.89H74.9933C73.9433 114.89 73.1283 115.07 72.5483 115.43C71.9783 115.78 71.6933 116.255 71.6933 116.855ZM79.8061 114.65H84.6061C84.5961 113.78 84.3861 113.11 83.9761 112.64C83.5661 112.17 83.0011 111.935 82.2811 111.935C81.5311 111.935 80.9361 112.175 80.4961 112.655C80.0661 113.125 79.8361 113.79 79.8061 114.65ZM79.8061 115.52C79.8261 116.37 80.0861 117.04 80.5861 117.53C81.0861 118.02 81.7361 118.265 82.5361 118.265C83.3061 118.265 84.0711 118.065 84.8311 117.665L85.1311 118.52C84.2911 118.94 83.3911 119.15 82.4311 119.15C81.3111 119.15 80.4061 118.785 79.7161 118.055C79.0261 117.325 78.6811 116.34 78.6811 115.1C78.6811 113.84 79.0011 112.85 79.6411 112.13C80.2911 111.41 81.1711 111.05 82.2811 111.05C83.3611 111.05 84.1961 111.395 84.7861 112.085C85.3861 112.765 85.6861 113.745 85.6861 115.025C85.6861 115.155 85.6761 115.32 85.6561 115.52H79.8061ZM93.9174 112.115H91.0674V119H89.8824V112.115H87.0324V111.2H93.9174V112.115ZM101.205 117.47H101.235L105.675 111.2H106.905V119H105.765V112.73H105.75L101.295 119H100.065V111.2H101.205V117.47ZM111.577 111.92C110.807 111.92 109.977 112.095 109.087 112.445L108.817 111.605C109.757 111.235 110.707 111.05 111.667 111.05C112.737 111.05 113.577 111.23 114.187 111.59C114.797 111.95 115.102 112.41 115.102 112.97C115.102 113.38 114.932 113.755 114.592 114.095C114.262 114.435 113.782 114.675 113.152 114.815V114.845C113.842 114.965 114.357 115.22 114.697 115.61C115.047 115.99 115.222 116.42 115.222 116.9C115.222 117.6 114.912 118.15 114.292 118.55C113.682 118.95 112.807 119.15 111.667 119.15C110.687 119.15 109.702 118.965 108.712 118.595L108.982 117.755C109.892 118.085 110.772 118.25 111.622 118.25C113.252 118.25 114.067 117.76 114.067 116.78C114.067 116.28 113.812 115.905 113.302 115.655C112.792 115.405 111.952 115.28 110.782 115.28H110.122V114.395H110.782C112.892 114.395 113.947 113.97 113.947 113.12C113.947 112.32 113.157 111.92 111.577 111.92ZM118.288 115.04V111.2H124.063V119H122.953V112.13H119.368V115.22C119.368 116.71 119.153 117.72 118.723 118.25C118.293 118.78 117.473 119.08 116.263 119.15L116.203 118.22C116.783 118.19 117.208 118.095 117.478 117.935C117.758 117.775 117.963 117.48 118.093 117.05C118.223 116.61 118.288 115.94 118.288 115.04ZM127.455 117.47H127.485L131.925 111.2H133.155V119H132.015V112.73H132L127.545 119H126.315V111.2H127.455V117.47ZM144.562 119H135.412V111.2H136.492V118.07H139.462V111.2H140.512V118.07H143.482V111.2H144.562V119ZM147.994 114.5L151.759 111.2H153.199L148.864 114.935L153.319 119H151.894L147.994 115.385H147.979V119H146.809V111.2H147.979V114.5H147.994ZM156.254 117.47H156.284L160.724 111.2H161.954V119H160.814V112.73H160.799L156.344 119H155.114V111.2H156.254V117.47ZM37.7202 136.5L41.4852 133.2H42.9252L38.5902 136.935L43.0452 141H41.6202L37.7202 137.385H37.7052V141H36.5352V133.2H37.7052V136.5H37.7202ZM49.8508 134.79C49.4008 134.23 48.7808 133.95 47.9908 133.95C47.2008 133.95 46.5758 134.23 46.1158 134.79C45.6658 135.34 45.4408 136.11 45.4408 137.1C45.4408 138.09 45.6658 138.865 46.1158 139.425C46.5758 139.975 47.2008 140.25 47.9908 140.25C48.7808 140.25 49.4008 139.975 49.8508 139.425C50.3108 138.865 50.5408 138.09 50.5408 137.1C50.5408 136.11 50.3108 135.34 49.8508 134.79ZM50.6608 140.055C49.9908 140.785 49.1008 141.15 47.9908 141.15C46.8808 141.15 45.9908 140.785 45.3208 140.055C44.6508 139.325 44.3158 138.34 44.3158 137.1C44.3158 135.86 44.6508 134.875 45.3208 134.145C45.9908 133.415 46.8808 133.05 47.9908 133.05C49.1008 133.05 49.9908 133.415 50.6608 134.145C51.3308 134.875 51.6658 135.86 51.6658 137.1C51.6658 138.34 51.3308 139.325 50.6608 140.055ZM57.4155 141V137.4H56.6205L54.1905 141H53.0205L55.7655 136.92L53.0955 133.2H54.2805L56.6205 136.47H57.4155V133.2H58.5255V136.47H59.3205L61.6605 133.2H62.8455L60.1755 136.92L62.9205 141H61.7505L59.3205 137.4H58.5255V141H57.4155ZM65.932 139.47H65.962L70.402 133.2H71.632V141H70.492V134.73H70.477L66.022 141H64.792V133.2H65.932V139.47ZM79.4093 137.25V141H78.2393V133.2H79.4093V136.38H83.8343V133.2H85.0043V141H83.8343V137.25H79.4093ZM90.098 133.05C91.188 133.05 91.968 133.275 92.438 133.725C92.908 134.175 93.143 134.915 93.143 135.945V138.9C93.143 139.61 93.218 140.31 93.368 141H92.318C92.238 140.61 92.188 140.15 92.168 139.62H92.138C91.868 140.1 91.478 140.475 90.968 140.745C90.458 141.015 89.883 141.15 89.243 141.15C88.523 141.15 87.948 140.95 87.518 140.55C87.088 140.14 86.873 139.59 86.873 138.9C86.873 138.03 87.253 137.34 88.013 136.83C88.773 136.31 89.853 136.05 91.253 136.05H92.048V135.975C92.048 135.215 91.903 134.69 91.613 134.4C91.333 134.1 90.828 133.95 90.098 133.95C89.158 133.95 88.283 134.18 87.473 134.64L87.278 133.755C88.138 133.285 89.078 133.05 90.098 133.05ZM87.953 138.855C87.953 139.305 88.093 139.66 88.373 139.92C88.653 140.17 89.028 140.295 89.498 140.295C90.188 140.295 90.783 140.05 91.283 139.56C91.793 139.06 92.048 138.45 92.048 137.73V136.89H91.253C90.203 136.89 89.388 137.07 88.808 137.43C88.238 137.78 87.953 138.255 87.953 138.855ZM100.986 137.25V141H99.8164V133.2H100.986V136.38H105.411V133.2H106.581V141H105.411V137.25H100.986ZM109.965 139.47H109.995L114.435 133.2H115.665V141H114.525V134.73H114.51L110.055 141H108.825V133.2H109.965V139.47ZM121.942 141V137.4H121.147L118.717 141H117.547L120.292 136.92L117.622 133.2H118.807L121.147 136.47H121.942V133.2H123.052V136.47H123.847L126.187 133.2H127.372L124.702 136.92L127.447 141H126.277L123.847 137.4H123.052V141H121.942ZM130.488 137.25V141H129.318V133.2H130.488V136.38H134.913V133.2H136.083V141H134.913V137.25H130.488ZM139.467 139.47H139.497L143.937 133.2H145.167V141H144.027V134.73H144.012L139.557 141H138.327V133.2H139.467V139.47ZM150.454 136.305H150.484L152.524 133.2H153.769L151.114 137.04L153.844 141H152.554L150.439 137.76H150.409L148.309 141H147.049L149.794 137.04L147.124 133.2H148.414L150.454 136.305ZM76.8378 162.22C77.2078 162.28 77.6128 162.31 78.0528 162.31C79.7228 162.31 80.5578 161.765 80.5578 160.675C80.5578 159.685 79.6728 159.19 77.9028 159.19H76.8378V162.22ZM76.8378 158.44H77.8878C78.6078 158.44 79.1678 158.32 79.5678 158.08C79.9678 157.84 80.1678 157.51 80.1678 157.09C80.1678 156.29 79.4328 155.89 77.9628 155.89C77.5728 155.89 77.1978 155.92 76.8378 155.98V158.44ZM81.6678 160.75C81.6678 162.32 80.4478 163.105 78.0078 163.105C77.1178 163.105 76.3478 163.05 75.6978 162.94V155.26C76.4078 155.15 77.1378 155.095 77.8878 155.095C79.0978 155.095 79.9578 155.275 80.4678 155.635C80.9878 155.985 81.2478 156.435 81.2478 156.985C81.2478 157.435 81.0928 157.815 80.7828 158.125C80.4728 158.425 80.0378 158.635 79.4778 158.755V158.77C80.1878 158.88 80.7278 159.11 81.0978 159.46C81.4778 159.8 81.6678 160.23 81.6678 160.75ZM84.0614 158.65H88.8614C88.8514 157.78 88.6414 157.11 88.2314 156.64C87.8214 156.17 87.2564 155.935 86.5364 155.935C85.7864 155.935 85.1914 156.175 84.7514 156.655C84.3214 157.125 84.0914 157.79 84.0614 158.65ZM84.0614 159.52C84.0814 160.37 84.3414 161.04 84.8414 161.53C85.3414 162.02 85.9914 162.265 86.7914 162.265C87.5614 162.265 88.3264 162.065 89.0864 161.665L89.3864 162.52C88.5464 162.94 87.6464 163.15 86.6864 163.15C85.5664 163.15 84.6614 162.785 83.9714 162.055C83.2814 161.325 82.9364 160.34 82.9364 159.1C82.9364 157.84 83.2564 156.85 83.8964 156.13C84.5464 155.41 85.4264 155.05 86.5364 155.05C87.6164 155.05 88.4514 155.395 89.0414 156.085C89.6414 156.765 89.9414 157.745 89.9414 159.025C89.9414 159.155 89.9314 159.32 89.9114 159.52H84.0614ZM92.9228 158.5L96.6878 155.2H98.1278L93.7928 158.935L98.2478 163H96.8228L92.9228 159.385H92.9078V163H91.7378V155.2H92.9078V158.5H92.9228ZM102.893 155.05C103.983 155.05 104.763 155.275 105.233 155.725C105.703 156.175 105.938 156.915 105.938 157.945V160.9C105.938 161.61 106.013 162.31 106.163 163H105.113C105.033 162.61 104.983 162.15 104.963 161.62H104.933C104.663 162.1 104.273 162.475 103.763 162.745C103.253 163.015 102.678 163.15 102.038 163.15C101.318 163.15 100.743 162.95 100.313 162.55C99.8835 162.14 99.6685 161.59 99.6685 160.9C99.6685 160.03 100.048 159.34 100.808 158.83C101.568 158.31 102.648 158.05 104.048 158.05H104.843V157.975C104.843 157.215 104.698 156.69 104.408 156.4C104.128 156.1 103.623 155.95 102.893 155.95C101.953 155.95 101.078 156.18 100.268 156.64L100.073 155.755C100.933 155.285 101.873 155.05 102.893 155.05ZM100.748 160.855C100.748 161.305 100.888 161.66 101.168 161.92C101.448 162.17 101.823 162.295 102.293 162.295C102.983 162.295 103.578 162.05 104.078 161.56C104.588 161.06 104.843 160.45 104.843 159.73V158.89H104.048C102.998 158.89 102.183 159.07 101.603 159.43C101.033 159.78 100.748 160.255 100.748 160.855ZM111.291 158.305H111.321L113.361 155.2H114.606L111.951 159.04L114.681 163H113.391L111.276 159.76H111.246L109.146 163H107.886L110.631 159.04L107.961 155.2H109.251L111.291 158.305Z" fill="black"/>
<path d="M74.476 68.4902C74.3412 67.9685 74.2239 67.4348 74.1273 66.9042C74.0439 66.4463 73.6051 66.1428 73.1489 66.2264C72.6919 66.31 72.389 66.7489 72.4725 67.2068C72.5764 67.7775 72.7026 68.3515 72.8476 68.9127C72.9457 69.2924 73.2871 69.5444 73.6613 69.5444C73.7311 69.5444 73.802 69.5357 73.8727 69.5173C74.3223 69.4007 74.5924 68.9409 74.476 68.4902Z" fill="#303030"/>
<path d="M92.0009 84.9234C90.9671 84.7278 89.9384 84.4561 88.9434 84.1159C88.5042 83.9657 88.0259 84.2008 87.8757 84.6414C87.7257 85.0819 87.9606 85.5609 88.4002 85.7111C89.4703 86.077 90.5767 86.3693 91.6886 86.5796C91.7414 86.5896 91.7938 86.5945 91.8456 86.5945C92.242 86.5945 92.5949 86.3124 92.6711 85.9079C92.7576 85.4505 92.4574 85.0098 92.0009 84.9234Z" fill="#303030"/>
<path d="M109.924 80.6098C109.092 81.2567 108.207 81.8496 107.294 82.3717C106.891 82.6025 106.75 83.1172 106.981 83.5214C107.136 83.7938 107.42 83.9465 107.712 83.9465C107.853 83.9465 107.997 83.9108 108.128 83.8355C109.109 83.2742 110.06 82.6371 110.955 81.9417C111.322 81.6565 111.389 81.127 111.104 80.7594C110.819 80.3914 110.291 80.3245 109.924 80.6098Z" fill="#303030"/>
<path d="M78.7128 76.9268C78.4214 76.5643 77.8921 76.507 77.5301 76.7991C77.1683 77.0911 77.1114 77.6216 77.4027 77.9841C78.1119 78.8664 78.8901 79.7065 79.7155 80.4808C79.8776 80.633 80.0841 80.7084 80.2901 80.7084C80.5147 80.7084 80.7386 80.6188 80.9043 80.4416C81.2218 80.1018 81.2043 79.5685 80.8651 79.2504C80.0971 78.5297 79.3729 77.748 78.7128 76.9268Z" fill="#303030"/>
<path d="M75.4843 71.494C75.3053 71.0645 74.8129 70.8617 74.3841 71.041C73.9555 71.2204 73.753 71.7139 73.932 72.1435C74.3672 73.1879 74.8818 74.2119 75.4613 75.1871C75.6187 75.4519 75.8981 75.5989 76.1847 75.5989C76.3312 75.5989 76.4795 75.5605 76.6143 75.4801C77.0135 75.242 77.1444 74.7247 76.9066 74.3248C76.3675 73.4175 75.8891 72.4652 75.4843 71.494Z" fill="#303030"/>
<path d="M104.443 83.7446C103.464 84.1327 102.449 84.4539 101.425 84.6992C100.974 84.8074 100.695 85.2621 100.803 85.7149C100.895 86.1017 101.24 86.3618 101.62 86.3618C101.685 86.3618 101.751 86.3543 101.817 86.3385C102.918 86.0747 104.01 85.7293 105.062 85.3118C105.494 85.1405 105.705 84.6508 105.534 84.218C105.363 83.7852 104.874 83.5732 104.443 83.7446Z" fill="#303030"/>
<path d="M86.0311 82.8826C85.0944 82.4048 84.1826 81.8552 83.3207 81.2492C82.9406 80.9818 82.416 81.0739 82.1492 81.4548C81.8823 81.8358 81.9741 82.3614 82.3544 82.6287C83.2807 83.2802 84.2611 83.871 85.268 84.3846C85.3902 84.447 85.5205 84.4765 85.6488 84.4765C85.9551 84.4765 86.2505 84.3082 86.399 84.0159C86.6098 83.6012 86.445 83.0937 86.0311 82.8826Z" fill="#303030"/>
<path d="M98.3058 85.2159C97.2625 85.3136 96.1934 85.3387 95.1425 85.2904C94.6786 85.2684 94.2851 85.6286 94.2638 86.0936C94.2425 86.5586 94.6013 86.9528 95.0654 86.9742C95.4379 86.9912 95.8164 87 96.1901 87C96.9474 87 97.7118 86.9644 98.4623 86.894C98.9248 86.8508 99.2646 86.44 99.2215 85.9764C99.1783 85.5131 98.7692 85.172 98.3058 85.2159Z" fill="#303030"/>
<path d="M118.362 69.9891C117.925 69.8308 117.443 70.0569 117.285 70.4946C116.927 71.4844 116.494 72.4585 116 73.3895C115.781 73.8004 115.937 74.3108 116.347 74.5295C116.473 74.5967 116.608 74.6286 116.741 74.6286C117.042 74.6286 117.333 74.4665 117.484 74.1819C118.017 73.1805 118.482 72.1331 118.866 71.0686C119.024 70.631 118.799 70.1477 118.362 69.9891Z" fill="#303030"/>
<path d="M115.496 75.8895C115.12 75.6153 114.594 75.6975 114.32 76.0736C113.701 76.9248 113.015 77.7398 112.282 78.4963C111.958 78.8301 111.966 79.3638 112.299 79.688C112.462 79.8471 112.674 79.9262 112.885 79.9262C113.104 79.9262 113.323 79.8407 113.488 79.6705C114.276 78.8578 115.013 77.9819 115.679 77.0672C115.953 76.6911 115.871 76.1638 115.496 75.8895Z" fill="#303030"/>
<path d="M119.465 63.5201C119.003 63.4901 118.601 63.8425 118.572 64.307C118.504 65.3611 118.361 66.4175 118.147 67.4469C118.052 67.9026 118.344 68.3489 118.799 68.4439C118.857 68.4559 118.915 68.4617 118.971 68.4617C119.361 68.4617 119.711 68.1883 119.794 67.7907C120.024 66.6838 120.177 65.5482 120.25 64.4152C120.28 63.9507 119.929 63.55 119.465 63.5201Z" fill="#303030"/>
<path d="M119.46 58.5261C118.995 58.5261 118.618 58.9035 118.618 59.3689V61.0544C118.618 61.5199 118.995 61.8972 119.46 61.8972C119.924 61.8972 120.301 61.5199 120.301 61.0544V59.3689C120.301 58.9034 119.924 58.5261 119.46 58.5261Z" fill="#303030"/>
<path d="M95.1847 64.5925C98.1372 64.5925 100.539 62.1856 100.539 59.227C100.539 56.2684 98.1372 53.8615 95.1847 53.8615C94.9775 53.8615 94.7674 53.8752 94.5571 53.9003C94.1143 53.6807 93.6163 53.5566 93.0896 53.5566C91.2586 53.5566 89.7689 55.0494 89.7689 56.8841C89.7689 57.2827 89.8393 57.6651 89.9681 58.0196C89.8769 58.4156 89.83 58.8204 89.83 59.2269C89.83 62.1856 92.2321 64.5925 95.1847 64.5925ZM98.8572 59.227C98.8572 61.2562 97.2098 62.907 95.1847 62.907C93.3674 62.907 91.8551 61.5773 91.5637 59.8381C92.021 60.0762 92.5397 60.2117 93.0896 60.2117C94.9207 60.2117 96.4103 58.719 96.4103 56.8842C96.4103 56.4625 96.3308 56.0593 96.1874 55.6877C97.7264 56.1262 98.8572 57.5463 98.8572 59.227ZM93.0896 55.2423C93.9932 55.2423 94.7282 55.9789 94.7282 56.8842C94.7282 57.7896 93.9931 58.5262 93.0896 58.5262C92.186 58.5262 91.451 57.7896 91.451 56.8842C91.451 55.9789 92.1861 55.2423 93.0896 55.2423Z" fill="#303030"/>
<path d="M112.829 67.613C112.622 66.3219 112.026 65.1241 111.134 64.1809L113.327 62.4887C114.042 63.2214 114.592 64.11 114.923 65.0802C115.043 65.4302 115.37 65.6504 115.719 65.6504C115.81 65.6504 115.901 65.6356 115.992 65.6047C116.431 65.4541 116.665 64.9749 116.515 64.5345C116.124 63.3908 115.491 62.3368 114.669 61.4539L115.807 60.5759C116.275 60.2148 116.549 59.6684 116.56 59.0768C116.571 58.4851 116.316 57.9293 115.861 57.5516C115.242 57.0373 114.607 56.5513 113.957 56.0936C114.667 55.6024 115.285 54.9996 115.79 54.3117L118.945 56.3486C119.086 56.4396 119.244 56.4829 119.4 56.4829C119.676 56.4829 119.947 56.3466 120.108 56.0966C120.359 55.7054 120.247 55.1837 119.856 54.9317L116.635 52.8522C116.826 52.4214 116.98 51.9718 117.091 51.5057L117.264 50.7753C117.372 50.3224 117.092 49.8681 116.64 49.7605C116.189 49.6527 115.735 49.9327 115.628 50.3855L115.454 51.1157C115.389 51.3933 115.302 51.663 115.2 51.925L114.16 51.2537C113.319 50.7109 112.458 50.2094 111.58 49.7492C111.654 49.2406 111.678 48.7232 111.645 48.2045L111.598 47.4758C111.568 47.0112 111.168 46.6587 110.705 46.6888C110.241 46.7187 109.889 47.1194 109.919 47.584L109.966 48.3127C109.98 48.5296 109.981 48.7462 109.97 48.9617C108.516 48.2975 107.021 47.7428 105.498 47.2988C105.521 46.822 105.506 46.3403 105.446 45.8574L105.376 45.2936C105.318 44.8316 104.897 44.5042 104.437 44.5614C103.976 44.6189 103.649 45.0399 103.706 45.5018L103.776 46.0655C103.809 46.3304 103.825 46.5949 103.827 46.8581C101.998 46.427 100.138 46.1527 98.2666 46.0369C98.2562 45.7473 98.2344 45.4577 98.199 45.1693L98.1463 44.7396C98.0897 44.2775 97.6672 43.9494 97.209 44.0059C96.748 44.0627 96.4201 44.4831 96.4767 44.9451L96.5294 45.3747C96.5539 45.5745 96.5697 45.7748 96.5798 45.9753C92.2986 45.9284 87.9941 46.71 83.9195 48.3456L73.2529 52.6276C72.8217 52.8007 72.6121 53.2912 72.7849 53.7233C72.9576 54.1554 73.4476 54.3652 73.8784 54.1922L84.545 49.9102C88.3928 48.3656 92.4564 47.6232 96.4992 47.6595C96.3461 48.7052 96.0018 49.721 95.4794 50.6456C90.3912 50.8545 85.3239 52.3628 80.7851 55.2072L73.1309 60.0032C72.5533 60.3653 72.2298 61.0128 72.2868 61.6931C72.3437 62.3733 72.7703 62.9579 73.4 63.2186L76.4146 64.4662L80.9572 67.238C81.3537 67.4802 81.8713 67.3542 82.113 66.9565C82.3546 66.559 82.2288 66.0405 81.8321 65.7984L79.3281 64.2705L79.131 63.4362C78.7523 61.8334 78.8275 60.1605 79.3485 58.5981L79.5607 57.962L81.6767 56.6359C83.5514 55.4611 85.522 54.5287 87.5477 53.8336C86.4519 55.3899 85.8409 57.2654 85.8409 59.2269C85.8409 64.3895 90.0326 68.5896 95.1848 68.5896C99.7118 68.5896 103.578 65.3526 104.378 60.8927C104.46 60.4345 104.156 59.9964 103.699 59.914C103.242 59.8317 102.805 60.1363 102.723 60.5944C102.067 64.2506 98.8966 66.9041 95.1847 66.9041C90.9599 66.9041 87.523 63.4601 87.523 59.2269C87.523 56.7122 88.7467 54.3693 90.8024 52.9302C93.3845 52.3778 96.0194 52.1925 98.63 52.3707C100.624 53.3783 102.075 55.1878 102.617 57.3566C102.712 57.7395 103.055 57.995 103.432 57.995C103.5 57.995 103.568 57.9868 103.637 57.9695C104.088 57.8564 104.361 57.3988 104.249 56.9473C103.855 55.3732 103.07 53.954 101.987 52.8036C106.586 53.6789 111 55.7031 114.788 58.8489C114.868 58.9156 114.879 59.001 114.878 59.046C114.877 59.0909 114.864 59.176 114.781 59.2399L107.181 65.1032C104.045 67.5218 100.31 69.0256 96.378 69.4522C92.4706 69.8759 88.5273 69.2216 84.9728 67.5599C84.5521 67.3632 84.0516 67.5456 83.855 67.9673C83.6586 68.389 83.8407 68.8905 84.2616 69.0874C87.3365 70.5248 90.6808 71.2632 94.0583 71.2632C94.8909 71.2632 95.7259 71.2184 96.559 71.1279C96.6319 71.12 96.7046 71.111 96.7774 71.1023C96.8856 71.6399 96.8424 72.2026 96.643 72.7163C96.4747 73.15 96.6892 73.6385 97.1221 73.8071C97.2223 73.8461 97.3253 73.8647 97.4267 73.8647C97.7634 73.8647 98.0815 73.6605 98.2108 73.3271C98.5173 72.5371 98.593 71.6737 98.441 70.8445C99.5354 70.6337 100.611 70.3447 101.659 69.9804C101.872 70.6123 101.941 71.2858 101.854 71.9502C101.794 72.4117 102.119 72.8348 102.579 72.895C102.616 72.8999 102.653 72.9022 102.689 72.9022C103.105 72.9022 103.467 72.593 103.522 72.1685C103.645 71.2235 103.544 70.2645 103.23 69.3691C104.073 69.0055 104.894 68.5915 105.69 68.1291C106.364 68.861 106.762 69.8112 106.809 70.8059C106.831 71.2571 107.203 71.6085 107.649 71.6085C107.662 71.6085 107.676 71.6082 107.689 71.6076C108.153 71.5854 108.512 71.1905 108.489 70.7256C108.428 69.4396 107.948 68.2076 107.13 67.2204C107.495 66.9705 107.855 66.7105 108.207 66.439L109.791 65.2165C110.52 65.9322 111.006 66.8677 111.169 67.8811C111.235 68.2953 111.592 68.5899 111.998 68.5899C112.043 68.5899 112.088 68.5865 112.133 68.5792C112.591 68.505 112.903 68.0725 112.829 67.613ZM77.3441 63.0599L77.2335 62.9925C77.1964 62.9698 77.1575 62.95 77.1172 62.9334L74.0421 61.6607C74.0242 61.6533 73.9696 61.6307 73.963 61.5524C73.9565 61.4741 74.0065 61.4427 74.0229 61.4325L77.4249 59.3005C77.1731 60.5376 77.1449 61.8101 77.3441 63.0599ZM113.248 52.6704L114.374 53.3968C113.851 54.0823 113.184 54.6553 112.407 55.0705C111.559 54.5479 110.691 54.0711 109.806 53.6399C110.376 52.9819 110.825 52.2294 111.139 51.4234C111.855 51.81 112.559 52.2253 113.248 52.6704ZM109.63 50.6609C109.328 51.505 108.834 52.2784 108.182 52.9079C106.848 52.3538 105.482 51.9004 104.096 51.5469C104.624 50.7583 105.011 49.8908 105.245 48.9805C106.74 49.4282 108.206 49.9888 109.63 50.6609ZM103.621 48.5415C103.38 49.4889 102.932 50.3783 102.297 51.1468C100.671 50.8375 99.0233 50.664 97.3709 50.6273C97.7845 49.7036 98.0589 48.7219 98.1879 47.7201C100.017 47.8348 101.835 48.1094 103.621 48.5415Z" fill="#303030"/>
<path d="M123.732 43.8578C121.285 40.6792 118.349 37.9609 115.007 35.7784C111.749 33.6509 108.183 32.0815 104.407 31.1137C100.631 30.1458 96.7504 29.8065 92.8728 30.1048C88.895 30.411 85.0175 31.383 81.3476 32.9935L68.6325 38.5736C67.9541 38.8714 67.4369 39.4178 67.1762 40.1123C66.9154 40.8067 66.9449 41.5592 67.2592 42.231L68.6982 45.3071C69.1597 46.2936 70.1279 46.8802 71.1558 46.8801C71.4632 46.8801 71.7761 46.8276 72.0822 46.7177L87.3412 41.2395C92.5147 39.3821 98.1423 38.6949 103.615 39.252C104.077 39.2992 104.49 38.9619 104.537 38.4987C104.584 38.0356 104.248 37.6221 103.785 37.5751C98.0641 36.9926 92.1817 37.7111 86.774 39.6527L71.5149 45.1308C71.0063 45.3134 70.4506 45.0815 70.2214 44.5917L68.7824 41.5156C68.6623 41.2588 68.651 40.9712 68.7507 40.7057C68.8504 40.4403 69.048 40.2314 69.3073 40.1176L82.0225 34.5374C85.519 33.003 89.2129 32.077 93.0017 31.7854C96.6955 31.501 100.392 31.8244 103.99 32.7465C107.587 33.6686 110.985 35.1638 114.089 37.1905C116.761 38.9353 119.16 41.0398 121.24 43.4616L116.996 41.3689C113.971 39.8772 110.753 38.7854 107.434 38.1239C106.978 38.0333 106.536 38.3296 106.445 38.7861C106.355 39.2426 106.651 39.6863 107.106 39.7771C110.282 40.41 113.359 41.4543 116.253 42.8813L122.155 45.7908C122.691 46.0555 123.331 45.9162 123.709 45.4521C124.088 44.988 124.098 44.3324 123.732 43.8578Z" fill="#303030"/>
<path d="M71.3043 77.5534C70.9801 77.2467 70.4735 77.2467 70.1496 77.5534L68.331 79.2737C67.9933 79.5933 67.978 80.1266 68.2968 80.4652C68.6155 80.8037 69.148 80.8188 69.4858 80.4995L69.8858 80.121V82.9122C69.8858 83.3776 70.2623 83.7549 70.7269 83.7549C71.1915 83.7549 71.5679 83.3776 71.5679 82.9122V80.121L71.9681 80.4996C72.1306 80.6533 72.3381 80.7295 72.5453 80.7295C72.7685 80.7295 72.9915 80.6408 73.157 80.4652C73.4758 80.1267 73.4605 79.5933 73.1227 79.2739L71.3043 77.5534Z" fill="#303030"/>
<path d="M87.5804 73.9883C87.1952 73.7278 86.6725 73.8295 86.4128 74.2152L84.8543 76.5286L84.734 75.9906C84.6326 75.5364 84.1829 75.2506 83.7295 75.3523C83.2761 75.454 82.991 75.9047 83.0925 76.3589L83.6391 78.8043C83.7263 79.1945 84.0719 79.463 84.459 79.463C84.5043 79.463 84.5502 79.4593 84.5963 79.4518L87.0642 79.0453C87.5226 78.9698 87.833 78.5363 87.7578 78.077C87.6826 77.6179 87.2499 77.3064 86.7916 77.382L86.2486 77.4715L87.807 75.1581C88.0668 74.7725 87.9653 74.2486 87.5804 73.9883Z" fill="#303030"/>
<path d="M107.437 78.8044L107.983 76.359C108.085 75.9048 107.8 75.4541 107.346 75.3524C106.893 75.2506 106.443 75.5364 106.342 75.9906L106.221 76.5286L104.663 74.2152C104.403 73.8295 103.88 73.7279 103.495 73.9883C103.11 74.2486 103.009 74.7725 103.269 75.1584L104.827 77.4717L104.284 77.3823C103.826 77.3075 103.393 77.6179 103.318 78.0773C103.243 78.5366 103.553 78.97 104.012 79.0455L106.479 79.452C106.526 79.4595 106.571 79.4632 106.617 79.4632C107.004 79.4631 107.349 79.1947 107.437 78.8044Z" fill="#303030"/>
</svg>
