<svg width="190" height="211" viewBox="0 0 190 211" fill="none" xmlns="http://www.w3.org/2000/svg">
<path d="M0 52.75L95 0L190 52.75V157.828L95 211L0 157.828V52.75Z" fill="white"/>
<path d="M53.636 108.05L56.846 114.695H56.876L60.011 108.05H61.376L57.596 115.745C56.946 117.055 56.246 117.95 55.496 118.43C54.756 118.91 53.706 119.15 52.346 119.15L52.271 118.145C53.381 118.145 54.211 117.99 54.761 117.68C55.311 117.36 55.806 116.75 56.246 115.85L52.226 108.05H53.636ZM66.3663 111.965C65.4863 111.965 64.8013 112.24 64.3113 112.79C63.8213 113.33 63.5763 114.1 63.5763 115.1C63.5763 116.06 63.8313 116.825 64.3413 117.395C64.8613 117.965 65.5363 118.25 66.3663 118.25C67.0663 118.25 67.7363 118.08 68.3763 117.74L68.6763 118.625C67.9263 118.975 67.1413 119.15 66.3213 119.15C65.1613 119.15 64.2213 118.785 63.5013 118.055C62.7813 117.315 62.4213 116.33 62.4213 115.1C62.4213 113.83 62.7663 112.84 63.4563 112.13C64.1463 111.41 65.1013 111.05 66.3213 111.05C67.1413 111.05 67.9263 111.225 68.6763 111.575L68.3763 112.49C67.7063 112.14 67.0363 111.965 66.3663 111.965ZM77.2182 112.115H74.3682V119H73.1832V112.115H70.3332V111.2H77.2182V112.115ZM82.6606 119.15C81.5306 119.15 80.6906 118.695 80.1406 117.785H80.1106V122.3H79.0156V111.2H80.0656L80.0806 112.52H80.1106C80.6606 111.54 81.5106 111.05 82.6606 111.05C83.6406 111.05 84.4106 111.4 84.9706 112.1C85.5306 112.79 85.8106 113.79 85.8106 115.1C85.8106 116.38 85.5206 117.375 84.9406 118.085C84.3706 118.795 83.6106 119.15 82.6606 119.15ZM84.7306 115.1C84.7306 114.08 84.5256 113.3 84.1156 112.76C83.7156 112.22 83.1506 111.95 82.4206 111.95C81.7306 111.95 81.1706 112.22 80.7406 112.76C80.3206 113.3 80.1106 114.045 80.1106 114.995V115.205C80.1106 116.175 80.3256 116.925 80.7556 117.455C81.1856 117.985 81.7406 118.25 82.4206 118.25C83.1306 118.25 83.6906 117.98 84.1006 117.44C84.5206 116.89 84.7306 116.11 84.7306 115.1ZM90.4643 111.05C91.5543 111.05 92.3343 111.275 92.8043 111.725C93.2743 112.175 93.5093 112.915 93.5093 113.945V116.9C93.5093 117.61 93.5843 118.31 93.7343 119H92.6843C92.6043 118.61 92.5543 118.15 92.5343 117.62H92.5043C92.2343 118.1 91.8443 118.475 91.3343 118.745C90.8243 119.015 90.2493 119.15 89.6093 119.15C88.8893 119.15 88.3143 118.95 87.8843 118.55C87.4543 118.14 87.2393 117.59 87.2393 116.9C87.2393 116.03 87.6193 115.34 88.3793 114.83C89.1393 114.31 90.2193 114.05 91.6193 114.05H92.4143V113.975C92.4143 113.215 92.2693 112.69 91.9793 112.4C91.6993 112.1 91.1943 111.95 90.4643 111.95C89.5243 111.95 88.6493 112.18 87.8393 112.64L87.6443 111.755C88.5043 111.285 89.4443 111.05 90.4643 111.05ZM88.3193 116.855C88.3193 117.305 88.4593 117.66 88.7393 117.92C89.0193 118.17 89.3943 118.295 89.8643 118.295C90.5543 118.295 91.1493 118.05 91.6493 117.56C92.1593 117.06 92.4143 116.45 92.4143 115.73V114.89H91.6193C90.5693 114.89 89.7543 115.07 89.1743 115.43C88.6043 115.78 88.3193 116.255 88.3193 116.855ZM97.002 115.25V119H95.832V111.2H97.002V114.38H101.427V111.2H102.597V119H101.427V115.25H97.002ZM105.441 114.65H110.241C110.231 113.78 110.021 113.11 109.611 112.64C109.201 112.17 108.636 111.935 107.916 111.935C107.166 111.935 106.571 112.175 106.131 112.655C105.701 113.125 105.471 113.79 105.441 114.65ZM105.441 115.52C105.461 116.37 105.721 117.04 106.221 117.53C106.721 118.02 107.371 118.265 108.171 118.265C108.941 118.265 109.706 118.065 110.466 117.665L110.766 118.52C109.926 118.94 109.026 119.15 108.066 119.15C106.946 119.15 106.041 118.785 105.351 118.055C104.661 117.325 104.316 116.34 104.316 115.1C104.316 113.84 104.636 112.85 105.276 112.13C105.926 111.41 106.806 111.05 107.916 111.05C108.996 111.05 109.831 111.395 110.421 112.085C111.021 112.765 111.321 113.745 111.321 115.025C111.321 115.155 111.311 115.32 111.291 115.52H105.441ZM114.287 115.25V119H113.117V111.2H114.287V114.38H118.712V111.2H119.882V119H118.712V115.25H114.287ZM123.266 117.47H123.296L127.736 111.2H128.966V119H127.826V112.73H127.811L123.356 119H122.126V111.2H123.266V117.47ZM131.823 114.65H136.623C136.613 113.78 136.403 113.11 135.993 112.64C135.583 112.17 135.018 111.935 134.298 111.935C133.548 111.935 132.953 112.175 132.513 112.655C132.083 113.125 131.853 113.79 131.823 114.65ZM131.823 115.52C131.843 116.37 132.103 117.04 132.603 117.53C133.103 118.02 133.753 118.265 134.553 118.265C135.323 118.265 136.088 118.065 136.848 117.665L137.148 118.52C136.308 118.94 135.408 119.15 134.448 119.15C133.328 119.15 132.423 118.785 131.733 118.055C131.043 117.325 130.698 116.34 130.698 115.1C130.698 113.84 131.018 112.85 131.658 112.13C132.308 111.41 133.188 111.05 134.298 111.05C135.378 111.05 136.213 111.395 136.803 112.085C137.403 112.765 137.703 113.745 137.703 115.025C137.703 115.155 137.693 115.32 137.673 115.52H131.823ZM67.9551 141V137.4H67.1601L64.7301 141H63.5601L66.3051 136.92L63.6351 133.2H64.8201L67.1601 136.47H67.9551V133.2H69.0651V136.47H69.8601L72.2001 133.2H73.3851L70.7151 136.92L73.4601 141H72.2901L69.8601 137.4H69.0651V141H67.9551ZM76.4715 139.47H76.5015L80.9415 133.2H82.1715V141H81.0315V134.73H81.0165L76.5615 141H75.3315V133.2H76.4715V139.47ZM88.0732 141.15C86.9432 141.15 86.1032 140.695 85.5532 139.785H85.5232V144.3H84.4282V133.2H85.4782L85.4932 134.52H85.5232C86.0732 133.54 86.9232 133.05 88.0732 133.05C89.0532 133.05 89.8232 133.4 90.3832 134.1C90.9432 134.79 91.2232 135.79 91.2232 137.1C91.2232 138.38 90.9332 139.375 90.3532 140.085C89.7832 140.795 89.0232 141.15 88.0732 141.15ZM90.1432 137.1C90.1432 136.08 89.9382 135.3 89.5282 134.76C89.1282 134.22 88.5632 133.95 87.8332 133.95C87.1432 133.95 86.5832 134.22 86.1532 134.76C85.7332 135.3 85.5232 136.045 85.5232 136.995V137.205C85.5232 138.175 85.7382 138.925 86.1682 139.455C86.5982 139.985 87.1532 140.25 87.8332 140.25C88.5432 140.25 89.1032 139.98 89.5132 139.44C89.9332 138.89 90.1432 138.11 90.1432 137.1ZM98.0369 134.79C97.5869 134.23 96.9669 133.95 96.1769 133.95C95.3869 133.95 94.7619 134.23 94.3019 134.79C93.8519 135.34 93.6269 136.11 93.6269 137.1C93.6269 138.09 93.8519 138.865 94.3019 139.425C94.7619 139.975 95.3869 140.25 96.1769 140.25C96.9669 140.25 97.5869 139.975 98.0369 139.425C98.4969 138.865 98.7269 138.09 98.7269 137.1C98.7269 136.11 98.4969 135.34 98.0369 134.79ZM98.8469 140.055C98.1769 140.785 97.2869 141.15 96.1769 141.15C95.0669 141.15 94.1769 140.785 93.5069 140.055C92.8369 139.325 92.5019 138.34 92.5019 137.1C92.5019 135.86 92.8369 134.875 93.5069 134.145C94.1769 133.415 95.0669 133.05 96.1769 133.05C97.2869 133.05 98.1769 133.415 98.8469 134.145C99.5169 134.875 99.8519 135.86 99.8519 137.1C99.8519 138.34 99.5169 139.325 98.8469 140.055ZM102.722 140.22C103.092 140.28 103.497 140.31 103.937 140.31C105.607 140.31 106.442 139.765 106.442 138.675C106.442 137.685 105.557 137.19 103.787 137.19H102.722V140.22ZM102.722 136.44H103.772C104.492 136.44 105.052 136.32 105.452 136.08C105.852 135.84 106.052 135.51 106.052 135.09C106.052 134.29 105.317 133.89 103.847 133.89C103.457 133.89 103.082 133.92 102.722 133.98V136.44ZM107.552 138.75C107.552 140.32 106.332 141.105 103.892 141.105C103.002 141.105 102.232 141.05 101.582 140.94V133.26C102.292 133.15 103.022 133.095 103.772 133.095C104.982 133.095 105.842 133.275 106.352 133.635C106.872 133.985 107.132 134.435 107.132 134.985C107.132 135.435 106.977 135.815 106.667 136.125C106.357 136.425 105.922 136.635 105.362 136.755V136.77C106.072 136.88 106.612 137.11 106.982 137.46C107.362 137.8 107.552 138.23 107.552 138.75ZM116.695 141V133.2H117.775V141H116.695ZM109.345 133.2H110.44V135.6C110.87 135.52 111.33 135.48 111.82 135.48C113 135.48 113.895 135.725 114.505 136.215C115.115 136.695 115.42 137.365 115.42 138.225C115.42 140.175 114.17 141.15 111.67 141.15C110.84 141.15 110.065 141.075 109.345 140.925V133.2ZM110.44 136.5V140.115C110.84 140.205 111.275 140.25 111.745 140.25C113.475 140.25 114.34 139.575 114.34 138.225C114.34 136.995 113.45 136.38 111.67 136.38C111.23 136.38 110.82 136.42 110.44 136.5ZM123.054 136.305H123.084L125.124 133.2H126.369L123.714 137.04L126.444 141H125.154L123.039 137.76H123.009L120.909 141H119.649L122.394 137.04L119.724 133.2H121.014L123.054 136.305ZM77.0747 155.2H82.7747V156.145H78.2297V163H77.0747V155.2ZM88.1465 163.15C87.0165 163.15 86.1765 162.695 85.6265 161.785H85.5965V166.3H84.5015V155.2H85.5515L85.5665 156.52H85.5965C86.1465 155.54 86.9965 155.05 88.1465 155.05C89.1265 155.05 89.8965 155.4 90.4565 156.1C91.0165 156.79 91.2965 157.79 91.2965 159.1C91.2965 160.38 91.0065 161.375 90.4265 162.085C89.8565 162.795 89.0965 163.15 88.1465 163.15ZM90.2165 159.1C90.2165 158.08 90.0115 157.3 89.6015 156.76C89.2015 156.22 88.6365 155.95 87.9065 155.95C87.2165 155.95 86.6565 156.22 86.2265 156.76C85.8065 157.3 85.5965 158.045 85.5965 158.995V159.205C85.5965 160.175 85.8115 160.925 86.2415 161.455C86.6715 161.985 87.2265 162.25 87.9065 162.25C88.6165 162.25 89.1765 161.98 89.5865 161.44C90.0065 160.89 90.2165 160.11 90.2165 159.1ZM100.45 163V155.2H101.53V163H100.45ZM93.1001 155.2H94.1951V157.6C94.6251 157.52 95.0851 157.48 95.5751 157.48C96.7551 157.48 97.6501 157.725 98.2601 158.215C98.8701 158.695 99.1751 159.365 99.1751 160.225C99.1751 162.175 97.9251 163.15 95.4251 163.15C94.5951 163.15 93.8201 163.075 93.1001 162.925V155.2ZM94.1951 158.5V162.115C94.5951 162.205 95.0301 162.25 95.5001 162.25C97.2301 162.25 98.0951 161.575 98.0951 160.225C98.0951 158.995 97.2051 158.38 95.4251 158.38C94.9851 158.38 94.5751 158.42 94.1951 158.5ZM107.799 163V159.4H107.004L104.574 163H103.404L106.149 158.92L103.479 155.2H104.664L107.004 158.47H107.799V155.2H108.909V158.47H109.704L112.044 155.2H113.229L110.559 158.92L113.304 163H112.134L109.704 159.4H108.909V163H107.799Z" fill="black"/>
<path d="M115.845 52.0769C112.173 53.6836 106.353 55.7552 99.06 56.7355L97.9504 56.887L98.8381 56.1999C102.348 53.4714 104.366 49.3484 104.366 44.8818C104.366 43.4367 104.154 42.022 103.74 40.6678L103.609 40.2434L104.043 40.2737C111.336 40.7588 119.93 41.5167 128.433 43.4064L135 41.0114L134.395 39.3137L128.302 41.5369L128.232 41.5167C125.377 40.9306 110.115 38 90.3146 38C75.5069 38 63.9573 40.0615 55 44.3058V46.1652C56.3113 47.489 58.2077 48.2267 60.0536 48.9341C61.3346 49.4292 62.6661 49.9446 63.7858 50.6621C69.8582 54.4314 77.4234 59.1304 90.3146 59.1304C101.804 59.1304 110.892 56.2302 116.571 53.7341L115.845 52.0769ZM81.1052 56.3919C73.9636 54.8659 69.0411 51.8141 64.7037 49.116C63.2512 48.2065 61.6372 47.5193 60.0939 46.8625C59.2466 46.4987 58.3691 46.1248 57.5217 45.7205L56.8964 45.4174L57.5419 45.1647C59.9325 44.2249 66.5597 41.9108 76.445 40.6577L76.8989 40.5971L76.7778 41.0316C76.4349 42.2746 76.2634 43.5681 76.2634 44.8717C76.2634 49.1261 78.1295 53.1278 81.3674 55.8563L81.1052 56.3919ZM78.0286 44.8818C78.0286 43.3963 78.2808 41.9411 78.7851 40.5668L78.8457 40.3849L79.0373 40.3647C80.9639 40.1727 82.9309 40.0211 84.8878 39.9301L85.5737 39.8998L85.14 40.4253C83.7177 42.1129 83.1932 44.4978 83.758 46.6401L83.7984 46.7917L83.6975 46.913C83.2133 47.5092 82.941 48.257 82.941 49.025C82.941 50.8541 84.4036 52.3396 86.2092 52.3396C86.9657 52.3396 87.7021 52.0667 88.2871 51.5817L88.4081 51.4806L88.5594 51.5211C89.1344 51.6726 89.7195 51.7535 90.3045 51.7535C92.796 51.7535 95.116 50.3387 96.2861 48.1256L94.6823 47.3475C93.7038 49.116 91.6965 50.1568 89.6892 49.9143L89.3765 49.8739L89.4269 49.5606C89.5984 48.4995 89.2454 47.4587 88.4788 46.6806C87.7222 45.9226 86.7034 45.5892 85.6847 45.7509L85.372 45.8014L85.3316 45.4881C85.1702 44.0633 85.6241 42.6081 86.6026 41.5066C87.5608 40.4253 88.9125 39.8089 90.3045 39.8089C92.9675 39.8089 95.1463 41.9209 95.3077 44.5786H97.083C97.0124 43.0325 96.4374 41.5571 95.4287 40.3849L94.9849 39.8695L95.6708 39.8897C97.5873 39.9402 99.5341 40.0211 101.471 40.1221L101.662 40.1322L101.733 40.3141C102.298 41.7693 102.59 43.3053 102.59 44.8919C102.59 51.7535 97.083 57.3317 90.3146 57.3317C83.5462 57.3317 78.0286 51.7434 78.0286 44.8818ZM86.2092 47.5193C87.0363 47.5193 87.7021 48.1964 87.7021 49.025C87.7021 49.8537 87.0363 50.5307 86.2092 50.5307C85.382 50.5307 84.7163 49.8537 84.7163 49.025C84.7163 48.1964 85.3921 47.5193 86.2092 47.5193Z" fill="#303030"/>
<path d="M113.575 73.9248L115.26 72.217L109.591 66.467C108.078 64.941 106.222 64.1225 104.225 64.1326C101.915 64.1326 99.4837 65.2139 97.5167 67.1137L114.816 84.6466L116.077 83.3733L111.77 79.0078L113.928 76.825L124.015 87.0416V91.4071L121.524 88.8808L120.263 90.1541L125.054 95.0148C125.74 95.7121 126.557 96.0455 127.435 95.995C128.211 95.9445 128.978 95.5706 129.603 94.9643C130.229 94.3478 130.622 93.5394 130.683 92.7411C130.753 91.8417 130.421 90.9827 129.714 90.2753L113.575 73.9248ZM112.667 75.5517L110.509 77.7345L100.069 67.144L100.371 66.9419C102.863 65.2644 106.212 65.5979 108.33 67.7504L112.738 72.217L111.053 73.9248L112.667 75.5517ZM128.464 93.7415C128.171 94.0447 127.828 94.1962 127.455 94.1962C127.435 94.1962 127.425 94.1962 127.404 94.1962C126.698 94.1659 126.134 93.6202 125.851 93.2868L125.78 93.2059V88.8505L126.295 89.376C126.416 89.4972 126.587 89.6589 126.789 89.8307C127.657 90.6088 128.847 91.6598 128.877 92.7209C128.897 93.1049 128.756 93.4484 128.464 93.7415Z" fill="#303030"/>
<path d="M116.914 86.7688L118.135 88.0016L119.385 86.7283L118.165 85.4955L116.914 86.7688Z" fill="#303030"/>
<path d="M102.005 79.7051H100.23V82.1304H97.8395V83.9392H100.23V86.3645H102.005V83.9392H104.406V82.1304H102.005V79.7051Z" fill="#303030"/>
<path d="M75.0834 67.3746L74.8416 67.2322C74.3983 66.9677 73.9651 66.6829 73.5419 66.398C73.4513 66.337 73.3606 66.2963 73.2498 66.276C73.1893 66.2658 73.1389 66.2556 73.0785 66.2556C73.0281 66.2556 72.9777 66.2556 72.9274 66.2658C72.8266 66.2861 72.7259 66.3167 72.6352 66.3777C72.5445 66.4286 72.474 66.4998 72.4136 66.5811C72.3531 66.6625 72.3128 66.7541 72.2927 66.8456C72.2826 66.9575 72.2725 67.0491 72.2927 67.1508C72.3128 67.2525 72.343 67.3441 72.4035 67.4255C72.4639 67.5068 72.5345 67.5882 72.6151 67.6391C73.1389 67.9951 73.683 68.341 74.227 68.6665C74.4084 68.7784 74.63 68.8089 74.8416 68.7581C75.0531 68.7072 75.2345 68.5851 75.3352 68.4122C75.4461 68.2393 75.4763 68.0358 75.436 67.8425C75.3957 67.6493 75.2647 67.4865 75.0834 67.3746Z" fill="#303030"/>
<path d="M90.8302 71.4945C89.6615 71.586 88.4727 71.586 87.2939 71.4945C87.2637 71.4945 87.2335 71.4945 87.2033 71.4945C87.1227 71.4945 87.0421 71.5046 86.9615 71.525C86.8607 71.5555 86.76 71.6064 86.6794 71.6674C86.5988 71.7284 86.5282 71.8098 86.488 71.9014C86.4376 71.9929 86.4074 72.0845 86.4074 72.1862C86.4074 72.2879 86.4074 72.3795 86.4477 72.4812C86.4779 72.5728 86.5282 72.6643 86.5988 72.7355C86.6693 72.8169 86.7499 72.8779 86.8506 72.9186C86.9514 72.9695 87.0521 72.9898 87.163 73C88.4626 73.1017 89.7119 73.1017 90.9611 73C91.1727 72.9797 91.3742 72.8881 91.5052 72.7355C91.6361 72.5829 91.7067 72.3896 91.6865 72.1862C91.6664 71.9929 91.5656 71.7996 91.4145 71.6776C91.2634 71.5453 91.0417 71.4843 90.8302 71.4945Z" fill="#303030"/>
<path d="M82.9416 70.8129C82.861 70.7519 82.7603 70.701 82.6596 70.6705C81.5211 70.3551 80.3927 69.9686 79.3047 69.5108C79.2039 69.4701 79.1032 69.4498 78.9923 69.4396C78.9823 69.4396 78.9823 69.4396 78.9722 69.4396C78.8715 69.4396 78.7707 69.46 78.68 69.4905C78.5793 69.5312 78.4886 69.582 78.4181 69.6532C78.3375 69.7245 78.2871 69.8058 78.2367 69.8974C78.1964 69.9889 78.1763 70.0805 78.1763 70.1822C78.1763 70.2839 78.1964 70.3755 78.2367 70.467C78.277 70.5586 78.3375 70.64 78.408 70.7112C78.4785 70.7824 78.5692 70.8434 78.67 70.8841C79.8286 71.3622 81.0174 71.7793 82.2263 72.115C82.3271 72.1455 82.4379 72.1557 82.5387 72.1353C82.6394 72.1252 82.7502 72.0946 82.8409 72.0438C82.9316 71.9929 83.0122 71.9319 83.0726 71.8505C83.1331 71.7691 83.1834 71.6877 83.2137 71.586C83.2439 71.4945 83.254 71.3927 83.2338 71.291C83.2237 71.1893 83.1935 71.0977 83.1431 71.0164C83.0827 70.9452 83.0222 70.8739 82.9416 70.8129Z" fill="#303030"/>
<path d="M99.7161 69.6736C99.6455 69.6024 99.5549 69.5515 99.4541 69.5108C99.3635 69.4701 99.2526 69.46 99.1519 69.46H99.1418C99.031 69.46 98.9302 69.4803 98.8295 69.521C97.7414 69.9686 96.6131 70.3653 95.4746 70.6705C95.2832 70.7315 95.1119 70.8638 95.0112 71.0367C94.9104 71.2096 94.8903 71.4131 94.9407 71.5962C95.0011 71.7895 95.1321 71.9522 95.3134 72.054C95.4948 72.1557 95.7164 72.1862 95.928 72.1252C97.1269 71.7895 98.3258 71.3826 99.4743 70.9045C99.575 70.8638 99.6556 70.8027 99.7362 70.7315C99.8067 70.6603 99.8672 70.5789 99.8974 70.4874C99.9377 70.3958 99.9579 70.2941 99.9579 70.2026C99.9579 70.1008 99.9377 70.0093 99.8974 69.9177C99.847 69.8262 99.7866 69.7448 99.7161 69.6736Z" fill="#303030"/>
</svg>
