<svg width="190" height="211" viewBox="0 0 190 211" fill="none" xmlns="http://www.w3.org/2000/svg">
<path d="M0 52.75L95 0L190 52.75V157.828L95 211L0 157.828V52.75Z" fill="white"/>
<path d="M61.0847 108.05L64.2947 114.695H64.3247L67.4597 108.05H68.8247L65.0447 115.745C64.3947 117.055 63.6947 117.95 62.9447 118.43C62.2047 118.91 61.1547 119.15 59.7947 119.15L59.7197 118.145C60.8297 118.145 61.6597 117.99 62.2097 117.68C62.7597 117.36 63.2547 116.75 63.6947 115.85L59.6747 108.05H61.0847ZM71.895 118.1H76.02V112.1H72.795C72.795 113.05 72.795 113.715 72.795 114.095C72.795 114.475 72.78 114.92 72.75 115.43C72.73 115.93 72.705 116.255 72.675 116.405C72.655 116.545 72.605 116.745 72.525 117.005C72.445 117.265 72.36 117.455 72.27 117.575C72.19 117.685 72.065 117.86 71.895 118.1ZM70.59 118.1C70.81 117.83 70.965 117.64 71.055 117.53C71.145 117.41 71.245 117.22 71.355 116.96C71.465 116.69 71.53 116.485 71.55 116.345C71.58 116.195 71.61 115.88 71.64 115.4C71.68 114.91 71.7 114.47 71.7 114.08C71.7 113.68 71.7 113.02 71.7 112.1V111.2H77.115V118.1H78.165V120.8H77.07V119H70.965V120.8H69.87V118.1H70.59ZM82.7372 111.05C83.8272 111.05 84.6072 111.275 85.0772 111.725C85.5472 112.175 85.7822 112.915 85.7822 113.945V116.9C85.7822 117.61 85.8572 118.31 86.0072 119H84.9572C84.8772 118.61 84.8272 118.15 84.8072 117.62H84.7772C84.5072 118.1 84.1172 118.475 83.6072 118.745C83.0972 119.015 82.5222 119.15 81.8822 119.15C81.1622 119.15 80.5872 118.95 80.1572 118.55C79.7272 118.14 79.5122 117.59 79.5122 116.9C79.5122 116.03 79.8922 115.34 80.6522 114.83C81.4122 114.31 82.4922 114.05 83.8922 114.05H84.6872V113.975C84.6872 113.215 84.5422 112.69 84.2522 112.4C83.9722 112.1 83.4672 111.95 82.7372 111.95C81.7972 111.95 80.9222 112.18 80.1122 112.64L79.9172 111.755C80.7772 111.285 81.7172 111.05 82.7372 111.05ZM80.5922 116.855C80.5922 117.305 80.7322 117.66 81.0122 117.92C81.2922 118.17 81.6672 118.295 82.1372 118.295C82.8272 118.295 83.4222 118.05 83.9222 117.56C84.4322 117.06 84.6872 116.45 84.6872 115.73V114.89H83.8922C82.8422 114.89 82.0272 115.07 81.4472 115.43C80.8772 115.78 80.5922 116.255 80.5922 116.855ZM89.365 115.04V111.2H95.14V119H94.03V112.13H90.445V115.22C90.445 116.71 90.23 117.72 89.8 118.25C89.37 118.78 88.55 119.08 87.34 119.15L87.28 118.22C87.86 118.19 88.285 118.095 88.555 117.935C88.835 117.775 89.04 117.48 89.17 117.05C89.3 116.61 89.365 115.94 89.365 115.04ZM97.9921 114.65H102.792C102.782 113.78 102.572 113.11 102.162 112.64C101.752 112.17 101.187 111.935 100.467 111.935C99.7171 111.935 99.1221 112.175 98.6821 112.655C98.2521 113.125 98.0221 113.79 97.9921 114.65ZM97.9921 115.52C98.0121 116.37 98.2721 117.04 98.7721 117.53C99.2721 118.02 99.9221 118.265 100.722 118.265C101.492 118.265 102.257 118.065 103.017 117.665L103.317 118.52C102.477 118.94 101.577 119.15 100.617 119.15C99.4971 119.15 98.5921 118.785 97.9021 118.055C97.2121 117.325 96.8671 116.34 96.8671 115.1C96.8671 113.84 97.1871 112.85 97.8271 112.13C98.4771 111.41 99.3571 111.05 100.467 111.05C101.547 111.05 102.382 111.395 102.972 112.085C103.572 112.765 103.872 113.745 103.872 115.025C103.872 115.155 103.862 115.32 103.842 115.52H97.9921ZM106.838 115.25V119H105.668V111.2H106.838V114.38H111.263V111.2H112.433V119H111.263V115.25H106.838ZM115.817 117.47H115.847L120.287 111.2H121.517V119H120.377V112.73H120.362L115.907 119H114.677V111.2H115.817V117.47ZM124.374 114.65H129.174C129.164 113.78 128.954 113.11 128.544 112.64C128.134 112.17 127.569 111.935 126.849 111.935C126.099 111.935 125.504 112.175 125.064 112.655C124.634 113.125 124.404 113.79 124.374 114.65ZM124.374 115.52C124.394 116.37 124.654 117.04 125.154 117.53C125.654 118.02 126.304 118.265 127.104 118.265C127.874 118.265 128.639 118.065 129.399 117.665L129.699 118.52C128.859 118.94 127.959 119.15 126.999 119.15C125.879 119.15 124.974 118.785 124.284 118.055C123.594 117.325 123.249 116.34 123.249 115.1C123.249 113.84 123.569 112.85 124.209 112.13C124.859 111.41 125.739 111.05 126.849 111.05C127.929 111.05 128.764 111.395 129.354 112.085C129.954 112.765 130.254 113.745 130.254 115.025C130.254 115.155 130.244 115.32 130.224 115.52H124.374ZM76.0584 134.7L73.3434 138.69H72.3384L69.6234 134.7H69.5934V141H68.4834V133.2H69.8034L72.8334 137.85H72.8484L75.8784 133.2H77.2134V141H76.0884V134.7H76.0584ZM80.0697 136.65H84.8697C84.8597 135.78 84.6497 135.11 84.2397 134.64C83.8297 134.17 83.2647 133.935 82.5447 133.935C81.7947 133.935 81.1997 134.175 80.7597 134.655C80.3297 135.125 80.0997 135.79 80.0697 136.65ZM80.0697 137.52C80.0897 138.37 80.3497 139.04 80.8497 139.53C81.3497 140.02 81.9997 140.265 82.7997 140.265C83.5697 140.265 84.3347 140.065 85.0947 139.665L85.3947 140.52C84.5547 140.94 83.6547 141.15 82.6947 141.15C81.5747 141.15 80.6697 140.785 79.9797 140.055C79.2897 139.325 78.9447 138.34 78.9447 137.1C78.9447 135.84 79.2647 134.85 79.9047 134.13C80.5547 133.41 81.4347 133.05 82.5447 133.05C83.6247 133.05 84.4597 133.395 85.0497 134.085C85.6497 134.765 85.9497 135.745 85.9497 137.025C85.9497 137.155 85.9397 137.32 85.9197 137.52H80.0697ZM96.8961 141H87.7461V133.2H88.8261V140.07H91.7961V133.2H92.8461V140.07H95.8161V133.2H96.8961V141ZM100.328 136.5L104.093 133.2H105.533L101.198 136.935L105.653 141H104.228L100.328 137.385H100.313V141H99.1426V133.2H100.313V136.5H100.328ZM112.458 134.79C112.008 134.23 111.388 133.95 110.598 133.95C109.808 133.95 109.183 134.23 108.723 134.79C108.273 135.34 108.048 136.11 108.048 137.1C108.048 138.09 108.273 138.865 108.723 139.425C109.183 139.975 109.808 140.25 110.598 140.25C111.388 140.25 112.008 139.975 112.458 139.425C112.918 138.865 113.148 138.09 113.148 137.1C113.148 136.11 112.918 135.34 112.458 134.79ZM113.268 140.055C112.598 140.785 111.708 141.15 110.598 141.15C109.488 141.15 108.598 140.785 107.928 140.055C107.258 139.325 106.923 138.34 106.923 137.1C106.923 135.86 107.258 134.875 107.928 134.145C108.598 133.415 109.488 133.05 110.598 133.05C111.708 133.05 112.598 133.415 113.268 134.145C113.938 134.875 114.273 135.86 114.273 137.1C114.273 138.34 113.938 139.325 113.268 140.055ZM117.143 140.22C117.513 140.28 117.918 140.31 118.358 140.31C120.028 140.31 120.863 139.765 120.863 138.675C120.863 137.685 119.978 137.19 118.208 137.19H117.143V140.22ZM117.143 136.44H118.193C118.913 136.44 119.473 136.32 119.873 136.08C120.273 135.84 120.473 135.51 120.473 135.09C120.473 134.29 119.738 133.89 118.268 133.89C117.878 133.89 117.503 133.92 117.143 133.98V136.44ZM121.973 138.75C121.973 140.32 120.753 141.105 118.313 141.105C117.423 141.105 116.653 141.05 116.003 140.94V133.26C116.713 133.15 117.443 133.095 118.193 133.095C119.403 133.095 120.263 133.275 120.773 133.635C121.293 133.985 121.553 134.435 121.553 134.985C121.553 135.435 121.398 135.815 121.088 136.125C120.778 136.425 120.343 136.635 119.783 136.755V136.77C120.493 136.88 121.033 137.11 121.403 137.46C121.783 137.8 121.973 138.23 121.973 138.75ZM49.9531 155.2H56.5531V163H55.4581V156.13H51.0481V163H49.9531V155.2ZM63.8108 156.79C63.3608 156.23 62.7408 155.95 61.9508 155.95C61.1608 155.95 60.5358 156.23 60.0758 156.79C59.6258 157.34 59.4008 158.11 59.4008 159.1C59.4008 160.09 59.6258 160.865 60.0758 161.425C60.5358 161.975 61.1608 162.25 61.9508 162.25C62.7408 162.25 63.3608 161.975 63.8108 161.425C64.2708 160.865 64.5008 160.09 64.5008 159.1C64.5008 158.11 64.2708 157.34 63.8108 156.79ZM64.6208 162.055C63.9508 162.785 63.0608 163.15 61.9508 163.15C60.8408 163.15 59.9508 162.785 59.2808 162.055C58.6108 161.325 58.2758 160.34 58.2758 159.1C58.2758 157.86 58.6108 156.875 59.2808 156.145C59.9508 155.415 60.8408 155.05 61.9508 155.05C63.0608 155.05 63.9508 155.415 64.6208 156.145C65.2908 156.875 65.6258 157.86 65.6258 159.1C65.6258 160.34 65.2908 161.325 64.6208 162.055ZM68.8555 162.1H72.9805V156.1H69.7555C69.7555 157.05 69.7555 157.715 69.7555 158.095C69.7555 158.475 69.7405 158.92 69.7105 159.43C69.6905 159.93 69.6655 160.255 69.6355 160.405C69.6155 160.545 69.5655 160.745 69.4855 161.005C69.4055 161.265 69.3205 161.455 69.2305 161.575C69.1505 161.685 69.0255 161.86 68.8555 162.1ZM67.5505 162.1C67.7705 161.83 67.9255 161.64 68.0155 161.53C68.1055 161.41 68.2055 161.22 68.3155 160.96C68.4255 160.69 68.4905 160.485 68.5105 160.345C68.5405 160.195 68.5705 159.88 68.6005 159.4C68.6405 158.91 68.6605 158.47 68.6605 158.08C68.6605 157.68 68.6605 157.02 68.6605 156.1V155.2H74.0755V162.1H75.1255V164.8H74.0305V163H67.9255V164.8H66.8305V162.1H67.5505ZM81.1982 155.2H86.8982V156.145H82.3532V163H81.1982V155.2ZM89.885 159.04V155.2H95.66V163H94.55V156.13H90.965V159.22C90.965 160.71 90.75 161.72 90.32 162.25C89.89 162.78 89.07 163.08 87.86 163.15L87.8 162.22C88.38 162.19 88.805 162.095 89.075 161.935C89.355 161.775 89.56 161.48 89.69 161.05C89.82 160.61 89.885 159.94 89.885 159.04ZM100.762 155.05C101.852 155.05 102.632 155.275 103.102 155.725C103.572 156.175 103.807 156.915 103.807 157.945V160.9C103.807 161.61 103.882 162.31 104.032 163H102.982C102.902 162.61 102.852 162.15 102.832 161.62H102.802C102.532 162.1 102.142 162.475 101.632 162.745C101.122 163.015 100.547 163.15 99.9071 163.15C99.1871 163.15 98.6121 162.95 98.1821 162.55C97.7521 162.14 97.5371 161.59 97.5371 160.9C97.5371 160.03 97.9171 159.34 98.6771 158.83C99.4371 158.31 100.517 158.05 101.917 158.05H102.712V157.975C102.712 157.215 102.567 156.69 102.277 156.4C101.997 156.1 101.492 155.95 100.762 155.95C99.8221 155.95 98.9471 156.18 98.1371 156.64L97.9421 155.755C98.8021 155.285 99.7421 155.05 100.762 155.05ZM98.6171 160.855C98.6171 161.305 98.7571 161.66 99.0371 161.92C99.3171 162.17 99.6921 162.295 100.162 162.295C100.852 162.295 101.447 162.05 101.947 161.56C102.457 161.06 102.712 160.45 102.712 159.73V158.89H101.917C100.867 158.89 100.052 159.07 99.4721 159.43C98.9021 159.78 98.6171 160.255 98.6171 160.855ZM108.545 155.92C107.775 155.92 106.945 156.095 106.055 156.445L105.785 155.605C106.725 155.235 107.675 155.05 108.635 155.05C109.705 155.05 110.545 155.23 111.155 155.59C111.765 155.95 112.07 156.41 112.07 156.97C112.07 157.38 111.9 157.755 111.56 158.095C111.23 158.435 110.75 158.675 110.12 158.815V158.845C110.81 158.965 111.325 159.22 111.665 159.61C112.015 159.99 112.19 160.42 112.19 160.9C112.19 161.6 111.88 162.15 111.26 162.55C110.65 162.95 109.775 163.15 108.635 163.15C107.655 163.15 106.67 162.965 105.68 162.595L105.95 161.755C106.86 162.085 107.74 162.25 108.59 162.25C110.22 162.25 111.035 161.76 111.035 160.78C111.035 160.28 110.78 159.905 110.27 159.655C109.76 159.405 108.92 159.28 107.75 159.28H107.09V158.395H107.75C109.86 158.395 110.915 157.97 110.915 157.12C110.915 156.32 110.125 155.92 108.545 155.92ZM116.846 155.05C117.936 155.05 118.716 155.275 119.186 155.725C119.656 156.175 119.891 156.915 119.891 157.945V160.9C119.891 161.61 119.966 162.31 120.116 163H119.066C118.986 162.61 118.936 162.15 118.916 161.62H118.886C118.616 162.1 118.226 162.475 117.716 162.745C117.206 163.015 116.631 163.15 115.991 163.15C115.271 163.15 114.696 162.95 114.266 162.55C113.836 162.14 113.621 161.59 113.621 160.9C113.621 160.03 114.001 159.34 114.761 158.83C115.521 158.31 116.601 158.05 118.001 158.05H118.796V157.975C118.796 157.215 118.651 156.69 118.361 156.4C118.081 156.1 117.576 155.95 116.846 155.95C115.906 155.95 115.031 156.18 114.221 156.64L114.026 155.755C114.886 155.285 115.826 155.05 116.846 155.05ZM114.701 160.855C114.701 161.305 114.841 161.66 115.121 161.92C115.401 162.17 115.776 162.295 116.246 162.295C116.936 162.295 117.531 162.05 118.031 161.56C118.541 161.06 118.796 160.45 118.796 159.73V158.89H118.001C116.951 158.89 116.136 159.07 115.556 159.43C114.986 159.78 114.701 160.255 114.701 160.855ZM129.789 156.7L127.074 160.69H126.069L123.354 156.7H123.324V163H122.214V155.2H123.534L126.564 159.85H126.579L129.609 155.2H130.944V163H129.819V156.7H129.789ZM134.34 161.47H134.37L138.81 155.2H140.04V163H138.9V156.73H138.885L134.43 163H133.2V155.2H134.34V161.47Z" fill="black"/>
<path d="M96.3889 73.7679C89.979 73.7679 84.7645 68.5756 84.7645 62.1938C84.7645 55.812 89.979 50.6197 96.3889 50.6197C102.798 50.6197 108.013 55.812 108.013 62.1938C108.013 68.5756 102.798 73.7679 96.3889 73.7679ZM96.3889 52.2612C90.8883 52.2612 86.4127 56.717 86.4127 62.1938C86.4127 67.6707 90.8883 72.1265 96.3889 72.1265C101.89 72.1265 106.365 67.6707 106.365 62.1938C106.365 56.717 101.89 52.2612 96.3889 52.2612Z" fill="#303030"/>
<path d="M107.327 76.9056C106.842 77.1141 106.341 77.3124 105.839 77.4957C105.412 77.6512 105.192 78.1224 105.348 78.548C105.471 78.8808 105.787 79.0867 106.123 79.0867C106.217 79.0867 106.312 79.0705 106.406 79.0367C106.937 78.8428 107.467 78.633 107.98 78.4125C108.398 78.2331 108.59 77.7499 108.41 77.3337C108.229 76.918 107.745 76.7262 107.327 76.9056Z" fill="#303030"/>
<path d="M111.269 74.8082C110.826 75.0949 110.367 75.3722 109.904 75.6328C109.507 75.8558 109.368 76.3565 109.592 76.7509C109.743 77.0179 110.022 77.1679 110.31 77.1679C110.448 77.1679 110.587 77.1337 110.715 77.0615C111.207 76.7842 111.696 76.489 112.167 76.1844C112.549 75.9374 112.657 75.429 112.409 75.0492C112.161 74.6689 111.651 74.5612 111.269 74.8082Z" fill="#303030"/>
<path d="M114.778 72.0653C114.393 72.4263 113.991 72.7801 113.583 73.1163C113.232 73.4051 113.183 73.9225 113.473 74.2716C113.636 74.4681 113.871 74.5694 114.108 74.5694C114.293 74.5694 114.479 74.5078 114.633 74.3809C115.069 74.0221 115.498 73.6448 115.909 73.2594C116.24 72.9484 116.255 72.4293 115.943 72.0995C115.631 71.7696 115.109 71.7542 114.778 72.0653Z" fill="#303030"/>
<path d="M72.4532 68.5465C72.0816 68.8088 71.994 69.3211 72.2575 69.6907C72.5823 70.1466 72.9307 70.6011 73.2942 71.0412C73.4568 71.239 73.6933 71.3411 73.9314 71.3411C74.1155 71.3411 74.3009 71.28 74.4541 71.1549C74.8059 70.8673 74.857 70.3504 74.5678 70C74.2292 69.5894 73.9044 69.166 73.6019 68.7413C73.3388 68.3713 72.8243 68.2842 72.4532 68.5465Z" fill="#303030"/>
<path d="M103.084 78.3514C102.572 78.4847 102.046 78.6073 101.52 78.7167C101.074 78.8094 100.789 79.2439 100.881 79.6878C100.963 80.0749 101.305 80.3406 101.687 80.3406C101.743 80.3406 101.8 80.3351 101.857 80.3231C102.409 80.2082 102.962 80.0792 103.5 79.9395C103.941 79.825 104.205 79.3763 104.09 78.938C103.975 78.4996 103.525 78.2365 103.084 78.3514Z" fill="#303030"/>
<path d="M117.722 68.7358C117.413 69.1601 117.084 69.5809 116.744 69.9868C116.452 70.3346 116.499 70.8519 116.848 71.1425C117.002 71.2706 117.19 71.333 117.376 71.333C117.611 71.333 117.846 71.2331 118.009 71.0387C118.373 70.6046 118.725 70.1538 119.057 69.6997C119.324 69.3327 119.242 68.8195 118.873 68.5534C118.505 68.2872 117.989 68.3688 117.722 68.7358Z" fill="#303030"/>
<path d="M80.0113 74.8514C79.6307 74.6027 79.1197 74.7087 78.8704 75.0877C78.6206 75.4666 78.727 75.9755 79.1077 76.2237C79.578 76.5309 80.0658 76.8278 80.558 77.1064C80.6863 77.1795 80.8262 77.2141 80.9648 77.2141C81.251 77.2141 81.5299 77.065 81.6818 76.7992C81.9067 76.4053 81.7685 75.9041 81.3729 75.6802C80.9112 75.4183 80.4529 75.1394 80.0113 74.8514Z" fill="#303030"/>
<path d="M83.9458 76.9547C83.5279 76.7753 83.043 76.9675 82.8628 77.3837C82.6826 77.7998 82.8752 78.2826 83.2932 78.4621C83.8077 78.6825 84.338 78.8923 84.8693 79.0846C84.9624 79.1183 85.0576 79.1341 85.1508 79.1341C85.4876 79.1341 85.8038 78.9273 85.9253 78.5937C86.081 78.1677 85.8605 77.6969 85.4327 77.5422C84.9311 77.3606 84.4307 77.1632 83.9458 76.9547Z" fill="#303030"/>
<path d="M76.5184 72.0914C76.1893 71.7782 75.6675 71.7902 75.3534 72.1179C75.0389 72.4456 75.0509 72.9651 75.38 73.2783C75.7877 73.6658 76.2151 74.046 76.6493 74.4079C76.8038 74.5361 76.9913 74.5989 77.1775 74.5989C77.4131 74.5989 77.647 74.4989 77.81 74.3049C78.1023 73.9572 78.0559 73.4398 77.707 73.1488C77.2998 72.81 76.9003 72.4541 76.5184 72.0914Z" fill="#303030"/>
<path d="M88.1879 78.3856C87.7467 78.2737 87.2983 78.5394 87.1859 78.9786C87.0739 79.4178 87.3404 79.8643 87.7815 79.9762C88.3205 80.1125 88.8753 80.2377 89.4297 80.3484C89.4842 80.359 89.5387 80.3642 89.5923 80.3642C89.9772 80.3642 90.3214 80.0946 90.3995 79.7045C90.4887 79.2602 90.1991 78.8278 89.7528 78.7389C89.2259 78.6343 88.6994 78.5151 88.1879 78.3856Z" fill="#303030"/>
<path d="M99.5805 79.901C99.5243 79.4511 99.1115 79.1324 98.661 79.188C98.1349 79.2529 97.5951 79.3084 97.0565 79.352C96.603 79.3892 96.2653 79.7853 96.3026 80.2369C96.3374 80.6658 96.6982 80.9905 97.1231 80.9905C97.1454 80.9905 97.1681 80.9897 97.1909 80.9879C97.7521 80.9422 98.3151 80.8846 98.8644 80.8166C99.3162 80.7607 99.6367 80.3509 99.5805 79.901Z" fill="#303030"/>
<path d="M94.9844 80.1932C95.0144 79.7412 94.6707 79.3503 94.2167 79.3204C93.6778 79.2845 93.138 79.2371 92.6123 79.179C92.1601 79.1285 91.7524 79.4533 91.7022 79.9036C91.652 80.3543 91.9777 80.7598 92.4304 80.8102C92.9801 80.8709 93.5443 80.9204 94.1078 80.958C94.1262 80.9593 94.1447 80.9597 94.1631 80.9597C94.5931 80.9597 94.9557 80.6269 94.9844 80.1932Z" fill="#303030"/>
<path d="M119.651 77.678C118.852 78.3719 118.071 79.0708 117.317 79.7472C113.583 83.0929 110.055 86.2533 105.118 87.899C101.357 89.1522 97.3325 89.6114 93.4795 89.2269C88.6448 88.7446 85.3227 87.4039 81.2231 84.2807C79.729 83.1425 78.3215 81.7634 76.9604 80.4299C74.9041 78.4146 72.7775 76.3309 70.2089 74.9018C69.8111 74.6805 69.3091 74.8223 69.0872 75.2179C68.8649 75.6136 69.0074 76.1134 69.4048 76.3343C71.7798 77.6558 73.7348 79.5716 75.8044 81.5997C77.2011 82.9686 78.6459 84.3841 80.2216 85.5842C84.5924 88.9138 88.1411 90.3438 93.3152 90.8599C94.2532 90.9534 95.2002 91 96.1516 91C99.3411 91 102.575 90.4771 105.641 89.4555C110.904 87.7017 114.554 84.4302 118.419 80.967C119.169 80.2953 119.945 79.6002 120.734 78.9153C121.077 78.6175 121.113 78.0989 120.814 77.7575C120.515 77.4157 119.994 77.3802 119.651 77.678Z" fill="#303030"/>
<path d="M122.801 49.0363C122.147 47.9173 121.327 46.8129 120.362 45.7542C118.931 44.1832 117.345 42.7472 115.777 41.6018C113.502 39.9402 111.531 38.7674 109.574 37.9104C108.482 37.4323 107.325 37.0067 106.134 36.6461C100.982 35.085 94.966 34.6312 88.254 35.2977C87.8626 35.3366 87.4657 35.3811 87.074 35.4306C86.6225 35.4874 86.3029 35.898 86.3599 36.3479C86.417 36.7974 86.8289 37.1157 87.2812 37.0589C87.6584 37.011 88.0407 36.9683 88.4175 36.9307C94.9119 36.286 100.711 36.7183 105.654 38.2163C106.782 38.5581 107.878 38.9605 108.91 39.4126C110.754 40.2201 112.626 41.336 114.802 42.925C116.282 44.0063 117.783 45.3658 119.141 46.8569C119.814 47.5956 120.409 48.3557 120.918 49.1247C117.442 47.1124 113.538 45.3376 109.015 43.7124C105.656 42.5045 101.474 41.0011 97.2317 41.1262C95.6182 41.1737 93.928 41.3664 92.2073 41.6992C87.8528 42.5409 83.2884 44.2584 78.6408 46.8031C78.5696 46.842 78.3533 46.9607 73.9778 49.7263C73.7782 49.8528 73.5122 49.822 73.3465 49.6537L68.7942 45.0334C68.6535 44.8907 68.6436 44.7258 68.65 44.6404C68.6565 44.5562 68.6904 44.3977 68.847 44.2806C73.0363 41.1502 78.1448 38.8691 83.621 37.6839C84.0655 37.5878 84.3479 37.1507 84.2513 36.7077C84.1543 36.2646 83.7158 35.9839 83.2708 36.08C77.5646 37.3148 72.2347 39.6967 67.8575 42.9681C67.3631 43.3372 67.0529 43.9016 67.0061 44.5164C66.9594 45.1338 67.1821 45.7409 67.6176 46.1827L72.1699 50.803C72.5853 51.2242 73.1462 51.443 73.7117 51.443C74.1095 51.443 74.5094 51.3345 74.8613 51.1119C78.8421 48.5958 79.3699 48.2779 79.4355 48.2412C83.9325 45.779 88.3355 44.12 92.5214 43.3103C94.155 42.9942 95.756 42.8113 97.2802 42.7669C101.207 42.6511 105.228 44.0956 108.456 45.256C113.208 46.9641 117.254 48.8359 120.825 50.9773C121.394 51.3186 122.094 51.2358 122.568 50.7718C123.042 50.3065 123.136 49.6092 122.801 49.0363Z" fill="#303030"/>
<path d="M96.3889 87.1339C96.8442 87.1339 97.2132 86.7665 97.2132 86.3132V85.3604C97.3394 85.4331 97.4814 85.4698 97.6243 85.4698C97.8212 85.4698 98.0191 85.4002 98.1765 85.2579C98.5143 84.9541 98.5404 84.435 98.2353 84.0992L97.0012 82.7406C96.8455 82.5688 96.6236 82.4705 96.3906 82.4705C96.158 82.4705 95.9358 82.5684 95.7796 82.7401L94.5429 84.0983C94.2374 84.4342 94.2627 84.9533 94.6 85.2575C94.8716 85.5027 95.2629 85.5335 95.5646 85.3604V86.3132C95.5646 86.7665 95.9336 87.1339 96.3889 87.1339Z" fill="#303030"/>
<path d="M104.559 48.9649C100.223 47.3619 96.8069 47.4209 96.3889 47.4358C95.9705 47.4209 92.5545 47.3619 88.2184 48.9649C84.0458 50.5073 78.2036 53.9509 74.0674 61.5982C73.8658 61.9712 73.8658 62.4164 74.0674 62.7894C78.2036 70.4366 84.0458 73.8803 88.2184 75.4226C92.5527 77.0248 95.9688 76.9658 96.3881 76.9517C96.443 76.9539 96.5447 76.9564 96.6893 76.9564C98.171 76.9564 104.157 76.6774 110.21 72.4832C110.584 72.2242 110.676 71.7128 110.415 71.3407C110.155 70.969 109.642 70.8771 109.268 71.1361C102.917 75.5375 96.4898 75.3137 96.4271 75.3107C96.4014 75.3098 96.376 75.3098 96.3507 75.3107C96.3177 75.3128 93.0136 75.4444 88.7921 73.8841C86.3076 72.9659 84.0123 71.65 81.9698 69.9739C79.46 67.9138 77.3239 65.2969 75.6182 62.1938C77.3153 59.1061 79.4389 56.4994 81.9329 54.4444C83.9655 52.7691 86.2501 51.4519 88.723 50.5291C92.9548 48.95 96.3177 49.0747 96.3507 49.0769C96.3752 49.0777 96.4014 49.0777 96.4258 49.0769C96.4593 49.0752 99.823 48.95 104.054 50.5291C106.528 51.4519 108.812 52.7691 110.845 54.4444C113.338 56.4994 115.462 59.1061 117.159 62.1938C115.755 64.7483 114.054 66.9811 112.1 68.8332C111.771 69.1455 111.758 69.665 112.071 69.9932C112.385 70.3213 112.907 70.3341 113.236 70.0218C115.363 68.0065 117.204 65.5729 118.71 62.7894C118.912 62.4164 118.912 61.9712 118.71 61.5982C114.574 53.9509 108.732 50.5073 104.559 48.9649Z" fill="#303030"/>
<path d="M98.988 53.3233C97.7084 53.3233 96.555 53.8702 95.7496 54.7409C91.9044 55.0652 88.8745 58.2828 88.8745 62.1938C88.8745 66.3193 92.2451 69.6758 96.3889 69.6758C100.532 69.6758 103.903 66.3193 103.903 62.1938C103.903 61.0595 103.646 59.9845 103.191 59.0202C103.321 58.6058 103.392 58.1653 103.392 57.7086C103.392 55.2904 101.416 53.3233 98.988 53.3233ZM98.988 54.9648C100.507 54.9648 101.744 56.1953 101.744 57.7081C101.744 59.221 100.507 60.4519 98.988 60.4519C97.4685 60.4519 96.2323 59.221 96.2323 57.7081C96.2323 56.1953 97.4685 54.9648 98.988 54.9648ZM96.3889 68.0347C93.1543 68.0347 90.5227 65.4144 90.5227 62.1938C90.5227 59.5474 92.3004 57.3087 94.7287 56.5939C94.6347 56.9502 94.5841 57.3232 94.5841 57.7086C94.5841 60.1264 96.5597 62.0934 98.988 62.0934C100.196 62.0934 101.293 61.6059 102.089 60.8185C102.197 61.2599 102.255 61.72 102.255 62.1938C102.255 65.4144 99.6235 68.0347 96.3889 68.0347Z" fill="#303030"/>
</svg>
