<svg width="190" height="211" fill="none" xmlns="http://www.w3.org/2000/svg"><path d="M0 52.75L95 0l95 52.75v105.078L95 211 0 157.828V52.75z" fill="#fff"/><path d="M24.288 108.05l3.21 6.645h.03l3.135-6.645h1.365l-3.78 7.695c-.65 1.31-1.35 2.205-2.1 2.685-.74.48-1.79.72-3.15.72l-.075-1.005c1.11 0 1.94-.155 2.49-.465.55-.32 1.045-.93 1.485-1.83l-4.02-7.8h1.41zm10.81 10.05h4.125v-6h-3.225v1.995c0 .38-.015.825-.045 1.335-.02.5-.045.825-.075.975-.02.14-.07.34-.15.6-.08.26-.165.45-.255.57-.08.11-.205.285-.375.525zm-1.305 0l.465-.57c.09-.12.19-.31.3-.57.11-.27.175-.475.195-.615.03-.15.06-.465.09-.945.04-.49.06-.93.06-1.32v-2.88h5.415v6.9h1.05v2.7h-1.095V119h-6.105v1.8h-1.095v-2.7h.72zm12.147-7.05c1.09 0 1.87.225 2.34.675.47.45.705 1.19.705 2.22v2.955c0 .71.075 1.41.225 2.1h-1.05a8.56 8.56 0 01-.15-1.38h-.03c-.27.48-.66.855-1.17 1.125-.51.27-1.085.405-1.725.405-.72 0-1.295-.2-1.725-.6-.43-.41-.645-.96-.645-1.65 0-.87.38-1.56 1.14-2.07.76-.52 1.84-.78 3.24-.78h.795v-.075c0-.76-.145-1.285-.435-1.575-.28-.3-.785-.45-1.515-.45-.94 0-1.815.23-2.625.69l-.195-.885c.86-.47 1.8-.705 2.82-.705zm-2.145 5.805c0 .45.14.805.42 1.065.28.25.655.375 1.125.375.69 0 1.285-.245 1.785-.735.51-.5.765-1.11.765-1.83v-.84h-.795c-1.05 0-1.865.18-2.445.54-.57.35-.855.825-.855 1.425zm8.773-1.815v-3.84h5.775v7.8h-1.11v-6.87h-3.585v3.09c0 1.49-.215 2.5-.645 3.03-.43.53-1.25.83-2.46.9l-.06-.93c.58-.03 1.005-.125 1.275-.285.28-.16.485-.455.615-.885.13-.44.195-1.11.195-2.01zm8.627-.39h4.8c-.01-.87-.22-1.54-.63-2.01-.41-.47-.975-.705-1.695-.705-.75 0-1.345.24-1.785.72-.43.47-.66 1.135-.69 1.995zm0 .87c.02.85.28 1.52.78 2.01.5.49 1.15.735 1.95.735.77 0 1.535-.2 2.295-.6l.3.855c-.84.42-1.74.63-2.7.63-1.12 0-2.025-.365-2.715-1.095s-1.035-1.715-1.035-2.955c0-1.26.32-2.25.96-2.97.65-.72 1.53-1.08 2.64-1.08 1.08 0 1.915.345 2.505 1.035.6.68.9 1.66.9 2.94 0 .13-.01.295-.03.495h-5.85zm8.847-.27V119h-1.17v-7.8h1.17v3.18h4.425v-3.18h1.17v7.8h-1.17v-3.75h-4.425zm8.978 2.22h.03l4.44-6.27h1.23v7.8h-1.14v-6.27h-.015L79.11 119h-1.23v-7.8h1.14v6.27zm8.557-2.82h4.8c-.01-.87-.22-1.54-.63-2.01-.41-.47-.975-.705-1.695-.705-.75 0-1.345.24-1.785.72-.43.47-.66 1.135-.69 1.995zm0 .87c.02.85.28 1.52.78 2.01.5.49 1.15.735 1.95.735.77 0 1.535-.2 2.295-.6l.3.855c-.84.42-1.74.63-2.7.63-1.12 0-2.025-.365-2.715-1.095s-1.035-1.715-1.035-2.955c0-1.26.32-2.25.96-2.97.65-.72 1.53-1.08 2.64-1.08 1.08 0 1.915.345 2.505 1.035.6.68.9 1.66.9 2.94 0 .13-.01.295-.03.495h-5.85zm13.167 1.95h.03l4.44-6.27h1.23v7.8h-1.14v-6.27h-.015l-4.455 6.27h-1.23v-7.8h1.14v6.27zm10.372-5.55c-.77 0-1.6.175-2.49.525l-.27-.84c.94-.37 1.89-.555 2.85-.555 1.07 0 1.91.18 2.52.54.61.36.915.82.915 1.38 0 .41-.17.785-.51 1.125-.33.34-.81.58-1.44.72v.03c.69.12 1.205.375 1.545.765.35.38.525.81.525 1.29 0 .7-.31 1.25-.93 1.65-.61.4-1.485.6-2.625.6-.98 0-1.965-.185-2.955-.555l.27-.84c.91.33 1.79.495 2.64.495 1.63 0 2.445-.49 2.445-1.47 0-.5-.255-.875-.765-1.125s-1.35-.375-2.52-.375h-.66v-.885h.66c2.11 0 3.165-.425 3.165-1.275 0-.8-.79-1.2-2.37-1.2zm8.826 7.23c-1.09 0-1.94-.345-2.55-1.035-.6-.7-.9-1.69-.9-2.97v-3.3c0-1.39.335-2.395 1.005-3.015.68-.62 1.76-.93 3.24-.93.76 0 1.485-.05 2.175-.15v.9c-.64.1-1.365.15-2.175.15-1.17 0-1.99.225-2.46.675-.46.44-.69 1.215-.69 2.325v.855h.03c.54-.87 1.4-1.305 2.58-1.305.91 0 1.65.355 2.22 1.065.58.7.87 1.645.87 2.835 0 1.24-.295 2.2-.885 2.88-.59.68-1.41 1.02-2.46 1.02zm2.265-3.9c0-.93-.21-1.66-.63-2.19-.41-.54-.955-.81-1.635-.81-.72 0-1.295.25-1.725.75-.42.5-.63 1.2-.63 2.1v.195c0 .9.21 1.62.63 2.16.43.53.99.795 1.68.795.72 0 1.285-.26 1.695-.78.41-.53.615-1.27.615-2.22zm10.455 3.75v-7.8h1.08v7.8h-1.08zm-7.35-7.8h1.095v2.4c.43-.08.89-.12 1.38-.12 1.18 0 2.075.245 2.685.735.61.48.915 1.15.915 2.01 0 1.95-1.25 2.925-3.75 2.925-.83 0-1.605-.075-2.325-.225V111.2zm1.095 3.3v3.615c.4.09.835.135 1.305.135 1.73 0 2.595-.675 2.595-2.025 0-1.23-.89-1.845-2.67-1.845-.44 0-.85.04-1.23.12zm16.019-2.385h-2.85V119h-1.185v-6.885h-2.85v-.915h6.885v.915zm2.982 2.385l3.765-3.3h1.44l-4.335 3.735 4.455 4.065h-1.425l-3.9-3.615h-.015V119h-1.17v-7.8h1.17v3.3h.015zm12.131-1.71c-.45-.56-1.07-.84-1.86-.84s-1.415.28-1.875.84c-.45.55-.675 1.32-.675 2.31s.225 1.765.675 2.325c.46.55 1.085.825 1.875.825s1.41-.275 1.86-.825c.46-.56.69-1.335.69-2.325 0-.99-.23-1.76-.69-2.31zm.81 5.265c-.67.73-1.56 1.095-2.67 1.095-1.11 0-2-.365-2.67-1.095-.67-.73-1.005-1.715-1.005-2.955s.335-2.225 1.005-2.955c.67-.73 1.56-1.095 2.67-1.095 1.11 0 2 .365 2.67 1.095.67.73 1.005 1.715 1.005 2.955s-.335 2.225-1.005 2.955zm3.874.165c.37.06.775.09 1.215.09 1.67 0 2.505-.545 2.505-1.635 0-.99-.885-1.485-2.655-1.485h-1.065v3.03zm0-3.78h1.05c.72 0 1.28-.12 1.68-.36.4-.24.6-.57.6-.99 0-.8-.735-1.2-2.205-1.2-.39 0-.765.03-1.125.09v2.46zm4.83 2.31c0 1.57-1.22 2.355-3.66 2.355-.89 0-1.66-.055-2.31-.165v-7.68c.71-.11 1.44-.165 2.19-.165 1.21 0 2.07.18 2.58.54.52.35.78.8.78 1.35 0 .45-.155.83-.465 1.14-.31.3-.745.51-1.305.63v.015c.71.11 1.25.34 1.62.69.38.34.57.77.57 1.29zM43.36 136.5l3.765-3.3h1.44l-4.335 3.735L48.685 141H47.26l-3.9-3.615h-.015V141h-1.17v-7.8h1.17v3.3h.015zm12.13-1.71c-.45-.56-1.07-.84-1.86-.84s-1.415.28-1.875.84c-.45.55-.675 1.32-.675 2.31s.226 1.765.675 2.325c.46.55 1.085.825 1.875.825s1.41-.275 1.86-.825c.46-.56.69-1.335.69-2.325 0-.99-.23-1.76-.69-2.31zm.81 5.265c-.67.73-1.56 1.095-2.67 1.095-1.11 0-2-.365-2.67-1.095-.67-.73-1.005-1.715-1.005-2.955s.336-2.225 1.006-2.955c.67-.73 1.56-1.095 2.67-1.095 1.11 0 2 .365 2.67 1.095.67.73 1.005 1.715 1.005 2.955s-.335 2.225-1.005 2.955zm6.755.945v-3.6h-.795l-2.43 3.6h-1.17l2.745-4.08-2.67-3.72h1.185l2.34 3.27h.795v-3.27h1.11v3.27h.795l2.34-3.27h1.185l-2.67 3.72L68.56 141h-1.17l-2.43-3.6h-.795v3.6h-1.11zm8.517-1.53h.03l4.44-6.27h1.23v7.8h-1.14v-6.27h-.015L71.662 141h-1.23v-7.8h1.14v6.27zm13.447.75c.37.06.775.09 1.215.09 1.67 0 2.505-.545 2.505-1.635 0-.99-.885-1.485-2.655-1.485h-1.065v3.03zm0-3.78h1.05c.72 0 1.28-.12 1.68-.36.4-.24.6-.57.6-.99 0-.8-.735-1.2-2.205-1.2-.39 0-.765.03-1.125.09v2.46zm4.83 2.31c0 1.57-1.22 2.355-3.66 2.355-.89 0-1.66-.055-2.31-.165v-7.68c.71-.11 1.44-.165 2.19-.165 1.21 0 2.07.18 2.58.54.52.35.78.8.78 1.35 0 .45-.155.83-.465 1.14-.31.3-.745.51-1.305.63v.015c.71.11 1.25.34 1.62.69.38.34.57.77.57 1.29zm2.394-2.1h4.8c-.01-.87-.22-1.54-.63-2.01-.41-.47-.975-.705-1.695-.705-.75 0-1.345.24-1.785.72-.43.47-.66 1.135-.69 1.995zm0 .87c.02.85.28 1.52.78 2.01.5.49 1.15.735 1.95.735.77 0 1.535-.2 2.295-.6l.3.855c-.84.42-1.74.63-2.7.63-1.12 0-2.025-.365-2.715-1.095s-1.035-1.715-1.035-2.955c0-1.26.32-2.25.96-2.97.65-.72 1.53-1.08 2.64-1.08 1.08 0 1.915.345 2.505 1.035.6.68.9 1.66.9 2.94 0 .13-.01.295-.03.495h-5.85zm11.321 3.63c-1.13 0-1.97-.455-2.52-1.365h-.03v4.515h-1.095v-11.1h1.05l.015 1.32h.03c.55-.98 1.4-1.47 2.55-1.47.98 0 1.75.35 2.31 1.05.56.69.84 1.69.84 3 0 1.28-.29 2.275-.87 2.985-.57.71-1.33 1.065-2.28 1.065zm2.07-4.05c0-1.02-.205-1.8-.615-2.34-.4-.54-.965-.81-1.695-.81-.69 0-1.25.27-1.68.81-.42.54-.63 1.285-.63 2.235v.21c0 .97.215 1.72.645 2.25.43.53.985.795 1.665.795.71 0 1.27-.27 1.68-.81.42-.55.63-1.33.63-2.34zm5.914-.795h.03l2.04-3.105h1.245l-2.655 3.84 2.73 3.96h-1.29l-2.115-3.24h-.03l-2.1 3.24h-1.26l2.745-3.96-2.67-3.84h1.29l2.04 3.105zm6.431.945V141h-1.17v-7.8h1.17v3.18h4.425v-3.18h1.17v7.8h-1.17v-3.75h-4.425zm8.438-.6h4.8c-.01-.87-.22-1.54-.63-2.01-.41-.47-.975-.705-1.695-.705-.75 0-1.345.24-1.785.72-.43.47-.66 1.135-.69 1.995zm0 .87c.02.85.28 1.52.78 2.01.5.49 1.15.735 1.95.735.77 0 1.535-.2 2.295-.6l.3.855c-.84.42-1.74.63-2.7.63-1.12 0-2.025-.365-2.715-1.095s-1.035-1.715-1.035-2.955c0-1.26.32-2.25.96-2.97.65-.72 1.53-1.08 2.64-1.08 1.08 0 1.915.345 2.505 1.035.6.68.9 1.66.9 2.94 0 .13-.01.295-.03.495h-5.85zm7.677-4.32h5.7v.945h-4.545V141h-1.155v-7.8zm12.437 1.59c-.45-.56-1.07-.84-1.86-.84s-1.415.28-1.875.84c-.45.55-.675 1.32-.675 2.31s.225 1.765.675 2.325c.46.55 1.085.825 1.875.825s1.41-.275 1.86-.825c.46-.56.69-1.335.69-2.325 0-.99-.23-1.76-.69-2.31zm.81 5.265c-.67.73-1.56 1.095-2.67 1.095-1.11 0-2-.365-2.67-1.095-.67-.73-1.005-1.715-1.005-2.955s.335-2.225 1.005-2.955c.67-.73 1.56-1.095 2.67-1.095 1.11 0 2 .365 2.67 1.095.67.73 1.005 1.715 1.005 2.955s-.335 2.225-1.005 2.955zM44.809 161.47h.03l4.44-6.27h1.23v7.8h-1.14v-6.27h-.015L44.899 163h-1.23v-7.8h1.14v6.27zm13.477-2.22V163h-1.17v-7.8h1.17v3.18h4.425v-3.18h1.17v7.8h-1.17v-3.75h-4.425zm8.979 2.22h.03l4.44-6.27h1.23v7.8h-1.14v-6.27h-.015L67.355 163h-1.23v-7.8h1.14v6.27zM79.242 163v-3.6h-.795l-2.43 3.6h-1.17l2.745-4.08-2.67-3.72h1.185l2.34 3.27h.795v-3.27h1.11v3.27h.795l2.34-3.27h1.185l-2.67 3.72 2.745 4.08h-1.17l-2.43-3.6h-.795v3.6h-1.11zm8.546-3.75V163h-1.17v-7.8h1.17v3.18h4.425v-3.18h1.17v7.8h-1.17v-3.75h-4.425zm8.439-.6h4.8c-.01-.87-.22-1.54-.63-2.01-.41-.47-.975-.705-1.695-.705-.75 0-1.345.24-1.785.72-.43.47-.66 1.135-.69 1.995zm0 .87c.02.85.28 1.52.78 2.01.5.49 1.15.735 1.95.735.77 0 1.535-.2 2.295-.6l.3.855c-.84.42-1.74.63-2.7.63-1.12 0-2.025-.365-2.715-1.095s-1.035-1.715-1.035-2.955c0-1.26.32-2.25.96-2.97.65-.72 1.53-1.08 2.64-1.08 1.08 0 1.915.345 2.505 1.035.6.68.9 1.66.9 2.94 0 .13-.01.295-.03.495h-5.85zm7.676-4.32h5.7v.945h-4.545V163h-1.155v-7.8zm12.437 1.59c-.45-.56-1.07-.84-1.86-.84s-1.415.28-1.875.84c-.45.55-.675 1.32-.675 2.31s.225 1.765.675 2.325c.46.55 1.085.825 1.875.825s1.41-.275 1.86-.825c.46-.56.69-1.335.69-2.325 0-.99-.23-1.76-.69-2.31zm.81 5.265c-.67.73-1.56 1.095-2.67 1.095-1.11 0-2-.365-2.67-1.095-.67-.73-1.005-1.715-1.005-2.955s.335-2.225 1.005-2.955c.67-.73 1.56-1.095 2.67-1.095 1.11 0 2 .365 2.67 1.095.67.73 1.005 1.715 1.005 2.955s-.335 2.225-1.005 2.955zm8.225.165c.37.06.775.09 1.215.09 1.67 0 2.505-.545 2.505-1.635 0-.99-.885-1.485-2.655-1.485h-1.065v3.03zm0-3.78h1.05c.72 0 1.28-.12 1.68-.36.4-.24.6-.57.6-.99 0-.8-.735-1.2-2.205-1.2-.39 0-.765.03-1.125.09v2.46zm4.83 2.31c0 1.57-1.22 2.355-3.66 2.355-.89 0-1.66-.055-2.31-.165v-7.68c.71-.11 1.44-.165 2.19-.165 1.21 0 2.07.18 2.58.54.52.35.78.8.78 1.35 0 .45-.155.83-.465 1.14-.31.3-.745.51-1.305.63v.015c.71.11 1.25.34 1.62.69.38.34.57.77.57 1.29zm2.394-2.1h4.8c-.01-.87-.22-1.54-.63-2.01-.41-.47-.975-.705-1.695-.705-.75 0-1.345.24-1.785.72-.43.47-.66 1.135-.69 1.995zm0 .87c.02.85.28 1.52.78 2.01.5.49 1.15.735 1.95.735.77 0 1.535-.2 2.295-.6l.3.855c-.84.42-1.74.63-2.7.63-1.12 0-2.025-.365-2.715-1.095s-1.035-1.715-1.035-2.955c0-1.26.32-2.25.96-2.97.65-.72 1.53-1.08 2.64-1.08 1.08 0 1.915.345 2.505 1.035.6.68.9 1.66.9 2.94 0 .13-.01.295-.03.495h-5.85zm8.861-1.02l3.765-3.3h1.44l-4.335 3.735 4.455 4.065h-1.425l-3.9-3.615h-.015V163h-1.17v-7.8h1.17v3.3h.015z" fill="#000"/><path d="M120.985 88.982c.281.06.572-.03.763-.251a.803.803 0 00.171-.782l-1.867-5.97a.8.8 0 00-.401-.48.768.768 0 00-.612-.05.816.816 0 00-.532 1.012l1.425 4.545-.191-.07c-6.683-2.579-5.8-11.246-5.679-12.229.03-.22.05-.441.06-.652v-.07l.07-.02c.04-.01 1.345-.422 1.425-.442l.1-.03 1.536 4.916c.06.21.21.38.401.471.191.1.411.12.612.05a.817.817 0 00.532-1.013l-1.696-5.427.03-.04a2.13 2.13 0 00.261-1.886l-.05-.16.17.03c1.355.27 2.7-.191 3.603-1.224.843-.973 1.104-2.247.702-3.421a805.241 805.241 0 00-2.619-7.423c-.943-2.669-1.926-5.417-2.669-7.584a11.577 11.577 0 00-3.06-4.705l-3.181-2.96a.803.803 0 00-1.144.04.809.809 0 00.04 1.145l3.181 2.969a9.96 9.96 0 012.629 4.042c.742 2.167 1.726 4.916 2.669 7.584a838.279 838.279 0 012.619 7.424c.171.501.11 1.033-.171 1.514-.421.713-1.194 1.084-2.047 1.034-.802-.06-1.485-.502-1.746-1.124l-4.405-11.165a8.391 8.391 0 00-3.422-4.033c-.973-.601-.973-.601-7.224-2.548-1.556-.481-3.492-1.083-5.93-1.845a1.025 1.025 0 00-1.255.561c-.22.492-.05 1.044.411 1.314 4.335 2.619 9.062 6.27 13.286 10.293a1.92 1.92 0 01.361 2.307l-.261.462c-.481.872-1.585 1.233-2.478.812l-6.904-3.21-3.592-1.675c-.03-.01-.06-.03-.09-.04l-9.583-3.06a13.466 13.466 0 01-6.834-4.935c-1.365-1.876-2.83-2.669-4.846-3.752a76.67 76.67 0 00-.984-.532l-.09-.05 8.319-15.118.622.352c2.057 1.143 4.626 2.578 8.6 3.47l10.415 2.348a8.18 8.18 0 013.813 2.016l1.806 1.685a.801.801 0 001.144-.04.809.809 0 00-.04-1.143l-1.806-1.686a9.83 9.83 0 00-4.566-2.407L90.37 33.768c-3.753-.842-6.16-2.186-8.278-3.37l-.602-.331-.06-.03.01-.07a2.488 2.488 0 00-1.265-2.458l-.36-.2a2.472 2.472 0 00-1.887-.212 2.463 2.463 0 00-1.486 1.184l-9.13 16.602a2.473 2.473 0 00.972 3.36l.362.201a2.442 2.442 0 002.9-.37l.05-.05.06.04c.381.21.743.4 1.074.581 2.057 1.114 3.2 1.726 4.335 3.3a15.077 15.077 0 007.646 5.528l7.114 2.267-.08.11a4.055 4.055 0 00.672 5.488 4.032 4.032 0 002.59.943h.18l.12-.01-.02.12a4.066 4.066 0 001.395 3.782 4.014 4.014 0 002.95.923 4.053 4.053 0 002.739-1.435l3.332-3.992.05.01a3.566 3.566 0 003.071-1.184l.12-.14 1.204 4.233-.01.03a.79.79 0 00.01.431l1.074 3.451c.201.642.612 1.103 1.214 1.364l.06.03v.07c0 .06-.01.171-.03.322-.12 1.113-.472 4.484.743 7.904 1.294 3.652 3.983 6.01 7.776 6.792zM70.592 46.699a.856.856 0 01-.752.441.77.77 0 01-.412-.11l-.36-.2a.873.873 0 01-.412-.512.867.867 0 01.07-.652l9.141-16.602a.875.875 0 01.512-.412.87.87 0 01.652.07l.362.201a.856.856 0 01.33 1.164c0 .01-9.13 16.612-9.13 16.612zm25.819 17.515c-.421.29-.913.441-1.395.441-.552 0-1.104-.19-1.545-.561a2.44 2.44 0 01-.311-3.421l.341-.411.06.02c.1.03.19.06.251.08.412.12.412.12 2.208.963.501.23 1.134.532 1.966.913l.12.06-.09.1-1.605 1.816zm7.606.983l-2.86 3.43a2.423 2.423 0 01-1.645.864c-.07.01-.15.01-.221.01a2.42 2.42 0 01-1.545-.562c-.924-.773-1.285-2.247-.191-3.561l2.107-2.348 4.435 2.067-.08.1zm2.539-8.186c-2.308-2.046-4.837-4.062-7.135-5.677l.09-.181 6.001 1.876 1.315 4.223-.271-.24zm5.037 10.734l-.03-.1-1.595-5.728v-.02a3.646 3.646 0 00-.723-2.348l-.02-.03-1.786-5.718.231.14c2.007 1.255 2.267 1.927 4.736 8.287a835.868 835.868 0 001.786 4.574l.04.1-2.639.843zm1.204 4.334l-.772-2.779.09-.03 2.719-.853.04.08c.091.201.221.422.352.592l.01.03.622 2.017c.09.33-.251.682-.622.802l-1.475.462a1.14 1.14 0 01-.322.05c-.281-.01-.561-.12-.642-.371z" fill="#303030"/></svg>