<svg width="190" height="211" fill="none" xmlns="http://www.w3.org/2000/svg"><path d="M0 52.75L95 0l95 52.75v105.078L95 211 0 157.828V52.75z" fill="#fff"/><path d="M58.298 113.66h-.03V119h-1.2v-10.95h1.2v4.875h.03l4.86-4.875h1.456l-5.266 5.25 5.415 5.7h-1.44l-5.025-5.34zm13.123-.87c-.45-.56-1.07-.84-1.86-.84s-1.415.28-1.875.84c-.45.55-.675 1.32-.675 2.31s.225 1.765.675 2.325c.46.55 1.085.825 1.875.825s1.41-.275 1.86-.825c.46-.56.69-1.335.69-2.325 0-.99-.23-1.76-.69-2.31zm.81 5.265c-.67.73-1.56 1.095-2.67 1.095-1.11 0-2-.365-2.67-1.095-.67-.73-1.005-1.715-1.005-2.955s.335-2.225 1.005-2.955c.67-.73 1.56-1.095 2.67-1.095 1.11 0 2 .365 2.67 1.095.67.73 1.005 1.715 1.005 2.955s-.335 2.225-1.005 2.955zm6.38 1.095c-1.13 0-1.97-.455-2.52-1.365h-.03v4.515h-1.096v-11.1h1.05l.015 1.32h.03c.55-.98 1.4-1.47 2.55-1.47.98 0 1.75.35 2.31 1.05.56.69.84 1.69.84 3 0 1.28-.29 2.275-.87 2.985-.57.71-1.33 1.065-2.28 1.065zm2.07-4.05c0-1.02-.206-1.8-.616-2.34-.4-.54-.965-.81-1.695-.81-.69 0-1.25.27-1.68.81-.42.54-.63 1.285-.63 2.235v.21c0 .97.215 1.72.645 2.25.43.53.985.795 1.665.795.71 0 1.27-.27 1.68-.81.42-.55.63-1.33.63-2.34zm6.528 4.05c-1.13 0-1.97-.455-2.52-1.365h-.03v4.515h-1.095v-11.1h1.05l.015 1.32h.03c.55-.98 1.4-1.47 2.55-1.47.98 0 1.75.35 2.31 1.05.56.69.84 1.69.84 3 0 1.28-.29 2.275-.87 2.985-.57.71-1.33 1.065-2.28 1.065zm2.07-4.05c0-1.02-.205-1.8-.615-2.34-.4-.54-.965-.81-1.695-.81-.69 0-1.25.27-1.68.81-.42.54-.63 1.285-.63 2.235v.21c0 .97.215 1.72.645 2.25.43.53.985.795 1.665.795.71 0 1.27-.27 1.68-.81.42-.55.63-1.33.63-2.34zm3.484-.45h4.8c-.01-.87-.22-1.54-.63-2.01-.41-.47-.975-.705-1.695-.705-.75 0-1.345.24-1.785.72-.43.47-.66 1.135-.69 1.995zm0 .87c.02.85.28 1.52.78 2.01.5.49 1.15.735 1.95.735.77 0 1.535-.2 2.295-.6l.3.855c-.84.42-1.74.63-2.7.63-1.12 0-2.025-.365-2.715-1.095s-1.035-1.715-1.035-2.955c0-1.26.32-2.25.96-2.97.65-.72 1.53-1.08 2.64-1.08 1.08 0 1.915.345 2.505 1.035.6.68.9 1.66.9 2.94 0 .13-.01.295-.03.495h-5.85zm8.861-1.02l3.765-3.3h1.44l-4.335 3.735 4.455 4.065h-1.425l-3.9-3.615h-.015V119h-1.17v-7.8h1.17v3.3h.015zm13.721 3.57h1.305v2.73h-1.005V119h-6.9v-7.8h1.095v6.87h4.41v-6.87h1.095v6.87zm4.09-.6h.03l4.44-6.27h1.23v7.8h-1.14v-6.27h-.015l-4.455 6.27h-1.23v-7.8h1.14v6.27zm9.742-2.19c-.6-.13-1.095-.355-1.485-.675-.38-.33-.57-.77-.57-1.32 0-1.46 1.175-2.19 3.525-2.19.83 0 1.64.055 2.43.165V119h-1.14v-3.345h-1.035c-.55 0-.935.07-1.155.21-.21.13-.45.47-.72 1.02L128.022 119h-1.155l1.095-2.205c.24-.48.445-.825.615-1.035.18-.21.38-.36.6-.45v-.03zm2.76-.465v-2.775c-.4-.06-.815-.09-1.245-.09-1.65 0-2.475.475-2.475 1.425 0 .96.88 1.44 2.64 1.44h1.08zM29.79 134.79c-.45-.56-1.07-.84-1.86-.84s-1.415.28-1.875.84c-.45.55-.675 1.32-.675 2.31s.225 1.765.675 2.325c.46.55 1.085.825 1.875.825s1.41-.275 1.86-.825c.46-.56.69-1.335.69-2.325 0-.99-.23-1.76-.69-2.31zm.81 5.265c-.67.73-1.56 1.095-2.67 1.095-1.11 0-2-.365-2.67-1.095-.67-.73-1.005-1.715-1.005-2.955s.335-2.225 1.005-2.955c.67-.73 1.56-1.095 2.67-1.095 1.11 0 2 .365 2.67 1.095.67.73 1.005 1.715 1.005 2.955s-.335 2.225-1.005 2.955zm2.734-6.855h6.6v7.8H38.84v-6.87h-4.41V141h-1.096v-7.8zm14.428 0h1.2l-3.03 7.8c-.52 1.34-1.075 2.25-1.665 2.73-.59.48-1.425.72-2.505.72l-.06-.915c.81 0 1.435-.175 1.875-.525.44-.34.855-1.01 1.245-2.01l-3.165-7.8h1.23l2.505 6.465h.03l2.34-6.465zm3.923 6.87h2.97v-6.87h1.05v6.87h2.97v-6.87h1.08v6.87h1.2v2.73H59.95V141h-9.345v-7.8h1.08v6.87zm11.517-3.42h4.8c-.01-.87-.22-1.54-.63-2.01-.41-.47-.975-.705-1.695-.705-.75 0-1.345.24-1.785.72-.43.47-.66 1.135-.69 1.995zm0 .87c.02.85.28 1.52.78 2.01.5.49 1.15.735 1.95.735.77 0 1.535-.2 2.295-.6l.3.855c-.84.42-1.74.63-2.7.63-1.12 0-2.025-.365-2.715-1.095s-1.035-1.715-1.035-2.955c0-1.26.32-2.25.96-2.97.65-.72 1.53-1.08 2.64-1.08 1.08 0 1.915.345 2.505 1.035.6.68.9 1.66.9 2.94 0 .13-.01.295-.03.495h-5.85zm8.846-.27V141h-1.17v-7.8h1.17v3.18h4.425v-3.18h1.17v7.8h-1.17v-3.75h-4.425zm8.98 2.22h.03l4.44-6.27h1.23v7.8h-1.14v-6.27h-.016L81.117 141h-1.23v-7.8h1.14v6.27zm9.74-2.19c-.6-.13-1.094-.355-1.484-.675-.38-.33-.57-.77-.57-1.32 0-1.46 1.175-2.19 3.525-2.19.83 0 1.64.055 2.43.165V141h-1.14v-3.345h-1.035c-.55 0-.935.07-1.155.21-.21.13-.45.47-.72 1.02L89.614 141h-1.155l1.095-2.205c.24-.48.445-.825.615-1.035.18-.21.38-.36.6-.45v-.03zm2.76-.465v-2.775c-.4-.06-.814-.09-1.244-.09-1.65 0-2.475.475-2.475 1.425 0 .96.88 1.44 2.64 1.44h1.08zm8.886 3.405c.37.06.775.09 1.215.09 1.67 0 2.505-.545 2.505-1.635 0-.99-.885-1.485-2.655-1.485h-1.065v3.03zm0-3.78h1.05c.72 0 1.28-.12 1.68-.36.4-.24.6-.57.6-.99 0-.8-.735-1.2-2.205-1.2-.39 0-.765.03-1.125.09v2.46zm4.83 2.31c0 1.57-1.22 2.355-3.66 2.355-.89 0-1.66-.055-2.31-.165v-7.68c.71-.11 1.44-.165 2.19-.165 1.21 0 2.07.18 2.58.54.52.35.78.8.78 1.35 0 .45-.155.83-.465 1.14-.31.3-.745.51-1.305.63v.015c.71.11 1.25.34 1.62.69.38.34.57.77.57 1.29zm2.394-2.1h4.8c-.01-.87-.22-1.54-.63-2.01-.41-.47-.975-.705-1.695-.705-.75 0-1.345.24-1.785.72-.43.47-.66 1.135-.69 1.995zm0 .87c.02.85.28 1.52.78 2.01.5.49 1.15.735 1.95.735.77 0 1.535-.2 2.295-.6l.3.855c-.84.42-1.74.63-2.7.63-1.12 0-2.025-.365-2.715-1.095s-1.035-1.715-1.035-2.955c0-1.26.32-2.25.96-2.97.65-.72 1.53-1.08 2.64-1.08 1.08 0 1.915.345 2.505 1.035.6.68.9 1.66.9 2.94 0 .13-.01.295-.03.495h-5.85zm11.321 3.63c-1.13 0-1.97-.455-2.52-1.365h-.03v4.515h-1.095v-11.1h1.05l.015 1.32h.03c.55-.98 1.4-1.47 2.55-1.47.98 0 1.75.35 2.31 1.05.56.69.84 1.69.84 3 0 1.28-.29 2.275-.87 2.985-.57.71-1.33 1.065-2.28 1.065zm2.07-4.05c0-1.02-.205-1.8-.615-2.34-.4-.54-.965-.81-1.695-.81-.69 0-1.25.27-1.68.81-.42.54-.63 1.285-.63 2.235v.21c0 .97.215 1.72.645 2.25.43.53.985.795 1.665.795.71 0 1.27-.27 1.68-.81.42-.55.63-1.33.63-2.34zm5.914-.795h.03l2.04-3.105h1.245l-2.655 3.84 2.73 3.96h-1.29l-2.115-3.24h-.03l-2.1 3.24h-1.26l2.745-3.96-2.67-3.84h1.29l2.04 3.105zm6.431.945V141h-1.17v-7.8h1.17v3.18h4.425v-3.18h1.17v7.8h-1.17v-3.75h-4.425zm8.438-.6h4.8c-.01-.87-.22-1.54-.63-2.01-.41-.47-.975-.705-1.695-.705-.75 0-1.345.24-1.785.72-.43.47-.66 1.135-.69 1.995zm0 .87c.02.85.28 1.52.78 2.01.5.49 1.15.735 1.95.735.77 0 1.535-.2 2.295-.6l.3.855c-.84.42-1.74.63-2.7.63-1.12 0-2.025-.365-2.715-1.095s-1.035-1.715-1.035-2.955c0-1.26.32-2.25.96-2.97.65-.72 1.53-1.08 2.64-1.08 1.08 0 1.915.345 2.505 1.035.6.68.9 1.66.9 2.94 0 .13-.01.295-.03.495h-5.85zm7.677-4.32h5.7v.945h-4.545V141h-1.155v-7.8zm12.437 1.59c-.45-.56-1.07-.84-1.86-.84s-1.415.28-1.875.84c-.45.55-.675 1.32-.675 2.31s.225 1.765.675 2.325c.46.55 1.085.825 1.875.825s1.41-.275 1.86-.825c.46-.56.69-1.335.69-2.325 0-.99-.23-1.76-.69-2.31zm.81 5.265c-.67.73-1.56 1.095-2.67 1.095-1.11 0-2-.365-2.67-1.095-.67-.73-1.005-1.715-1.005-2.955s.335-2.225 1.005-2.955c.67-.73 1.56-1.095 2.67-1.095 1.11 0 2 .365 2.67 1.095.67.73 1.005 1.715 1.005 2.955s-.335 2.225-1.005 2.955zM80.983 162.22c.37.06.775.09 1.215.09 1.67 0 2.505-.545 2.505-1.635 0-.99-.885-1.485-2.655-1.485h-1.065v3.03zm0-3.78h1.05c.72 0 1.28-.12 1.68-.36.4-.24.6-.57.6-.99 0-.8-.735-1.2-2.205-1.2-.39 0-.765.03-1.125.09v2.46zm4.83 2.31c0 1.57-1.22 2.355-3.66 2.355-.89 0-1.66-.055-2.31-.165v-7.68c.71-.11 1.44-.165 2.19-.165 1.21 0 2.07.18 2.58.54.52.35.78.8.78 1.35 0 .45-.155.83-.465 1.14-.31.3-.745.51-1.305.63v.015c.71.11 1.25.34 1.62.69.38.34.57.77.57 1.29zm2.394-2.1h4.8c-.01-.87-.22-1.54-.63-2.01-.41-.47-.975-.705-1.695-.705-.75 0-1.345.24-1.785.72-.43.47-.66 1.135-.69 1.995zm0 .87c.02.85.28 1.52.78 2.01.5.49 1.15.735 1.95.735.77 0 1.535-.2 2.295-.6l.3.855c-.84.42-1.74.63-2.7.63-1.12 0-2.025-.365-2.715-1.095s-1.035-1.715-1.035-2.955c0-1.26.32-2.25.96-2.97.65-.72 1.53-1.08 2.64-1.08 1.08 0 1.915.345 2.505 1.035.6.68.9 1.66.9 2.94 0 .13-.01.295-.03.495h-5.85zm8.861-1.02l3.765-3.3h1.44l-4.335 3.735 4.455 4.065h-1.425l-3.9-3.615h-.015V163h-1.17v-7.8h1.17v3.3h.015zm9.971-3.45c1.09 0 1.87.225 2.34.675.47.45.705 1.19.705 2.22v2.955c0 .71.075 1.41.225 2.1h-1.05a8.56 8.56 0 01-.15-1.38h-.03c-.27.48-.66.855-1.17 1.125-.51.27-1.085.405-1.725.405-.72 0-1.295-.2-1.725-.6-.43-.41-.645-.96-.645-1.65 0-.87.38-1.56 1.14-2.07.76-.52 1.84-.78 3.24-.78h.795v-.075c0-.76-.145-1.285-.435-1.575-.28-.3-.785-.45-1.515-.45-.94 0-1.815.23-2.625.69l-.195-.885c.86-.47 1.8-.705 2.82-.705zm-2.145 5.805c0 .45.14.805.42 1.065.28.25.655.375 1.125.375.69 0 1.285-.245 1.785-.735.51-.5.765-1.11.765-1.83v-.84h-.795c-1.05 0-1.865.18-2.445.54-.57.35-.855.825-.855 1.425z" fill="#000"/><path d="M89.282 48.59a32.972 32.972 0 014.094-.797.852.852 0 00.563-.323.844.844 0 00.16-.615.847.847 0 00-.844-.726c-.04 0-.07 0-.11.01a36.454 36.454 0 00-4.306.837.856.856 0 00-.523.394.87.87 0 00-.09.635.89.89 0 001.056.585zm16.547-.141c1.348.323 2.696.736 3.983 1.23a.873.873 0 001.097-.483.824.824 0 00-.02-.636.855.855 0 00-.473-.444 35.986 35.986 0 00-4.195-1.291.854.854 0 00-1.026.615.803.803 0 00.101.626.9.9 0 00.533.383zm8.188 1.351a.868.868 0 00-.754.445.821.821 0 00-.061.635.838.838 0 00.413.495 31.773 31.773 0 013.55 2.169c.373.252.926.161 1.187-.202a.813.813 0 00.141-.625.854.854 0 00-.342-.545 35.444 35.444 0 00-3.732-2.28.965.965 0 00-.402-.091zM97.54 47.5h.302c1.297 0 2.595.071 3.883.223a.853.853 0 00.935-.737.838.838 0 00-.171-.615.897.897 0 00-.583-.323 33.757 33.757 0 00-4.376-.232.804.804 0 00-.594.252.832.832 0 00-.24.595c0 .464.371.838.844.838zm-22.723 9.06a33.714 33.714 0 013.208-2.653.824.824 0 00.332-.555.863.863 0 00-.15-.625.861.861 0 00-1.188-.182 37.139 37.139 0 00-3.37 2.784.812.812 0 00-.26.586c0 .221.07.433.23.595.302.343.866.353 1.198.05zm6.729-4.893a32.15 32.15 0 013.772-1.775.82.82 0 00.463-.454.82.82 0 00.01-.636.848.848 0 00-1.106-.464 35.51 35.51 0 00-3.964 1.866.835.835 0 00-.402.505.824.824 0 00.07.635c.212.384.755.545 1.157.323zm-6.438-9.15a.868.868 0 001.036-.605l.252-.969 1.951 3.067a.864.864 0 001.167.262.828.828 0 00.372-.524.8.8 0 00-.11-.626l-1.962-3.077.986.192a.849.849 0 00.996-.666.808.808 0 00-.131-.625.88.88 0 00-.543-.364l-2.917-.565a.859.859 0 00-.986.616l-.724 2.865a.83.83 0 00.613 1.019zm36.183 1.231c.05.222.181.403.372.524a.864.864 0 001.167-.262l1.961-3.067.252.969c.111.444.583.716 1.036.605a.858.858 0 00.523-.394.87.87 0 00.091-.635l-.735-2.855a.84.84 0 00-.985-.616l-2.918.565a.818.818 0 00-.543.364.801.801 0 00-.12.625c.07.454.523.757.975.666l.986-.192-1.961 3.077a.848.848 0 00-.101.626zm18.79 20.096a33.772 33.772 0 00-1.327-1.049l-1.328-1.534a.853.853 0 00-.966-.232l-.1.04-.091-.06a53.234 53.234 0 00-2.032-1.291l-.362-.212.392-.151a.846.846 0 00.554-.726.782.782 0 00-.202-.606 38.698 38.698 0 00-3.048-3.127.852.852 0 00-1.197.05.837.837 0 00-.221.605c.01.222.111.434.272.585a36.021 36.021 0 012.243 2.23l-.242.313a48.173 48.173 0 00-14.867-5.166 48.79 48.79 0 00-24.403 2.018.85.85 0 00-.483.434.778.778 0 00-.03.636.86.86 0 001.086.514 47.146 47.146 0 0123.548-1.947 46.958 46.958 0 0120.33 8.858l-.181.353a86.976 86.976 0 00-28.528-3.965 86.934 86.934 0 00-28.91 5.78l-5.854 2.25-.181-.363 10.562-6.557a46.724 46.724 0 014.939-2.674.853.853 0 00.442-.474.867.867 0 00-.03-.635.844.844 0 00-1.126-.404 48.935 48.935 0 00-5.11 2.764l-3.642 2.26-.251-.302 2.213-2.472a.845.845 0 00.211-.606.793.793 0 00-.282-.575.844.844 0 00-1.197.071l-2.846 3.178a.844.844 0 00-.212.605.81.81 0 00.282.575c.11.091.231.162.372.192l.473.111-2.615 1.604-.111-.07a.857.857 0 00-1.087.15l-1.337 1.484-2.465 1.533a2.396 2.396 0 00.362 4.257l4.93 2.018 9.133 5.519c.282.171.603.353.956.555a.879.879 0 001.156-.313.827.827 0 00.08-.636.854.854 0 00-.401-.514 20.688 20.688 0 01-.916-.535l-5.955-3.601-.372-1.554a14.436 14.436 0 01-.322-4.873l.01-.12.775-.304a85.535 85.535 0 0111.336-3.48l.282-.06-.03.282c-.06.555-.09 1.11-.09 1.654 0 8.04 6.588 14.578 14.686 14.578 2.917 0 5.733-.847 8.157-2.451a.835.835 0 00.363-.535.808.808 0 00-.131-.625.852.852 0 00-1.177-.232 13.03 13.03 0 01-7.213 2.169c-7.162 0-12.986-5.781-12.986-12.894 0-.726.06-1.462.191-2.189l.02-.131.131-.03a87.067 87.067 0 014.195-.747l.191-.03.03.192c.05.302.141.605.252.897l.02.061-.02.06a8.321 8.321 0 00-.232 1.917c0 4.48 3.672 8.132 8.188 8.132 4.517 0 8.199-3.652 8.199-8.132a8.076 8.076 0 00-.926-3.743l-.161-.302.342.01c1.61.05 3.239.151 4.839.303l.13.01.041.13c.342 1.171.513 2.382.513 3.592 0 2.886-.936 5.61-2.706 7.88a.808.808 0 00-.171.615c.03.222.141.424.322.555.362.272.915.202 1.187-.151a14.375 14.375 0 003.058-8.909c0-1.09-.121-2.189-.373-3.258l-.06-.283.282.03a85.789 85.789 0 0116.255 3.542l1.358.433-12.302 9.403c-10.059 7.688-23.589 9.463-35.308 4.62a.95.95 0 00-.322-.06.843.843 0 00-.784.514.778.778 0 000 .636c.08.212.251.373.463.464A37.126 37.126 0 0094.874 85c8.199 0 16.276-2.724 22.734-7.657l12.373-9.453a2.568 2.568 0 001.016-2.018 2.463 2.463 0 00-.916-2.028zm-62.799 8.818c-.04-.02-.08-.04-.11-.06l-4.436-1.817 5.32-2.058-.01.303c-.05 1.301.061 2.603.323 3.884l.09.454-1.177-.706zm22.905-9.877l.211-.03a83.4 83.4 0 015.925-.545l.211-.01v.212c-.02 1.725-1.448 3.127-3.189 3.127a3.201 3.201 0 01-3.128-2.542l-.03-.212zm6.579 9.816c-3.43 0-6.277-2.663-6.489-6.053l-.02-.414.342.232c.815.555 1.77.848 2.757.848 2.695 0 4.878-2.17 4.878-4.843l-.01-.202.201-.06.503-.02c.916-.02 1.851-.03 2.757-.03h.1l.06.07a6.456 6.456 0 011.409 4.015c.01 3.562-2.907 6.457-6.488 6.457z" fill="#303030"/></svg>