<svg width="190" height="211" fill="none" xmlns="http://www.w3.org/2000/svg"><path d="M0 52.75L95 0l95 52.75v105.078L95 211 0 157.828V52.75z" fill="#fff"/><path d="M53.636 108.05l3.21 6.645h.03l3.135-6.645h1.365l-3.78 7.695c-.65 1.31-1.35 2.205-2.1 2.685-.74.48-1.79.72-3.15.72l-.075-1.005c1.11 0 1.94-.155 2.49-.465.55-.32 1.045-.93 1.485-1.83l-4.02-7.8h1.41zm12.73 3.915c-.88 0-1.565.275-2.055.825-.49.54-.735 1.31-.735 2.31 0 .96.255 1.725.765 2.295.52.57 1.195.855 2.025.855.7 0 1.37-.17 2.01-.51l.3.885c-.75.35-1.535.525-2.355.525-1.16 0-2.1-.365-2.82-1.095-.72-.74-1.08-1.725-1.08-2.955 0-1.27.345-2.26 1.035-2.97.69-.72 1.645-1.08 2.865-1.08.82 0 1.605.175 2.355.525l-.3.915c-.67-.35-1.34-.525-2.01-.525zm10.852.15h-2.85V119h-1.185v-6.885h-2.85v-.915h6.885v.915zm5.443 7.035c-1.13 0-1.97-.455-2.52-1.365h-.03v4.515h-1.095v-11.1h1.05l.015 1.32h.03c.55-.98 1.4-1.47 2.55-1.47.98 0 1.75.35 2.31 1.05.56.69.84 1.69.84 3 0 1.28-.29 2.275-.87 2.985-.57.71-1.33 1.065-2.28 1.065zm2.07-4.05c0-1.02-.205-1.8-.615-2.34-.4-.54-.965-.81-1.695-.81-.69 0-1.25.27-1.68.81-.42.54-.63 1.285-.63 2.235v.21c0 .97.215 1.72.645 2.25.43.53.985.795 1.665.795.71 0 1.27-.27 1.68-.81.42-.55.63-1.33.63-2.34zm5.733-4.05c1.09 0 1.87.225 2.34.675.47.45.705 1.19.705 2.22v2.955c0 .71.075 1.41.225 2.1h-1.05a8.56 8.56 0 01-.15-1.38h-.03c-.27.48-.66.855-1.17 1.125-.51.27-1.085.405-1.725.405-.72 0-1.295-.2-1.725-.6-.43-.41-.645-.96-.645-1.65 0-.87.38-1.56 1.14-2.07.76-.52 1.84-.78 3.24-.78h.795v-.075c0-.76-.145-1.285-.435-1.575-.28-.3-.785-.45-1.515-.45-.94 0-1.815.23-2.625.69l-.195-.885c.86-.47 1.8-.705 2.82-.705zm-2.145 5.805c0 .45.14.805.42 1.065.28.25.655.375 1.125.375.69 0 1.285-.245 1.785-.735.51-.5.765-1.11.765-1.83v-.84h-.795c-1.05 0-1.865.18-2.445.54-.57.35-.855.825-.855 1.425zm8.683-1.605V119h-1.17v-7.8h1.17v3.18h4.425v-3.18h1.17v7.8h-1.17v-3.75h-4.425zm8.439-.6h4.8c-.01-.87-.22-1.54-.63-2.01-.41-.47-.975-.705-1.695-.705-.75 0-1.345.24-1.785.72-.43.47-.66 1.135-.69 1.995zm0 .87c.02.85.28 1.52.78 2.01.5.49 1.15.735 1.95.735.77 0 1.535-.2 2.295-.6l.3.855c-.84.42-1.74.63-2.7.63-1.12 0-2.025-.365-2.715-1.095s-1.035-1.715-1.035-2.955c0-1.26.32-2.25.96-2.97.65-.72 1.53-1.08 2.64-1.08 1.08 0 1.915.345 2.505 1.035.6.68.9 1.66.9 2.94 0 .13-.01.295-.03.495h-5.85zm8.846-.27V119h-1.17v-7.8h1.17v3.18h4.425v-3.18h1.17v7.8h-1.17v-3.75h-4.425zm8.979 2.22h.03l4.44-6.27h1.23v7.8h-1.14v-6.27h-.015l-4.455 6.27h-1.23v-7.8h1.14v6.27zm8.557-2.82h4.8c-.01-.87-.22-1.54-.63-2.01-.41-.47-.975-.705-1.695-.705-.75 0-1.345.24-1.785.72-.43.47-.66 1.135-.69 1.995zm0 .87c.02.85.28 1.52.78 2.01.5.49 1.15.735 1.95.735.77 0 1.535-.2 2.295-.6l.3.855c-.84.42-1.74.63-2.7.63-1.12 0-2.025-.365-2.715-1.095s-1.035-1.715-1.035-2.955c0-1.26.32-2.25.96-2.97.65-.72 1.53-1.08 2.64-1.08 1.08 0 1.915.345 2.505 1.035.6.68.9 1.66.9 2.94 0 .13-.01.295-.03.495h-5.85zM74.579 134.7l-2.715 3.99h-1.005l-2.715-3.99h-.03v6.3h-1.11v-7.8h1.32l3.03 4.65h.015l3.03-4.65h1.335v7.8h-1.125v-6.3h-.03zm8.421.09c-.45-.56-1.07-.84-1.86-.84s-1.415.28-1.875.84c-.45.55-.675 1.32-.675 2.31s.225 1.765.675 2.325c.46.55 1.085.825 1.875.825s1.41-.275 1.86-.825c.46-.56.69-1.335.69-2.325 0-.99-.23-1.76-.69-2.31zm.81 5.265c-.67.73-1.56 1.095-2.67 1.095-1.11 0-2-.365-2.67-1.095-.67-.73-1.005-1.715-1.005-2.955s.335-2.225 1.005-2.955c.67-.73 1.56-1.095 2.67-1.095 1.11 0 2 .365 2.67 1.095.67.73 1.005 1.715 1.005 2.955s-.335 2.225-1.005 2.955zm6.38 1.095c-1.13 0-1.97-.455-2.52-1.365h-.03v4.515h-1.095v-11.1h1.05l.015 1.32h.03c.55-.98 1.4-1.47 2.55-1.47.98 0 1.75.35 2.31 1.05.56.69.84 1.69.84 3 0 1.28-.29 2.275-.87 2.985-.57.71-1.33 1.065-2.28 1.065zm2.07-4.05c0-1.02-.205-1.8-.615-2.34-.4-.54-.965-.81-1.695-.81-.69 0-1.25.27-1.68.81-.42.54-.63 1.285-.63 2.235v.21c0 .97.215 1.72.645 2.25.43.53.985.795 1.665.795.71 0 1.27-.27 1.68-.81.42-.55.63-1.33.63-2.34zm3.964 2.97h2.97v-6.87h1.05v6.87h2.97v-6.87h1.08v6.87h1.2v2.73h-1.005V141h-9.345v-7.8h1.08v6.87zm12.057-.6h.03l4.44-6.27h1.23v7.8h-1.14v-6.27h-.015l-4.455 6.27h-1.23v-7.8h1.14v6.27zm9.126-2.22V141h-1.17v-7.8h1.17v3.18h4.425v-3.18h1.17v7.8h-1.17v-3.75h-4.425zM49.953 155.2h6.6v7.8h-1.095v-6.87h-4.41V163h-1.095v-7.8zm13.858 1.59c-.45-.56-1.07-.84-1.86-.84s-1.415.28-1.875.84c-.45.55-.675 1.32-.675 2.31s.225 1.765.675 2.325c.46.55 1.085.825 1.875.825s1.41-.275 1.86-.825c.46-.56.69-1.335.69-2.325 0-.99-.23-1.76-.69-2.31zm.81 5.265c-.67.73-1.56 1.095-2.67 1.095-1.11 0-2-.365-2.67-1.095-.67-.73-1.005-1.715-1.005-2.955s.335-2.225 1.005-2.955c.67-.73 1.56-1.095 2.67-1.095 1.11 0 2 .365 2.67 1.095.67.73 1.005 1.715 1.005 2.955s-.335 2.225-1.005 2.955zm4.235.045h4.125v-6h-3.225v1.995c0 .38-.016.825-.046 1.335-.02.5-.044.825-.075.975-.02.14-.07.34-.15.6-.08.26-.165.45-.254.57-.08.11-.206.285-.375.525zm-1.305 0l.465-.57c.09-.12.19-.31.3-.57.11-.27.174-.475.194-.615.03-.15.06-.465.09-.945.04-.49.06-.93.06-1.32v-2.88h5.416v6.9h1.05v2.7H74.03V163h-6.105v1.8h-1.094v-2.7h.72zm13.647-6.9h5.7v.945h-4.545V163h-1.155v-7.8zm8.687 3.84v-3.84h5.775v7.8h-1.11v-6.87h-3.585v3.09c0 1.49-.215 2.5-.645 3.03-.43.53-1.25.83-2.46.9l-.06-.93c.58-.03 1.005-.125 1.275-.285.28-.16.485-.455.615-.885.13-.44.195-1.11.195-2.01zm10.877-3.99c1.09 0 1.87.225 2.34.675.47.45.705 1.19.705 2.22v2.955c0 .71.075 1.41.225 2.1h-1.05a8.56 8.56 0 01-.15-1.38h-.03c-.27.48-.66.855-1.17 1.125-.51.27-1.085.405-1.725.405-.72 0-1.295-.2-1.725-.6-.43-.41-.645-.96-.645-1.65 0-.87.38-1.56 1.14-2.07.76-.52 1.84-.78 3.24-.78h.795v-.075c0-.76-.145-1.285-.435-1.575-.28-.3-.785-.45-1.515-.45-.94 0-1.815.23-2.625.69l-.195-.885c.86-.47 1.8-.705 2.82-.705zm-2.145 5.805c0 .45.14.805.42 1.065.28.25.655.375 1.125.375.69 0 1.285-.245 1.785-.735.51-.5.765-1.11.765-1.83v-.84h-.795c-1.05 0-1.865.18-2.445.54-.57.35-.855.825-.855 1.425zm9.928-4.935c-.77 0-1.6.175-2.49.525l-.27-.84c.94-.37 1.89-.555 2.85-.555 1.07 0 1.91.18 2.52.54.61.36.915.82.915 1.38 0 .41-.17.785-.51 1.125-.33.34-.81.58-1.44.72v.03c.69.12 1.205.375 1.545.765.35.38.525.81.525 1.29 0 .7-.31 1.25-.93 1.65-.61.4-1.485.6-2.625.6-.98 0-1.965-.185-2.955-.555l.27-.84c.91.33 1.79.495 2.64.495 1.63 0 2.445-.49 2.445-1.47 0-.5-.255-.875-.765-1.125s-1.35-.375-2.52-.375h-.66v-.885h.66c2.11 0 3.165-.425 3.165-1.275 0-.8-.79-1.2-2.37-1.2zm8.301-.87c1.09 0 1.87.225 2.34.675.47.45.705 1.19.705 2.22v2.955c0 .71.075 1.41.225 2.1h-1.05a8.56 8.56 0 01-.15-1.38h-.03c-.27.48-.66.855-1.17 1.125-.51.27-1.085.405-1.725.405-.72 0-1.295-.2-1.725-.6-.43-.41-.645-.96-.645-1.65 0-.87.38-1.56 1.14-2.07.76-.52 1.84-.78 3.24-.78h.795v-.075c0-.76-.145-1.285-.435-1.575-.28-.3-.785-.45-1.515-.45-.94 0-1.815.23-2.625.69l-.195-.885c.86-.47 1.8-.705 2.82-.705zm-2.145 5.805c0 .45.14.805.42 1.065.28.25.655.375 1.125.375.69 0 1.285-.245 1.785-.735.51-.5.765-1.11.765-1.83v-.84h-.795c-1.05 0-1.865.18-2.445.54-.57.35-.855.825-.855 1.425zm15.088-4.155l-2.715 3.99h-1.005l-2.715-3.99h-.03v6.3h-1.11v-7.8h1.32l3.03 4.65h.015l3.03-4.65h1.335v7.8h-1.125v-6.3h-.03zm4.551 4.77h.03l4.44-6.27h1.23v7.8h-1.14v-6.27h-.015L134.43 163h-1.23v-7.8h1.14v6.27z" fill="#000"/><g clip-path="url(#clip0)" fill="#303030"><path d="M89.778 51.152a2.705 2.705 0 00-1.23-.641l-8.17-1.852a27.298 27.298 0 00-13.157.336 26.556 26.556 0 00-11.314 6.46l-.675.661a.76.76 0 00-.222.437c-.02.163.02.336.11.479a.799.799 0 00.404.315.77.77 0 00.524.02l4.443-1.332a25.531 25.531 0 017.274-1.058c1.622 0 3.234.152 4.826.468l12.492 2.441c.534.112 1.098.05 1.602-.153a2.77 2.77 0 00.887-.59l2.307-2.319a2.55 2.55 0 00.665-1.18c.11-.437.1-.905-.03-1.333a2.543 2.543 0 00-.736-1.16zm-.796 2.116c-.05.183-.14.356-.272.488l-2.307 2.33a1.029 1.029 0 01-.464.274c-.1.03-.211.051-.322.051-.07 0-.14-.01-.211-.02l-12.483-2.442c-4.11-.793-8.412-.63-12.432.499l-.252-.55a24.845 24.845 0 019.46-3.926 25.26 25.26 0 0110.297.163l8.17 1.85c.181.042.353.133.494.255.14.133.242.295.302.468.06.183.07.377.02.56zm29.217 22.634c9.087 0 16.271-7 16.563-7.294a.76.76 0 00.221-.53.76.76 0 00-.221-.528c-.303-.295-7.456-7.304-16.563-7.304-9.067 0-16.271 6.999-16.573 7.304a.743.743 0 000 1.058c.302.295 7.475 7.294 16.573 7.294zm7.596-11.81l-.473-.835.866.397a29.455 29.455 0 016.579 4.191l.282.234-.282.234a29.455 29.455 0 01-6.579 4.191l-.866.397.473-.834a8.105 8.105 0 001.068-3.998 8.058 8.058 0 00-1.068-3.978zm-13.711.58a6.922 6.922 0 012.579-2.493l.08-.03a16.112 16.112 0 016.901 0l.081.03a6.922 6.922 0 012.579 2.492 6.702 6.702 0 01.947 3.408c0 1.2-.332 2.38-.947 3.418a7.002 7.002 0 01-2.579 2.492l-.081.03a16.316 16.316 0 01-3.445.367c-1.159 0-2.317-.122-3.446-.366l-.121-.051a6.839 6.839 0 01-2.538-2.472 6.614 6.614 0 01-.947-3.418 6.492 6.492 0 01.937-3.408zm-8.453 3.173a29.455 29.455 0 016.579-4.191l.866-.397-.473.834a8.094 8.094 0 00-1.068 3.998c0 1.394.372 2.777 1.068 3.998l.473.834-.866-.397a29.455 29.455 0 01-6.579-4.19l-.272-.255.272-.234zm30.708 7.335c-.051-.01-.091-.01-.141-.01a.855.855 0 00-.464.142c-.504.335-1.028.671-1.541.976a.736.736 0 00-.232 1.028.771.771 0 00.494.335c.201.051.423.02.604-.081a36.05 36.05 0 001.602-1.017.732.732 0 00.322-.489.733.733 0 00-.121-.56.768.768 0 00-.523-.325zm-5.763 3.234a.805.805 0 00-.615 0 28.262 28.262 0 01-3.345 1.16.836.836 0 00-.483.366.75.75 0 00-.071.57.799.799 0 00.373.457.858.858 0 00.615.072 30.436 30.436 0 003.546-1.221.832.832 0 00.413-.417.74.74 0 00-.01-.57.72.72 0 00-.423-.417zm-7.999 2.156a.748.748 0 00-.283-.142.849.849 0 00-.322-.03h-.01a22.656 22.656 0 01-3.526 0h-.061a.807.807 0 00-.524.183.72.72 0 00-.272.519.73.73 0 00.182.549.853.853 0 00.544.275c1.249.101 2.508.101 3.788 0a.784.784 0 00.312-.082.762.762 0 00.252-.183.685.685 0 00.151-.264.955.955 0 00.041-.295.959.959 0 00-.081-.285.576.576 0 00-.191-.244zm-8.786-.996a28.866 28.866 0 01-3.344-1.15.818.818 0 00-.313-.06h-.01c-.101 0-.201.02-.302.05a.756.756 0 00-.494.692c0 .102.02.193.051.285a.78.78 0 00.161.244.78.78 0 00.262.173c1.148.478 2.337.895 3.546 1.22.202.051.423.02.605-.08a.793.793 0 00.372-.459.725.725 0 00-.07-.56.796.796 0 00-.464-.355zm-7.586-3.296c-.453-.265-.957-.59-1.541-.977a.752.752 0 00-.293-.122.873.873 0 00-.322-.01.79.79 0 00-.292.112.714.714 0 00-.222.203.699.699 0 00-.121.56.797.797 0 00.323.488c.524.356 1.068.702 1.612 1.017a.8.8 0 00.594.082.797.797 0 00.494-.346.736.736 0 00.101-.56.762.762 0 00-.333-.447zm-32.41-16.022c-9.108 0-16.271 6.999-16.563 7.294a.73.73 0 00-.01 1.058c.302.295 7.455 7.294 16.573 7.294 9.057 0 16.27-7 16.573-7.294a.742.742 0 000-1.058c-.303-.295-7.496-7.294-16.573-7.294zm-7.597 11.82l.474.835-.867-.397a29.69 29.69 0 01-6.578-4.19l-.282-.235.282-.234a29.46 29.46 0 016.578-4.19l.867-.398-.474.814a8.104 8.104 0 00-1.068 3.998c0 1.394.373 2.777 1.068 3.998zm13.702-.58a6.882 6.882 0 01-2.59 2.493l-.08.03a16.318 16.318 0 01-3.445.367 16.32 16.32 0 01-3.446-.366l-.141-.072a6.939 6.939 0 01-2.529-2.461 6.61 6.61 0 010-6.816 6.927 6.927 0 012.58-2.492l.08-.03a16.113 16.113 0 016.901 0l.08.03a6.927 6.927 0 012.58 2.492 6.618 6.618 0 01.947 3.418c0 1.2-.312 2.37-.937 3.408zm8.453-3.183a29.099 29.099 0 01-6.58 4.191l-.866.397.474-.834a8.103 8.103 0 001.068-3.998 7.997 7.997 0 00-1.068-3.998l-.474-.834.867.396a29.454 29.454 0 016.579 4.192l.282.234-.282.254zM57.8 76.278l-.24-.143a27.411 27.411 0 01-1.3-.834.747.747 0 00-.293-.122c-.06-.01-.11-.02-.171-.02-.05 0-.1 0-.151.01a.79.79 0 00-.292.112.709.709 0 00-.222.203.695.695 0 00-.12.265c-.01.112-.021.203 0 .305.02.102.05.193.11.275.06.081.131.163.212.213a33.23 33.23 0 001.611 1.028.809.809 0 00.615.091.77.77 0 00.595-.915.738.738 0 00-.353-.468zm15.748 4.12a22.788 22.788 0 01-3.537 0h-.09c-.08 0-.161.01-.242.03a.923.923 0 00-.282.143.612.612 0 00-.192.234.58.58 0 00-.08.285.748.748 0 00.191.549c.07.081.151.142.252.183.1.05.202.071.313.081 1.3.102 2.548.102 3.798 0a.82.82 0 00.544-.264.73.73 0 00-.091-1.058.84.84 0 00-.584-.183zm-7.888-.682a.921.921 0 00-.283-.142 27.828 27.828 0 01-3.355-1.16c-.1-.04-.201-.06-.312-.071h-.02a.937.937 0 00-.292.05.763.763 0 00-.262.164.855.855 0 00-.182.244.689.689 0 000 .57.82.82 0 00.434.416c1.158.479 2.347.896 3.556 1.231.1.03.211.041.312.02.1-.01.212-.04.302-.09a.716.716 0 00.232-.194.834.834 0 00.141-.265.581.581 0 00.02-.295.633.633 0 00-.09-.274 1.273 1.273 0 00-.202-.204zm16.774-1.139a.763.763 0 00-.262-.163.757.757 0 00-.303-.05h-.01c-.11 0-.211.02-.312.06a27.783 27.783 0 01-3.355 1.15.834.834 0 00-.463.366.729.729 0 00-.07.56.803.803 0 00.987.529 31.07 31.07 0 003.546-1.221c.1-.04.181-.102.262-.173a.645.645 0 00.16-.244.688.688 0 000-.57 1.094 1.094 0 00-.18-.244zm6.014-3.082a.712.712 0 00-.221-.204.861.861 0 00-.615-.112.857.857 0 00-.242.092l-.04.03c-.504.336-1.028.672-1.541.977a.747.747 0 00-.232.203.926.926 0 00-.131.265.678.678 0 00-.01.285.66.66 0 00.11.274.61.61 0 00.212.214.77.77 0 00.282.122c.1.02.212.03.313.01a1 1 0 00.292-.102c.544-.325 1.078-.67 1.612-1.017a.71.71 0 00.211-.213.659.659 0 00.111-.275.585.585 0 00-.01-.295.453.453 0 00-.1-.254zm14.86-17.782c.333.143.685.204 1.058.204.182 0 .363-.02.544-.051l12.493-2.441a25.43 25.43 0 0112.11.6l4.443 1.332c.171.051.362.04.524-.02a.79.79 0 00.403-.315.733.733 0 00.11-.479.73.73 0 00-.221-.437l-.675-.661c-3.133-3.042-7.053-5.28-11.324-6.46a27.172 27.172 0 00-13.158-.335l-2.04.462.383 1.475 2.04-.462a25.047 25.047 0 015.501-.61h.01c5.128 0 10.065 1.515 14.246 4.384l-.252.549a27.273 27.273 0 00-12.422-.498l-12.493 2.44a1.384 1.384 0 01-.212.021c-.11 0-.221-.02-.322-.05a1.19 1.19 0 01-.463-.275l-2.308-2.33a.982.982 0 01-.272-.488.963.963 0 01.021-.56c.05-.183.161-.346.302-.478.141-.122.312-.213.504-.254l4.08-.926-.383-1.475-4.08.926a2.743 2.743 0 00-1.24.64 2.712 2.712 0 00-.735 1.14c-.13.438-.141.895-.03 1.333.11.437.342.844.665 1.18l2.307 2.33c.262.254.554.457.886.59z"/></g><defs><clipPath id="clip0"><path fill="#fff" transform="translate(55 18)" d="M0 0h80v80H0z"/></clipPath></defs></svg>