<svg width="238" height="259" fill="none" xmlns="http://www.w3.org/2000/svg"><g filter="url(#filter0_d)"><path d="M24 76.75L119 24l95 52.75v105.078L119 235l-95-53.172V76.75z" fill="#764F96"/></g><path d="M107 173l-12-16.5 12-16.5h23.904L143 156.5 130.904 173H107z" fill="#fff"/><path d="M117 150l7 6.5-7 6.5" stroke="#764F96" stroke-width="2" stroke-linecap="round" stroke-linejoin="round"/><path d="M83.123 92.05h8.895V103h-2.55v-8.895h-3.795V103h-2.55V92.05zm11.567 4.095c.71-.73 1.69-1.095 2.94-1.095s2.225.365 2.925 1.095c.71.72 1.065 1.705 1.065 2.955s-.355 2.24-1.065 2.97c-.7.72-1.675 1.08-2.925 1.08-1.25 0-2.23-.36-2.94-1.08-.71-.73-1.065-1.72-1.065-2.97 0-1.25.355-2.235 1.065-2.955zm2.94 5.25c1.08 0 1.62-.765 1.62-2.295 0-1.53-.54-2.295-1.62-2.295-1.09 0-1.635.765-1.635 2.295 0 1.53.545 2.295 1.635 2.295zM110.751 103h-2.46v-6.03h-1.785v2.22c0 1.41-.295 2.4-.885 2.97-.59.57-1.675.9-3.255.99l-.12-1.77c.78-.05 1.285-.225 1.515-.525.24-.3.36-.95.36-1.95V95.2h6.63v7.8zm1.928 3.45l-.18-1.83c.85 0 1.465-.115 1.845-.345.39-.23.685-.655.885-1.275l-3.03-7.8h2.655l1.47 5.505h.03l1.605-5.505h2.535l-2.925 7.905c-.46 1.24-1.055 2.105-1.785 2.595-.73.5-1.765.75-3.105.75zm13.821-5.835c-.49.22-1.06.33-1.71.33-1.13 0-1.925-.2-2.385-.6-.45-.4-.675-1.09-.675-2.07V95.2h2.37v2.595c0 .58.07.95.21 1.11.14.16.445.24.915.24.49 0 .915-.1 1.275-.3V95.2h2.4v7.8h-2.4v-2.385zm6.789-5.415v4.485h.015l2.61-4.485h2.43v7.8h-2.4v-4.485h-.03l-2.61 4.485h-2.43v-7.8h2.415zm13.978 1.83h-2.445V103h-2.505v-5.97h-2.445V95.2h7.395v1.83zm1.536-1.83h2.4v2.07c.3-.06.625-.09.975-.09 1.07 0 1.9.265 2.49.795.59.52.885 1.23.885 2.13 0 1.03-.32 1.795-.96 2.295-.64.5-1.645.75-3.015.75-.98 0-1.905-.075-2.775-.225V95.2zm2.4 3.765v2.4c.2.06.405.09.615.09.5 0 .865-.11 1.095-.33.23-.22.345-.56.345-1.02 0-.39-.125-.69-.375-.9-.24-.22-.6-.33-1.08-.33-.22 0-.42.03-.6.09zM66.376 120.23l2.145-3.03h2.82l-2.97 3.735 3.09 4.065h-2.805l-2.28-3.345h-.03V125h-2.46v-7.8h2.46v3.03h.03zm7.162-2.085c.71-.73 1.69-1.095 2.94-1.095s2.225.365 2.925 1.095c.71.72 1.065 1.705 1.065 2.955s-.355 2.24-1.065 2.97c-.7.72-1.675 1.08-2.925 1.08-1.25 0-2.23-.36-2.94-1.08-.71-.73-1.065-1.72-1.065-2.97 0-1.25.355-2.235 1.065-2.955zm2.94 5.25c1.08 0 1.62-.765 1.62-2.295 0-1.53-.54-2.295-1.62-2.295-1.09 0-1.635.765-1.635 2.295 0 1.53.545 2.295 1.635 2.295zm7.9-1.59V125h-2.46v-7.8h2.46v2.895h2.536V117.2h2.46v7.8h-2.46v-3.195h-2.535zm12.87 1.035l.524 1.74c-.82.38-1.695.57-2.625.57-1.32 0-2.37-.36-3.15-1.08-.78-.73-1.17-1.72-1.17-2.97 0-1.26.38-2.25 1.14-2.97.76-.72 1.82-1.08 3.18-1.08.93 0 1.805.19 2.625.57l-.525 1.77a3.827 3.827 0 00-1.965-.555c-.64 0-1.14.195-1.5.585-.35.38-.525.94-.525 1.68 0 .71.185 1.27.555 1.68.38.41.87.615 1.47.615.68 0 1.335-.185 1.965-.555zm2.306 5.61l-.18-1.83c.85 0 1.465-.115 1.845-.345.39-.23.685-.655.885-1.275l-3.03-7.8h2.655l1.47 5.505h.03l1.605-5.505h2.535l-2.925 7.905c-.46 1.24-1.055 2.105-1.785 2.595-.73.5-1.765.75-3.105.75zm16.881-3.45h-2.46v-6.03h-1.785v2.22c0 1.41-.295 2.4-.885 2.97-.59.57-1.675.9-3.255.99l-.12-1.77c.78-.05 1.285-.225 1.515-.525.24-.3.36-.95.36-1.95V117.2h6.63v7.8zm1.973-7.8h2.4v2.07c.3-.06.625-.09.975-.09 1.07 0 1.9.265 2.49.795.59.52.885 1.23.885 2.13 0 1.03-.32 1.795-.96 2.295-.64.5-1.645.75-3.015.75-.98 0-1.905-.075-2.775-.225V117.2zm2.4 3.765v2.4c.2.06.405.09.615.09.5 0 .865-.11 1.095-.33.23-.22.345-.56.345-1.02 0-.39-.125-.69-.375-.9-.24-.22-.6-.33-1.08-.33-.22 0-.42.03-.6.09zm12.748-1.935h-2.445V125h-2.505v-5.97h-2.445v-1.83h7.395v1.83zm4.912-1.98c1.25 0 2.14.24 2.67.72.54.47.81 1.245.81 2.325v2.805c0 .72.075 1.42.225 2.1h-2.28c-.08-.45-.13-.815-.15-1.095h-.03c-.27.38-.635.685-1.095.915-.45.22-.925.33-1.425.33-.75 0-1.35-.21-1.8-.63-.45-.42-.675-.995-.675-1.725 0-.86.365-1.55 1.095-2.07.74-.52 1.8-.78 3.18-.78h.555v-.03c0-.44-.09-.745-.27-.915-.17-.17-.475-.255-.915-.255-1.02 0-1.995.225-2.925.675l-.315-1.695c1.01-.45 2.125-.675 3.345-.675zm-1.56 5.52c0 .27.08.48.24.63.17.15.395.225.675.225.5 0 .91-.155 1.23-.465.33-.31.495-.705.495-1.185v-.36h-.555c-.68 0-1.2.105-1.56.315-.35.21-.525.49-.525.84zm14.561.765h1.56v3.465h-2.16V125h-6.87v-7.8h2.445v6.135h2.58V117.2h2.445v6.135zm5.36-6.135v4.485h.015l2.61-4.485h2.43v7.8h-2.4v-4.485h-.03l-2.61 4.485h-2.43v-7.8h2.415zm7.033 0h2.385v3.045h.87c.14-1.01.535-1.795 1.185-2.355s1.485-.84 2.505-.84c1.16 0 2.075.36 2.745 1.08.67.71 1.005 1.7 1.005 2.97 0 1.27-.335 2.265-1.005 2.985-.67.71-1.585 1.065-2.745 1.065-1.02 0-1.855-.28-2.505-.84-.65-.56-1.045-1.345-1.185-2.355h-.87V125h-2.385v-7.8zm5.505 3.9c0 1.57.48 2.355 1.44 2.355s1.44-.785 1.44-2.355c0-1.57-.48-2.355-1.44-2.355s-1.44.785-1.44 2.355z" fill="#fff"/><defs><filter id="filter0_d" x="0" y="0" width="238" height="259" filterUnits="userSpaceOnUse" color-interpolation-filters="sRGB"><feFlood flood-opacity="0" result="BackgroundImageFix"/><feColorMatrix in="SourceAlpha" values="0 0 0 0 0 0 0 0 0 0 0 0 0 0 0 0 0 0 127 0" result="hardAlpha"/><feOffset/><feGaussianBlur stdDeviation="12"/><feColorMatrix values="0 0 0 0 0.462745 0 0 0 0 0.309804 0 0 0 0 0.588235 0 0 0 0.55 0"/><feBlend in2="BackgroundImageFix" result="effect1_dropShadow"/><feBlend in="SourceGraphic" in2="effect1_dropShadow" result="shape"/></filter></defs></svg>