<svg width="238" height="259" fill="none" xmlns="http://www.w3.org/2000/svg"><g filter="url(#filter0_d)"><path d="M24 76.75L119 24l95 52.75v105.078L119 235l-95-53.172V76.75z" fill="#FC3698"/></g><path d="M107 173l-12-16.5 12-16.5h23.904L143 156.5 130.904 173H107z" fill="#fff"/><path d="M117 150l7 6.5-7 6.5" stroke="#FC3698" stroke-width="2" stroke-linecap="round" stroke-linejoin="round"/><path d="M83.681 94.555c0 .72-.17 1.29-.51 1.71-.34.42-.905.745-1.695.975v.03c.78.1 1.37.37 1.77.81.4.44.6 1.03.6 1.77 0 1.03-.385 1.84-1.155 2.43-.77.58-1.84.87-3.21.87-1.29 0-2.55-.3-3.78-.9l.645-1.935c1.05.52 2.05.78 3 .78.65 0 1.145-.12 1.485-.36.35-.24.525-.575.525-1.005 0-.47-.225-.81-.675-1.02-.45-.21-1.265-.315-2.445-.315h-.63V96.4h.63c1.07 0 1.835-.115 2.295-.345.47-.23.705-.58.705-1.05 0-.35-.15-.61-.45-.78-.3-.18-.795-.27-1.485-.27-.78 0-1.715.275-2.805.825l-.54-1.98c1.26-.6 2.5-.9 3.72-.9 1.25 0 2.23.245 2.94.735s1.065 1.13 1.065 1.92zm4.99.495c1.25 0 2.14.24 2.67.72.54.47.81 1.245.81 2.325v2.805c0 .72.074 1.42.224 2.1h-2.28c-.08-.45-.13-.815-.15-1.095h-.03c-.27.38-.635.685-1.095.915-.45.22-.925.33-1.425.33-.75 0-1.35-.21-1.8-.63-.45-.42-.675-.995-.675-1.725 0-.86.365-1.55 1.095-2.07.74-.52 1.8-.78 3.18-.78h.555v-.03c0-.44-.09-.745-.27-.915-.17-.17-.475-.255-.915-.255-1.02 0-1.995.225-2.925.675l-.315-1.695c1.01-.45 2.125-.675 3.345-.675zm-1.56 5.52c0 .27.08.48.24.63.17.15.394.225.674.225.5 0 .91-.155 1.23-.465.33-.31.495-.705.495-1.185v-.36h-.555c-.68 0-1.2.105-1.56.315-.35.21-.525.49-.525.84zm7.09-5.37h7.47v7.8h-2.445v-6.03h-2.58V103h-2.445v-7.8zm11.864 0v4.485h.015l2.61-4.485h2.43v7.8h-2.4v-4.485h-.03L106.08 103h-2.43v-7.8h2.415zm12.928 5.64l.525 1.74c-.82.38-1.695.57-2.625.57-1.32 0-2.37-.36-3.15-1.08-.78-.73-1.17-1.72-1.17-2.97 0-1.26.38-2.25 1.14-2.97.76-.72 1.82-1.08 3.18-1.08.93 0 1.805.19 2.625.57l-.525 1.77a3.827 3.827 0 00-1.965-.555c-.64 0-1.14.195-1.5.585-.35.38-.525.94-.525 1.68 0 .71.185 1.27.555 1.68.38.41.87.615 1.47.615.68 0 1.335-.185 1.965-.555zm5.727-5.79c1.25 0 2.14.24 2.67.72.54.47.81 1.245.81 2.325v2.805c0 .72.075 1.42.225 2.1h-2.28c-.08-.45-.13-.815-.15-1.095h-.03c-.27.38-.635.685-1.095.915-.45.22-.925.33-1.425.33-.75 0-1.35-.21-1.8-.63-.45-.42-.675-.995-.675-1.725 0-.86.365-1.55 1.095-2.07.74-.52 1.8-.78 3.18-.78h.555v-.03c0-.44-.09-.745-.27-.915-.17-.17-.475-.255-.915-.255-1.02 0-1.995.225-2.925.675l-.315-1.695c1.01-.45 2.125-.675 3.345-.675zm-1.56 5.52c0 .27.08.48.24.63.17.15.395.225.675.225.5 0 .91-.155 1.23-.465.33-.31.495-.705.495-1.185v-.36h-.555c-.68 0-1.2.105-1.56.315-.35.21-.525.49-.525.84zm14.036-3.54h-2.445V103h-2.505v-5.97h-2.445V95.2h7.395v1.83zm1.537-1.83h2.4v2.07c.3-.06.625-.09.975-.09 1.07 0 1.9.265 2.49.795.59.52.885 1.23.885 2.13 0 1.03-.32 1.795-.96 2.295-.64.5-1.645.75-3.015.75-.98 0-1.905-.075-2.775-.225V95.2zm2.4 3.765v2.4c.2.06.405.09.615.09.5 0 .865-.11 1.095-.33.23-.22.345-.56.345-1.02 0-.39-.125-.69-.375-.9-.24-.22-.6-.33-1.08-.33-.22 0-.42.03-.6.09zm11.698 1.875l.525 1.74c-.82.38-1.695.57-2.625.57-1.32 0-2.37-.36-3.15-1.08-.78-.73-1.17-1.72-1.17-2.97 0-1.26.38-2.25 1.14-2.97.76-.72 1.82-1.08 3.18-1.08.93 0 1.805.19 2.625.57l-.525 1.77a3.827 3.827 0 00-1.965-.555c-.64 0-1.14.195-1.5.585-.35.38-.525.94-.525 1.68 0 .71.185 1.27.555 1.68.38.41.87.615 1.47.615.68 0 1.335-.185 1.965-.555zm3.912-1.32v-.015a2.84 2.84 0 01-1.32-.78c-.34-.38-.51-.805-.51-1.275 0-1.57 1.24-2.355 3.72-2.355 1.07 0 2.09.055 3.06.165V103h-2.415v-2.745h-.405c-.31 0-.52.04-.63.12-.11.08-.235.27-.375.57l-.84 2.055h-2.37l.96-2.16c.29-.67.665-1.11 1.125-1.32zm2.535-.915V96.82c-.26-.02-.44-.03-.54-.03-1.01 0-1.515.3-1.515.9 0 .28.13.505.39.675.26.16.645.24 1.155.24h.51zm-72.438 23.2V125h-2.46v-7.8h2.46v2.895h2.535V117.2h2.46v7.8h-2.46v-3.195H86.84zm10.348-4.755c1.25 0 2.14.24 2.67.72.54.47.81 1.245.81 2.325v2.805c0 .72.075 1.42.225 2.1h-2.28c-.08-.45-.13-.815-.15-1.095h-.03c-.27.38-.635.685-1.095.915-.45.22-.925.33-1.425.33-.75 0-1.35-.21-1.8-.63-.45-.42-.675-.995-.675-1.725 0-.86.365-1.55 1.095-2.07.74-.52 1.8-.78 3.18-.78h.555v-.03c0-.44-.09-.745-.27-.915-.17-.17-.475-.255-.915-.255-1.02 0-1.995.225-2.925.675l-.315-1.695c1.01-.45 2.125-.675 3.345-.675zm-1.56 5.52c0 .27.08.48.24.63.17.15.395.225.675.225.5 0 .91-.155 1.23-.465.33-.31.495-.705.495-1.185v-.36h-.555c-.68 0-1.2.105-1.56.315-.35.21-.525.49-.525.84zm11.75-5.37h7.47v7.8h-2.445v-6.03h-2.58V125h-2.445v-7.8zm14.908 3.9c0-.73-.135-1.28-.405-1.65-.27-.37-.645-.555-1.125-.555-.46 0-.83.19-1.11.57-.28.37-.42.89-.42 1.56v.15c0 .68.14 1.205.42 1.575.28.37.65.555 1.11.555.45 0 .815-.19 1.095-.57.29-.39.435-.935.435-1.635zm2.295 0c0 1.27-.29 2.265-.87 2.985-.58.71-1.325 1.065-2.235 1.065-.91 0-1.65-.36-2.22-1.08h-.03v4.23h-2.4v-11.1h2.22l.06 1.08h.03c.63-.82 1.41-1.23 2.34-1.23.95 0 1.705.35 2.265 1.05.56.7.84 1.7.84 3zm3.947-3.9v4.485h.015l2.61-4.485h2.43v7.8h-2.4v-4.485h-.03l-2.61 4.485h-2.43v-7.8h2.415zm11.113-1.245v-2.25h2.19v2.25h-2.19zm-3.3 0v-2.25h2.19v2.25h-2.19zm1.065 4.455h3.09c-.01-1.15-.52-1.725-1.53-1.725-.46 0-.825.15-1.095.45-.27.29-.425.715-.465 1.275zm.015 1.485c.07.49.275.875.615 1.155.35.27.8.405 1.35.405.74 0 1.465-.18 2.175-.54l.525 1.635c-.89.4-1.865.6-2.925.6-1.24 0-2.24-.365-3-1.095-.75-.73-1.125-1.715-1.125-2.955 0-1.25.35-2.235 1.05-2.955.7-.73 1.64-1.095 2.82-1.095 1.21 0 2.15.35 2.82 1.05.67.69 1.005 1.68 1.005 2.97 0 .31-.02.585-.06.825h-5.25zm13.801-1.395l-1.32 2.715h-1.95l-1.335-2.715h-.015v4.5h-2.34v-7.8h2.58l2.07 4.335h.03l2.07-4.335h2.61v7.8h-2.37v-4.5h-.03z" fill="#fff"/><defs><filter id="filter0_d" x="0" y="0" width="238" height="259" filterUnits="userSpaceOnUse" color-interpolation-filters="sRGB"><feFlood flood-opacity="0" result="BackgroundImageFix"/><feColorMatrix in="SourceAlpha" values="0 0 0 0 0 0 0 0 0 0 0 0 0 0 0 0 0 0 127 0" result="hardAlpha"/><feOffset/><feGaussianBlur stdDeviation="12"/><feColorMatrix values="0 0 0 0 0.988235 0 0 0 0 0.211765 0 0 0 0 0.596078 0 0 0 0.55 0"/><feBlend in2="BackgroundImageFix" result="effect1_dropShadow"/><feBlend in="SourceGraphic" in2="effect1_dropShadow" result="shape"/></filter></defs></svg>