<svg width="190" height="211" fill="none" xmlns="http://www.w3.org/2000/svg"><path d="M0 52.75L95 0l95 52.75v105.078L95 211 0 157.828V52.75z" fill="#fff"/><path d="M35.104 108.05h1.23V119h-1.17v-9h-.03l-5.7 9H28.19v-10.95h1.185v9h.03l5.7-9zm7.048 3.915c-.88 0-1.565.275-2.055.825-.49.54-.735 1.31-.735 2.31 0 .96.255 1.725.765 2.295.52.57 1.195.855 2.025.855.7 0 1.37-.17 2.01-.51l.3.885c-.75.35-1.535.525-2.355.525-1.16 0-2.1-.365-2.82-1.095-.72-.74-1.08-1.725-1.08-2.955 0-1.27.345-2.26 1.035-2.97.69-.72 1.645-1.08 2.865-1.08.82 0 1.605.175 2.355.525l-.3.915c-.67-.35-1.34-.525-2.01-.525zm7.837 0c-.88 0-1.565.275-2.055.825-.49.54-.735 1.31-.735 2.31 0 .96.255 1.725.765 2.295.52.57 1.195.855 2.025.855.7 0 1.37-.17 2.01-.51l.3.885c-.75.35-1.535.525-2.355.525-1.16 0-2.1-.365-2.82-1.095-.72-.74-1.08-1.725-1.08-2.955 0-1.27.345-2.26 1.035-2.97.69-.72 1.645-1.08 2.865-1.08.82 0 1.605.175 2.355.525l-.3.915c-.67-.35-1.34-.525-2.01-.525zm5.017 2.685h4.8c-.01-.87-.22-1.54-.63-2.01-.41-.47-.975-.705-1.695-.705-.75 0-1.345.24-1.785.72-.43.47-.66 1.135-.69 1.995zm0 .87c.02.85.28 1.52.78 2.01.5.49 1.15.735 1.95.735.77 0 1.535-.2 2.295-.6l.3.855c-.84.42-1.74.63-2.7.63-1.12 0-2.025-.365-2.715-1.095s-1.035-1.715-1.035-2.955c0-1.26.32-2.25.96-2.97.65-.72 1.53-1.08 2.64-1.08 1.08 0 1.915.345 2.505 1.035.6.68.9 1.66.9 2.94 0 .13-.01.295-.03.495h-5.85zm8.862-1.02l3.765-3.3h1.44l-4.335 3.735L69.193 119h-1.425l-3.9-3.615h-.015V119h-1.17v-7.8h1.17v3.3h.015zm9.97-3.45c1.09 0 1.87.225 2.34.675.47.45.705 1.19.705 2.22v2.955c0 .71.075 1.41.225 2.1h-1.05a8.56 8.56 0 01-.15-1.38h-.03c-.27.48-.66.855-1.17 1.125-.51.27-1.085.405-1.725.405-.72 0-1.295-.2-1.725-.6-.43-.41-.645-.96-.645-1.65 0-.87.38-1.56 1.14-2.07.76-.52 1.84-.78 3.24-.78h.795v-.075c0-.76-.145-1.285-.435-1.575-.28-.3-.785-.45-1.515-.45-.94 0-1.815.23-2.625.69l-.195-.885c.86-.47 1.8-.705 2.82-.705zm-2.145 5.805c0 .45.14.805.42 1.065.28.25.655.375 1.125.375.69 0 1.285-.245 1.785-.735.51-.5.765-1.11.765-1.83v-.84h-.795c-1.05 0-1.865.18-2.445.54-.57.35-.855.825-.855 1.425zm8.113-2.205h4.8c-.01-.87-.22-1.54-.63-2.01-.41-.47-.975-.705-1.695-.705-.75 0-1.345.24-1.785.72-.43.47-.66 1.135-.69 1.995zm0 .87c.02.85.28 1.52.78 2.01.5.49 1.15.735 1.95.735.77 0 1.535-.2 2.295-.6l.3.855c-.84.42-1.74.63-2.7.63-1.12 0-2.025-.365-2.715-1.095s-1.035-1.715-1.035-2.955c0-1.26.32-2.25.96-2.97.65-.72 1.53-1.08 2.64-1.08 1.08 0 1.915.345 2.505 1.035.6.68.9 1.66.9 2.94 0 .13-.01.295-.03.495h-5.85zm14.111-3.405h-2.85V119h-1.185v-6.885h-2.85v-.915h6.885v.915zm7.288 5.355h.03l4.44-6.27h1.23v7.8h-1.14v-6.27h-.015l-4.455 6.27h-1.23v-7.8h1.14v6.27zm10.372-5.55c-.77 0-1.6.175-2.49.525l-.27-.84c.94-.37 1.89-.555 2.85-.555 1.07 0 1.91.18 2.52.54.61.36.915.82.915 1.38 0 .41-.17.785-.51 1.125-.33.34-.81.58-1.44.72v.03c.69.12 1.205.375 1.545.765.35.38.525.81.525 1.29 0 .7-.31 1.25-.93 1.65-.61.4-1.485.6-2.625.6-.98 0-1.965-.185-2.955-.555l.27-.84c.91.33 1.79.495 2.64.495 1.63 0 2.445-.49 2.445-1.47 0-.5-.255-.875-.765-1.125s-1.35-.375-2.52-.375h-.66v-.885h.66c2.11 0 3.165-.425 3.165-1.275 0-.8-.79-1.2-2.37-1.2zm6.711 3.12v-3.84h5.775v7.8h-1.11v-6.87h-3.585v3.09c0 1.49-.215 2.5-.645 3.03-.43.53-1.25.83-2.46.9l-.06-.93c.58-.03 1.005-.125 1.275-.285.28-.16.485-.455.615-.885.13-.44.195-1.11.195-2.01zm9.167 2.43h.03l4.44-6.27h1.23v7.8h-1.14v-6.27H132l-4.455 6.27h-1.23v-7.8h1.14v6.27zm17.107 1.53h-9.15v-7.8h1.08v6.87h2.97v-6.87h1.05v6.87h2.97v-6.87h1.08v7.8zm3.432-4.5l3.765-3.3h1.44l-4.335 3.735 4.455 4.065h-1.425l-3.9-3.615h-.015V119h-1.17v-7.8h1.17v3.3h.015zm8.26 2.97h.03l4.44-6.27h1.23v7.8h-1.14v-6.27h-.015l-4.455 6.27h-1.23v-7.8h1.14v6.27zM37.72 136.5l3.765-3.3h1.44l-4.335 3.735L43.045 141H41.62l-3.9-3.615h-.015V141h-1.17v-7.8h1.17v3.3h.015zm12.13-1.71c-.45-.56-1.07-.84-1.86-.84s-1.414.28-1.874.84c-.45.55-.675 1.32-.675 2.31s.225 1.765.675 2.325c.46.55 1.085.825 1.875.825s1.41-.275 1.86-.825c.46-.56.69-1.335.69-2.325 0-.99-.23-1.76-.69-2.31zm.81 5.265c-.67.73-1.56 1.095-2.67 1.095-1.11 0-2-.365-2.67-1.095-.67-.73-1.004-1.715-1.004-2.955s.335-2.225 1.005-2.955c.67-.73 1.56-1.095 2.67-1.095 1.11 0 2 .365 2.67 1.095.67.73 1.005 1.715 1.005 2.955s-.335 2.225-1.005 2.955zm6.756.945v-3.6h-.795l-2.43 3.6h-1.17l2.745-4.08-2.67-3.72h1.185l2.34 3.27h.794v-3.27h1.11v3.27h.796l2.34-3.27h1.184l-2.67 3.72L62.92 141h-1.17l-2.43-3.6h-.794v3.6h-1.11zm8.516-1.53h.03l4.44-6.27h1.23v7.8h-1.14v-6.27h-.015L66.022 141h-1.23v-7.8h1.14v6.27zm13.477-2.22V141h-1.17v-7.8h1.17v3.18h4.425v-3.18h1.17v7.8h-1.17v-3.75H79.41zm10.689-4.2c1.09 0 1.87.225 2.34.675.47.45.705 1.19.705 2.22v2.955c0 .71.075 1.41.225 2.1h-1.05a8.56 8.56 0 01-.15-1.38h-.03c-.27.48-.66.855-1.17 1.125-.51.27-1.085.405-1.725.405-.72 0-1.295-.2-1.725-.6-.43-.41-.645-.96-.645-1.65 0-.87.38-1.56 1.14-2.07.76-.52 1.84-.78 3.24-.78h.795v-.075c0-.76-.145-1.285-.435-1.575-.28-.3-.785-.45-1.515-.45-.94 0-1.815.23-2.625.69l-.195-.885c.86-.47 1.8-.705 2.82-.705zm-2.145 5.805c0 .45.14.805.42 1.065.28.25.655.375 1.125.375.69 0 1.285-.245 1.785-.735.51-.5.765-1.11.765-1.83v-.84h-.795c-1.05 0-1.865.18-2.445.54-.57.35-.855.825-.855 1.425zm13.033-1.605V141h-1.17v-7.8h1.17v3.18h4.425v-3.18h1.17v7.8h-1.17v-3.75h-4.425zm8.979 2.22h.03l4.44-6.27h1.23v7.8h-1.14v-6.27h-.015l-4.455 6.27h-1.23v-7.8h1.14v6.27zm11.977 1.53v-3.6h-.795l-2.43 3.6h-1.17l2.745-4.08-2.67-3.72h1.185l2.34 3.27h.795v-3.27h1.11v3.27h.795l2.34-3.27h1.185l-2.67 3.72 2.745 4.08h-1.17l-2.43-3.6h-.795v3.6h-1.11zm8.546-3.75V141h-1.17v-7.8h1.17v3.18h4.425v-3.18h1.17v7.8h-1.17v-3.75h-4.425zm8.979 2.22h.03l4.44-6.27h1.23v7.8h-1.14v-6.27h-.015l-4.455 6.27h-1.23v-7.8h1.14v6.27zm10.987-3.165h.03l2.04-3.105h1.245l-2.655 3.84 2.73 3.96h-1.29l-2.115-3.24h-.03l-2.1 3.24h-1.26l2.745-3.96-2.67-3.84h1.29l2.04 3.105zM76.838 162.22c.37.06.775.09 1.215.09 1.67 0 2.505-.545 2.505-1.635 0-.99-.885-1.485-2.655-1.485h-1.065v3.03zm0-3.78h1.05c.72 0 1.28-.12 1.68-.36.4-.24.6-.57.6-.99 0-.8-.735-1.2-2.205-1.2-.39 0-.765.03-1.125.09v2.46zm4.83 2.31c0 1.57-1.22 2.355-3.66 2.355-.89 0-1.66-.055-2.31-.165v-7.68c.71-.11 1.44-.165 2.19-.165 1.21 0 2.07.18 2.58.54.52.35.78.8.78 1.35 0 .45-.155.83-.465 1.14-.31.3-.745.51-1.305.63v.015c.71.11 1.25.34 1.62.69.38.34.57.77.57 1.29zm2.393-2.1h4.8c-.01-.87-.22-1.54-.63-2.01-.41-.47-.975-.705-1.695-.705-.75 0-1.345.24-1.785.72-.43.47-.66 1.135-.69 1.995zm0 .87c.02.85.28 1.52.78 2.01.5.49 1.15.735 1.95.735.77 0 1.535-.2 2.295-.6l.3.855c-.84.42-1.74.63-2.7.63-1.12 0-2.025-.365-2.715-1.095s-1.035-1.715-1.035-2.955c0-1.26.32-2.25.96-2.97.65-.72 1.53-1.08 2.64-1.08 1.08 0 1.915.345 2.505 1.035.6.68.9 1.66.9 2.94 0 .13-.01.295-.03.495h-5.85zm8.862-1.02l3.765-3.3h1.44l-4.335 3.735L98.248 163h-1.425l-3.9-3.615h-.015V163h-1.17v-7.8h1.17v3.3h.015zm9.97-3.45c1.09 0 1.87.225 2.34.675.47.45.705 1.19.705 2.22v2.955c0 .71.075 1.41.225 2.1h-1.05a8.56 8.56 0 01-.15-1.38h-.03c-.27.48-.66.855-1.17 1.125-.51.27-1.085.405-1.725.405-.72 0-1.295-.2-1.725-.6-.43-.41-.645-.96-.645-1.65 0-.87.38-1.56 1.14-2.07.76-.52 1.84-.78 3.24-.78h.795v-.075c0-.76-.145-1.285-.435-1.575-.28-.3-.785-.45-1.515-.45-.94 0-1.815.23-2.625.69l-.195-.885c.86-.47 1.8-.705 2.82-.705zm-2.145 5.805c0 .45.14.805.42 1.065.28.25.655.375 1.125.375.69 0 1.285-.245 1.785-.735.51-.5.765-1.11.765-1.83v-.84h-.795c-1.05 0-1.865.18-2.445.54-.57.35-.855.825-.855 1.425zm10.543-2.55h.03l2.04-3.105h1.245l-2.655 3.84 2.73 3.96h-1.29l-2.115-3.24h-.03l-2.1 3.24h-1.26l2.745-3.96-2.67-3.84h1.29l2.04 3.105z" fill="#000"/><path d="M74.476 68.49a22.42 22.42 0 01-.349-1.586.842.842 0 10-1.654.303c.103.57.23 1.145.375 1.706a.842.842 0 101.628-.423zM92 84.923a22.294 22.294 0 01-3.057-.807.843.843 0 00-.543 1.595c1.07.366 2.177.658 3.289.869A.842.842 0 0092 84.924zm17.924-4.313a22.482 22.482 0 01-2.63 1.762.843.843 0 00.834 1.463 24.261 24.261 0 002.827-1.893.843.843 0 00.149-1.183.84.84 0 00-1.18-.15zm-31.211-3.683a.84.84 0 00-1.183-.128.844.844 0 00-.127 1.185 24.283 24.283 0 002.313 2.497.837.837 0 001.188-.04.844.844 0 00-.039-1.19 22.705 22.705 0 01-2.152-2.324zm-3.229-5.433a.84.84 0 10-1.552.65 24.2 24.2 0 001.53 3.043.84.84 0 101.445-.862 22.527 22.527 0 01-1.423-2.831zm28.959 12.251c-.979.388-1.994.709-3.018.954a.843.843 0 00.392 1.64 23.966 23.966 0 003.245-1.027.843.843 0 00-.619-1.567zm-18.412-.862a22.52 22.52 0 01-2.71-1.634.84.84 0 00-1.172.206.844.844 0 00.205 1.174 24.182 24.182 0 002.914 1.756.84.84 0 001.131-.369.843.843 0 00-.368-1.133zm12.275 2.333a22.864 22.864 0 01-3.163.074.842.842 0 00-.077 1.684 24.786 24.786 0 003.396-.08.842.842 0 00-.156-1.678zm20.056-15.226a.84.84 0 00-1.077.505c-.358.99-.791 1.963-1.285 2.894a.843.843 0 00.741 1.24.84.84 0 00.743-.447 23.935 23.935 0 001.382-3.113.843.843 0 00-.504-1.08zm-2.866 5.9a.84.84 0 00-1.176.184 22.571 22.571 0 01-2.038 2.422.844.844 0 00.603 1.43.837.837 0 00.603-.255 24.298 24.298 0 002.191-2.604.844.844 0 00-.183-1.177zm3.969-12.37a.842.842 0 00-.893.787 22.64 22.64 0 01-.425 3.14.843.843 0 00.824 1.015c.39 0 .74-.274.823-.671a24.34 24.34 0 00.456-3.376.841.841 0 00-.785-.895zm-.005-4.994a.842.842 0 00-.842.843v1.685a.842.842 0 101.683 0V59.37a.842.842 0 00-.841-.843zm-24.275 6.067c2.952 0 5.354-2.407 5.354-5.366 0-2.959-2.402-5.365-5.354-5.365a5.33 5.33 0 00-.628.038 3.294 3.294 0 00-1.467-.343 3.328 3.328 0 00-3.122 4.463c-.091.396-.138.8-.138 1.207 0 2.959 2.402 5.366 5.355 5.366zm3.672-5.366a3.68 3.68 0 01-3.672 3.68 3.68 3.68 0 01-3.621-3.069c.457.238.976.374 1.526.374a3.328 3.328 0 003.097-4.524 3.685 3.685 0 012.67 3.539zm-5.767-3.985a1.642 1.642 0 010 3.284 1.642 1.642 0 010-3.284z" fill="#303030"/><path d="M112.829 67.613a6.502 6.502 0 00-1.695-3.432l2.193-1.692a6.923 6.923 0 011.596 2.591.843.843 0 001.069.525.844.844 0 00.523-1.07 8.629 8.629 0 00-1.846-3.081l1.138-.878a1.93 1.93 0 00.753-1.5 1.926 1.926 0 00-.699-1.524c-.619-.515-1.254-1-1.904-1.458a7.725 7.725 0 001.833-1.782l3.155 2.037a.841.841 0 001.163-.252.844.844 0 00-.252-1.165l-3.221-2.08c.191-.43.345-.88.456-1.346l.173-.73a.84.84 0 10-1.636-.39l-.174.73a6.007 6.007 0 01-.254.809l-1.04-.671a33.056 33.056 0 00-2.58-1.505 7.444 7.444 0 00.065-1.544l-.047-.73a.842.842 0 10-1.679.109l.047.729c.014.217.015.433.004.649a32.971 32.971 0 00-4.472-1.663 8.398 8.398 0 00-.052-1.442l-.07-.563a.843.843 0 00-.939-.733.843.843 0 00-.731.94l.07.565c.033.264.049.529.051.792a33.164 33.164 0 00-5.56-.821c-.01-.29-.033-.58-.068-.868l-.053-.43a.843.843 0 00-.937-.733.842.842 0 00-.732.94l.052.429c.025.2.04.4.05.6a33.004 33.004 0 00-12.66 2.37l-10.666 4.283a.843.843 0 00.625 1.564l10.667-4.282a31.324 31.324 0 0111.954-2.25 8.613 8.613 0 01-1.02 2.986 29.943 29.943 0 00-14.694 4.561l-7.654 4.796a1.809 1.809 0 00-.844 1.69c.057.68.483 1.265 1.113 1.526l3.015 1.247 4.542 2.772a.84.84 0 001.156-.281.844.844 0 00-.28-1.159l-2.505-1.528-.197-.834a8.85 8.85 0 01.218-4.838l.212-.636 2.116-1.326a28.422 28.422 0 015.87-2.802 9.359 9.359 0 00-1.706 5.393c0 5.163 4.192 9.363 9.344 9.363a9.334 9.334 0 009.193-7.697.84.84 0 10-1.655-.298 7.654 7.654 0 01-7.538 6.31c-4.225 0-7.662-3.445-7.662-7.678a7.677 7.677 0 013.28-6.297 28.228 28.228 0 017.827-.56 7.656 7.656 0 013.987 4.987.84.84 0 101.632-.41 9.348 9.348 0 00-2.262-4.143c4.599.875 9.013 2.9 12.801 6.045.08.067.091.152.09.197a.246.246 0 01-.097.194l-7.6 5.863a21.476 21.476 0 01-22.208 2.457.844.844 0 00-.711 1.528 23.13 23.13 0 0012.297 2.04l.218-.026c.109.538.065 1.1-.134 1.614a.843.843 0 00.784 1.149.841.841 0 00.784-.538 4.59 4.59 0 00.23-2.483c1.094-.21 2.17-.5 3.218-.864.213.632.282 1.306.195 1.97a.843.843 0 00.835.952.841.841 0 00.833-.734 6.087 6.087 0 00-.292-2.799 23.148 23.148 0 002.46-1.24 4.255 4.255 0 011.119 2.677.843.843 0 00.88.802.842.842 0 00.8-.882 5.941 5.941 0 00-1.359-3.506c.365-.25.725-.51 1.077-.781l1.584-1.222a4.81 4.81 0 011.378 2.664.84.84 0 101.66-.268zM77.344 63.06l-.11-.068a.825.825 0 00-.117-.059l-3.075-1.272a.12.12 0 01-.079-.109.12.12 0 01.06-.12l3.402-2.132a10.531 10.531 0 00-.08 3.76zm35.904-10.39l1.126.727a6.071 6.071 0 01-1.967 1.674 29.86 29.86 0 00-2.601-1.431 7.598 7.598 0 001.333-2.217c.716.387 1.42.802 2.109 1.247zm-3.618-2.01a5.88 5.88 0 01-1.448 2.248 29.942 29.942 0 00-4.086-1.361 8.346 8.346 0 001.149-2.566 31.33 31.33 0 014.385 1.68zm-6.009-2.118a6.666 6.666 0 01-1.324 2.605 29.916 29.916 0 00-4.926-.52c.413-.923.688-1.905.817-2.907 1.829.115 3.647.39 5.433.822z" fill="#303030"/><path d="M123.732 43.858a35.453 35.453 0 00-19.325-12.744 35.417 35.417 0 00-23.06 1.88l-12.715 5.58a2.705 2.705 0 00-1.456 1.538 2.712 2.712 0 00.083 2.119l1.44 3.076a2.71 2.71 0 003.383 1.41l15.26-5.477a37.282 37.282 0 0116.273-1.988.842.842 0 00.17-1.677 38.967 38.967 0 00-17.011 2.078l-15.26 5.478a1.036 1.036 0 01-1.293-.54l-1.439-3.075a1.037 1.037 0 01-.031-.81c.1-.266.297-.475.556-.588l12.715-5.58a33.737 33.737 0 0121.968-1.79 33.775 33.775 0 0117.25 10.714l-4.244-2.093a38.759 38.759 0 00-9.562-3.245.844.844 0 00-.328 1.653 37.069 37.069 0 019.147 3.104l5.902 2.91a1.27 1.27 0 001.554-.339c.379-.464.389-1.12.023-1.594zM71.304 77.553a.84.84 0 00-1.154 0l-1.819 1.72a.844.844 0 00-.034 1.192.84.84 0 001.189.034l.4-.378v2.791a.842.842 0 101.682 0v-2.791l.4.379a.837.837 0 001.189-.035.844.844 0 00-.034-1.191l-1.819-1.72zm16.276-3.565a.84.84 0 00-1.167.227l-1.559 2.314-.12-.538a.841.841 0 10-1.641.368l.546 2.445a.842.842 0 00.957.648l2.468-.407a.843.843 0 00-.272-1.663l-.543.09 1.558-2.314a.844.844 0 00-.227-1.17zm19.857 4.816l.546-2.445a.842.842 0 10-1.641-.368l-.121.538-1.558-2.314a.84.84 0 10-1.394.943l1.558 2.314-.543-.09a.841.841 0 00-.272 1.663l2.467.407a.843.843 0 00.958-.648z" fill="#303030"/></svg>