<svg width="190" height="211" fill="none" xmlns="http://www.w3.org/2000/svg"><path d="M0 52.75L95 0l95 52.75v105.078L95 211 0 157.828V52.75z" fill="#fff"/><path d="M53.636 108.05l3.21 6.645h.03l3.135-6.645h1.365l-3.78 7.695c-.65 1.31-1.35 2.205-2.1 2.685-.74.48-1.79.72-3.15.72l-.075-1.005c1.11 0 1.94-.155 2.49-.465.55-.32 1.045-.93 1.485-1.83l-4.02-7.8h1.41zm12.73 3.915c-.88 0-1.565.275-2.055.825-.49.54-.735 1.31-.735 2.31 0 .96.255 1.725.765 2.295.52.57 1.195.855 2.025.855.7 0 1.37-.17 2.01-.51l.3.885c-.75.35-1.535.525-2.355.525-1.16 0-2.1-.365-2.82-1.095-.72-.74-1.08-1.725-1.08-2.955 0-1.27.345-2.26 1.035-2.97.69-.72 1.645-1.08 2.865-1.08.82 0 1.605.175 2.355.525l-.3.915c-.67-.35-1.34-.525-2.01-.525zm10.852.15h-2.85V119h-1.185v-6.885h-2.85v-.915h6.885v.915zm5.443 7.035c-1.13 0-1.97-.455-2.52-1.365h-.03v4.515h-1.095v-11.1h1.05l.015 1.32h.03c.55-.98 1.4-1.47 2.55-1.47.98 0 1.75.35 2.31 1.05.56.69.84 1.69.84 3 0 1.28-.29 2.275-.87 2.985-.57.71-1.33 1.065-2.28 1.065zm2.07-4.05c0-1.02-.205-1.8-.615-2.34-.4-.54-.965-.81-1.695-.81-.69 0-1.25.27-1.68.81-.42.54-.63 1.285-.63 2.235v.21c0 .97.215 1.72.645 2.25.43.53.985.795 1.665.795.71 0 1.27-.27 1.68-.81.42-.55.63-1.33.63-2.34zm5.733-4.05c1.09 0 1.87.225 2.34.675.47.45.705 1.19.705 2.22v2.955c0 .71.075 1.41.225 2.1h-1.05a8.56 8.56 0 01-.15-1.38h-.03c-.27.48-.66.855-1.17 1.125-.51.27-1.085.405-1.725.405-.72 0-1.295-.2-1.725-.6-.43-.41-.645-.96-.645-1.65 0-.87.38-1.56 1.14-2.07.76-.52 1.84-.78 3.24-.78h.795v-.075c0-.76-.145-1.285-.435-1.575-.28-.3-.785-.45-1.515-.45-.94 0-1.815.23-2.625.69l-.195-.885c.86-.47 1.8-.705 2.82-.705zm-2.145 5.805c0 .45.14.805.42 1.065.28.25.655.375 1.125.375.69 0 1.285-.245 1.785-.735.51-.5.765-1.11.765-1.83v-.84h-.795c-1.05 0-1.865.18-2.445.54-.57.35-.855.825-.855 1.425zm8.683-1.605V119h-1.17v-7.8h1.17v3.18h4.425v-3.18h1.17v7.8h-1.17v-3.75h-4.425zm8.439-.6h4.8c-.01-.87-.22-1.54-.63-2.01-.41-.47-.975-.705-1.695-.705-.75 0-1.345.24-1.785.72-.43.47-.66 1.135-.69 1.995zm0 .87c.02.85.28 1.52.78 2.01.5.49 1.15.735 1.95.735.77 0 1.535-.2 2.295-.6l.3.855c-.84.42-1.74.63-2.7.63-1.12 0-2.025-.365-2.715-1.095s-1.035-1.715-1.035-2.955c0-1.26.32-2.25.96-2.97.65-.72 1.53-1.08 2.64-1.08 1.08 0 1.915.345 2.505 1.035.6.68.9 1.66.9 2.94 0 .13-.01.295-.03.495h-5.85zm8.846-.27V119h-1.17v-7.8h1.17v3.18h4.425v-3.18h1.17v7.8h-1.17v-3.75h-4.425zm8.979 2.22h.03l4.44-6.27h1.23v7.8h-1.14v-6.27h-.015l-4.455 6.27h-1.23v-7.8h1.14v6.27zm8.557-2.82h4.8c-.01-.87-.22-1.54-.63-2.01-.41-.47-.975-.705-1.695-.705-.75 0-1.345.24-1.785.72-.43.47-.66 1.135-.69 1.995zm0 .87c.02.85.28 1.52.78 2.01.5.49 1.15.735 1.95.735.77 0 1.535-.2 2.295-.6l.3.855c-.84.42-1.74.63-2.7.63-1.12 0-2.025-.365-2.715-1.095s-1.035-1.715-1.035-2.955c0-1.26.32-2.25.96-2.97.65-.72 1.53-1.08 2.64-1.08 1.08 0 1.915.345 2.505 1.035.6.68.9 1.66.9 2.94 0 .13-.01.295-.03.495h-5.85zM67.955 141v-3.6h-.795l-2.43 3.6h-1.17l2.745-4.08-2.67-3.72h1.185l2.34 3.27h.795v-3.27h1.11v3.27h.795l2.34-3.27h1.185l-2.67 3.72L73.46 141h-1.17l-2.43-3.6h-.795v3.6h-1.11zm8.517-1.53h.03l4.44-6.27h1.23v7.8h-1.14v-6.27h-.016L76.561 141h-1.23v-7.8h1.14v6.27zm11.601 1.68c-1.13 0-1.97-.455-2.52-1.365h-.03v4.515h-1.095v-11.1h1.05l.015 1.32h.03c.55-.98 1.4-1.47 2.55-1.47.98 0 1.75.35 2.31 1.05.56.69.84 1.69.84 3 0 1.28-.29 2.275-.87 2.985-.57.71-1.33 1.065-2.28 1.065zm2.07-4.05c0-1.02-.205-1.8-.615-2.34-.4-.54-.965-.81-1.695-.81-.69 0-1.25.27-1.68.81-.42.54-.63 1.285-.63 2.235v.21c0 .97.215 1.72.645 2.25.43.53.985.795 1.665.795.71 0 1.27-.27 1.68-.81.42-.55.63-1.33.63-2.34zm7.894-2.31c-.45-.56-1.07-.84-1.86-.84s-1.415.28-1.875.84c-.45.55-.675 1.32-.675 2.31s.225 1.765.675 2.325c.46.55 1.085.825 1.875.825s1.41-.275 1.86-.825c.46-.56.69-1.335.69-2.325 0-.99-.23-1.76-.69-2.31zm.81 5.265c-.67.73-1.56 1.095-2.67 1.095-1.11 0-2-.365-2.67-1.095-.67-.73-1.005-1.715-1.005-2.955s.335-2.225 1.005-2.955c.67-.73 1.56-1.095 2.67-1.095 1.11 0 2 .365 2.67 1.095.67.73 1.005 1.715 1.005 2.955s-.335 2.225-1.005 2.955zm3.875.165c.37.06.775.09 1.215.09 1.67 0 2.505-.545 2.505-1.635 0-.99-.885-1.485-2.655-1.485h-1.065v3.03zm0-3.78h1.05c.72 0 1.28-.12 1.68-.36.4-.24.6-.57.6-.99 0-.8-.735-1.2-2.205-1.2-.39 0-.765.03-1.125.09v2.46zm4.83 2.31c0 1.57-1.22 2.355-3.66 2.355-.89 0-1.66-.055-2.31-.165v-7.68c.71-.11 1.44-.165 2.19-.165 1.21 0 2.07.18 2.58.54.52.35.78.8.78 1.35 0 .45-.155.83-.465 1.14-.31.3-.745.51-1.305.63v.015c.71.11 1.25.34 1.62.69.38.34.57.77.57 1.29zm9.143 2.25v-7.8h1.08v7.8h-1.08zm-7.35-7.8h1.095v2.4c.43-.08.89-.12 1.38-.12 1.18 0 2.075.245 2.685.735.61.48.915 1.15.915 2.01 0 1.95-1.25 2.925-3.75 2.925-.83 0-1.605-.075-2.325-.225V133.2zm1.095 3.3v3.615c.4.09.835.135 1.305.135 1.73 0 2.595-.675 2.595-2.025 0-1.23-.89-1.845-2.67-1.845-.44 0-.85.04-1.23.12zm12.614-.195h.03l2.04-3.105h1.245l-2.655 3.84 2.73 3.96h-1.29l-2.115-3.24h-.03l-2.1 3.24h-1.26l2.745-3.96-2.67-3.84h1.29l2.04 3.105zM77.074 155.2h5.7v.945H78.23V163h-1.155v-7.8zm11.073 7.95c-1.13 0-1.97-.455-2.52-1.365h-.03v4.515H84.5v-11.1h1.05l.016 1.32h.03c.55-.98 1.4-1.47 2.55-1.47.98 0 1.75.35 2.31 1.05.56.69.84 1.69.84 3 0 1.28-.29 2.275-.87 2.985-.57.71-1.33 1.065-2.28 1.065zm2.07-4.05c0-1.02-.206-1.8-.615-2.34-.4-.54-.966-.81-1.696-.81-.69 0-1.25.27-1.68.81-.42.54-.63 1.285-.63 2.235v.21c0 .97.215 1.72.645 2.25.43.53.986.795 1.665.795.71 0 1.27-.27 1.68-.81.42-.55.63-1.33.63-2.34zm10.233 3.9v-7.8h1.08v7.8h-1.08zm-7.35-7.8h1.095v2.4c.43-.08.89-.12 1.38-.12 1.18 0 2.075.245 2.685.735.61.48.915 1.15.915 2.01 0 1.95-1.25 2.925-3.75 2.925-.83 0-1.605-.075-2.325-.225V155.2zm1.095 3.3v3.615c.4.09.835.135 1.305.135 1.73 0 2.595-.675 2.595-2.025 0-1.23-.89-1.845-2.67-1.845-.44 0-.85.04-1.23.12zM107.8 163v-3.6h-.795l-2.43 3.6h-1.17l2.745-4.08-2.67-3.72h1.185l2.34 3.27h.795v-3.27h1.11v3.27h.795l2.34-3.27h1.185l-2.67 3.72 2.745 4.08h-1.17l-2.43-3.6h-.795v3.6h-1.11z" fill="#000"/><path d="M115.845 52.077c-3.672 1.607-9.492 3.678-16.785 4.659l-1.11.151.888-.687c3.51-2.729 5.528-6.852 5.528-11.318 0-1.445-.212-2.86-.626-4.214l-.131-.425.434.03c7.293.486 15.887 1.244 24.39 3.133L135 41.011l-.605-1.697-6.093 2.223-.07-.02C125.377 40.93 110.115 38 90.315 38 75.507 38 63.957 40.062 55 44.306v1.86c1.311 1.323 3.208 2.06 5.054 2.768 1.28.495 2.612 1.01 3.732 1.728 6.072 3.77 13.637 8.468 26.529 8.468 11.489 0 20.577-2.9 26.256-5.396l-.726-1.657zm-34.74 4.315c-7.141-1.526-12.064-4.578-16.401-7.276-1.453-.91-3.067-1.597-4.61-2.254-.847-.363-1.725-.737-2.572-1.142l-.626-.303.646-.252c2.39-.94 9.018-3.254 18.903-4.507l.454-.06-.121.434a14.447 14.447 0 00-.515 3.84c0 4.254 1.866 8.256 5.104 10.984l-.262.536zm-3.076-11.51c0-1.486.252-2.94.756-4.315l.06-.182.192-.02c1.927-.192 3.894-.344 5.85-.435l.687-.03-.434.525c-1.422 1.688-1.947 4.073-1.382 6.215l.04.152-.1.121a3.362 3.362 0 00-.757 2.112c0 1.83 1.463 3.315 3.268 3.315.757 0 1.493-.273 2.078-.758l.121-.101.151.04c.575.152 1.16.233 1.746.233 2.491 0 4.811-1.415 5.981-3.628l-1.604-.779c-.978 1.769-2.986 2.81-4.993 2.567l-.313-.04.05-.313c.172-1.062-.18-2.102-.947-2.88-.757-.758-1.776-1.092-2.794-.93l-.313.05-.04-.313a5.139 5.139 0 011.27-3.981c.959-1.082 2.31-1.698 3.703-1.698 2.662 0 4.841 2.112 5.003 4.77h1.775a6.898 6.898 0 00-1.654-4.194l-.444-.515.686.02c1.916.05 3.863.131 5.8.232l.191.01.071.182c.565 1.455.857 2.991.857 4.578 0 6.861-5.507 12.44-12.275 12.44-6.769 0-12.286-5.589-12.286-12.45zm8.18 2.637a1.5 1.5 0 011.493 1.506 1.5 1.5 0 01-1.493 1.506 1.5 1.5 0 01-1.493-1.506c0-.829.676-1.506 1.493-1.506zm27.366 26.406l1.685-1.708-5.669-5.75c-1.513-1.526-3.369-2.344-5.366-2.334-2.31 0-4.741 1.08-6.708 2.98l17.299 17.534 1.261-1.274-4.307-4.365 2.158-2.183 10.087 10.217v4.365l-2.491-2.526-1.261 1.273 4.791 4.86c.686.698 1.503 1.032 2.381.981.776-.05 1.543-.424 2.168-1.03.626-.617 1.019-1.426 1.08-2.224.07-.9-.262-1.758-.969-2.466l-16.139-16.35zm-.908 1.627l-2.158 2.182-10.44-10.59.302-.202a6.265 6.265 0 017.959.808l4.408 4.467-1.685 1.708 1.614 1.627zm15.797 18.19c-.293.303-.636.454-1.009.454h-.051c-.706-.03-1.27-.576-1.553-.91l-.071-.08V88.85l.515.526c.121.121.292.283.494.455.868.778 2.058 1.829 2.088 2.89.02.384-.121.727-.413 1.02z" fill="#303030"/><path d="M116.914 86.769l1.221 1.233 1.25-1.274-1.22-1.232-1.251 1.273zm-14.909-7.064h-1.775v2.425h-2.39v1.81h2.39v2.425h1.775v-2.426h2.401V82.13h-2.401v-2.425zm-26.922-12.33l-.241-.143a28.23 28.23 0 01-1.3-.834.745.745 0 00-.292-.122c-.06-.01-.111-.02-.171-.02-.05 0-.101 0-.152.01-.1.02-.201.05-.292.112a.711.711 0 00-.221.203.696.696 0 00-.121.265c-.01.111-.02.203 0 .305.02.102.05.193.11.275a.85.85 0 00.212.213c.524.356 1.068.702 1.612 1.028a.81.81 0 00.615.091.77.77 0 00.594-.915.738.738 0 00-.353-.468zm15.747 4.12a22.813 22.813 0 01-3.536 0h-.09a.996.996 0 00-.242.03.923.923 0 00-.283.142.611.611 0 00-.191.234.58.58 0 00-.08.285.747.747 0 00.19.55.67.67 0 00.253.183c.1.05.201.07.312.081 1.3.102 2.549.102 3.798 0a.82.82 0 00.544-.264.73.73 0 00-.09-1.058.84.84 0 00-.585-.183zm-7.888-.682a.924.924 0 00-.282-.142 27.828 27.828 0 01-3.355-1.16 1.097 1.097 0 00-.313-.071h-.02c-.1 0-.201.02-.292.05a.765.765 0 00-.262.163.855.855 0 00-.181.244.688.688 0 000 .57.82.82 0 00.433.417c1.159.478 2.347.895 3.556 1.231.101.03.212.04.313.02a.8.8 0 00.302-.091.717.717 0 00.232-.194.834.834 0 00.14-.264.581.581 0 00.02-.295.632.632 0 00-.09-.275 1.273 1.273 0 00-.201-.203zm16.774-1.139a.765.765 0 00-.262-.163.756.756 0 00-.302-.051h-.01a.812.812 0 00-.313.061 27.783 27.783 0 01-3.354 1.15.834.834 0 00-.464.366.729.729 0 00-.07.56.804.804 0 00.987.529 31.07 31.07 0 003.546-1.222.882.882 0 00.262-.172.645.645 0 00.161-.245.688.688 0 000-.57 1.096 1.096 0 00-.18-.243z" fill="#303030"/></svg>