<svg width="190" height="211" fill="none" xmlns="http://www.w3.org/2000/svg"><path d="M0 52.75L95 0l95 52.75v105.078L95 211 0 157.828V52.75z" fill="#fff"/><path d="M61.085 108.05l3.21 6.645h.03l3.135-6.645h1.365l-3.78 7.695c-.65 1.31-1.35 2.205-2.1 2.685-.74.48-1.79.72-3.15.72l-.075-1.005c1.11 0 1.94-.155 2.49-.465.55-.32 1.045-.93 1.485-1.83l-4.02-7.8h1.41zm10.81 10.05h4.125v-6h-3.225v1.995c0 .38-.015.825-.045 1.335-.02.5-.045.825-.075.975-.02.14-.07.34-.15.6-.08.26-.165.45-.255.57-.08.11-.205.285-.375.525zm-1.305 0l.465-.57c.09-.12.19-.31.3-.57.11-.27.175-.475.195-.615.03-.15.06-.465.09-.945.04-.49.06-.93.06-1.32v-2.88h5.415v6.9h1.05v2.7H77.07V119h-6.105v1.8H69.87v-2.7h.72zm12.147-7.05c1.09 0 1.87.225 2.34.675.47.45.705 1.19.705 2.22v2.955c0 .71.075 1.41.225 2.1h-1.05a8.56 8.56 0 01-.15-1.38h-.03c-.27.48-.66.855-1.17 1.125-.51.27-1.085.405-1.725.405-.72 0-1.295-.2-1.725-.6-.43-.41-.645-.96-.645-1.65 0-.87.38-1.56 1.14-2.07.76-.52 1.84-.78 3.24-.78h.795v-.075c0-.76-.145-1.285-.435-1.575-.28-.3-.785-.45-1.515-.45-.94 0-1.815.23-2.625.69l-.195-.885c.86-.47 1.8-.705 2.82-.705zm-2.145 5.805c0 .45.14.805.42 1.065.28.25.655.375 1.125.375.69 0 1.285-.245 1.785-.735.51-.5.765-1.11.765-1.83v-.84h-.795c-1.05 0-1.865.18-2.445.54-.57.35-.855.825-.855 1.425zm8.773-1.815v-3.84h5.775v7.8h-1.11v-6.87h-3.585v3.09c0 1.49-.215 2.5-.645 3.03-.43.53-1.25.83-2.46.9l-.06-.93c.58-.03 1.005-.125 1.275-.285.28-.16.485-.455.615-.885.13-.44.195-1.11.195-2.01zm8.627-.39h4.8c-.01-.87-.22-1.54-.63-2.01-.41-.47-.975-.705-1.695-.705-.75 0-1.345.24-1.785.72-.43.47-.66 1.135-.69 1.995zm0 .87c.02.85.28 1.52.78 2.01.5.49 1.15.735 1.95.735.77 0 1.535-.2 2.295-.6l.3.855c-.84.42-1.74.63-2.7.63-1.12 0-2.025-.365-2.715-1.095s-1.035-1.715-1.035-2.955c0-1.26.32-2.25.96-2.97.65-.72 1.53-1.08 2.64-1.08 1.08 0 1.915.345 2.505 1.035.6.68.9 1.66.9 2.94 0 .13-.01.295-.03.495h-5.85zm8.846-.27V119h-1.17v-7.8h1.17v3.18h4.425v-3.18h1.17v7.8h-1.17v-3.75h-4.425zm8.979 2.22h.03l4.44-6.27h1.23v7.8h-1.14v-6.27h-.015l-4.455 6.27h-1.23v-7.8h1.14v6.27zm8.557-2.82h4.8c-.01-.87-.22-1.54-.63-2.01-.41-.47-.975-.705-1.695-.705-.75 0-1.345.24-1.785.72-.43.47-.66 1.135-.69 1.995zm0 .87c.02.85.28 1.52.78 2.01.5.49 1.15.735 1.95.735.77 0 1.535-.2 2.295-.6l.3.855c-.84.42-1.74.63-2.7.63-1.12 0-2.025-.365-2.715-1.095s-1.035-1.715-1.035-2.955c0-1.26.32-2.25.96-2.97.65-.72 1.53-1.08 2.64-1.08 1.08 0 1.915.345 2.505 1.035.6.68.9 1.66.9 2.94 0 .13-.01.295-.03.495h-5.85zM76.058 134.7l-2.715 3.99h-1.005l-2.715-3.99h-.03v6.3h-1.11v-7.8h1.32l3.03 4.65h.015l3.03-4.65h1.335v7.8h-1.125v-6.3h-.03zm4.012 1.95h4.8c-.01-.87-.22-1.54-.63-2.01-.41-.47-.975-.705-1.695-.705-.75 0-1.345.24-1.785.72-.43.47-.66 1.135-.69 1.995zm0 .87c.02.85.28 1.52.78 2.01.5.49 1.15.735 1.95.735.77 0 1.535-.2 2.295-.6l.3.855c-.84.42-1.74.63-2.7.63-1.12 0-2.025-.365-2.715-1.095s-1.035-1.715-1.035-2.955c0-1.26.32-2.25.96-2.97.65-.72 1.53-1.08 2.64-1.08 1.08 0 1.915.345 2.505 1.035.6.68.9 1.66.9 2.94 0 .13-.01.295-.03.495h-5.85zM96.896 141h-9.15v-7.8h1.08v6.87h2.97v-6.87h1.05v6.87h2.97v-6.87h1.08v7.8zm3.432-4.5l3.765-3.3h1.44l-4.335 3.735 4.455 4.065h-1.425l-3.9-3.615h-.015V141h-1.17v-7.8h1.17v3.3h.015zm12.13-1.71c-.45-.56-1.07-.84-1.86-.84s-1.415.28-1.875.84c-.45.55-.675 1.32-.675 2.31s.225 1.765.675 2.325c.46.55 1.085.825 1.875.825s1.41-.275 1.86-.825c.46-.56.69-1.335.69-2.325 0-.99-.23-1.76-.69-2.31zm.81 5.265c-.67.73-1.56 1.095-2.67 1.095-1.11 0-2-.365-2.67-1.095-.67-.73-1.005-1.715-1.005-2.955s.335-2.225 1.005-2.955c.67-.73 1.56-1.095 2.67-1.095 1.11 0 2 .365 2.67 1.095.67.73 1.005 1.715 1.005 2.955s-.335 2.225-1.005 2.955zm3.875.165c.37.06.775.09 1.215.09 1.67 0 2.505-.545 2.505-1.635 0-.99-.885-1.485-2.655-1.485h-1.065v3.03zm0-3.78h1.05c.72 0 1.28-.12 1.68-.36.4-.24.6-.57.6-.99 0-.8-.735-1.2-2.205-1.2-.39 0-.765.03-1.125.09v2.46zm4.83 2.31c0 1.57-1.22 2.355-3.66 2.355-.89 0-1.66-.055-2.31-.165v-7.68c.71-.11 1.44-.165 2.19-.165 1.21 0 2.07.18 2.58.54.52.35.78.8.78 1.35 0 .45-.155.83-.465 1.14-.31.3-.745.51-1.305.63v.015c.71.11 1.25.34 1.62.69.38.34.57.77.57 1.29zm-72.02 16.45h6.6v7.8h-1.095v-6.87h-4.41V163h-1.095v-7.8zm13.858 1.59c-.45-.56-1.07-.84-1.86-.84s-1.415.28-1.875.84c-.45.55-.675 1.32-.675 2.31s.225 1.765.675 2.325c.46.55 1.085.825 1.875.825s1.41-.275 1.86-.825c.46-.56.69-1.335.69-2.325 0-.99-.23-1.76-.69-2.31zm.81 5.265c-.67.73-1.56 1.095-2.67 1.095-1.11 0-2-.365-2.67-1.095-.67-.73-1.005-1.715-1.005-2.955s.335-2.225 1.005-2.955c.67-.73 1.56-1.095 2.67-1.095 1.11 0 2 .365 2.67 1.095.67.73 1.005 1.715 1.005 2.955s-.335 2.225-1.005 2.955zm4.235.045h4.125v-6h-3.225v1.995c0 .38-.016.825-.046 1.335-.02.5-.044.825-.075.975-.02.14-.07.34-.15.6-.08.26-.165.45-.254.57-.08.11-.206.285-.375.525zm-1.305 0l.465-.57c.09-.12.19-.31.3-.57.11-.27.174-.475.194-.615.03-.15.06-.465.09-.945.04-.49.06-.93.06-1.32v-2.88h5.416v6.9h1.05v2.7H74.03V163h-6.105v1.8h-1.094v-2.7h.72zm13.647-6.9h5.7v.945h-4.545V163h-1.155v-7.8zm8.687 3.84v-3.84h5.775v7.8h-1.11v-6.87h-3.585v3.09c0 1.49-.215 2.5-.645 3.03-.43.53-1.25.83-2.46.9l-.06-.93c.58-.03 1.005-.125 1.275-.285.28-.16.485-.455.615-.885.13-.44.195-1.11.195-2.01zm10.877-3.99c1.09 0 1.87.225 2.34.675.47.45.705 1.19.705 2.22v2.955c0 .71.075 1.41.225 2.1h-1.05a8.56 8.56 0 01-.15-1.38h-.03c-.27.48-.66.855-1.17 1.125-.51.27-1.085.405-1.725.405-.72 0-1.295-.2-1.725-.6-.43-.41-.645-.96-.645-1.65 0-.87.38-1.56 1.14-2.07.76-.52 1.84-.78 3.24-.78h.795v-.075c0-.76-.145-1.285-.435-1.575-.28-.3-.785-.45-1.515-.45-.94 0-1.815.23-2.625.69l-.195-.885c.86-.47 1.8-.705 2.82-.705zm-2.145 5.805c0 .45.14.805.42 1.065.28.25.655.375 1.125.375.69 0 1.285-.245 1.785-.735.51-.5.765-1.11.765-1.83v-.84h-.795c-1.05 0-1.865.18-2.445.54-.57.35-.855.825-.855 1.425zm9.928-4.935c-.77 0-1.6.175-2.49.525l-.27-.84c.94-.37 1.89-.555 2.85-.555 1.07 0 1.91.18 2.52.54.61.36.915.82.915 1.38 0 .41-.17.785-.51 1.125-.33.34-.81.58-1.44.72v.03c.69.12 1.205.375 1.545.765.35.38.525.81.525 1.29 0 .7-.31 1.25-.93 1.65-.61.4-1.485.6-2.625.6-.98 0-1.965-.185-2.955-.555l.27-.84c.91.33 1.79.495 2.64.495 1.63 0 2.445-.49 2.445-1.47 0-.5-.255-.875-.765-1.125s-1.35-.375-2.52-.375h-.66v-.885h.66c2.11 0 3.165-.425 3.165-1.275 0-.8-.79-1.2-2.37-1.2zm8.301-.87c1.09 0 1.87.225 2.34.675.47.45.705 1.19.705 2.22v2.955c0 .71.075 1.41.225 2.1h-1.05a8.56 8.56 0 01-.15-1.38h-.03c-.27.48-.66.855-1.17 1.125-.51.27-1.085.405-1.725.405-.72 0-1.295-.2-1.725-.6-.43-.41-.645-.96-.645-1.65 0-.87.38-1.56 1.14-2.07.76-.52 1.84-.78 3.24-.78h.795v-.075c0-.76-.145-1.285-.435-1.575-.28-.3-.785-.45-1.515-.45-.94 0-1.815.23-2.625.69l-.195-.885c.86-.47 1.8-.705 2.82-.705zm-2.145 5.805c0 .45.14.805.42 1.065.28.25.655.375 1.125.375.69 0 1.285-.245 1.785-.735.51-.5.765-1.11.765-1.83v-.84h-.795c-1.05 0-1.865.18-2.445.54-.57.35-.855.825-.855 1.425zm15.088-4.155l-2.715 3.99h-1.005l-2.715-3.99h-.03v6.3h-1.11v-7.8h1.32l3.03 4.65h.015l3.03-4.65h1.335v7.8h-1.125v-6.3h-.03zm4.551 4.77h.03l4.44-6.27h1.23v7.8h-1.14v-6.27h-.015L134.43 163h-1.23v-7.8h1.14v6.27z" fill="#000"/><path d="M96.389 73.768c-6.41 0-11.624-5.192-11.624-11.574S89.978 50.62 96.388 50.62c6.409 0 11.624 5.192 11.624 11.574s-5.215 11.574-11.624 11.574zm0-21.507c-5.5 0-9.976 4.456-9.976 9.933 0 5.477 4.475 9.932 9.976 9.932 5.501 0 9.976-4.455 9.976-9.932s-4.475-9.933-9.976-9.933zm10.938 24.645c-.485.208-.986.406-1.488.59a.82.82 0 10.567 1.54 30.479 30.479 0 001.574-.624.82.82 0 00.43-1.078.826.826 0 00-1.083-.428zm3.942-2.098a26.02 26.02 0 01-1.365.825.818.818 0 00-.312 1.118.823.823 0 001.123.31c.492-.277.981-.572 1.452-.877a.818.818 0 00.242-1.135.826.826 0 00-1.14-.24zm3.509-2.743c-.385.361-.787.715-1.195 1.051a.818.818 0 00-.11 1.156.822.822 0 001.16.109c.436-.359.865-.736 1.276-1.122a.818.818 0 00.034-1.16.826.826 0 00-1.165-.034zm-42.325-3.519a.818.818 0 00-.196 1.145c.325.456.674.91 1.037 1.35a.822.822 0 001.16.114.818.818 0 00.114-1.155c-.339-.41-.664-.834-.966-1.259a.826.826 0 00-1.149-.195zm30.631 9.805c-.512.134-1.038.256-1.564.366a.822.822 0 00-.639.97.824.824 0 00.976.636 34.719 34.719 0 001.643-.383.82.82 0 10-.416-1.589zm14.638-9.615c-.309.424-.638.845-.978 1.25a.818.818 0 00.632 1.347c.235 0 .47-.1.633-.294.364-.434.716-.885 1.048-1.34a.818.818 0 00-.184-1.146.826.826 0 00-1.151.183zm-37.711 6.115a.826.826 0 00-1.14.237.818.818 0 00.237 1.136c.47.307.958.604 1.45.882a.825.825 0 001.124-.307.819.819 0 00-.31-1.119 25.87 25.87 0 01-1.36-.829zm3.935 2.104a.826.826 0 00-1.083.429.82.82 0 00.43 1.078c.515.22 1.045.43 1.576.623a.826.826 0 001.056-.491.82.82 0 00-.492-1.052 27.353 27.353 0 01-1.487-.587zm-7.428-4.864a.826.826 0 00-1.165.027.818.818 0 00.027 1.16 26.2 26.2 0 001.27 1.13.825.825 0 001.16-.103.818.818 0 00-.103-1.156 24.337 24.337 0 01-1.189-1.058zm11.67 6.295a.82.82 0 10-.406 1.59c.538.136 1.093.262 1.648.372a.823.823 0 00.97-.644.821.821 0 00-.647-.965 30.998 30.998 0 01-1.565-.353zm11.392 1.515a.824.824 0 00-.919-.713c-.526.065-1.066.12-1.605.164a.822.822 0 10.135 1.636 40.323 40.323 0 001.673-.171.821.821 0 00.716-.916zm-4.596.292a.822.822 0 00-.767-.873 37.158 37.158 0 01-1.605-.141.822.822 0 10-.182 1.631 39.025 39.025 0 001.733.15c.43 0 .793-.333.821-.767z" fill="#303030"/><path d="M119.651 77.678a193.51 193.51 0 00-2.334 2.07c-3.734 3.345-7.262 6.505-12.199 8.151-3.761 1.253-7.785 1.712-11.638 1.328-4.835-.482-8.157-1.823-12.257-4.946-1.494-1.139-2.901-2.518-4.263-3.851-2.056-2.015-4.182-4.1-6.751-5.528a.826.826 0 00-1.122.316.818.818 0 00.318 1.116c2.375 1.322 4.33 3.238 6.4 5.266 1.396 1.369 2.84 2.784 4.417 3.984 4.37 3.33 7.92 4.76 13.093 5.276.938.093 1.885.14 2.837.14 3.19 0 6.423-.523 9.489-1.544 5.263-1.754 8.913-5.026 12.778-8.489.75-.672 1.526-1.367 2.315-2.052a.818.818 0 00.08-1.158.827.827 0 00-1.163-.079zm3.15-28.642a19.558 19.558 0 00-2.439-3.282c-1.431-1.57-3.017-3.007-4.585-4.152-2.275-1.662-4.246-2.835-6.203-3.692a31.022 31.022 0 00-3.44-1.264c-5.152-1.561-11.168-2.015-17.88-1.348-.391.039-.788.083-1.18.133a.821.821 0 10.207 1.628c.377-.048.76-.09 1.136-.128 6.495-.645 12.294-.213 17.237 1.285 1.128.342 2.224.745 3.256 1.197 1.844.807 3.716 1.923 5.892 3.512 1.48 1.081 2.981 2.44 4.339 3.932a18.743 18.743 0 011.777 2.268c-3.476-2.013-7.38-3.787-11.903-5.413-3.359-1.208-7.541-2.71-11.783-2.586-1.614.048-3.304.24-5.025.573-4.354.842-8.919 2.56-13.566 5.104-.071.039-.288.158-4.663 2.923a.51.51 0 01-.631-.072l-4.553-4.62a.5.5 0 01.053-.753c4.19-3.13 9.298-5.412 14.774-6.597a.82.82 0 10-.35-1.604c-5.706 1.235-11.036 3.617-15.413 6.888a2.134 2.134 0 00-.24 3.215l4.552 4.62c.415.421.976.64 1.542.64a2.15 2.15 0 001.15-.331c3.98-2.516 4.508-2.834 4.574-2.87 4.496-2.463 8.9-4.122 13.085-4.932a29.728 29.728 0 014.76-.543c3.926-.116 7.947 1.329 11.175 2.489 4.752 1.708 8.798 3.58 12.369 5.721a1.418 1.418 0 001.743-.205 1.405 1.405 0 00.233-1.736z" fill="#303030"/><path d="M96.389 87.134a.822.822 0 00.824-.82v-.954a.823.823 0 001.022-1.26l-1.234-1.36a.824.824 0 00-1.221 0l-1.237 1.358a.818.818 0 00.057 1.16.827.827 0 00.965.102v.953c0 .453.369.82.824.82zm8.17-38.169c-4.336-1.603-7.752-1.544-8.17-1.53-.418-.014-3.834-.073-8.17 1.53-4.173 1.542-10.015 4.986-14.152 12.633a1.249 1.249 0 000 1.191c4.137 7.648 9.979 11.091 14.151 12.634 4.335 1.602 7.75 1.543 8.17 1.529.055.002.157.004.301.004 1.482 0 7.468-.279 13.521-4.473a.817.817 0 00.205-1.142.826.826 0 00-1.147-.205c-6.351 4.401-12.778 4.178-12.84 4.175h-.077c-.033.002-3.337.133-7.559-1.427a23.657 23.657 0 01-6.822-3.91c-2.51-2.06-4.646-4.677-6.352-7.78 1.697-3.088 3.82-5.695 6.315-7.75a23.652 23.652 0 016.79-3.915c4.232-1.579 7.595-1.454 7.628-1.452h.075c.033-.002 3.397-.127 7.628 1.452a23.648 23.648 0 016.791 3.915c2.493 2.055 4.617 4.662 6.314 7.75-1.404 2.554-3.105 4.787-5.059 6.64a.82.82 0 00-.029 1.16.827.827 0 001.165.028c2.127-2.016 3.968-4.45 5.474-7.233a1.247 1.247 0 000-1.19c-4.136-7.648-9.978-11.092-14.151-12.634z" fill="#303030"/><path d="M98.988 53.323c-1.28 0-2.433.547-3.238 1.418-3.846.324-6.876 3.542-6.876 7.453 0 4.125 3.371 7.482 7.515 7.482 4.143 0 7.514-3.357 7.514-7.482 0-1.135-.257-2.21-.712-3.174.13-.414.201-.855.201-1.311 0-2.419-1.976-4.386-4.404-4.386zm0 1.642a2.753 2.753 0 012.756 2.743 2.753 2.753 0 01-2.756 2.744 2.753 2.753 0 01-2.756-2.744 2.753 2.753 0 012.756-2.743zm-2.6 13.07c-3.234 0-5.865-2.62-5.865-5.841 0-2.647 1.777-4.885 4.206-5.6-.094.356-.145.73-.145 1.115 0 2.417 1.976 4.384 4.404 4.384a4.4 4.4 0 003.101-1.275c.108.442.166.902.166 1.376 0 3.22-2.631 5.84-5.866 5.84z" fill="#303030"/></svg>