<svg width="166" height="145" viewBox="0 0 166 145" fill="none" xmlns="http://www.w3.org/2000/svg">
<path d="M103.156 102.968L103.486 103.344L103.156 102.968ZM0.662342 136.589C0.458679 136.775 0.444752 137.091 0.631236 137.295L3.67016 140.614C3.85664 140.818 4.17292 140.831 4.37658 140.645C4.58024 140.459 4.59417 140.142 4.40768 139.939L1.70642 136.988L4.65654 134.287C4.8602 134.101 4.87413 133.784 4.68764 133.581C4.50116 133.377 4.18489 133.363 3.98122 133.55L0.662342 136.589ZM1 136.957C0.978004 137.457 0.978026 137.457 0.978052 137.457C0.978064 137.457 0.978093 137.457 0.978119 137.457C0.97817 137.457 0.978235 137.457 0.978313 137.457C0.97847 137.457 0.978679 137.457 0.978941 137.457C0.979467 137.457 0.980204 137.457 0.981154 137.457C0.983053 137.457 0.9858 137.457 0.989391 137.457C0.996572 137.458 1.00713 137.458 1.02103 137.459C1.04882 137.46 1.08999 137.461 1.14425 137.463C1.25278 137.467 1.4137 137.472 1.62488 137.477C2.04723 137.487 2.67063 137.498 3.47793 137.5L3.48036 136.5C2.68058 136.498 2.0644 136.487 1.64896 136.477C1.44123 136.472 1.2837 136.467 1.17849 136.464C1.12589 136.462 1.08636 136.46 1.06019 136.459C1.04711 136.459 1.03736 136.458 1.03098 136.458C1.02779 136.458 1.02545 136.458 1.02395 136.458C1.0232 136.458 1.02266 136.458 1.02233 136.458C1.02217 136.458 1.02206 136.458 1.02201 136.458C1.02198 136.458 1.02196 136.458 1.02196 136.458C1.02196 136.458 1.02197 136.458 1.02197 136.458C1.02198 136.458 1.022 136.458 1 136.957ZM8.49516 137.412C9.98211 137.36 11.6639 137.28 13.517 137.159L13.4518 136.161C11.6093 136.281 9.93754 136.361 8.46015 136.413L8.49516 137.412ZM18.4979 136.763C20.0777 136.616 21.7416 136.44 23.4797 136.231L23.3601 135.238C21.6312 135.446 19.9763 135.621 18.405 135.768L18.4979 136.763ZM28.4546 135.564C30.0583 135.327 31.7103 135.062 33.4043 134.765L33.2318 133.78C31.5468 134.075 29.9037 134.339 28.3085 134.575L28.4546 135.564ZM38.323 133.834C39.9285 133.508 41.5639 133.153 43.2245 132.766L42.9979 131.792C41.3466 132.177 39.7203 132.53 38.1237 132.855L38.323 133.834ZM48.0981 131.559C49.691 131.14 51.3021 130.691 52.9277 130.212L52.6446 129.252C51.0289 129.729 49.4273 130.175 47.8436 130.592L48.0981 131.559ZM57.7104 128.72C59.2807 128.204 60.8607 127.658 62.4471 127.08L62.1047 126.14C60.5285 126.715 58.9586 127.257 57.3981 127.771L57.7104 128.72ZM67.1297 125.285C68.6678 124.666 70.2089 124.016 71.7502 123.333L71.3451 122.419C69.8146 123.097 68.2841 123.743 66.7564 124.357L67.1297 125.285ZM76.3 121.22C77.7935 120.493 79.2844 119.734 80.7702 118.941L80.2994 118.059C78.8249 118.845 77.345 119.599 75.8624 120.32L76.3 121.22ZM85.1511 116.494C86.5865 115.655 88.0146 114.783 89.4326 113.876L88.8938 113.033C87.4873 113.933 86.0707 114.798 84.6465 115.631L85.1511 116.494ZM93.6042 111.085C94.9669 110.132 96.3179 109.144 97.6547 108.121L97.0469 107.327C95.7216 108.341 94.3822 109.32 93.0309 110.266L93.6042 111.085ZM101.573 104.983C102.215 104.446 102.852 103.899 103.486 103.344L102.827 102.592C102.199 103.142 101.567 103.684 100.931 104.216L101.573 104.983ZM103.486 103.344C104.098 102.807 104.713 102.246 105.329 101.664L104.641 100.937C104.034 101.512 103.429 102.064 102.827 102.592L103.486 103.344ZM108.882 98.0763C109.989 96.8918 111.1 95.6435 112.211 94.3388L111.45 93.6904C110.347 94.9846 109.247 96.2213 108.152 97.3935L108.882 98.0763ZM115.388 90.4634C116.405 89.177 117.421 87.8488 118.436 86.4844L117.633 85.8877C116.624 87.2448 115.614 88.5651 114.603 89.8432L115.388 90.4634ZM121.375 82.4248C122.326 81.0761 123.275 79.6997 124.219 78.3004L123.39 77.7412C122.45 79.1351 121.505 80.5056 120.558 81.8482L121.375 82.4248ZM126.981 74.1224C127.883 72.7305 128.78 71.3213 129.67 69.8989L128.822 69.3685C127.935 70.7866 127.041 72.1913 126.141 73.5784L126.981 74.1224ZM132.294 65.6363C133.158 64.2114 134.014 62.7777 134.861 61.3392L133.999 60.8319C133.154 62.2668 132.301 63.6969 131.439 65.1179L132.294 65.6363ZM137.374 57.0118C138.207 55.5598 139.029 54.1069 139.84 52.6573L138.967 52.1692C138.158 53.6159 137.338 55.0656 136.507 56.5145L137.374 57.0118ZM142.26 48.2785C143.067 46.8024 143.86 45.3341 144.639 43.8779L143.757 43.4063C142.98 44.86 142.188 46.3256 141.383 47.7989L142.26 48.2785ZM146.978 39.458C147.763 37.9592 148.531 36.4788 149.279 35.0217L148.389 34.5648C147.642 36.0196 146.876 37.4977 146.092 38.9939L146.978 39.458ZM151.545 30.5673C152.317 29.0354 153.064 27.5376 153.785 26.0805L152.889 25.6371C152.169 27.0921 151.423 28.5877 150.652 30.1173L151.545 30.5673ZM155.991 21.581C156.75 20.0169 157.472 18.5157 158.153 17.0874L157.25 16.657C156.57 18.0833 155.85 19.5823 155.091 21.1441L155.991 21.581ZM160.297 12.5482C161.077 10.8808 161.779 9.36273 162.395 8.01781L161.486 7.60119C160.871 8.94387 160.17 10.4595 159.391 12.1245L160.297 12.5482ZM164.462 3.45363C164.787 2.7254 165.036 2.16213 165.204 1.78072C165.288 1.59002 165.351 1.44478 165.394 1.34713C165.415 1.2983 165.432 1.26137 165.442 1.2366C165.448 1.22421 165.452 1.21487 165.455 1.20859C165.456 1.20546 165.457 1.20309 165.458 1.20149C165.458 1.2007 165.458 1.20009 165.458 1.19968C165.458 1.19947 165.459 1.19932 165.459 1.19921C165.459 1.19915 165.459 1.19911 165.459 1.19908C165.459 1.19907 165.459 1.19905 165.459 1.19905C165.459 1.19904 165.459 1.19903 165 1C164.541 0.800972 164.541 0.80097 164.541 0.800972C164.541 0.800977 164.541 0.800981 164.541 0.800991C164.541 0.801009 164.541 0.80104 164.541 0.801082C164.541 0.801167 164.541 0.801301 164.541 0.801483C164.541 0.801848 164.541 0.802406 164.54 0.803157C164.54 0.804658 164.539 0.806932 164.537 0.809974C164.535 0.816059 164.531 0.825215 164.525 0.83741C164.515 0.861801 164.499 0.898348 164.478 0.946786C164.435 1.04366 164.372 1.18811 164.289 1.378C164.122 1.75779 163.873 2.31939 163.549 3.04585L164.462 3.45363ZM103.156 102.968L103.816 103.72L103.156 102.968ZM0.324684 136.22C-0.0826416 136.593 -0.110495 137.225 0.262471 137.633L6.34031 144.27C6.71328 144.678 7.34583 144.706 7.75316 144.333C8.16048 143.96 8.18834 143.327 7.81537 142.92L2.41284 137.02L8.31308 131.617C8.7204 131.244 8.74825 130.612 8.37529 130.204C8.00232 129.797 7.36977 129.769 6.96244 130.142L0.324684 136.22ZM1 136.957C0.956009 137.956 0.956049 137.956 0.956093 137.956C0.956112 137.956 0.95616 137.956 0.956198 137.956C0.956274 137.956 0.956364 137.956 0.956467 137.956C0.956673 137.956 0.956932 137.956 0.957245 137.956C0.95787 137.956 0.958707 137.957 0.959757 137.957C0.961856 137.957 0.964803 137.957 0.968595 137.957C0.976179 137.957 0.98714 137.958 1.00144 137.958C1.03005 137.959 1.07204 137.961 1.12713 137.963C1.23731 137.967 1.39993 137.972 1.61284 137.977C2.03864 137.987 2.66565 137.998 3.47671 138L3.48158 136C2.68556 135.998 2.07299 135.987 1.661 135.977C1.455 135.972 1.29916 135.968 1.19561 135.964C1.14384 135.962 1.10514 135.961 1.07978 135.96C1.0671 135.959 1.05775 135.959 1.05178 135.959C1.04879 135.959 1.04664 135.958 1.04534 135.958C1.0447 135.958 1.04426 135.958 1.04403 135.958C1.04392 135.958 1.04386 135.958 1.04385 135.958C1.04385 135.958 1.04386 135.958 1.04388 135.958C1.04389 135.958 1.04392 135.958 1.04393 135.958C1.04396 135.958 1.04399 135.958 1 136.957ZM8.51267 137.912C10.0044 137.86 11.6913 137.779 13.5496 137.658L13.4191 135.662C11.5819 135.782 9.91525 135.862 8.44264 135.913L8.51267 137.912ZM18.5443 137.261C20.1284 137.113 21.7967 136.937 23.5395 136.727L23.3003 134.741C21.576 134.949 19.9255 135.124 18.3585 135.27L18.5443 137.261ZM28.5276 136.058C30.1356 135.821 31.792 135.555 33.4906 135.258L33.1455 133.288C31.4651 133.582 29.8264 133.845 28.2355 134.08L28.5276 136.058ZM38.4226 134.324C40.0325 133.997 41.6725 133.641 43.3378 133.253L42.8846 131.305C41.238 131.688 39.6163 132.041 38.024 132.365L38.4226 134.324ZM48.2253 132.042C49.8229 131.622 51.4388 131.172 53.0692 130.691L52.5031 128.773C50.8922 129.248 49.2954 129.693 47.7163 130.108L48.2253 132.042ZM57.8666 129.195C59.4417 128.678 61.0267 128.129 62.6183 127.549L61.9335 125.67C60.3624 126.243 58.7975 126.784 57.242 127.296L57.8666 129.195ZM67.3164 125.749C68.8596 125.128 70.4061 124.476 71.9527 123.79L71.1426 121.962C69.6175 122.637 68.0922 123.281 66.5697 123.894L67.3164 125.749ZM76.5188 121.669C78.0177 120.94 79.5142 120.178 81.0056 119.382L80.064 117.618C78.5952 118.401 77.1208 119.152 75.6436 119.871L76.5188 121.669ZM85.4034 116.926C86.8445 116.083 88.2782 115.208 89.702 114.297L88.6245 112.612C87.2237 113.508 85.8128 114.37 84.3943 115.199L85.4034 116.926ZM93.8908 111.495C95.2593 110.537 96.616 109.545 97.9586 108.518L96.743 106.93C95.4235 107.94 94.0899 108.915 92.7443 109.856L93.8908 111.495ZM101.894 105.366C102.539 104.826 103.179 104.278 103.816 103.72L102.497 102.216C101.872 102.764 101.243 103.303 100.61 103.833L101.894 105.366ZM103.816 103.72C104.433 103.179 105.052 102.614 105.672 102.027L104.297 100.574C103.694 101.145 103.094 101.692 102.497 102.216L103.816 103.72ZM109.248 98.4177C110.36 97.2271 111.476 95.973 112.592 94.663L111.069 93.3662C109.971 94.6551 108.876 95.886 107.787 97.052L109.248 98.4177ZM115.78 90.7736C116.8 89.4829 117.82 88.1508 118.837 86.7827L117.232 85.5894C116.226 86.9428 115.218 88.2592 114.211 89.5331L115.78 90.7736ZM121.783 82.7131C122.737 81.3613 123.688 79.982 124.633 78.58L122.975 77.4616C122.037 78.8527 121.094 80.2204 120.149 81.5599L121.783 82.7131ZM127.4 74.3944C128.304 73.0001 129.202 71.5886 130.094 70.1642L128.398 69.1033C127.512 70.5192 126.62 71.9216 125.722 73.3064L127.4 74.3944ZM132.722 65.8954C133.587 64.4686 134.444 63.0331 135.292 61.5929L133.568 60.5782C132.724 62.0114 131.872 63.4396 131.012 64.8587L132.722 65.8954ZM137.808 57.2605C138.642 55.8068 139.465 54.3524 140.276 52.9014L138.531 51.9251C137.722 53.3703 136.903 54.8186 136.073 56.2658L137.808 57.2605ZM142.699 48.5183C143.506 47.0408 144.301 45.5712 145.08 44.1136L143.316 43.1705C142.54 44.6229 141.748 46.0873 140.944 47.5591L142.699 48.5183ZM147.421 39.69C148.207 38.19 148.975 36.7084 149.724 35.2501L147.945 34.3364C147.198 35.79 146.432 37.2669 145.649 38.7619L147.421 39.69ZM151.992 30.7923C152.764 29.2592 153.512 27.7603 154.233 26.3022L152.441 25.4155C151.722 26.8693 150.976 28.3638 150.206 29.8923L151.992 30.7923ZM156.44 21.7994C157.201 20.2342 157.923 18.732 158.604 17.3026L156.799 16.4418C156.12 17.867 155.399 19.365 154.641 20.9257L156.44 21.7994ZM160.75 12.7601C161.531 11.0914 162.233 9.57217 162.85 8.22611L161.032 7.39288C160.417 8.73443 159.717 10.2489 158.939 11.9126L160.75 12.7601ZM164.918 3.65751C165.244 2.92841 165.493 2.36429 165.662 1.98208C165.746 1.79097 165.809 1.64534 165.852 1.5473C165.874 1.49828 165.89 1.46115 165.901 1.43619C165.906 1.42371 165.91 1.41427 165.913 1.4079C165.914 1.40472 165.916 1.4023 165.916 1.40066C165.917 1.39984 165.917 1.39921 165.917 1.39878C165.917 1.39856 165.917 1.39839 165.917 1.39827C165.917 1.39821 165.917 1.39816 165.917 1.39813C165.917 1.39811 165.917 1.39809 165.917 1.39808C165.917 1.39807 165.917 1.39806 165 1C164.083 0.601943 164.083 0.601938 164.083 0.601935C164.083 0.601938 164.083 0.601938 164.083 0.601945C164.083 0.601957 164.083 0.601982 164.083 0.602019C164.083 0.602092 164.083 0.602215 164.082 0.602385C164.082 0.602726 164.082 0.60326 164.082 0.603988C164.081 0.605443 164.08 0.60767 164.079 0.610665C164.076 0.616655 164.072 0.625716 164.067 0.637817C164.057 0.662017 164.041 0.698372 164.02 0.746616C163.977 0.843106 163.914 0.987154 163.831 1.17664C163.664 1.55563 163.416 2.11638 163.092 2.84196L164.918 3.65751Z" fill="url(#paint0_linear)"/>
<defs>
<linearGradient id="paint0_linear" x1="1.00001" y1="137" x2="165" y2="1.00001" gradientUnits="userSpaceOnUse">
<stop stop-color="#FC3698"/>
<stop offset="0.826042" stop-color="#FC3698" stop-opacity="0.5"/>
<stop offset="1" stop-color="#FC3698" stop-opacity="0"/>
</linearGradient>
</defs>
</svg>
