<svg width="166" height="72" viewBox="0 0 166 72" fill="none" xmlns="http://www.w3.org/2000/svg">
<path d="M88.5936 20.582L88.7879 20.1213L88.5936 20.582ZM0.606512 8.56372C0.436137 8.78104 0.47419 9.09533 0.691508 9.2657L4.2329 12.0421C4.45021 12.2125 4.7645 12.1745 4.93488 11.9571C5.10525 11.7398 5.0672 11.4255 4.84988 11.2552L1.70198 8.78722L4.16992 5.63932C4.34029 5.422 4.30224 5.10771 4.08492 4.93734C3.86761 4.76696 3.55332 4.80502 3.38294 5.02233L0.606512 8.56372ZM1 8.87221C1.0601 9.36859 1.06009 9.36859 1.06008 9.36859C1.06008 9.36859 1.06007 9.36859 1.06008 9.36859C1.06008 9.36859 1.0601 9.36859 1.06013 9.36859C1.0602 9.36858 1.06031 9.36856 1.06048 9.36854C1.06081 9.3685 1.06136 9.36844 1.06211 9.36835C1.06361 9.36817 1.06594 9.36789 1.06911 9.36751C1.07543 9.36676 1.08507 9.36562 1.09799 9.36411C1.12383 9.36108 1.1628 9.35658 1.21463 9.35073C1.31831 9.33904 1.47346 9.32198 1.67808 9.30067C2.08732 9.25805 2.69437 9.19843 3.48304 9.13075L3.39753 8.13441C2.60258 8.20263 1.9895 8.26283 1.5745 8.30605C1.36699 8.32766 1.20901 8.34503 1.10257 8.35703C1.04935 8.36304 1.00901 8.3677 0.981816 8.37088C0.968218 8.37247 0.957905 8.37369 0.950908 8.37452C0.94741 8.37494 0.944741 8.37526 0.942905 8.37548C0.941986 8.37559 0.941277 8.37567 0.940776 8.37573C0.940525 8.37576 0.940327 8.37579 0.940181 8.37581C0.940108 8.37581 0.940048 8.37582 0.940001 8.37583C0.939977 8.37583 0.939952 8.37583 0.93994 8.37584C0.939918 8.37584 0.939899 8.37584 1 8.87221ZM8.41738 8.79014C9.88061 8.7109 11.5377 8.63888 13.3662 8.58642L13.3375 7.58683C11.5001 7.63955 9.83455 7.71193 8.3633 7.7916L8.41738 8.79014ZM18.3095 8.50299C19.8786 8.49474 21.5328 8.50316 23.2629 8.53341L23.2804 7.53356C21.5424 7.50318 19.8806 7.49471 18.3043 7.503L18.3095 8.50299ZM28.1928 8.67506C29.7933 8.73909 31.4435 8.82273 33.1376 8.92924L33.2003 7.93121C31.4984 7.8242 29.8406 7.74018 28.2328 7.67586L28.1928 8.67506ZM38.0651 9.29631C39.678 9.4354 41.3225 9.596 42.9942 9.78058L43.104 8.78662C41.4241 8.60113 39.7716 8.43976 38.151 8.30001L38.0651 9.29631ZM47.8942 10.3826C49.5063 10.601 51.1384 10.8426 52.7868 11.1093L52.9466 10.1222C51.2893 9.85403 49.6487 9.6112 48.0285 9.39165L47.8942 10.3826ZM57.6601 11.9648C59.2622 12.2685 60.876 12.5969 62.4982 12.9519L62.712 11.975C61.0803 11.618 59.4574 11.2876 57.8463 10.9823L57.6601 11.9648ZM67.3093 14.0788C68.8974 14.4758 70.4905 14.8995 72.0855 15.3515L72.3581 14.3893C70.7528 13.9345 69.1497 13.5081 67.5518 13.1087L67.3093 14.0788ZM76.8185 16.7761C78.3792 17.2741 79.9389 17.8007 81.495 18.3573L81.8318 17.4157C80.2645 16.8551 78.6938 16.3248 77.1226 15.8234L76.8185 16.7761ZM86.1129 20.104C86.8767 20.4092 87.6389 20.722 88.3993 21.0427L88.7879 20.1213C88.0216 19.7981 87.2534 19.4828 86.4838 19.1754L86.1129 20.104ZM88.3993 21.0427C89.167 21.3665 89.9408 21.7028 90.7198 22.0508L91.1277 21.1377C90.3426 20.787 89.5624 20.4479 88.7879 20.1213L88.3993 21.0427ZM95.3236 24.2104C96.8217 24.9449 98.3335 25.7156 99.8544 26.5174L100.321 25.6328C98.7919 24.8268 97.2714 24.0517 95.7638 23.3125L95.3236 24.2104ZM104.332 28.9508C105.8 29.7717 107.272 30.6165 108.744 31.4809L109.25 30.6185C107.773 29.7508 106.294 28.9025 104.82 28.078L104.332 28.9508ZM113.112 34.1004C114.558 34.9856 116 35.8853 117.434 36.7955L117.97 35.9512C116.531 35.0383 115.085 34.1356 113.634 33.2475L113.112 34.1004ZM121.716 39.5575C123.144 40.4929 124.56 41.4345 125.96 42.378L126.519 41.5488C125.116 40.603 123.696 39.6589 122.264 38.721L121.716 39.5575ZM130.164 45.2493C131.581 46.2292 132.976 47.2063 134.345 48.1758L134.923 47.3598C133.551 46.3882 132.153 45.409 130.733 44.4269L130.164 45.2493ZM138.484 51.1396C139.895 52.1609 141.27 53.1674 142.604 54.1531L143.198 53.3489C141.862 52.3613 140.484 51.3529 139.07 50.3296L138.484 51.1396ZM146.678 57.1941C148.099 58.2645 149.457 59.2992 150.746 60.289L151.355 59.496C150.064 58.5044 148.703 57.4678 147.28 56.3954L146.678 57.1941ZM154.777 63.4152C156.25 64.5689 157.586 65.6276 158.766 66.5704L159.391 65.7891C158.208 64.8444 156.869 63.7837 155.393 62.6278L154.777 63.4152ZM162.72 69.7655C163.356 70.2855 163.846 70.6902 164.176 70.9647C164.342 71.1019 164.468 71.2066 164.552 71.2769C164.594 71.3121 164.626 71.3386 164.647 71.3564C164.657 71.3652 164.665 71.3719 164.671 71.3763C164.673 71.3785 164.675 71.3802 164.677 71.3813C164.677 71.3818 164.678 71.3822 164.678 71.3825C164.678 71.3826 164.678 71.3827 164.678 71.3828C164.678 71.3828 164.678 71.3828 164.678 71.3828C164.678 71.3828 164.678 71.3828 164.678 71.3829C164.678 71.3829 164.678 71.3829 165 71C165.322 70.6171 165.322 70.6171 165.322 70.6171C165.322 70.6171 165.322 70.6171 165.322 70.6171C165.322 70.6171 165.321 70.6171 165.321 70.617C165.321 70.6169 165.321 70.6168 165.321 70.6167C165.321 70.6164 165.32 70.6159 165.319 70.6153C165.318 70.6142 165.316 70.6124 165.313 70.6101C165.308 70.6056 165.3 70.5987 165.289 70.5897C165.267 70.5717 165.235 70.5448 165.193 70.5093C165.108 70.4383 164.981 70.333 164.815 70.195C164.482 69.9192 163.991 69.5131 163.354 68.9916L162.72 69.7655ZM88.5936 20.582L88.9822 19.6606L88.5936 20.582ZM0.213025 8.25523C-0.127726 8.68986 -0.0516191 9.31844 0.383015 9.65919L7.46579 15.2121C7.90043 15.5528 8.529 15.4767 8.86975 15.0421C9.2105 14.6074 9.1344 13.9789 8.69976 13.6381L2.40396 8.70222L7.33984 2.40642C7.68059 1.97179 7.60448 1.34321 7.16985 1.00246C6.73521 0.661712 6.10664 0.737819 5.76589 1.17245L0.213025 8.25523ZM1 8.87221C1.1202 9.86496 1.12017 9.86497 1.12015 9.86497C1.12015 9.86497 1.12012 9.86497 1.12012 9.86497C1.1201 9.86498 1.1201 9.86498 1.12011 9.86498C1.12013 9.86497 1.1202 9.86496 1.12033 9.86495C1.12058 9.86492 1.12104 9.86486 1.12171 9.86478C1.12304 9.86462 1.12521 9.86436 1.12821 9.86401C1.1342 9.86329 1.1435 9.86219 1.15608 9.86072C1.18124 9.85778 1.21952 9.85335 1.27066 9.84758C1.37295 9.83605 1.5267 9.81914 1.72987 9.79798C2.13623 9.75566 2.74027 9.69633 3.52579 9.62891L3.35477 7.63624C2.55669 7.70474 1.94059 7.76522 1.5227 7.80874C1.31376 7.8305 1.15436 7.84802 1.04653 7.86018C0.992621 7.86626 0.951602 7.871 0.923728 7.87426C0.909791 7.87589 0.899141 7.87715 0.891809 7.87803C0.888143 7.87846 0.885306 7.8788 0.883303 7.87904C0.882302 7.87916 0.881509 7.87926 0.880924 7.87933C0.880632 7.87936 0.880392 7.87939 0.880205 7.87942C0.880111 7.87943 0.88003 7.87944 0.879962 7.87945C0.879929 7.87945 0.879888 7.87945 0.879871 7.87946C0.879833 7.87946 0.879799 7.87947 1 8.87221ZM8.44442 9.28941C9.90363 9.21039 11.5565 9.13855 13.3805 9.08622L13.3232 7.08704C11.4813 7.13988 9.81153 7.21244 8.33626 7.29234L8.44442 9.28941ZM18.3122 9.00298C19.8776 8.99475 21.528 9.00315 23.2542 9.03333L23.2892 7.03364C21.5472 7.00318 19.8816 6.9947 18.3016 7.00301L18.3122 9.00298ZM28.1728 9.17466C29.7696 9.23854 31.4161 9.32199 33.1062 9.42825L33.2317 7.4322C31.5258 7.32494 29.8642 7.24073 28.2528 7.17626L28.1728 9.17466ZM38.0221 9.79446C39.6312 9.93322 41.2718 10.0934 42.9394 10.2776L43.1589 8.28964C41.4748 8.1037 39.8184 7.94194 38.194 7.80186L38.0221 9.79446ZM47.8271 10.8781C49.435 11.0959 51.0629 11.3369 52.707 11.6029L53.0264 9.62861C51.3648 9.35974 49.72 9.11628 48.0956 8.89618L47.8271 10.8781ZM57.567 12.456C59.1647 12.7589 60.7739 13.0864 62.3913 13.4403L62.8189 11.4866C61.1825 11.1285 59.5549 10.7972 57.9394 10.491L57.567 12.456ZM67.188 14.5639C68.7713 14.9597 70.3593 15.382 71.9492 15.8325L72.4944 13.9083C70.8839 13.452 69.2758 13.0243 67.6731 12.6236L67.188 14.5639ZM76.6665 17.2524C78.2218 17.7487 79.7761 18.2735 81.3266 18.8281L82.0002 16.9449C80.4273 16.3823 78.8512 15.8502 77.2746 15.3471L76.6665 17.2524ZM85.9274 20.5683C86.6883 20.8723 87.4476 21.1839 88.205 21.5034L88.9822 19.6606C88.2129 19.3361 87.4418 19.0197 86.6693 18.7111L85.9274 20.5683ZM88.205 21.5034C88.9694 21.8258 89.7399 22.1606 90.5159 22.5073L91.3316 20.6812C90.5435 20.3291 89.7601 19.9886 88.9822 19.6606L88.205 21.5034ZM95.1035 24.6593C96.5969 25.3916 98.1043 26.16 99.6212 26.9597L100.554 25.1905C99.0211 24.3824 97.4963 23.6051 95.984 22.8636L95.1035 24.6593ZM104.088 29.3872C105.553 30.2063 107.022 31.0494 108.491 31.912L109.504 30.1873C108.023 29.318 106.542 28.4679 105.064 27.6416L104.088 29.3872ZM112.851 34.5269C114.294 35.4105 115.734 36.3089 117.166 37.2177L118.238 35.529C116.797 34.6147 115.348 33.7107 113.895 32.8211L112.851 34.5269ZM121.442 39.9757C122.868 40.9098 124.282 41.8503 125.68 42.7926L126.798 41.1342C125.393 40.1872 123.972 39.2419 122.538 38.3027L121.442 39.9757ZM129.88 45.6606C131.295 46.6393 132.689 47.6154 134.056 48.5839L135.212 46.9517C133.839 45.9792 132.439 44.9988 131.018 44.0157L129.88 45.6606ZM138.191 51.5447C139.6 52.5649 140.974 53.5705 142.307 54.5553L143.495 52.9468C142.158 51.9583 140.778 50.9488 139.364 49.9246L138.191 51.5447ZM146.377 57.5934C147.797 58.6628 149.154 59.6966 150.441 60.6855L151.66 59.0995C150.368 58.107 149.005 57.0695 147.581 55.9961L146.377 57.5934ZM154.468 63.8088C155.94 64.9615 157.275 66.0192 158.454 66.961L159.703 65.3985C158.519 64.4528 157.179 63.3911 155.701 62.2342L154.468 63.8088ZM162.404 70.1525C163.038 70.6717 163.527 71.0757 163.857 71.3495C164.022 71.4864 164.148 71.5907 164.231 71.6607C164.273 71.6957 164.305 71.7221 164.326 71.7397C164.336 71.7485 164.344 71.7551 164.349 71.7594C164.352 71.7616 164.354 71.7632 164.355 71.7642C164.356 71.7648 164.356 71.7651 164.356 71.7654C164.357 71.7655 164.357 71.7656 164.357 71.7657C164.357 71.7657 164.357 71.7657 164.357 71.7657C164.357 71.7657 164.357 71.7657 164.357 71.7657C164.357 71.7657 164.357 71.7657 165 71C165.643 70.2343 165.643 70.2343 165.643 70.2343C165.643 70.2343 165.643 70.2343 165.643 70.2342C165.643 70.2342 165.643 70.2342 165.643 70.2341C165.643 70.234 165.643 70.2339 165.643 70.2338C165.642 70.2334 165.642 70.233 165.641 70.2324C165.639 70.2312 165.637 70.2294 165.635 70.2271C165.629 70.2224 165.621 70.2155 165.61 70.2064C165.588 70.1882 165.556 70.1611 165.513 70.1255C165.428 70.0542 165.301 69.9485 165.134 69.8102C164.801 69.5337 164.308 69.1269 163.67 68.6047L162.404 70.1525Z" fill="url(#paint0_linear)"/>
<defs>
<linearGradient id="paint0_linear" x1="1" y1="8" x2="165" y2="71" gradientUnits="userSpaceOnUse">
<stop stop-color="#FC3698"/>
<stop offset="0.826042" stop-color="#FC3698" stop-opacity="0.5"/>
<stop offset="1" stop-color="#FC3698" stop-opacity="0"/>
</linearGradient>
</defs>
</svg>
