<svg width="166" height="61" viewBox="0 0 166 61" fill="none" xmlns="http://www.w3.org/2000/svg">
<path d="M80.2736 44.2406V43.7406V44.2406ZM0.569357 54.7459C0.429043 54.9838 0.508102 55.2903 0.745939 55.4306L4.62172 57.7172C4.85956 57.8575 5.16611 57.7784 5.30643 57.5406C5.44674 57.3028 5.36768 56.9962 5.12984 56.8559L1.6847 54.8234L3.71719 51.3783C3.85751 51.1404 3.77845 50.8339 3.54061 50.6936C3.30277 50.5533 2.99622 50.6323 2.85591 50.8702L0.569357 54.7459ZM1 55C1.12486 55.4842 1.12486 55.4842 1.12486 55.4842C1.12486 55.4842 1.12486 55.4842 1.12487 55.4842C1.12489 55.4842 1.12492 55.4841 1.12496 55.4841C1.12504 55.4841 1.12518 55.4841 1.12536 55.484C1.12574 55.4839 1.12632 55.4838 1.1271 55.4836C1.12867 55.4832 1.13107 55.4826 1.13428 55.4817C1.1407 55.4801 1.1504 55.4776 1.16334 55.4743C1.18922 55.4677 1.22807 55.4578 1.27963 55.4447C1.38274 55.4185 1.53668 55.3797 1.73939 55.3292C2.14479 55.2281 2.74522 55.0802 3.5241 54.8933L3.29077 53.9209C2.50891 54.1085 1.90563 54.2571 1.4975 54.3589C1.29343 54.4097 1.13816 54.4489 1.03374 54.4754C0.98153 54.4886 0.942036 54.4987 0.915516 54.5055C0.902256 54.5089 0.89224 54.5114 0.8855 54.5132C0.882129 54.514 0.879578 54.5147 0.87785 54.5151C0.876986 54.5154 0.876327 54.5155 0.875875 54.5157C0.875649 54.5157 0.875475 54.5158 0.875352 54.5158C0.87529 54.5158 0.875242 54.5158 0.875206 54.5158C0.875188 54.5158 0.875171 54.5158 0.875162 54.5158C0.875149 54.5158 0.875138 54.5158 1 55ZM8.41492 53.7619C9.86031 53.4386 11.4955 53.0819 13.2975 52.7025L13.0914 51.7239C11.2851 52.1042 9.64588 52.4619 8.19663 52.7861L8.41492 53.7619ZM18.2078 51.6988C19.7654 51.3899 21.4065 51.0733 23.1215 50.7537L22.9382 49.7706C21.2193 50.091 19.5744 50.4083 18.0133 50.7179L18.2078 51.6988ZM28.0461 49.8652C29.647 49.586 31.2967 49.3076 32.9887 49.0332L32.8286 48.0461C31.1325 48.3212 29.4789 48.6002 27.8743 48.8801L28.0461 49.8652ZM37.932 48.2626C39.5549 48.0199 41.2084 47.783 42.8874 47.5541L42.7523 46.5633C41.0689 46.7927 39.4111 47.0303 37.7841 47.2736L37.932 48.2626ZM47.8513 46.9118C49.4915 46.7112 51.1505 46.5199 52.8238 46.34L52.7169 45.3457C51.0385 45.5261 49.3747 45.718 47.7298 45.9192L47.8513 46.9118ZM57.802 45.8438C59.4564 45.6923 61.1203 45.5535 62.7898 45.4292L62.7156 44.432C61.0401 44.5567 59.3705 44.696 57.7108 44.848L57.802 45.8438ZM67.7808 45.1038C69.4458 45.011 71.1125 44.9345 72.7768 44.876L72.7416 43.8766C71.0702 43.9354 69.3967 44.0122 67.7251 44.1053L67.7808 45.1038ZM77.7765 44.7562C78.6106 44.7458 79.4432 44.7406 80.2736 44.7406V43.7406C79.439 43.7406 78.6023 43.7459 77.7641 43.7562L77.7765 44.7562ZM80.2736 44.7406C81.0824 44.7406 81.8954 44.7207 82.7118 44.6819L82.6643 43.683C81.8632 43.7211 81.0661 43.7406 80.2736 43.7406V44.7406ZM87.5818 44.2371C89.1748 44.0249 90.777 43.7489 92.3845 43.4152L92.1812 42.4361C90.5957 42.7652 89.0173 43.0371 87.4498 43.2459L87.5818 44.2371ZM97.1227 42.2734C98.6771 41.8488 100.233 41.3761 101.787 40.8609L101.472 39.9117C99.9342 40.4217 98.3953 40.8891 96.8592 41.3087L97.1227 42.2734ZM106.369 39.2203C107.875 38.6419 109.377 38.028 110.871 37.3836L110.475 36.4654C108.993 37.1047 107.504 37.7134 106.01 38.2867L106.369 39.2203ZM115.3 35.3761C116.764 34.6811 118.217 33.9607 119.655 33.2201L119.198 32.331C117.768 33.067 116.325 33.7825 114.871 34.4728L115.3 35.3761ZM123.941 30.9335C125.367 30.1459 126.776 29.3423 128.164 28.5278L127.658 27.6654C126.277 28.4757 124.876 29.2749 123.457 30.058L123.941 30.9335ZM132.323 26.0174C133.716 25.1542 135.082 24.2847 136.418 23.4144L135.872 22.5765C134.542 23.4429 133.182 24.3084 131.796 25.1674L132.323 26.0174ZM140.457 20.7225C141.828 19.7882 143.16 18.8598 144.447 17.9443L143.868 17.1292C142.585 18.0411 141.259 18.9658 139.894 19.8962L140.457 20.7225ZM148.362 15.1047C149.726 14.0963 151.025 13.1145 152.254 12.1699L151.644 11.3771C150.42 12.3181 149.126 13.2962 147.768 14.3007L148.362 15.1047ZM156.075 9.17599C157.471 8.06058 158.732 7.02965 159.842 6.10721L159.203 5.33816C158.098 6.2567 156.842 7.28352 155.45 8.39462L156.075 9.17599ZM163.542 2.96166C164.125 2.45385 164.573 2.05622 164.876 1.78523C165.028 1.64973 165.143 1.54589 165.22 1.47576C165.259 1.4407 165.288 1.41407 165.308 1.39612C165.318 1.38714 165.325 1.38034 165.33 1.37574C165.333 1.37344 165.334 1.37169 165.336 1.3705C165.336 1.3699 165.337 1.36944 165.337 1.36912C165.337 1.36896 165.338 1.36884 165.338 1.36875C165.338 1.3687 165.338 1.36867 165.338 1.36864C165.338 1.36863 165.338 1.36861 165.338 1.36861C165.338 1.36859 165.338 1.36858 165 1C164.662 0.631416 164.662 0.631411 164.662 0.631407C164.662 0.631409 164.662 0.631408 164.662 0.631412C164.662 0.631419 164.662 0.631435 164.662 0.63146C164.662 0.63151 164.662 0.631595 164.662 0.631714C164.662 0.631952 164.661 0.63233 164.661 0.632847C164.659 0.633879 164.658 0.635467 164.655 0.637604C164.651 0.64188 164.644 0.648357 164.634 0.657004C164.615 0.674298 164.587 0.700272 164.549 0.734667C164.473 0.803457 164.359 0.905935 164.209 1.04004C163.91 1.30826 163.465 1.70299 162.885 2.2078L163.542 2.96166ZM80.2736 44.2406L80.2736 43.2406L80.2736 44.2406ZM0.138715 54.4919C-0.141913 54.9676 0.0162033 55.5807 0.491878 55.8613L8.24344 60.4344C8.71912 60.715 9.33222 60.5569 9.61285 60.0812C9.89348 59.6055 9.73536 58.9924 9.25969 58.7118L2.36941 54.6468L6.43438 47.7566C6.71501 47.2809 6.5569 46.6678 6.08122 46.3871C5.60555 46.1065 4.99244 46.2646 4.71181 46.7403L0.138715 54.4919ZM1 55C1.24972 55.9683 1.24971 55.9683 1.2497 55.9683C1.24971 55.9683 1.2497 55.9683 1.2497 55.9683C1.24971 55.9683 1.24973 55.9683 1.24976 55.9683C1.24983 55.9683 1.24994 55.9683 1.25011 55.9682C1.25044 55.9681 1.25098 55.968 1.25173 55.9678C1.25322 55.9674 1.25554 55.9668 1.25867 55.966C1.26494 55.9644 1.27448 55.962 1.28726 55.9587C1.31282 55.9522 1.35134 55.9423 1.40257 55.9293C1.50503 55.9033 1.65831 55.8647 1.86033 55.8143C2.26437 55.7136 2.86338 55.5661 3.64077 55.3795L3.1741 53.4347C2.39076 53.6227 1.78605 53.7716 1.37656 53.8737C1.17181 53.9247 1.01586 53.9641 0.910794 53.9907C0.858259 54.0041 0.818442 54.0142 0.791603 54.0211C0.778183 54.0245 0.768008 54.0271 0.761109 54.0289C0.75766 54.0298 0.75503 54.0305 0.753223 54.0309C0.75232 54.0312 0.751622 54.0313 0.751131 54.0315C0.750885 54.0315 0.750691 54.0316 0.750548 54.0316C0.750477 54.0316 0.750419 54.0316 0.750373 54.0317C0.750351 54.0317 0.750326 54.0317 0.750315 54.0317C0.750294 54.0317 0.750276 54.0317 1 55ZM8.52406 54.2499C9.96752 53.927 11.6007 53.5707 13.4005 53.1917L12.9884 51.2347C11.18 51.6154 9.53866 51.9735 8.08749 52.2981L8.52406 54.2499ZM18.3051 52.1893C19.8608 51.8807 21.5001 51.5645 23.2131 51.2452L22.8466 49.2791C21.1258 49.5998 19.4789 49.9175 17.916 50.2275L18.3051 52.1893ZM28.132 50.3578C29.731 50.0789 31.3787 49.8008 33.0687 49.5268L32.7486 47.5526C31.0504 47.828 29.3948 48.1073 27.7883 48.3875L28.132 50.3578ZM38.006 48.7571C39.6268 48.5147 41.2782 48.2781 42.9549 48.0495L42.6848 46.0679C40.9991 46.2976 39.3392 46.5355 37.7102 46.7791L38.006 48.7571ZM47.912 47.4081C49.5499 47.2077 51.2064 47.0167 52.8772 46.8371L52.6634 44.8485C50.9825 45.0293 49.3163 45.2214 47.6691 45.4229L47.912 47.4081ZM57.8476 46.3418C59.4993 46.1905 61.1604 46.0519 62.8269 45.9278L62.6785 43.9334C61.0001 44.0583 59.3276 44.1978 57.6652 44.3501L57.8476 46.3418ZM67.8086 45.603C69.4704 45.5104 71.1336 45.434 72.7943 45.3757L72.7241 43.3769C71.049 43.4358 69.3721 43.5128 67.6973 43.6061L67.8086 45.603ZM77.7827 45.2561C78.6148 45.2458 79.4453 45.2406 80.2736 45.2406L80.2736 43.2406C79.4369 43.2406 78.5981 43.2459 77.758 43.2563L77.7827 45.2561ZM80.2736 45.2406C81.0906 45.2406 81.9115 45.2205 82.7356 45.1813L82.6406 43.1836C81.8471 43.2213 81.0579 43.2406 80.2736 43.2406L80.2736 45.2406ZM87.6478 44.7327C89.2535 44.5189 90.8676 44.2407 92.4861 43.9047L92.0796 41.9465C90.505 42.2734 88.9385 42.5432 87.3838 42.7502L87.6478 44.7327ZM97.2545 42.7557C98.818 42.3286 100.382 41.8534 101.944 41.3355L101.315 39.4371C99.7847 39.9445 98.2544 40.4093 96.7274 40.8264L97.2545 42.7557ZM106.548 39.6871C108.061 39.1061 109.57 38.4896 111.069 37.8427L110.277 36.0063C108.801 36.6431 107.318 37.2492 105.831 37.82L106.548 39.6871ZM115.514 35.8278C116.983 35.1303 118.441 34.4076 119.884 33.6646L118.969 31.8864C117.544 32.6201 116.105 33.3333 114.656 34.0211L115.514 35.8278ZM124.182 31.3712C125.613 30.5814 127.026 29.7756 128.417 28.959L127.405 27.2341C126.028 28.0424 124.63 28.8394 123.216 29.6203L124.182 31.3712ZM132.587 26.4423C133.983 25.5771 135.352 24.7056 136.691 23.8334L135.599 22.1575C134.272 23.022 132.915 23.8855 131.533 24.7425L132.587 26.4423ZM140.739 21.1357C142.112 20.1995 143.447 19.2691 144.737 18.3518L143.578 16.7217C142.298 17.6318 140.975 18.5546 139.612 19.483L140.739 21.1357ZM148.66 15.5067C150.026 14.4963 151.328 13.5127 152.559 12.5663L151.34 10.9807C150.118 11.9199 148.826 12.8961 147.47 13.8988L148.66 15.5067ZM156.387 9.56667C157.786 8.44912 159.049 7.41613 160.162 6.49174L158.883 4.95363C157.78 5.87023 156.527 6.89498 155.138 8.00394L156.387 9.56667ZM163.871 3.3386C164.455 2.82928 164.905 2.4302 165.21 2.15782C165.362 2.02163 165.478 1.91711 165.556 1.84631C165.595 1.81092 165.624 1.78395 165.644 1.76567C165.655 1.75654 165.662 1.74957 165.667 1.74481C165.67 1.74243 165.672 1.7406 165.673 1.73932C165.674 1.73869 165.675 1.73819 165.675 1.73783C165.675 1.73765 165.675 1.7375 165.675 1.73739C165.676 1.73734 165.676 1.73729 165.676 1.73725C165.676 1.73724 165.676 1.73721 165.676 1.7372C165.676 1.73719 165.676 1.73717 165 1C164.324 0.262832 164.324 0.262819 164.324 0.262808C164.324 0.262807 164.324 0.262799 164.324 0.262798C164.324 0.262795 164.324 0.262801 164.324 0.262816C164.324 0.262846 164.324 0.26291 164.324 0.263009C164.324 0.263208 164.324 0.263545 164.323 0.264021C164.322 0.264973 164.32 0.26648 164.318 0.268536C164.314 0.27265 164.307 0.278964 164.297 0.287447C164.279 0.304414 164.251 0.330057 164.213 0.364118C164.138 0.432241 164.025 0.534037 163.876 0.667451C163.578 0.934283 163.134 1.32757 162.557 1.83086L163.871 3.3386Z" fill="url(#paint0_linear)"/>
<defs>
<linearGradient id="paint0_linear" x1="1" y1="55" x2="165" y2="0.999999" gradientUnits="userSpaceOnUse">
<stop stop-color="#FC3698"/>
<stop offset="0.826042" stop-color="#FC3698" stop-opacity="0.5"/>
<stop offset="1" stop-color="#FC3698" stop-opacity="0"/>
</linearGradient>
</defs>
</svg>
