<svg width="167" height="29" viewBox="0 0 167 29" fill="none" xmlns="http://www.w3.org/2000/svg">
<path d="M30.5259 27.7009L30.5872 27.2046L30.5259 27.7009ZM112.841 1V0.5V1ZM165.499 27.7267C165.485 28.0025 165.25 28.2145 164.974 28.2002L160.48 27.9676C160.204 27.9534 159.992 27.7182 160.007 27.4425C160.021 27.1667 160.256 26.9547 160.532 26.969L164.527 27.1757L164.733 23.181C164.747 22.9053 164.983 22.6933 165.258 22.7075C165.534 22.7218 165.746 22.9569 165.732 23.2327L165.499 27.7267ZM165 27.7009C164.629 28.0357 164.629 28.0357 164.629 28.0357C164.629 28.0357 164.629 28.0357 164.629 28.0357C164.629 28.0357 164.629 28.0357 164.629 28.0357C164.629 28.0356 164.629 28.0356 164.628 28.0355C164.628 28.0352 164.628 28.0348 164.627 28.0343C164.626 28.0331 164.625 28.0314 164.623 28.0289C164.618 28.0241 164.611 28.0167 164.602 28.0068C164.584 27.987 164.557 27.9571 164.521 27.9176C164.448 27.8386 164.338 27.7211 164.193 27.5683C163.904 27.2627 163.474 26.8162 162.913 26.2553L163.62 25.548C164.188 26.1158 164.624 26.5689 164.92 26.8807C165.067 27.0367 165.18 27.1573 165.255 27.2393C165.293 27.2803 165.322 27.3116 165.341 27.3329C165.351 27.3435 165.358 27.3516 165.363 27.3572C165.366 27.3599 165.368 27.3621 165.369 27.3636C165.37 27.3643 165.37 27.3649 165.371 27.3653C165.371 27.3655 165.371 27.3657 165.371 27.3658C165.371 27.3659 165.371 27.3659 165.371 27.366C165.371 27.366 165.371 27.366 165.371 27.366C165.371 27.366 165.371 27.3661 165 27.7009ZM159.295 22.8302C158.185 21.8308 156.919 20.7331 155.512 19.5794L156.146 18.8062C157.566 19.9705 158.844 21.0783 159.964 22.0872L159.295 22.8302ZM151.591 16.5129C150.309 15.5574 148.949 14.5898 147.518 13.6303L148.075 12.7998C149.52 13.7692 150.894 14.7464 152.189 15.711L151.591 16.5129ZM143.309 10.9652C141.908 10.131 140.457 9.31885 138.96 8.54349L139.42 7.65556C140.935 8.44062 142.404 9.26247 143.821 10.1061L143.309 10.9652ZM134.471 6.39953C132.963 5.7412 131.42 5.12951 129.846 4.57717L130.177 3.63355C131.776 4.19465 133.343 4.81556 134.871 5.48314L134.471 6.39953ZM125.097 3.12703C123.502 2.71377 121.883 2.36923 120.243 2.1052L120.402 1.11791C122.074 1.38722 123.725 1.73837 125.347 2.15901L125.097 3.12703ZM115.317 1.56918C114.495 1.52352 113.67 1.5 112.841 1.5V0.5C113.689 0.5 114.533 0.524057 115.372 0.570716L115.317 1.56918ZM112.841 1.5C112.036 1.5 111.234 1.52519 110.434 1.57407L110.373 0.575926C111.193 0.525849 112.016 0.5 112.841 0.5V1.5ZM105.651 2.14069C104.075 2.41455 102.505 2.77011 100.941 3.19547L100.679 2.23052C102.27 1.79775 103.87 1.43513 105.479 1.15546L105.651 2.14069ZM96.3273 4.64618C94.8182 5.18123 93.313 5.77075 91.8102 6.40378L91.422 5.48221C92.9402 4.84271 94.4635 4.246 95.9931 3.70367L96.3273 4.64618ZM87.3781 8.389C85.9231 9.07603 84.4695 9.79354 83.016 10.5314L82.5633 9.63976C84.0234 8.89856 85.4857 8.1767 86.9512 7.48473L87.3781 8.389ZM78.6955 12.7743C77.2622 13.5313 75.8287 14.2977 74.3925 15.0644L73.9216 14.1823C75.3569 13.416 76.7927 12.6484 78.2285 11.8901L78.6955 12.7743ZM70.0824 17.3515C68.6377 18.1099 67.1897 18.8584 65.7375 19.5868L65.2892 18.6929C66.7342 17.9681 68.1765 17.2226 69.6175 16.4661L70.0824 17.3515ZM61.3342 21.7169C59.8457 22.407 58.3512 23.0659 56.8498 23.683L56.4697 22.758C57.9555 22.1474 59.4363 21.4945 60.9136 20.8097L61.3342 21.7169ZM52.2625 25.4188C50.7049 25.954 49.1383 26.4338 47.5614 26.8464L47.3083 25.879C48.8585 25.4733 50.4011 25.001 51.9375 24.473L52.2625 25.4188ZM42.7519 27.8791C41.1327 28.1477 39.5015 28.3352 37.8573 28.4297L37.8 27.4313C39.4063 27.3391 41.0019 27.1557 42.5883 26.8926L42.7519 27.8791ZM32.9249 28.4239C32.1082 28.3739 31.2881 28.2988 30.4647 28.1971L30.5872 27.2046C31.39 27.3037 32.1895 27.377 32.9861 27.4258L32.9249 28.4239ZM30.4647 28.1971C29.6003 28.0904 28.7353 27.963 27.8728 27.8179L28.0388 26.8317C28.8878 26.9746 29.7383 27.0998 30.5872 27.2046L30.4647 28.1971ZM22.7499 26.7553C21.0268 26.3347 19.339 25.8628 17.713 25.3636L18.0065 24.4076C19.6161 24.9018 21.2851 25.3684 22.9871 25.7838L22.7499 26.7553ZM12.762 23.7054C10.9947 23.0657 9.35754 22.4232 7.89709 21.8199L8.2789 20.8956C9.72731 21.494 11.3506 22.131 13.1024 22.7651L12.762 23.7054ZM3.1161 19.7189C2.37062 19.3702 1.78522 19.0853 1.38556 18.8871C1.18571 18.7881 1.0323 18.7107 0.928513 18.6579C0.876617 18.6315 0.837128 18.6113 0.81044 18.5976C0.797104 18.5907 0.786957 18.5855 0.780075 18.5819C0.776627 18.5801 0.774002 18.5788 0.772186 18.5778C0.771271 18.5774 0.770569 18.577 0.770081 18.5767C0.769836 18.5766 0.769638 18.5765 0.769485 18.5764C0.769424 18.5764 0.769363 18.5764 0.769318 18.5763C0.769287 18.5763 0.769257 18.5763 0.769257 18.5763C0.769226 18.5763 0.769211 18.5763 1 18.1327C1.23079 17.6892 1.23077 17.6892 1.23077 17.6892C1.23077 17.6892 1.23076 17.6892 1.23076 17.6892C1.23077 17.6892 1.23079 17.6892 1.23082 17.6892C1.23088 17.6892 1.23099 17.6893 1.23116 17.6894C1.23148 17.6895 1.23201 17.6898 1.23276 17.6902C1.23422 17.691 1.23651 17.6922 1.23962 17.6938C1.24582 17.697 1.25528 17.7019 1.26791 17.7084C1.2932 17.7214 1.33127 17.7409 1.38171 17.7665C1.4826 17.8178 1.63301 17.8937 1.82971 17.9912C2.22313 18.1862 2.80171 18.4679 3.53979 18.8131L3.1161 19.7189ZM30.5259 27.7009L30.6485 26.7084L30.5259 27.7009ZM112.841 1V0V1ZM165.999 27.7525C165.97 28.3041 165.5 28.7281 164.948 28.6995L155.96 28.2344C155.409 28.2059 154.985 27.7356 155.013 27.1841C155.042 26.6325 155.512 26.2086 156.064 26.2371L164.053 26.6505L164.466 18.6612C164.495 18.1097 164.965 17.6857 165.517 17.7142C166.068 17.7428 166.492 18.213 166.464 18.7646L165.999 27.7525ZM165 27.7009C164.257 28.3705 164.257 28.3705 164.257 28.3705C164.257 28.3706 164.257 28.3706 164.257 28.3706C164.257 28.3706 164.257 28.3706 164.257 28.3706C164.257 28.3706 164.257 28.3706 164.257 28.3705C164.257 28.3704 164.257 28.3701 164.256 28.3696C164.256 28.3687 164.254 28.3671 164.252 28.3648C164.248 28.3604 164.242 28.3533 164.233 28.3438C164.216 28.3247 164.189 28.2956 164.153 28.2568C164.082 28.1793 163.974 28.0633 163.83 27.912C163.544 27.6096 163.117 27.1664 162.559 26.609L163.973 25.1943C164.545 25.7656 164.984 26.222 165.283 26.537C165.432 26.6944 165.546 26.8166 165.623 26.9001C165.661 26.9418 165.691 26.9739 165.711 26.9959C165.721 27.0069 165.728 27.0154 165.734 27.0213C165.736 27.0242 165.738 27.0266 165.74 27.0282C165.741 27.029 165.741 27.0297 165.742 27.0302C165.742 27.0305 165.742 27.0307 165.742 27.0309C165.742 27.0309 165.742 27.031 165.743 27.0311C165.743 27.0311 165.743 27.0312 165.743 27.0312C165.743 27.0312 165.743 27.0312 165 27.7009ZM158.96 23.2018C157.856 22.207 156.595 21.1144 155.195 19.966L156.463 18.4196C157.889 19.5892 159.173 20.702 160.299 21.7156L158.96 23.2018ZM151.293 16.9139C150.016 15.9629 148.663 15.0001 147.24 14.0455L148.354 12.3846C149.806 13.3589 151.187 14.3409 152.488 15.31L151.293 16.9139ZM143.053 11.3948C141.66 10.5653 140.217 9.75796 138.73 8.98745L139.65 7.2116C141.175 8.00151 142.652 8.8282 144.076 9.67652L143.053 11.3948ZM134.27 6.85773C132.774 6.20402 131.242 5.59694 129.68 5.04897L130.342 3.16175C131.954 3.72722 133.532 4.35273 135.071 5.02494L134.27 6.85773ZM124.971 3.61103C123.391 3.20147 121.787 2.86024 120.163 2.59884L120.481 0.624269C122.17 0.896216 123.836 1.25067 125.473 1.67501L124.971 3.61103ZM115.289 2.06841C114.477 2.02325 113.66 2 112.841 2V0C113.698 2.38419e-07 114.551 0.024326 115.4 0.0714863L115.289 2.06841ZM112.841 2C112.047 2 111.255 2.02487 110.465 2.07314L110.343 0.0768569C111.173 0.0261763 112.005 -2.38419e-07 112.841 0V2ZM105.736 2.63331C104.177 2.90426 102.623 3.25628 101.072 3.67795L100.548 1.74805C102.152 1.31157 103.767 0.945422 105.394 0.662838L105.736 2.63331ZM96.4944 5.11744C94.9956 5.64884 93.4994 6.23477 92.0043 6.86457L91.2279 5.02142C92.7537 4.37869 94.2861 3.77839 95.8261 3.23241L96.4944 5.11744ZM87.5916 8.84113C86.1418 9.5257 84.6926 10.241 83.2424 10.9773L82.337 9.19392C83.8003 8.45107 85.267 7.72703 86.7377 7.0326L87.5916 8.84113ZM78.929 13.2164C77.4969 13.9728 76.0647 14.7385 74.628 15.5055L73.6861 13.7412C75.121 12.9752 76.558 12.2069 77.995 11.4479L78.929 13.2164ZM70.3148 17.7942C68.8683 18.5535 67.4174 19.3035 65.9617 20.0337L65.065 18.246C66.5065 17.523 67.9459 16.779 69.3851 16.0234L70.3148 17.7942ZM61.5445 22.1705C60.0504 22.8632 58.5491 23.5252 57.0399 24.1454L56.2796 22.2956C57.7576 21.6881 59.2317 21.0383 60.7033 20.3561L61.5445 22.1705ZM52.4249 25.8916C50.8568 26.4305 49.2782 26.914 47.688 27.3301L47.1817 25.3953C48.7186 24.9931 50.2491 24.5245 51.775 24.0002L52.4249 25.8916ZM42.8337 28.3724C41.1981 28.6436 39.5492 28.8333 37.886 28.9289L37.7713 26.9322C39.3586 26.841 40.9365 26.6597 42.5065 26.3993L42.8337 28.3724ZM32.8944 28.923C32.0675 28.8723 31.2372 28.7963 30.4034 28.6933L30.6485 26.7084C31.4409 26.8062 32.2302 26.8786 33.0166 26.9267L32.8944 28.923ZM30.4034 28.6933C29.5313 28.5857 28.6591 28.4572 27.7898 28.3109L28.1218 26.3387C28.9641 26.4804 29.8073 26.6046 30.6485 26.7084L30.4034 28.6933ZM22.6314 27.241C20.8977 26.8179 19.2004 26.3433 17.5663 25.8416L18.1533 23.9296C19.7546 24.4213 21.4142 24.8852 23.1056 25.2981L22.6314 27.241ZM12.5918 24.1756C10.8168 23.5331 9.17265 22.8878 7.70618 22.282L8.46982 20.4335C9.91219 21.0294 11.5285 21.6637 13.2725 22.295L12.5918 24.1756ZM2.90425 20.1718C2.15509 19.8214 1.56627 19.5348 1.16348 19.3351C0.962067 19.2353 0.807144 19.1571 0.701904 19.1036C0.649292 19.0769 0.609085 19.0563 0.581711 19.0422C0.568008 19.0352 0.557526 19.0297 0.550293 19.026C0.546677 19.0241 0.543884 19.0227 0.541901 19.0216C0.540909 19.0211 0.540115 19.0207 0.539536 19.0204C0.539246 19.0203 0.539017 19.0201 0.538834 19.02C0.538727 19.02 0.538651 19.02 0.538589 19.0199C0.538544 19.0199 0.538513 19.0199 0.538498 19.0199C0.538452 19.0199 0.538422 19.0198 1 18.1327C1.46158 17.2456 1.46155 17.2456 1.46153 17.2456C1.46152 17.2456 1.4615 17.2456 1.46149 17.2456C1.46147 17.2456 1.46147 17.2456 1.46149 17.2456C1.4615 17.2456 1.46158 17.2456 1.4617 17.2457C1.46193 17.2458 1.46239 17.2461 1.46304 17.2464C1.46434 17.2471 1.46646 17.2482 1.46939 17.2497C1.47525 17.2527 1.48436 17.2574 1.49666 17.2637C1.52124 17.2764 1.55859 17.2955 1.60832 17.3208C1.70776 17.3714 1.85666 17.4465 2.05179 17.5432C2.44209 17.7367 3.01724 18.0167 3.75165 18.3602L2.90425 20.1718Z" fill="url(#paint0_linear)"/>
<defs>
<linearGradient id="paint0_linear" x1="165.502" y1="32.0065" x2="11.8111" y2="63.7139" gradientUnits="userSpaceOnUse">
<stop stop-color="#FC3698"/>
<stop offset="0.826042" stop-color="#FC3698" stop-opacity="0.5"/>
<stop offset="1" stop-color="#FC3698" stop-opacity="0"/>
</linearGradient>
</defs>
</svg>
