<svg width="166" height="112" viewBox="0 0 166 112" fill="none" xmlns="http://www.w3.org/2000/svg">
<path d="M68.4438 79.6508L68.1605 80.0628L68.4438 79.6508ZM165.354 103.646C165.549 103.842 165.549 104.158 165.354 104.354L162.172 107.536C161.976 107.731 161.66 107.731 161.464 107.536C161.269 107.34 161.269 107.024 161.464 106.828L164.293 104L161.464 101.172C161.269 100.976 161.269 100.66 161.464 100.464C161.66 100.269 161.976 100.269 162.172 100.464L165.354 103.646ZM165 104C165 104.5 165 104.5 165 104.5C165 104.5 165 104.5 165 104.5C165 104.5 165 104.5 165 104.5C165 104.5 164.999 104.5 164.999 104.5C164.999 104.5 164.998 104.5 164.997 104.5C164.995 104.5 164.992 104.5 164.989 104.5C164.982 104.5 164.971 104.5 164.957 104.5C164.93 104.5 164.888 104.5 164.834 104.499C164.724 104.499 164.562 104.497 164.35 104.495C163.925 104.489 163.297 104.479 162.486 104.458L162.513 103.458C163.319 103.479 163.941 103.489 164.362 103.495C164.573 103.497 164.733 103.499 164.84 103.499C164.893 103.5 164.934 103.5 164.96 103.5C164.974 103.5 164.984 103.5 164.99 103.5C164.994 103.5 164.996 103.5 164.998 103.5C164.999 103.5 164.999 103.5 165 103.5C165 103.5 165 103.5 165 103.5C165 103.5 165 103.5 165 103.5C165 103.5 165 103.5 165 103.5C165 103.5 165 103.5 165 104ZM157.435 104.261C155.934 104.186 154.239 104.087 152.377 103.956L152.447 102.959C154.302 103.089 155.991 103.187 157.485 103.262L157.435 104.261ZM147.357 103.558C145.762 103.417 144.084 103.254 142.337 103.067L142.443 102.073C144.184 102.259 145.856 102.421 147.445 102.562L147.357 103.558ZM137.304 102.482C135.682 102.278 134.015 102.054 132.309 101.807L132.453 100.817C134.152 101.063 135.813 101.287 137.429 101.49L137.304 102.482ZM127.316 101.033C125.678 100.763 124.014 100.471 122.33 100.157L122.513 99.174C124.191 99.4869 125.848 99.7772 127.479 100.047L127.316 101.033ZM117.38 99.1777C115.748 98.8358 114.102 98.4719 112.448 98.0846L112.676 97.111C114.322 97.4964 115.96 97.8586 117.585 98.1989L117.38 99.1777ZM107.54 96.8707C105.916 96.447 104.289 95.9997 102.664 95.5275L102.943 94.5672C104.559 95.0367 106.177 95.4816 107.792 95.9031L107.54 96.8707ZM97.8294 94.0458C96.2264 93.5278 94.6291 92.9841 93.0422 92.4133L93.3806 91.4723C94.9568 92.0392 96.5437 92.5795 98.1369 93.0943L97.8294 94.0458ZM88.3119 90.6166C86.7421 89.9873 85.1872 89.3292 83.652 88.6413L84.061 87.7287C85.5834 88.4109 87.126 89.0638 88.684 89.6885L88.3119 90.6166ZM79.0793 86.4709C77.5627 85.7085 76.0711 84.9137 74.6093 84.0851L75.1024 83.2152C76.549 84.0352 78.0259 84.8222 79.5284 85.5775L79.0793 86.4709ZM70.2679 81.4642C69.5562 81.0063 68.8536 80.5392 68.1605 80.0628L68.727 79.2387C69.4114 79.7092 70.1057 80.1706 70.809 80.6232L70.2679 81.4642ZM68.1605 80.0628C67.4562 79.5786 66.7487 79.075 66.0385 78.5533L66.6305 77.7474C67.3327 78.2633 68.0318 78.7608 68.727 79.2387L68.1605 80.0628ZM61.9029 75.3398C60.5842 74.2616 59.2597 73.1295 57.9325 71.9507L58.5965 71.203C59.9145 72.3736 61.2287 73.4968 62.5359 74.5656L61.9029 75.3398ZM54.0835 68.4118C52.8368 67.2279 51.5903 66.0087 50.3469 64.7603L51.0554 64.0546C52.2928 65.2969 53.5326 66.5096 54.7721 67.6867L54.0835 68.4118ZM46.7121 61.0217C45.5216 59.7686 44.3363 58.4936 43.1584 57.2019L43.8973 56.5282C45.0709 57.8151 46.2516 59.0851 47.437 60.3329L46.7121 61.0217ZM39.6787 53.3147C38.531 52.0097 37.393 50.6933 36.267 49.3708L37.0284 48.7225C38.1512 50.0412 39.2857 51.3535 40.4296 52.6544L39.6787 53.3147ZM32.9154 45.3753C31.8009 44.0274 30.701 42.6782 29.6183 41.3331L30.3973 40.7061C31.4774 42.048 32.5745 43.3937 33.6861 44.7381L32.9154 45.3753ZM26.3738 37.2517C25.2876 35.8685 24.2225 34.4954 23.1812 33.1384L23.9745 32.5296C25.0137 33.8839 26.0765 35.254 27.1603 36.6341L26.3738 37.2517ZM20.0277 28.9831C18.9581 27.5585 17.9196 26.1596 16.9157 24.7942L17.7214 24.2018C18.7234 25.5647 19.7599 26.9609 20.8274 28.3828L20.0277 28.9831ZM13.8591 20.5946C12.794 19.1165 11.7793 17.6928 10.8201 16.3346L11.6369 15.7577C12.5944 17.1134 13.6073 18.5346 14.6704 20.01L13.8591 20.5946ZM7.83275 12.0623C6.73961 10.4829 5.75299 9.03938 4.88483 7.75765L5.71277 7.19685C6.57918 8.47596 7.56389 9.91669 8.655 11.4931L7.83275 12.0623ZM1.9859 3.42423C1.52855 2.73093 1.17709 2.19274 0.939865 1.82767C0.821243 1.64514 0.731171 1.50588 0.670685 1.41216C0.640442 1.36529 0.617599 1.32981 0.602295 1.30599C0.594635 1.29408 0.588852 1.28509 0.584976 1.27905C0.583038 1.27603 0.581573 1.27374 0.580582 1.2722C0.580078 1.27143 0.579712 1.27084 0.579453 1.27045C0.57933 1.27025 0.579224 1.27009 0.579163 1.26999C0.579132 1.26993 0.579102 1.26989 0.579086 1.26986C0.579071 1.26985 0.579056 1.26983 0.579056 1.26983C0.579056 1.26982 0.579041 1.26981 1 1C1.42096 0.730193 1.42096 0.730191 1.42096 0.730191C1.42096 0.730196 1.42096 0.730199 1.42096 0.730208C1.42097 0.730225 1.42099 0.730253 1.42102 0.730293C1.42107 0.730373 1.42116 0.7305 1.42126 0.730673C1.42148 0.731019 1.42183 0.731551 1.42229 0.732269C1.4232 0.733704 1.42461 0.735881 1.42648 0.738796C1.43022 0.744625 1.43585 0.753404 1.44337 0.765098C1.45842 0.788486 1.48099 0.823532 1.51094 0.869956C1.57085 0.962803 1.66034 1.10116 1.77837 1.28278C2.0144 1.64601 2.36459 2.18227 2.82063 2.87357L1.9859 3.42423ZM68.4438 79.6508L67.8773 80.4748L68.4438 79.6508ZM165.707 103.293C166.098 103.683 166.098 104.317 165.707 104.707L159.343 111.071C158.953 111.462 158.319 111.462 157.929 111.071C157.538 110.681 157.538 110.047 157.929 109.657L163.586 104L157.929 98.3431C157.538 97.9526 157.538 97.3195 157.929 96.9289C158.319 96.5384 158.953 96.5384 159.343 96.9289L165.707 103.293ZM165 104C165 105 165 105 165 105C165 105 165 105 165 105C165 105 165 105 165 105C164.999 105 164.999 105 164.999 105C164.998 105 164.998 105 164.997 105C164.995 105 164.992 105 164.988 105C164.981 105 164.97 105 164.956 105C164.927 105 164.886 105 164.831 104.999C164.72 104.999 164.557 104.997 164.343 104.995C163.916 104.989 163.286 104.979 162.473 104.957L162.526 102.958C163.329 102.979 163.95 102.99 164.368 102.995C164.578 102.997 164.737 102.999 164.843 102.999C164.896 103 164.936 103 164.962 103C164.975 103 164.985 103 164.991 103C164.994 103 164.997 103 164.998 103C164.999 103 164.999 103 165 103C165 103 165 103 165 103C165 103 165 103 165 103C165 103 165 103 165 103C165 103 165 103 165 104ZM157.41 104.761C155.906 104.685 154.208 104.586 152.342 104.455L152.482 102.46C154.334 102.59 156.019 102.688 157.51 102.763L157.41 104.761ZM147.313 104.056C145.715 103.914 144.034 103.752 142.284 103.564L142.496 101.576C144.235 101.762 145.903 101.923 147.489 102.064L147.313 104.056ZM137.242 102.978C135.617 102.774 133.946 102.549 132.238 102.302L132.525 100.322C134.22 100.568 135.878 100.791 137.491 100.994L137.242 102.978ZM127.234 101.526C125.593 101.256 123.926 100.963 122.238 100.649L122.605 98.6824C124.279 98.9947 125.932 99.2844 127.56 99.5532L127.234 101.526ZM117.278 99.6671C115.642 99.3244 113.992 98.9597 112.334 98.5715L112.79 96.6241C114.432 97.0086 116.066 97.37 117.688 97.7096L117.278 99.6671ZM107.413 97.3545C105.786 96.9297 104.154 96.4812 102.524 96.0077L103.082 94.0871C104.694 94.5552 106.307 94.9989 107.918 95.4193L107.413 97.3545ZM97.6757 94.5216C96.0677 94.002 94.4653 93.4565 92.873 92.8838L93.5499 91.0018C95.1207 91.5668 96.7024 92.1053 98.2907 92.6185L97.6757 94.5216ZM88.1258 91.0807C86.5501 90.449 84.9892 89.7884 83.4475 89.0975L84.2654 87.2724C85.7815 87.9518 87.3179 88.6021 88.8701 89.2244L88.1258 91.0807ZM78.8547 86.9177C77.3311 86.1517 75.8321 85.353 74.3627 84.5201L75.349 82.7802C76.7879 83.5959 78.2575 84.379 79.753 85.1308L78.8547 86.9177ZM69.9974 81.8846C69.2815 81.4241 68.5746 80.9542 67.8773 80.4748L69.0103 78.8267C69.6904 79.2942 70.3804 79.7528 71.0795 80.2027L69.9974 81.8846ZM67.8773 80.4748C67.1684 79.9875 66.4566 79.4809 65.7425 78.9563L66.9266 77.3445C67.6248 77.8574 68.3195 78.3519 69.0103 78.8267L67.8773 80.4748ZM61.5864 75.7269C60.262 74.644 58.9323 73.5074 57.6004 72.3245L58.9286 70.8292C60.2419 71.9956 61.5509 73.1144 62.8524 74.1786L61.5864 75.7269ZM53.7392 68.7744C52.4889 67.587 51.2391 66.3646 49.9926 65.1132L51.4096 63.7018C52.644 64.9411 53.8805 66.1504 55.1164 67.3241L53.7392 68.7744ZM46.3496 61.3661C45.1566 60.1104 43.9689 58.8329 42.789 57.5388L44.2668 56.1913C45.4382 57.4759 46.6165 58.7434 47.7995 59.9885L46.3496 61.3661ZM39.3032 53.6449C38.1537 52.3378 37.0139 51.0194 35.8862 49.6949L37.4091 48.3983C38.5302 49.7152 39.663 51.0255 40.8051 52.3242L39.3032 53.6449ZM32.5301 45.6939C31.4141 44.3442 30.3129 42.9934 29.2288 41.6467L30.7868 40.3926C31.8656 41.7328 32.9613 43.0769 34.0714 44.4195L32.5301 45.6939ZM25.9805 37.5605C24.8932 36.1758 23.8269 34.8012 22.7845 33.4428L24.3712 32.2252C25.4093 33.5781 26.471 34.9467 27.5535 36.3253L25.9805 37.5605ZM19.6278 29.2833C18.5572 27.8573 17.5177 26.4571 16.5128 25.0903L18.1242 23.9056C19.1253 25.2673 20.1608 26.6621 21.2272 28.0826L19.6278 29.2833ZM13.4534 20.8869C12.3874 19.4075 11.3717 17.9824 10.4117 16.6231L12.0453 15.4693C13.0019 16.8237 14.0139 18.2436 15.0761 19.7177L13.4534 20.8869ZM7.42162 12.3468C6.32747 10.766 5.3399 9.32108 4.47086 8.03805L6.12674 6.91644C6.99226 8.19425 7.97603 9.63359 9.06613 11.2086L7.42162 12.3468ZM1.56854 3.69956C1.11052 3.00526 0.758438 2.46611 0.520615 2.10012C0.401688 1.91713 0.311325 1.77743 0.250565 1.68326C0.220184 1.63617 0.197205 1.60047 0.181747 1.57644C0.174011 1.56442 0.168167 1.55532 0.164215 1.54917C0.162247 1.5461 0.160751 1.54376 0.159729 1.54217C0.15921 1.54137 0.158813 1.54076 0.158554 1.54033C0.158417 1.54012 0.15831 1.53995 0.158234 1.53983C0.158188 1.53977 0.158157 1.53973 0.158142 1.53969C0.158127 1.53967 0.158112 1.53965 0.158112 1.53964C0.158096 1.53963 0.158081 1.53961 1 1C1.84192 0.460385 1.8419 0.460378 1.8419 0.460374C1.8419 0.460377 1.8419 0.460376 1.8419 0.460381C1.84192 0.460391 1.84193 0.460413 1.84195 0.460446C1.842 0.460513 1.84207 0.460626 1.84216 0.460786C1.84238 0.461106 1.8427 0.461611 1.84314 0.462303C1.84402 0.463685 1.8454 0.465809 1.84723 0.46867C1.85091 0.474393 1.85648 0.483065 1.86392 0.494651C1.87883 0.517823 1.90125 0.552651 1.93106 0.598855C1.99069 0.691262 2.07988 0.829169 2.19762 1.01033C2.43306 1.37264 2.78262 1.90794 3.23801 2.59824L1.56854 3.69956Z" fill="url(#paint0_linear)"/>
<defs>
<linearGradient id="paint0_linear" x1="165" y1="104" x2="74.605" y2="-43.9664" gradientUnits="userSpaceOnUse">
<stop stop-color="#FC3698"/>
<stop offset="0.826042" stop-color="#FC3698" stop-opacity="0.5"/>
<stop offset="1" stop-color="#FC3698" stop-opacity="0"/>
</linearGradient>
</defs>
</svg>
