<svg width="166" height="75" viewBox="0 0 166 75" fill="none" xmlns="http://www.w3.org/2000/svg">
<path d="M68.0471 12.477L67.8951 12.0007L68.0471 12.477ZM165.395 8.16945C165.564 8.38778 165.524 8.70184 165.306 8.87091L161.748 11.6261C161.53 11.7952 161.216 11.7553 161.047 11.5369C160.878 11.3186 160.918 11.0046 161.136 10.8355L164.299 8.3864L161.849 5.22381C161.68 5.00547 161.72 4.69142 161.939 4.52235C162.157 4.35327 162.471 4.3932 162.64 4.61153L165.395 8.16945ZM165 8.47559C164.937 8.97159 164.937 8.97159 164.937 8.97159C164.937 8.97159 164.937 8.97159 164.937 8.97159C164.937 8.97159 164.937 8.97159 164.937 8.97158C164.937 8.97157 164.937 8.97155 164.936 8.97153C164.936 8.97148 164.935 8.97141 164.935 8.97131C164.933 8.97111 164.931 8.97081 164.928 8.97041C164.921 8.9696 164.911 8.96838 164.899 8.96676C164.873 8.96353 164.834 8.9587 164.782 8.95236C164.679 8.93969 164.526 8.921 164.324 8.89698C163.919 8.84894 163.321 8.77961 162.546 8.69459L162.655 7.70055C163.433 7.78591 164.034 7.85559 164.442 7.90396C164.645 7.92815 164.8 7.94701 164.905 7.95985C164.957 7.96627 164.996 7.97118 165.023 7.9745C165.036 7.97616 165.046 7.97742 165.053 7.97827C165.056 7.97869 165.059 7.97902 165.06 7.97924C165.061 7.97935 165.062 7.97943 165.062 7.97949C165.063 7.97952 165.063 7.97954 165.063 7.97955C165.063 7.97956 165.063 7.97957 165.063 7.97957C165.063 7.97957 165.063 7.97958 165.063 7.97958C165.063 7.97958 165.063 7.97958 165 8.47559ZM157.696 8.20355C156.253 8.06835 154.622 7.92439 152.827 7.77962L152.908 6.78286C154.707 6.92799 156.342 7.07233 157.789 7.20791L157.696 8.20355ZM147.974 7.41802C146.428 7.31218 144.8 7.20968 143.102 7.11392L143.159 6.1155C144.861 6.2115 146.492 6.31425 148.042 6.42035L147.974 7.41802ZM138.231 6.86874C136.648 6.79878 135.02 6.73628 133.353 6.6835L133.384 5.684C135.056 5.73692 136.689 5.79957 138.275 5.86972L138.231 6.86874ZM128.484 6.56099C126.883 6.53127 125.255 6.51162 123.605 6.5038L123.61 5.50381C125.265 5.51165 126.898 5.53136 128.503 5.56117L128.484 6.56099ZM118.724 6.51628C117.114 6.5324 115.489 6.56084 113.854 6.60311L113.828 5.60345C115.469 5.56103 117.099 5.5325 118.714 5.51633L118.724 6.51628ZM108.983 6.77031C107.365 6.83999 105.741 6.92441 104.116 7.02499L104.054 6.0269C105.685 5.92591 107.316 5.84117 108.94 5.77124L108.983 6.77031ZM99.2555 7.37554C97.6341 7.50969 96.0162 7.6614 94.4063 7.83209L94.3009 6.83766C95.9188 6.66612 97.5444 6.5137 99.173 6.37895L99.2555 7.37554ZM89.5685 8.40736C87.9479 8.62188 86.3404 8.85762 84.7508 9.11606L84.5903 8.12902C86.1903 7.8689 87.8075 7.63175 89.4372 7.41601L89.5685 8.40736ZM79.9633 9.97611C78.3554 10.294 76.772 10.6379 75.2184 11.0096L74.9857 10.037C76.5531 9.66207 78.1494 9.31534 79.7693 8.99509L79.9633 9.97611ZM70.5115 12.2501C69.7307 12.4764 68.9596 12.7107 68.199 12.9534L67.8951 12.0007C68.6645 11.7552 69.4442 11.5183 70.2333 11.2896L70.5115 12.2501ZM68.199 12.9534C67.3932 13.2105 66.5901 13.4863 65.7901 13.78L65.4455 12.8413C66.2586 12.5428 67.0752 12.2623 67.8951 12.0007L68.199 12.9534ZM61.071 15.7288C59.5345 16.4329 58.0119 17.1976 56.505 18.0161L56.0277 17.1374C57.5532 16.3088 59.0961 15.5338 60.6544 14.8197L61.071 15.7288ZM52.0853 20.5935C50.6441 21.491 49.22 22.4332 47.815 23.4133L47.2429 22.5931C48.6613 21.6037 50.0999 20.6519 51.5567 19.7447L52.0853 20.5935ZM43.6848 26.4409C42.3311 27.4809 40.9981 28.5516 39.6875 29.6466L39.0464 28.8792C40.3668 27.776 41.7104 26.6967 43.0756 25.6479L43.6848 26.4409ZM35.8149 33.007C34.5379 34.156 33.2859 35.3231 32.0607 36.5014L31.3676 35.7806C32.6003 34.5951 33.8604 33.4205 35.146 32.2637L35.8149 33.007ZM28.4219 40.1099C27.2095 41.3484 26.0281 42.5917 24.8798 43.8321L24.146 43.1527C25.3003 41.9059 26.4881 40.6559 27.7072 39.4104L28.4219 40.1099ZM21.4467 47.6388C20.2899 48.955 19.1736 50.2589 18.1005 51.5412L17.3336 50.8995C18.4116 49.6112 19.5332 48.3012 20.6956 46.9786L21.4467 47.6388ZM14.8613 55.5047C13.7448 56.9031 12.688 58.2607 11.6947 59.5638L10.8994 58.9576C11.897 57.6489 12.9584 56.2853 14.0798 54.8808L14.8613 55.5047ZM8.62541 63.6845C7.51857 65.2057 6.52733 66.6077 5.66017 67.8595L4.83813 67.2901C5.7094 66.0323 6.70512 64.6241 7.8168 63.0962L8.62541 63.6845ZM2.80099 72.1051C2.34967 72.7968 2.00551 73.3366 1.77446 73.7031C1.65894 73.8863 1.5717 74.0262 1.51349 74.12C1.48439 74.1669 1.46254 74.2023 1.44803 74.2259C1.44078 74.2377 1.43536 74.2465 1.43181 74.2523C1.43002 74.2552 1.42871 74.2573 1.42786 74.2588C1.42743 74.2594 1.42711 74.26 1.42691 74.2603C1.42682 74.2604 1.42674 74.2606 1.42671 74.2606C1.42668 74.2607 1.42668 74.2607 1.42667 74.2607C1.42667 74.2607 1.42668 74.2607 1 74C0.573318 73.7393 0.573334 73.7393 0.573349 73.7393C0.573349 73.7393 0.573364 73.7393 0.57338 73.7393C0.573395 73.7392 0.573425 73.7392 0.573471 73.7391C0.573547 73.739 0.573654 73.7388 0.573776 73.7386C0.574051 73.7381 0.574432 73.7375 0.574936 73.7367C0.575943 73.7351 0.577408 73.7327 0.579346 73.7295C0.583206 73.7232 0.588913 73.7139 0.596466 73.7016C0.611572 73.6771 0.634033 73.6407 0.663757 73.5928C0.723206 73.497 0.811722 73.3551 0.928558 73.1698C1.16223 72.7991 1.5092 72.2549 1.9635 71.5587L2.80099 72.1051ZM68.0471 12.477L67.7431 11.5243L68.0471 12.477ZM165.791 7.86332C166.129 8.29998 166.049 8.92809 165.612 9.26624L158.496 14.7767C158.06 15.1148 157.432 15.035 157.094 14.5983C156.755 14.1616 156.835 13.5335 157.272 13.1954L163.597 8.29721L158.699 1.97202C158.361 1.53536 158.441 0.907252 158.877 0.569104C159.314 0.230957 159.942 0.310819 160.28 0.747482L165.791 7.86332ZM165 8.47559C164.874 9.4676 164.874 9.4676 164.874 9.4676C164.874 9.4676 164.874 9.4676 164.874 9.4676C164.874 9.4676 164.874 9.4676 164.874 9.4676C164.874 9.46759 164.874 9.46757 164.873 9.46755C164.873 9.46751 164.873 9.46744 164.872 9.46735C164.87 9.46716 164.868 9.46687 164.865 9.46647C164.859 9.46569 164.849 9.46449 164.836 9.46289C164.811 9.4597 164.772 9.45491 164.721 9.44862C164.619 9.43603 164.466 9.41742 164.265 9.39349C163.862 9.34562 163.265 9.27646 162.491 9.19161L162.709 7.20353C163.489 7.28906 164.092 7.35891 164.501 7.40745C164.705 7.43173 164.861 7.45067 164.966 7.46359C165.018 7.47005 165.058 7.47501 165.085 7.47837C165.098 7.48005 165.108 7.48133 165.115 7.4822C165.119 7.48263 165.121 7.48297 165.123 7.4832C165.124 7.48331 165.125 7.4834 165.125 7.48346C165.126 7.4835 165.126 7.48352 165.126 7.48354C165.126 7.48355 165.126 7.48356 165.126 7.48356C165.126 7.48356 165.126 7.48357 165.126 7.48357C165.126 7.48357 165.126 7.48357 165 8.47559ZM157.649 8.70136C156.209 8.56635 154.58 8.42258 152.787 8.27801L152.948 6.28448C154.75 6.42979 156.387 6.57432 157.836 6.71009L157.649 8.70136ZM147.94 7.91685C146.396 7.81114 144.77 7.70877 143.074 7.61312L143.187 5.6163C144.891 5.71241 146.525 5.81529 148.077 5.92152L147.94 7.91685ZM138.209 7.36825C136.628 7.29838 135.002 7.23596 133.337 7.18325L133.4 5.18426C135.074 5.23724 136.709 5.29997 138.297 5.37021L138.209 7.36825ZM128.475 7.06091C126.876 7.03122 125.25 7.0116 123.603 7.00379L123.612 5.00382C125.27 5.01167 126.905 5.0314 128.512 5.06125L128.475 7.06091ZM118.729 7.01625C117.121 7.03235 115.499 7.06074 113.867 7.10294L113.815 5.10361C115.459 5.06113 117.091 5.03255 118.709 5.01635L118.729 7.01625ZM109.005 7.26985C107.389 7.3394 105.768 7.42366 104.146 7.52404L104.023 5.52786C105.658 5.42667 107.291 5.34177 108.919 5.2717L109.005 7.26985ZM99.2967 7.87384C97.6789 8.00769 96.0649 8.15904 94.4591 8.3293L94.2482 6.34045C95.8702 6.16848 97.4995 6.0157 99.1318 5.88065L99.2967 7.87384ZM89.6341 8.90303C88.0181 9.11695 86.4155 9.35197 84.831 9.60958L84.5101 7.6355C86.1152 7.37454 87.7373 7.13668 89.3716 6.92033L89.6341 8.90303ZM80.0602 10.4666C78.4584 10.7833 76.8815 11.1258 75.3347 11.4959L74.8694 9.55076C76.4436 9.17415 78.0464 8.82602 79.6724 8.50459L80.0602 10.4666ZM70.6507 12.7304C69.8739 12.9554 69.1072 13.1884 68.351 13.4297L67.7431 11.5243C68.5169 11.2774 69.3009 11.0392 70.0941 10.8094L70.6507 12.7304ZM68.351 13.4297C67.5522 13.6846 66.7559 13.9581 65.9624 14.2494L65.2732 12.3719C66.0928 12.071 66.9162 11.7882 67.7431 11.5243L68.351 13.4297ZM61.2792 16.1834C59.7537 16.8824 58.2412 17.6421 56.7437 18.4555L55.7891 16.698C57.3239 15.8643 58.8769 15.0842 60.4461 14.3652L61.2792 16.1834ZM52.3496 21.0179C50.9162 21.9106 49.4994 22.8479 48.1011 23.8233L46.9568 22.183C48.3819 21.1889 49.8278 20.2323 51.2924 19.3202L52.3496 21.0179ZM43.9894 26.8373C42.6414 27.873 41.3137 28.9394 40.0081 30.0303L38.7258 28.4955C40.0511 27.3881 41.4001 26.3046 42.7709 25.2514L43.9894 26.8373ZM36.1493 33.3787C34.8767 34.5238 33.6288 35.6871 32.4073 36.8617L31.021 35.4202C32.2575 34.2311 33.5216 33.0527 34.8115 31.892L36.1493 33.3787ZM28.7792 40.4596C27.5702 41.6947 26.392 42.9346 25.2467 44.1717L23.7791 42.8131C24.9363 41.563 26.1273 40.3096 27.3499 39.0606L28.7792 40.4596ZM21.8223 47.9689C20.6682 49.2819 19.5546 50.5827 18.484 51.8621L16.9501 50.5786C18.0306 49.2874 19.1548 47.9743 20.3201 46.6485L21.8223 47.9689ZM15.252 55.8167C14.138 57.212 13.0835 58.5667 12.0923 59.8669L10.5018 58.6545C11.5015 57.3429 12.5652 55.9764 13.689 54.5688L15.252 55.8167ZM9.02972 63.9787C7.92529 65.4966 6.93629 66.8953 6.0712 68.1442L4.42711 67.0054C5.30043 65.7446 6.2984 64.3332 7.41251 62.802L9.02972 63.9787ZM3.21974 72.3783C2.7699 73.0678 2.42714 73.6054 2.19742 73.9698C2.08255 74.1519 1.99596 74.2908 1.93835 74.3836C1.90956 74.43 1.88802 74.4649 1.87383 74.488C1.86671 74.4995 1.86145 74.5081 1.85805 74.5137C1.85634 74.5165 1.85509 74.5185 1.85431 74.5198C1.85391 74.5204 1.85364 74.5209 1.85349 74.5211C1.85339 74.5213 1.85335 74.5213 1.85333 74.5214C1.85332 74.5214 1.85332 74.5214 1.85332 74.5214C1.85332 74.5214 1.85333 74.5214 1.85333 74.5214C1.85333 74.5214 1.85335 74.5213 1 74C0.146652 73.4787 0.146667 73.4786 0.146683 73.4786C0.146683 73.4786 0.146713 73.4786 0.146729 73.4785C0.146759 73.4785 0.146805 73.4784 0.146851 73.4783C0.146942 73.4782 0.147064 73.478 0.147217 73.4777C0.147522 73.4772 0.147949 73.4765 0.148483 73.4757C0.149567 73.4739 0.151108 73.4714 0.153107 73.4681C0.15712 73.4616 0.162979 73.452 0.170685 73.4395C0.186081 73.4145 0.208847 73.3776 0.238892 73.3292C0.29895 73.2324 0.388107 73.0894 0.505615 72.9031C0.740601 72.5304 1.08896 71.984 1.54475 71.2854L3.21974 72.3783Z" fill="url(#paint0_linear)"/>
<defs>
<linearGradient id="paint0_linear" x1="165" y1="5.9746" x2="-0.599726" y2="69.8528" gradientUnits="userSpaceOnUse">
<stop stop-color="#FC3698"/>
<stop offset="0.826042" stop-color="#FC3698" stop-opacity="0.5"/>
<stop offset="1" stop-color="#FC3698" stop-opacity="0"/>
</linearGradient>
</defs>
</svg>
